<svg xmlns="http://www.w3.org/2000/svg" width="1924" height="13"><path fill-rule="evenodd" fill="#EDEDED" d="M1913.284 12.997c-8.06 0-14.349-2.595-20.432-5.105-6.057-2.499-11.777-4.86-19.191-4.86s-13.135 2.361-19.192 4.86c-6.082 2.51-12.371 5.105-20.432 5.105-8.06 0-14.349-2.595-20.432-5.105-6.057-2.499-11.777-4.86-19.191-4.86s-13.135 2.361-19.192 4.86c-6.082 2.51-12.372 5.105-20.431 5.105-8.061 0-14.35-2.595-20.433-5.105-6.057-2.499-11.778-4.86-19.191-4.86-7.414 0-13.135 2.361-19.191 4.86-3.113 1.285-6.279 2.591-9.709 3.561l.001.003c-2.654.75-5.222 1.221-7.779 1.424l-.014.001a37.97 37.97 0 0 1-.336.026l-.047.003a31.19 31.19 0 0 1-.305.019l-.064.004-.29.016a1.834 1.834 0 0 0-.074.004c-.094.004-.189.009-.284.012l-.077.004-.284.01-.078.002-.29.007-.072.002-.311.005h-.052l-.359.002h-.008l-.36-.002h-.052l-.311-.005-.072-.002-.29-.007-.077-.002-.285-.01-.076-.004-.286-.012-.072-.004a30.204 30.204 0 0 1-.662-.039l-.044-.003a36.329 36.329 0 0 1-.341-.026h-.008c-2.559-.204-5.127-.675-7.781-1.425l.001-.003c-3.43-.97-6.596-2.277-9.708-3.561-6.057-2.499-11.778-4.86-19.192-4.86-7.413 0-13.134 2.361-19.191 4.86-6.082 2.51-12.372 5.105-20.432 5.105-8.06 0-14.35-2.595-20.432-5.105-6.057-2.499-11.778-4.86-19.191-4.86-7.414 0-13.135 2.361-19.192 4.86-6.082 2.51-12.372 5.105-20.432 5.105-8.06 0-14.35-2.595-20.432-5.105-6.057-2.499-11.778-4.86-19.191-4.86-7.414 0-13.135 2.361-19.192 4.86-6.082 2.51-12.372 5.105-20.432 5.105l-.311-.001-.311.001c-8.06 0-14.35-2.595-20.432-5.105-6.057-2.499-11.778-4.86-19.192-4.86-7.413 0-13.134 2.361-19.191 4.86-6.082 2.51-12.372 5.105-20.432 5.105-8.06 0-14.35-2.595-20.432-5.105-6.057-2.499-11.778-4.86-19.191-4.86-7.414 0-13.135 2.361-19.192 4.86-6.082 2.51-12.372 5.105-20.432 5.105-8.06 0-14.35-2.595-20.432-5.105-6.057-2.499-11.778-4.86-19.191-4.86-7.414 0-13.135 2.361-19.192 4.86-3.112 1.285-6.279 2.591-9.709 3.561l.001.003c-2.653.75-5.221 1.221-7.779 1.424l-.013.001a37.97 37.97 0 0 1-.384.029l-.304.019a26.689 26.689 0 0 1-.355.02l-.073.004c-.095.004-.189.009-.284.012a2.036 2.036 0 0 1-.078.004l-.283.01-.078.002-.29.007-.072.002-.311.005h-.052l-.359.002H1199.448l-.359-.002h-.052l-.311-.005-.072-.002a27.397 27.397 0 0 1-.29-.007l-.077-.002-.285-.01a1.837 1.837 0 0 1-.076-.004c-.096-.003-.191-.008-.286-.012a1.736 1.736 0 0 0-.072-.004l-.292-.016-.062-.004-.308-.019-.044-.003a39.327 39.327 0 0 1-.342-.026h-.008c-2.558-.204-5.126-.675-7.78-1.425l.001-.003c-3.43-.97-6.596-2.277-9.709-3.561-6.056-2.499-11.777-4.86-19.191-4.86s-13.135 2.361-19.191 4.86c-6.083 2.51-12.372 5.105-20.432 5.105-8.061 0-14.35-2.595-20.433-5.105-6.056-2.499-11.777-4.86-19.191-4.86-7.413 0-13.134 2.361-19.191 4.86-6.083 2.51-12.372 5.105-20.432 5.105-8.06 0-14.35-2.595-20.432-5.105-6.057-2.499-11.778-4.86-19.192-4.86-7.413 0-13.134 2.361-19.191 4.86-2.956 1.22-5.961 2.46-9.194 3.412l.046.152c-3.669 1.037-7.174 1.541-10.716 1.541l-.284-.001-.284.001c-3.542 0-7.047-.504-10.716-1.541l.046-.152c-3.233-.952-6.238-2.192-9.194-3.412-6.057-2.499-11.777-4.86-19.191-4.86s-13.135 2.361-19.192 4.86c-6.082 2.51-12.371 5.105-20.432 5.105-8.06 0-14.349-2.595-20.432-5.105-6.057-2.499-11.778-4.86-19.191-4.86-7.414 0-13.135 2.361-19.192 4.86-6.082 2.51-12.372 5.105-20.431 5.105-8.061 0-14.35-2.595-20.433-5.105-6.057-2.499-11.778-4.86-19.191-4.86-7.414 0-13.135 2.361-19.191 4.86-3.113 1.285-6.279 2.591-9.709 3.561l.001.003c-2.654.75-5.222 1.221-7.78 1.424l-.011.001a41.621 41.621 0 0 1-.384.029l-.306.019a28.355 28.355 0 0 1-.427.024l-.285.012-.077.004-.284.01-.078.002-.29.007-.072.002-.311.005h-.052l-.359.002h-.008l-.36-.002h-.052l-.311-.005-.072-.002-.29-.007-.077-.002-.285-.01-.076-.004-.286-.012a1.736 1.736 0 0 0-.072-.004l-.292-.016a31.802 31.802 0 0 1-.37-.023l-.044-.003-.342-.026h-.007c-2.559-.204-5.127-.675-7.781-1.425l.001-.004c-3.43-.969-6.596-2.276-9.708-3.56-6.057-2.499-11.778-4.86-19.192-4.86s-13.134 2.361-19.191 4.86c-6.082 2.51-12.372 5.105-20.432 5.105-8.06 0-14.35-2.595-20.432-5.105-6.057-2.499-11.778-4.86-19.191-4.86-7.414 0-13.135 2.361-19.192 4.86-6.082 2.51-12.372 5.105-20.432 5.105-8.06 0-14.35-2.595-20.432-5.105-6.057-2.499-11.778-4.86-19.191-4.86-7.414 0-13.135 2.361-19.192 4.86-6.082 2.51-12.372 5.105-20.432 5.105l-.311-.001-.311.001c-8.06 0-14.35-2.595-20.432-5.105-6.057-2.499-11.778-4.86-19.191-4.86-7.414 0-13.135 2.361-19.192 4.86-6.082 2.51-12.372 5.105-20.432 5.105-8.06 0-14.35-2.595-20.432-5.105-6.057-2.499-11.778-4.86-19.191-4.86-7.414 0-13.135 2.361-19.192 4.86-6.082 2.51-12.372 5.105-20.432 5.105-8.06 0-14.35-2.595-20.432-5.105-6.057-2.499-11.778-4.86-19.191-4.86-7.414 0-13.135 2.361-19.192 4.86-3.112 1.285-6.278 2.591-9.709 3.561l.002.003c-2.654.75-5.222 1.221-7.78 1.424a38.646 38.646 0 0 1-.35.027l-.045.003a31.393 31.393 0 0 1-.734.043c-.094.004-.189.009-.284.012l-.077.004-.285.01-.077.002-.29.007-.072.002-.311.005h-.052l-.359.002H248.448l-.359-.002h-.052l-.311-.005-.072-.002a28.058 28.058 0 0 1-.29-.007l-.077-.002-.285-.01-.076-.004c-.096-.003-.191-.008-.286-.012a1.736 1.736 0 0 0-.072-.004l-.292-.016a31.802 31.802 0 0 1-.37-.023l-.044-.003a39.327 39.327 0 0 1-.342-.026h-.007c-2.559-.204-5.127-.675-7.781-1.425l.001-.004c-3.43-.969-6.596-2.276-9.708-3.56-6.057-2.499-11.778-4.86-19.192-4.86s-13.135 2.361-19.191 4.86c-6.082 2.51-12.372 5.105-20.432 5.105-8.061 0-14.35-2.595-20.432-5.105-6.057-2.499-11.778-4.86-19.192-4.86-7.413 0-13.134 2.361-19.191 4.86-6.082 2.51-12.372 5.105-20.432 5.105-8.06 0-14.35-2.595-20.432-5.105-6.057-2.499-11.778-4.86-19.192-4.86-7.413 0-13.134 2.361-19.191 4.86-6.082 2.51-12.372 5.105-20.432 5.105-3.542 0-7.047-.504-10.716-1.541l.887-2.914c3.376.953 6.591 1.417 9.829 1.417 7.414 0 13.135-2.36 19.191-4.859C35.99 2.59 42.28-.005 50.339-.005c8.06 0 14.35 2.595 20.432 5.105 6.057 2.499 11.778 4.859 19.192 4.859s13.134-2.36 19.191-4.859c6.083-2.51 12.372-5.105 20.432-5.105 8.06 0 14.35 2.595 20.432 5.105 6.057 2.499 11.778 4.859 19.192 4.859s13.135-2.36 19.191-4.859c6.083-2.51 12.372-5.105 20.432-5.105 8.06 0 14.35 2.595 20.432 5.105 3.115 1.285 6.141 2.533 9.354 3.443v-.001c2.947.832 5.77 1.291 8.593 1.394l.064.003.223.007.149.003.156.004.233.003.086.002.329.001.33-.001.086-.002.233-.003.157-.004.148-.003.225-.007.061-.002c2.823-.104 5.647-.563 8.594-1.395l.001.001c3.212-.91 6.238-2.158 9.353-3.443 6.082-2.51 12.372-5.105 20.432-5.105 8.06 0 14.349 2.595 20.432 5.105 6.057 2.499 11.778 4.859 19.191 4.859 7.414 0 13.135-2.36 19.192-4.859 6.082-2.51 12.372-5.105 20.432-5.105 8.06 0 14.349 2.595 20.432 5.105 6.056 2.499 11.777 4.859 19.191 4.859s13.135-2.36 19.192-4.859c6.082-2.51 12.371-5.105 20.432-5.105 8.06 0 14.349 2.595 20.432 5.105 3.302 1.362 6.504 2.683 9.935 3.603l.049-.161c3.269.923 6.386 1.387 9.518 1.416 3.132-.029 6.249-.493 9.518-1.416l.05.161c3.431-.92 6.633-2.241 9.935-3.603 6.082-2.51 12.372-5.105 20.432-5.105 8.06 0 14.349 2.595 20.432 5.105 6.057 2.499 11.777 4.859 19.191 4.859s13.135-2.36 19.192-4.859c6.082-2.51 12.372-5.105 20.432-5.105 8.06 0 14.349 2.595 20.432 5.105 6.056 2.499 11.777 4.859 19.191 4.859s13.135-2.36 19.192-4.859c6.082-2.51 12.371-5.105 20.431-5.105 8.061 0 14.35 2.595 20.432 5.105 3.115 1.285 6.141 2.533 9.354 3.443v-.001c2.947.832 5.77 1.291 8.593 1.394l.064.003.223.007.149.003.156.004.234.003.085.002.33.001.329-.001.086-.002.233-.003.157-.004.148-.003.225-.007.062-.002c2.822-.104 5.646-.563 8.593-1.395l.001.001c3.213-.91 6.238-2.158 9.353-3.443 6.082-2.51 12.372-5.105 20.432-5.105 8.06 0 14.35 2.595 20.432 5.105 6.057 2.499 11.778 4.859 19.192 4.859 7.413 0 13.134-2.36 19.191-4.859 6.082-2.51 12.372-5.105 20.432-5.105 8.06 0 14.349 2.595 20.432 5.105 6.056 2.499 11.777 4.859 19.191 4.859s13.135-2.36 19.192-4.859c6.082-2.51 12.371-5.105 20.432-5.105 8.06 0 14.349 2.595 20.432 5.105 5.979 2.467 11.631 4.798 18.907 4.858 7.276-.06 12.928-2.391 18.907-4.858 6.083-2.51 12.373-5.105 20.432-5.105 8.06 0 14.35 2.595 20.432 5.105 6.057 2.499 11.778 4.859 19.192 4.859 7.413 0 13.134-2.36 19.191-4.859 6.082-2.51 12.372-5.105 20.432-5.105 8.06 0 14.35 2.595 20.432 5.105 6.057 2.499 11.778 4.859 19.192 4.859s13.135-2.36 19.191-4.859c6.082-2.51 12.372-5.105 20.432-5.105 8.06 0 14.35 2.595 20.432 5.105 3.115 1.285 6.141 2.533 9.354 3.443v-.001c2.947.832 5.77 1.291 8.593 1.394l.064.003.223.007a367.764 367.764 0 0 0 .305.007l.233.003.086.002.329.001.33-.001.086-.002.233-.003.157-.004.147-.003.225-.007.062-.002c2.823-.104 5.647-.563 8.594-1.395v.001c3.213-.91 6.239-2.158 9.354-3.443 6.082-2.51 12.372-5.105 20.432-5.105 8.06 0 14.349 2.595 20.432 5.105 6.057 2.499 11.777 4.859 19.191 4.859s13.135-2.36 19.192-4.859c6.082-2.51 12.372-5.105 20.432-5.105 8.06 0 14.349 2.595 20.432 5.105 6.056 2.499 11.777 4.859 19.191 4.859s13.135-2.36 19.192-4.859c6.082-2.51 12.371-5.105 20.431-5.105 8.061 0 14.35 2.595 20.432 5.105 3.303 1.362 6.505 2.683 9.936 3.603l.049-.161c3.268.923 6.385 1.387 9.518 1.416 3.132-.029 6.249-.493 9.518-1.416l.05.161c3.431-.92 6.633-2.241 9.935-3.603 6.082-2.51 12.372-5.105 20.432-5.105 8.06 0 14.349 2.595 20.431 5.105 6.057 2.499 11.778 4.859 19.192 4.859s13.134-2.36 19.192-4.859c6.082-2.51 12.371-5.105 20.432-5.105 8.06 0 14.349 2.595 20.431 5.105 6.057 2.499 11.778 4.859 19.192 4.859s13.135-2.36 19.192-4.859c6.082-2.51 12.371-5.105 20.431-5.105 8.061 0 14.35 2.595 20.432 5.105 3.115 1.285 6.141 2.533 9.354 3.443v-.001c2.947.832 5.77 1.291 8.593 1.394l.064.003.223.007.149.003.156.004.234.003.085.002.33.001.329-.001.086-.002.233-.003.157-.004.148-.003.225-.007.062-.002c2.822-.104 5.646-.563 8.593-1.395l.001.001c3.212-.91 6.238-2.158 9.353-3.443 6.082-2.51 12.372-5.105 20.432-5.105 8.06 0 14.35 2.595 20.432 5.105 6.057 2.499 11.778 4.859 19.192 4.859 7.413 0 13.134-2.36 19.191-4.859 6.082-2.51 12.372-5.105 20.432-5.105 8.06 0 14.349 2.595 20.432 5.105 6.057 2.499 11.777 4.859 19.191 4.859s13.135-2.36 19.192-4.859c6.082-2.51 12.372-5.105 20.432-5.105 8.06 0 14.349 2.595 20.432 5.105 6.057 2.499 11.777 4.859 19.191 4.859 3.237 0 6.452-.464 9.83-1.417l.886 2.914c-3.669 1.037-7.174 1.541-10.716 1.541z"/></svg>