<svg xmlns="http://www.w3.org/2000/svg" width="6093" height="41"><path fill-rule="evenodd" fill="#E7FAF3" d="M6059.065 40.991c-25.526 0-45.443-8.185-64.706-16.1-19.18-7.881-37.297-15.326-60.776-15.326-23.478 0-41.595 7.444-60.776 15.326-19.261 7.915-39.179 16.1-64.705 16.1-25.525 0-45.443-8.185-64.705-16.1-19.181-7.882-37.298-15.326-60.775-15.326-23.479 0-41.596 7.445-60.777 15.326-19.262 7.915-39.18 16.1-64.704 16.1-25.526 0-45.444-8.185-64.706-16.1-19.181-7.882-37.298-15.326-60.776-15.326s-41.595 7.445-60.776 15.326c-9.856 4.05-19.884 8.17-30.747 11.229l.004.011c-11.619 3.27-22.72 4.86-33.936 4.86l-.013-.001-.013.001c-11.217 0-22.317-1.59-33.937-4.86l.004-.011c-10.862-3.059-20.89-7.179-30.746-11.229-19.181-7.881-37.297-15.326-60.776-15.326-23.478 0-41.595 7.444-60.776 15.326-19.261 7.915-39.179 16.1-64.705 16.1-25.526 0-45.443-8.185-64.705-16.1-19.181-7.882-37.298-15.326-60.775-15.326-23.479 0-41.596 7.445-60.777 15.326-19.262 7.915-39.18 16.1-64.705 16.1s-45.444-8.185-64.705-16.1c-19.181-7.882-37.299-15.326-60.776-15.326-23.478 0-41.595 7.445-60.776 15.326-19.263 7.915-39.181 16.1-64.705 16.1-.329 0-.657-.002-.986-.005-.328.003-.656.005-.985.005-25.525 0-45.443-8.185-64.705-16.1-19.181-7.881-37.298-15.326-60.776-15.326s-41.596 7.444-60.776 15.326c-19.261 7.915-39.179 16.1-64.706 16.1-25.525 0-45.442-8.185-64.705-16.1-19.18-7.882-37.297-15.326-60.775-15.326s-41.595 7.445-60.776 15.326c-19.262 7.915-39.18 16.1-64.705 16.1s-45.444-8.185-64.705-16.1c-19.182-7.882-37.299-15.326-60.776-15.326-23.478 0-41.595 7.445-60.776 15.326-9.856 4.05-19.884 8.17-30.747 11.229l.003.011c-11.619 3.27-22.72 4.86-33.935 4.86l-.013-.001-.013.001c-11.217 0-22.318-1.59-33.937-4.86l.004-.011c-10.863-3.059-20.89-7.179-30.746-11.229-19.181-7.881-37.298-15.326-60.776-15.326-23.479 0-41.596 7.444-60.776 15.326-19.262 7.915-39.179 16.1-64.705 16.1-25.526 0-45.443-8.185-64.706-16.1-19.18-7.882-37.298-15.326-60.775-15.326-23.478 0-41.595 7.445-60.777 15.326-19.261 7.915-39.18 16.1-64.704 16.1-25.526 0-45.444-8.185-64.705-16.1-19.182-7.882-37.299-15.326-60.776-15.326-23.479 0-41.596 7.445-60.777 15.326-9.361 3.847-18.877 7.757-29.116 10.76l.146.48c-11.619 3.27-22.72 4.86-33.935 4.86-.301 0-.601-.002-.9-.004-.299.002-.599.004-.9.004-11.216 0-22.317-1.59-33.936-4.86l.146-.48c-10.239-3.003-19.754-6.913-29.115-10.76-19.181-7.881-37.298-15.326-60.776-15.326-23.479 0-41.596 7.444-60.776 15.326-19.262 7.915-39.179 16.1-64.705 16.1-25.526 0-45.443-8.185-64.706-16.1-19.18-7.882-37.298-15.326-60.775-15.326-23.478 0-41.595 7.445-60.777 15.326-19.261 7.915-39.18 16.1-64.704 16.1-25.526 0-45.444-8.185-64.705-16.1-19.182-7.882-37.299-15.326-60.777-15.326s-41.595 7.445-60.776 15.326c-9.856 4.05-19.884 8.17-30.746 11.229l.003.011c-11.619 3.27-22.719 4.86-33.936 4.86l-.013-.001-.013.001c-11.216 0-22.317-1.59-33.936-4.86l.003-.011c-10.862-3.059-20.89-7.179-30.746-11.229-19.18-7.881-37.297-15.326-60.776-15.326-23.478 0-41.595 7.444-60.776 15.326-19.261 7.915-39.179 16.1-64.705 16.1-25.525 0-45.443-8.185-64.705-16.1-19.181-7.882-37.298-15.326-60.775-15.326-23.479 0-41.595 7.445-60.777 15.326-19.262 7.915-39.18 16.1-64.704 16.1-25.526 0-45.444-8.185-64.706-16.1-19.181-7.882-37.299-15.326-60.776-15.326-23.478 0-41.595 7.445-60.776 15.326-19.262 7.915-39.18 16.1-64.705 16.1-.329 0-.657-.002-.985-.005-.329.003-.657.005-.986.005-25.525 0-45.442-8.185-64.705-16.1-19.18-7.881-37.297-15.326-60.776-15.326-23.478 0-41.595 7.444-60.776 15.326-19.261 7.915-39.179 16.1-64.705 16.1-25.526 0-45.443-8.185-64.705-16.1-19.181-7.882-37.298-15.326-60.775-15.326-23.479 0-41.596 7.445-60.777 15.326-19.262 7.915-39.18 16.1-64.705 16.1s-45.444-8.185-64.705-16.1c-19.182-7.882-37.299-15.326-60.776-15.326-23.478 0-41.595 7.445-60.776 15.326-9.856 4.05-19.884 8.17-30.747 11.229l.003.011c-11.619 3.27-22.719 4.86-33.935 4.86l-.013-.001-.013.001c-11.217 0-22.318-1.59-33.937-4.86l.004-.011c-10.863-3.059-20.89-7.179-30.746-11.229-19.181-7.881-37.298-15.326-60.776-15.326-23.479 0-41.596 7.444-60.776 15.326-19.262 7.915-39.179 16.1-64.705 16.1-25.526 0-45.443-8.185-64.706-16.1-19.18-7.882-37.297-15.326-60.775-15.326s-41.595 7.445-60.777 15.326c-19.261 7.915-39.18 16.1-64.704 16.1-25.525 0-45.444-8.185-64.705-16.1-19.182-7.882-37.299-15.326-60.776-15.326-23.478 0-41.596 7.445-60.776 15.326-19.262 7.915-39.181 16.1-64.705 16.1-11.217 0-22.318-1.59-33.937-4.86l2.81-9.192c10.692 3.008 20.874 4.471 31.127 4.471 23.478 0 41.595-7.445 60.776-15.326 19.262-7.915 39.18-16.1 64.705-16.1 25.524 0 45.443 8.185 64.704 16.1 19.182 7.881 37.299 15.326 60.777 15.326 23.477 0 41.595-7.444 60.776-15.326 19.262-7.915 39.18-16.1 64.705-16.1s45.442 8.185 64.705 16.1c19.18 7.881 37.297 15.326 60.776 15.326 23.479 0 41.596-7.445 60.776-15.326 19.262-7.915 39.179-16.1 64.705-16.1 25.525 0 45.442 8.185 64.705 16.1 9.864 4.053 19.446 7.991 29.621 10.86l.002-.005c9.834 2.766 19.235 4.226 28.657 4.443l.142.003a1471.084 1471.084 0 0 0 .776.014l.408.005.097.001a93.307 93.307 0 0 0 2.12 0l.098-.001.406-.005.192-.003.286-.005.301-.006.137-.003c9.422-.217 18.824-1.677 28.662-4.443l.001.004c10.174-2.869 19.757-6.806 29.62-10.859 19.262-7.915 39.181-16.1 64.705-16.1s45.443 8.185 64.704 16.1c19.182 7.881 37.299 15.326 60.777 15.326s41.595-7.444 60.776-15.326c19.262-7.915 39.18-16.1 64.706-16.1 25.524 0 45.442 8.185 64.704 16.1 19.18 7.881 37.298 15.326 60.776 15.326 23.479 0 41.596-7.445 60.777-15.326 19.261-7.915 39.179-16.1 64.704-16.1 25.525 0 45.443 8.185 64.705 16.1 10.457 4.297 20.598 8.464 31.464 11.365l.156-.51c10.35 2.911 20.221 4.376 30.142 4.467 9.919-.091 19.79-1.556 30.142-4.467l.156.51c10.866-2.901 21.006-7.068 31.463-11.365 19.263-7.915 39.181-16.1 64.705-16.1 25.525 0 45.443 8.185 64.704 16.1 19.182 7.881 37.299 15.326 60.778 15.326 23.477 0 41.594-7.444 60.775-15.326 19.262-7.915 39.181-16.1 64.706-16.1 25.524 0 45.442 8.185 64.704 16.1 19.181 7.881 37.298 15.326 60.776 15.326 23.479 0 41.597-7.445 60.777-15.326 19.262-7.915 39.179-16.1 64.704-16.1 25.526 0 45.443 8.185 64.705 16.1 9.864 4.053 19.447 7.991 29.622 10.86l.001-.005c9.834 2.766 19.235 4.226 28.657 4.443a318.347 318.347 0 0 1 .729.014l.19.003.408.005.096.001a93.417 93.417 0 0 0 2.12 0l.098-.001.406-.005.192-.003.286-.005.302-.006.136-.003c9.423-.217 18.825-1.677 28.662-4.443l.002.004c10.174-2.869 19.756-6.806 29.619-10.859 19.263-7.915 39.181-16.1 64.705-16.1 25.525 0 45.443 8.185 64.705 16.1 19.181 7.881 37.299 15.326 60.777 15.326 23.477 0 41.594-7.444 60.776-15.326 19.261-7.915 39.18-16.1 64.705-16.1 25.524 0 45.442 8.185 64.704 16.1 19.181 7.881 37.298 15.326 60.777 15.326s41.596-7.445 60.776-15.326c19.262-7.915 39.179-16.1 64.705-16.1 25.525 0 45.442 8.185 64.705 16.1 18.935 7.78 36.833 15.135 59.876 15.322 23.043-.187 40.942-7.542 59.876-15.322 19.263-7.915 39.181-16.1 64.706-16.1 25.524 0 45.442 8.185 64.704 16.1 19.181 7.881 37.299 15.326 60.777 15.326 23.477 0 41.594-7.444 60.776-15.326 19.261-7.915 39.18-16.1 64.705-16.1 25.524 0 45.442 8.185 64.704 16.1 19.181 7.881 37.298 15.326 60.777 15.326s41.596-7.445 60.776-15.326c19.262-7.915 39.179-16.1 64.705-16.1 25.525 0 45.442 8.185 64.705 16.1 9.863 4.053 19.446 7.991 29.621 10.86l.001-.005c9.835 2.766 19.236 4.226 28.658 4.443l.142.003.297.006.29.005.189.003.408.005.097.001a93.307 93.307 0 0 0 2.119 0l.099-.001.406-.005.191-.003.287-.005.301-.006.137-.003c9.422-.217 18.824-1.677 28.661-4.443l.001.004c10.175-2.869 19.757-6.806 29.621-10.859 19.262-7.915 39.181-16.1 64.705-16.1s45.443 8.185 64.704 16.1c19.182 7.881 37.299 15.326 60.777 15.326 23.477 0 41.594-7.444 60.776-15.326 19.261-7.915 39.18-16.1 64.705-16.1s45.442 8.185 64.705 16.1c19.18 7.881 37.297 15.326 60.775 15.326 23.48 0 41.597-7.445 60.778-15.326 19.261-7.915 39.179-16.1 64.704-16.1 25.525 0 45.443 8.185 64.705 16.1 10.457 4.297 20.598 8.464 31.464 11.365l.156-.51c10.35 2.911 20.221 4.376 30.141 4.467 9.92-.091 19.791-1.556 30.143-4.467l.156.51c10.866-2.901 21.006-7.068 31.463-11.365 19.262-7.915 39.181-16.1 64.705-16.1s45.443 8.185 64.704 16.1c19.182 7.881 37.299 15.326 60.777 15.326s41.595-7.444 60.776-15.326c19.262-7.915 39.18-16.1 64.706-16.1 25.524 0 45.442 8.185 64.704 16.1 19.18 7.881 37.297 15.326 60.776 15.326 23.479 0 41.596-7.445 60.777-15.326 19.261-7.915 39.179-16.1 64.704-16.1 25.525 0 45.443 8.185 64.705 16.1 9.864 4.053 19.447 7.991 29.622 10.86l.001-.005c9.834 2.766 19.235 4.226 28.657 4.443l.142.003.298.006.289.005.189.003.409.005.096.001a93.417 93.417 0 0 0 2.12 0l.098-.001.406-.005.192-.003.286-.005.302-.006.136-.003c9.422-.217 18.825-1.677 28.662-4.443l.001.004c10.175-2.869 19.757-6.806 29.62-10.859 19.262-7.915 39.181-16.1 64.705-16.1 25.525 0 45.443 8.185 64.705 16.1 19.181 7.881 37.298 15.326 60.777 15.326 23.477 0 41.594-7.444 60.775-15.326 19.262-7.915 39.181-16.1 64.706-16.1 25.524 0 45.442 8.185 64.704 16.1 19.181 7.881 37.298 15.326 60.776 15.326 23.479 0 41.596-7.445 60.777-15.326 19.261-7.915 39.179-16.1 64.704-16.1 25.526 0 45.443 8.185 64.705 16.1 19.181 7.881 37.298 15.326 60.777 15.326 10.251 0 20.433-1.463 31.128-4.471l2.807 9.192c-11.619 3.27-22.72 4.86-33.935 4.86z"/></svg>