<svg 
 xmlns="http://www.w3.org/2000/svg"
 xmlns:xlink="http://www.w3.org/1999/xlink"
 width="36px" height="36px">
<path fill-rule="evenodd"  fill="rgb(255, 255, 255)"
 d="M31.332,4.744 C32.852,6.261 33.556,8.448 33.312,10.902 C33.053,13.512 31.773,16.083 29.707,18.143 C27.642,20.203 25.064,21.480 22.448,21.739 C22.129,21.770 21.814,21.786 21.504,21.786 C19.430,21.786 17.598,21.084 16.275,19.764 C14.755,18.247 14.052,16.060 14.295,13.606 C14.555,10.996 15.835,8.425 17.900,6.365 C19.965,4.305 22.543,3.028 25.159,2.769 C27.618,2.526 29.811,3.228 31.332,4.744 ZM24.573,6.416 L26.730,8.568 L28.887,6.416 L26.730,4.264 L24.573,6.416 ZM20.877,14.406 L23.034,12.254 L20.877,10.102 L18.720,12.254 L20.877,14.406 ZM17.950,13.022 L15.793,15.174 L17.950,17.326 L20.108,15.174 L17.950,13.022 ZM26.730,10.103 L24.573,12.254 L26.730,14.406 L28.887,12.254 L26.730,10.103 ZM29.656,11.487 L31.814,9.335 L29.657,7.183 L27.499,9.335 L29.656,11.487 ZM23.804,13.022 L21.646,15.174 L23.803,17.325 L25.961,15.173 L23.804,13.022 ZM23.804,11.487 L25.961,9.335 L23.803,7.183 L21.646,9.335 L23.804,11.487 ZM28.082,4.078 L29.657,5.648 L30.158,5.148 C29.559,4.660 28.858,4.301 28.082,4.078 ZM30.928,5.915 L30.426,6.416 L32.002,7.988 C31.779,7.213 31.417,6.513 30.928,5.915 ZM32.229,10.795 C32.241,10.672 32.251,10.549 32.258,10.427 L30.425,12.254 L31.585,13.411 C31.923,12.557 32.142,11.678 32.229,10.795 ZM31.102,14.463 L29.656,13.022 L27.499,15.173 L29.315,16.984 C30.033,16.203 30.634,15.354 31.102,14.463 ZM28.545,17.751 L26.730,15.941 L24.573,18.093 L26.018,19.534 C26.910,19.068 27.762,18.468 28.545,17.751 ZM22.341,20.659 C23.226,20.571 24.107,20.354 24.963,20.017 L23.803,18.860 L21.972,20.687 C22.094,20.680 22.217,20.671 22.341,20.659 ZM23.034,18.093 L20.877,15.941 L18.720,18.093 L20.877,20.245 L23.034,18.093 ZM19.526,20.432 L17.950,18.860 L17.449,19.361 C18.048,19.849 18.749,20.209 19.526,20.432 ZM16.679,18.593 L17.181,18.093 L15.605,16.521 C15.829,17.296 16.190,17.996 16.679,18.593 ZM15.378,13.713 C15.366,13.837 15.356,13.959 15.350,14.081 L17.181,12.254 L16.022,11.098 C15.684,11.951 15.466,12.830 15.378,13.713 ZM16.505,10.045 L17.951,11.487 L20.108,9.335 L18.293,7.524 C17.574,8.305 16.973,9.155 16.505,10.045 ZM19.062,6.757 L20.877,8.567 L23.034,6.416 L21.589,4.974 C20.696,5.441 19.845,6.040 19.062,6.757 ZM23.803,5.648 L25.635,3.821 C25.513,3.828 25.390,3.837 25.266,3.849 C24.381,3.937 23.499,4.155 22.644,4.492 L23.803,5.648 ZM35.939,11.162 C35.620,14.376 34.070,17.517 31.574,20.006 C29.079,22.495 25.930,24.042 22.709,24.360 C22.298,24.400 21.893,24.421 21.494,24.421 C18.914,24.421 16.587,23.581 14.805,21.998 L9.368,27.421 C9.856,27.923 9.853,28.727 9.355,29.223 L2.939,35.624 C2.678,35.885 2.323,36.020 1.949,35.997 C1.627,35.978 1.326,35.831 1.098,35.603 L0.376,34.883 C-0.126,34.382 -0.126,33.568 0.376,33.067 L0.993,32.451 C1.206,32.239 1.550,32.239 1.763,32.451 C1.975,32.663 1.975,33.007 1.763,33.219 L1.146,33.834 C1.068,33.912 1.068,34.038 1.146,34.116 L1.888,34.856 C1.939,34.907 1.998,34.914 2.029,34.914 C2.060,34.914 2.119,34.907 2.170,34.856 L8.586,28.456 C8.664,28.378 8.664,28.252 8.586,28.175 L7.844,27.434 C7.793,27.384 7.733,27.376 7.703,27.376 C7.672,27.376 7.612,27.384 7.562,27.434 L3.451,31.535 C3.238,31.747 2.894,31.747 2.681,31.535 C2.469,31.323 2.469,30.980 2.681,30.768 L6.792,26.667 C7.036,26.424 7.359,26.291 7.703,26.291 C8.040,26.291 8.357,26.420 8.599,26.654 L14.035,21.231 C12.203,19.178 11.365,16.400 11.668,13.347 C11.987,10.133 13.537,6.992 16.033,4.503 C16.706,3.831 17.433,3.223 18.202,2.688 C18.452,2.514 18.798,2.586 18.963,2.841 C19.122,3.086 19.060,3.414 18.821,3.581 C18.106,4.078 17.429,4.645 16.802,5.270 C14.484,7.582 13.045,10.489 12.751,13.453 C12.460,16.378 13.322,19.008 15.178,20.859 C19.038,24.710 26.049,23.983 30.805,19.238 C35.562,14.494 36.290,7.501 32.430,3.650 C30.980,2.204 29.046,1.357 26.838,1.200 C24.806,1.057 22.689,1.500 20.682,2.484 C20.422,2.612 20.106,2.507 19.969,2.252 L19.968,2.250 C19.823,1.982 19.927,1.645 20.201,1.511 C22.380,0.441 24.691,-0.040 26.914,0.118 C29.388,0.293 31.561,1.249 33.199,2.882 C35.289,4.967 36.262,7.908 35.939,11.162 ZM10.450,8.254 L9.218,8.254 L2.235,10.643 C2.177,10.663 2.117,10.673 2.058,10.673 C1.946,10.673 1.835,10.638 1.742,10.572 C1.599,10.470 1.514,10.306 1.514,10.130 L1.514,0.543 C1.514,0.368 1.599,0.203 1.742,0.102 C1.885,-0.000 2.069,-0.027 2.235,0.030 L9.218,2.420 L10.450,2.420 C12.062,2.420 13.374,3.728 13.374,5.337 C13.374,6.945 12.062,8.254 10.450,8.254 ZM8.583,3.350 L2.602,1.303 L2.602,4.794 L8.583,4.794 L8.583,3.350 ZM8.583,5.879 L2.602,5.879 L2.602,9.370 L8.583,7.324 L8.583,5.879 ZM10.450,3.505 L9.671,3.505 L9.671,7.169 L10.450,7.169 C11.462,7.169 12.286,6.347 12.286,5.337 C12.286,4.327 11.462,3.505 10.450,3.505 Z"/>
</svg>