<svg 
 xmlns="http://www.w3.org/2000/svg"
 xmlns:xlink="http://www.w3.org/1999/xlink"
 width="37px" height="36px">
<path fill-rule="evenodd"  opacity="0.8" fill="rgb(247, 241, 235)"
 d="M18.366,0.068 C8.444,0.068 0.400,8.096 0.400,17.999 C0.400,27.903 8.444,35.931 18.366,35.931 C28.289,35.931 36.333,27.903 36.333,17.999 C36.333,8.096 28.289,0.068 18.366,0.068 ZM24.576,18.950 L15.593,24.554 C15.411,24.667 15.204,24.724 14.998,24.724 C14.811,24.724 14.623,24.677 14.453,24.583 C14.096,24.386 13.875,24.011 13.875,23.603 L13.875,12.396 C13.875,11.988 14.096,11.613 14.453,11.416 C14.810,11.217 15.247,11.229 15.593,11.445 L24.576,17.049 C24.904,17.254 25.104,17.613 25.104,17.999 C25.104,18.386 24.904,18.745 24.576,18.950 Z"/>
</svg>