<svg xmlns="http://www.w3.org/2000/svg" width="57" height="57"><path fill-rule="evenodd" fill="#5393DD" d="M56.485 50.269l-9.768-9.767a1.75 1.75 0 0 0-1.509-.494l-3.52-3.519a71.853 71.853 0 0 0-.543-3.796c5.757-1.074 10.319-5.775 11.045-11.766a.835.835 0 0 0-1.658-.201 11.91 11.91 0 0 1-2.993 6.566 11.877 11.877 0 0 1-3.082-8.024c0-3.002 1.089-5.821 3.082-8.026a11.915 11.915 0 0 1 2.993 6.567.835.835 0 0 0 1.658-.2C51.361 10.768 45.533 5.61 38.632 5.61c-2.648 0-5.122.758-7.218 2.068a21.373 21.373 0 0 0-.712-.789l-.006-.007c-.13-.137-.261-.274-.395-.408l-.045-.046-.019-.019C26.772 2.953 22.364.731 17.82.151 13.254-.431 8.933.682 5.65 3.287a.836.836 0 0 0 1.038 1.308c6.158-4.886 15.782-3.59 22.386 3.013l.009.009.033.035c.124.124.246.25.365.376l.006.006c.191.201.379.408.563.618-.287.232-.564.474-.831.728a.783.783 0 0 0-.143.14c-.14.137-.277.277-.411.42a19.759 19.759 0 0 0-.926-.994l-.001-.001-.001-.002a19.07 19.07 0 0 0-5.35-3.78.747.747 0 0 0-.107-.051c-2.961-1.369-6.107-1.845-8.976-1.384a.75.75 0 0 0-.154.025c-2.358.408-4.522 1.454-6.233 3.165-.001.001-.002.003-.004.003v.001l-.001.001c-1.698 1.7-2.741 3.846-3.154 6.186a.835.835 0 0 0-.042.262c-.444 2.851.036 5.971 1.394 8.909a19.084 19.084 0 0 0 3.833 5.459c3.024 3.024 6.84 4.911 10.744 5.314.519.054 1.033.08 1.538.08a13.709 13.709 0 0 0 2.268-.188c2.425-.411 4.579-1.49 6.267-3.176l.001-.001.003-.003.063-.066c.485.411.999.787 1.539 1.128-.088.093-.176.184-.266.274-1.524 1.525-3.369 2.624-5.484 3.27a.834.834 0 1 0 .026 1.605l.133.036.208.057a83.907 83.907 0 0 0 9.484 1.901.836.836 0 0 0 .706-.237l1.56-1.56a.834.834 0 0 0 .237-.706 79.896 79.896 0 0 0-.405-2.584 13.458 13.458 0 0 0 1.92.015c.294 1.742.46 3.051.531 3.665l-3.453 3.453c-2.475-.289-16.203-2.116-25.171-7.928l-.012-.007a21.319 21.319 0 0 1-3.773-3.006C.988 22.457-.298 12.821 4.614 6.663a.835.835 0 1 0-1.305-1.041C.691 8.903-.432 13.229.147 17.802c.577 4.559 2.807 8.982 6.279 12.454a22.934 22.934 0 0 0 4.064 3.237c5.33 3.453 12.198 5.505 17.022 6.62 4.456 1.029 7.954 1.462 8.976 1.576l3.521 3.521c-.08.533.083 1.097.493 1.507l9.767 9.768a1.75 1.75 0 0 0 1.245.515c.47 0 .912-.183 1.244-.515l3.727-3.727a1.762 1.762 0 0 0 0-2.489zM23.589 31.227l-4.072-4.071 3.225-3.224 5.22 5.22c-1.238 1.035-2.725 1.737-4.373 2.075zm-12.861-4.093l3.203-3.202 3.225 3.224-2.627 2.627a17.412 17.412 0 0 1-3.801-2.649zM6.9 22.152l2.626-2.626 3.224 3.225-3.203 3.203A17.473 17.473 0 0 1 6.9 22.152zm-1.681-6.933l3.126 3.127-2.171 2.17c-.669-1.764-.992-3.568-.955-5.297zM7.53 8.721l5.22 5.219-3.224 3.225-4.071-4.071c.334-1.618 1.022-3.113 2.075-4.373zm5.55-3.262l4.076 4.076-3.225 3.224-5.221-5.22c1.26-1.055 2.753-1.744 4.37-2.08zm12.873 4.09l-3.211 3.21-3.225-3.224 2.633-2.633a17.42 17.42 0 0 1 3.803 2.647zm-4.392 4.391l-3.225 3.225-3.224-3.225 3.224-3.224 3.225 3.224zm4.733 11.182l-2.371-2.371 1.237-1.237c.211 1.27.597 2.481 1.134 3.608zm-1.319-5.785l-2.233 2.233-3.225-3.224 3.225-3.225 2.35 2.35a13.836 13.836 0 0 0-.118 1.797l.001.069zm-7.819-.991l-3.225 3.224-3.225-3.224 3.225-3.225 3.225 3.225zm-2.044 4.405l3.224-3.225 3.225 3.225-3.225 3.225-3.224-3.225zm14.619 4.538a11.94 11.94 0 0 1-3.087-8.021 11.94 11.94 0 0 1 3.087-8.022 11.879 11.879 0 0 1 3.079 8.022c0 3-1.088 5.817-3.079 8.021zm-4.233-11.773l-1.575-1.576 3.21-3.209c.153.169.305.34.452.514a13.64 13.64 0 0 0-2.087 4.271zm-4.983-9.34l-2.179 2.178-3.133-3.134c1.732-.038 3.543.285 5.312.956zm-.657 25.216a14.734 14.734 0 0 1-3.693-.883l2.171-2.172 3.124 3.124c-.523.01-1.058-.013-1.602-.069zm16.4 3.895l-.971.97a83.392 83.392 0 0 1-6.733-1.272 14.54 14.54 0 0 0 4.321-3.334c.932.434 1.92.767 2.95.983.162.9.308 1.789.433 2.653zm-5.325-6.838a13.529 13.529 0 0 0 3.547-9.181 13.53 13.53 0 0 0-3.547-9.182 11.935 11.935 0 0 1 7.699-2.806c2.914 0 5.609 1.048 7.704 2.803a13.532 13.532 0 0 0-3.549 9.185c0 3.439 1.254 6.666 3.549 9.183a11.965 11.965 0 0 1-7.704 2.804 11.935 11.935 0 0 1-7.699-2.806zm9.956 9.602l2.895 2.895-2.838 2.839-2.895-2.895 2.838-2.839zm14.415 13.526l-3.727 3.727a.09.09 0 0 1-.127 0l-9.767-9.767a.091.091 0 0 1 0-.128l3.726-3.726a.084.084 0 0 1 .063-.026c.025 0 .047.008.064.026l9.768 9.767a.09.09 0 0 1 0 .127z"/></svg>