<svg xmlns="http://www.w3.org/2000/svg" width="66" height="56"><path fill-rule="evenodd" fill="#5393DD" d="M64.862 44.571c-1.689 0-2.491.46-3.419.993-1.056.606-2.254 1.293-4.548 1.293-2.293 0-3.491-.687-4.547-1.293-.928-.533-1.729-.993-3.419-.993-1.689 0-2.49.46-3.418.993-1.056.606-2.254 1.293-4.547 1.293-2.294 0-3.491-.687-4.547-1.293-.928-.533-1.729-.993-3.419-.993-1.689 0-2.49.46-3.418.993-1.056.606-2.253 1.293-4.547 1.293-2.293 0-3.49-.687-4.547-1.293-.927-.533-1.729-.993-3.418-.993s-2.49.46-3.418.993c-1.056.606-2.253 1.293-4.547 1.293-2.293 0-3.491-.687-4.547-1.293-.928-.533-1.729-.993-3.418-.993A1.14 1.14 0 0 1 0 43.429a1.14 1.14 0 0 1 1.138-1.143c2.293 0 3.491.687 4.547 1.293.928.532 1.729.992 3.418.992s2.49-.46 3.418-.992c.339-.194.693-.397 1.091-.582V13.743C13.612 6.165 19.751 0 27.296 0c.314 0 .632.011.945.032a1.142 1.142 0 0 1 1.058 1.218 1.14 1.14 0 0 1-1.213 1.063 11.537 11.537 0 0 0-.79-.027c-6.29 0-11.408 5.139-11.408 11.457v2.2h10.27v-2.2C26.158 6.165 32.297 0 39.842 0c7.545 0 13.683 6.165 13.683 13.743a1.14 1.14 0 0 1-1.138 1.143 1.14 1.14 0 0 1-1.137-1.143c0-6.318-5.118-11.457-11.408-11.457-1.405 0-2.75.258-3.994.726 3.241 2.594 5.132 6.494 5.132 10.731 0 .631-.51 1.143-1.138 1.143a1.14 1.14 0 0 1-1.138-1.143c0-3.888-1.91-7.436-5.129-9.567a11.467 11.467 0 0 0-5.141 9.567v26.343a1.14 1.14 0 0 1-1.138 1.142 1.14 1.14 0 0 1-1.138-1.142V36.6h-10.27v5.753a9.919 9.919 0 0 1 1.18-.067c2.294 0 3.491.687 4.548 1.293.927.532 1.728.992 3.417.992 1.69 0 2.491-.46 3.418-.992 1.057-.606 2.254-1.293 4.548-1.293 2.293 0 3.49.687 4.547 1.293.928.532 1.729.992 3.418.992s2.49-.459 3.418-.992c1.056-.606 2.254-1.293 4.547-1.293 2.294 0 3.491.687 4.548 1.293.928.532 1.729.992 3.419.992 1.689 0 2.49-.459 3.418-.992 1.057-.606 2.254-1.293 4.548-1.293A1.14 1.14 0 0 1 66 43.429a1.14 1.14 0 0 1-1.138 1.142zM26.158 18.229h-10.27v6.899h10.27v-6.899zm0 16.085v-6.9h-10.27v6.9h10.27zM9.103 49.143c1.689 0 2.49-.46 3.418-.993 1.056-.606 2.254-1.293 4.547-1.293 2.294 0 3.491.687 4.548 1.293.927.533 1.728.993 3.417.993 1.69 0 2.491-.46 3.418-.993 1.057-.606 2.254-1.293 4.548-1.293 2.293 0 3.49.687 4.547 1.293.928.533 1.729.993 3.418.993s2.49-.46 3.418-.993c1.056-.606 2.254-1.293 4.547-1.293 2.294 0 3.491.687 4.548 1.293.928.533 1.729.993 3.419.993a1.14 1.14 0 0 1 1.137 1.143 1.14 1.14 0 0 1-1.138 1.142c-2.293 0-3.491-.687-4.547-1.293-.928-.532-1.729-.992-3.419-.992-1.689 0-2.49.46-3.418.992-1.056.606-2.254 1.293-4.547 1.293-2.294 0-3.491-.687-4.547-1.293-.928-.532-1.729-.992-3.419-.992-1.689 0-2.49.46-3.418.992-1.056.606-2.253 1.293-4.547 1.293-2.293 0-3.49-.687-4.547-1.293-.927-.532-1.729-.992-3.418-.992s-2.49.46-3.418.992c-1.056.606-2.253 1.293-4.547 1.293a1.14 1.14 0 0 1-1.138-1.142c0-.631.51-1.143 1.138-1.143zm7.965 2.285c2.294 0 3.491.688 4.548 1.294.927.532 1.728.992 3.417.992 1.69 0 2.491-.46 3.418-.992 1.057-.606 2.254-1.294 4.548-1.294 2.293 0 3.49.688 4.547 1.294.928.532 1.729.992 3.418.992s2.49-.459 3.418-.992c1.056-.606 2.254-1.294 4.547-1.294a1.14 1.14 0 0 1 1.138 1.143 1.14 1.14 0 0 1-1.138 1.143c-1.689 0-2.49.46-3.418.992-1.056.607-2.254 1.294-4.547 1.294-2.294 0-3.491-.687-4.547-1.294-.928-.532-1.729-.992-3.419-.992-1.689 0-2.49.46-3.418.992-1.056.607-2.253 1.294-4.547 1.294-2.293 0-3.49-.687-4.547-1.294-.927-.532-1.729-.992-3.418-.992a1.14 1.14 0 0 1-1.138-1.143c0-.631.51-1.143 1.138-1.143z"/></svg>