<svg 
 xmlns="http://www.w3.org/2000/svg"
 xmlns:xlink="http://www.w3.org/1999/xlink"
 width="41px" height="30px">
<path fill-rule="evenodd"  fill="rgb(255, 255, 255)"
 d="M39.827,7.756 L37.337,5.284 L38.511,4.119 L41.000,6.591 L39.827,7.756 ZM34.016,1.989 L35.189,0.824 L37.678,3.295 L36.505,4.460 L34.016,1.989 ZM37.336,10.226 L31.528,4.460 L32.702,3.295 L38.509,9.061 L37.336,10.226 ZM31.528,9.405 L29.039,6.934 L30.212,5.769 L32.702,8.240 L31.528,9.405 ZM30.456,15.412 C30.456,20.863 25.990,25.298 20.500,25.298 C15.182,25.298 10.836,21.133 10.569,15.917 C10.552,15.750 10.543,15.582 10.543,15.412 C10.543,9.960 15.010,5.525 20.500,5.525 C25.818,5.525 30.163,9.691 30.431,14.907 C30.448,15.073 30.456,15.241 30.456,15.412 ZM20.500,7.173 C15.925,7.173 12.203,10.869 12.203,15.412 C12.203,17.229 13.691,18.707 15.522,18.707 C17.197,18.707 18.681,17.709 19.302,16.166 L20.156,14.046 C21.032,11.873 23.121,10.469 25.478,10.469 C26.162,10.469 26.813,10.606 27.406,10.855 C25.918,8.638 23.379,7.173 20.500,7.173 ZM25.478,12.116 C23.803,12.116 22.319,13.114 21.698,14.658 L20.843,16.778 C19.968,18.950 17.879,20.355 15.522,20.355 C14.838,20.355 14.187,20.217 13.593,19.968 C15.082,22.185 17.621,23.650 20.500,23.650 C25.075,23.650 28.797,19.954 28.797,15.412 C28.797,13.594 27.308,12.116 25.478,12.116 ZM4.978,11.534 L11.616,4.943 L12.789,6.108 L6.152,12.699 L4.978,11.534 ZM2.490,9.062 L9.127,2.472 L10.301,3.637 L3.663,10.228 L2.490,9.062 ZM-0.000,6.591 L6.637,-0.000 L7.811,1.165 L1.173,7.756 L-0.000,6.591 ZM6.981,28.835 L5.808,30.000 L0.000,24.233 L1.174,23.068 L6.981,28.835 ZM6.982,23.892 L9.471,26.364 L8.298,27.529 L5.808,25.057 L6.982,23.892 ZM2.488,21.762 L3.661,20.596 L6.151,23.068 L4.977,24.233 L2.488,21.762 ZM6.152,18.129 L11.959,23.895 L10.786,25.060 L4.978,19.294 L6.152,18.129 ZM32.703,22.585 L30.213,25.056 L29.040,23.891 L31.529,21.419 L32.703,22.585 ZM35.192,25.056 L32.702,27.528 L31.529,26.363 L34.018,23.891 L35.192,25.056 ZM37.681,27.528 L35.192,30.000 L34.018,28.835 L36.507,26.363 L37.681,27.528 ZM38.511,21.760 L36.021,24.232 L34.848,23.067 L37.337,20.595 L38.511,21.760 ZM32.359,10.230 L33.532,9.065 L36.021,11.537 L34.848,12.702 L32.359,10.230 ZM33.533,21.761 L32.359,20.596 L34.849,18.124 L36.022,19.290 L33.533,21.761 ZM39.826,23.068 L41.000,24.233 L38.510,26.705 L37.337,25.540 L39.826,23.068 Z"/>
</svg>