<svg xmlns="http://www.w3.org/2000/svg" width="57" height="57"><path fill-rule="evenodd" fill="#5393DD" d="M55.1 3.804v-1.9h-1.9v1.9h-1.9v-1.9h1.9v-1.9h1.9v1.9H57v1.9h-1.9zm0 1.9h-1.9v-1.9h1.9v1.9zm-3.8 17.098h-1.9v-1.9h1.9v1.9zm-1.9 1.899h-1.9v-1.899h1.9v1.899zm-3.8-1.899v-1.9h1.9v1.9h-1.9zm1.9-3.8h1.9v1.9h-1.9v-1.9zm0-17.098h1.9v1.9h-1.9v-1.9zm.95 40.845a2.843 2.843 0 0 1 .96 5.522 3.75 3.75 0 0 1-2.323 6.202l-18.458 2.516a1.005 1.005 0 0 1-.257 0L9.914 54.473a3.749 3.749 0 0 1-2.323-6.202 2.843 2.843 0 0 1 .959-5.522h2.298l3.402-5.952V26.601a3.8 3.8 0 0 1 3.8-3.799V10.453h.007c0-.012-.007-.024-.007-.036C18.24 5.369 21.968.004 28.5.004c.233-.008.465-.008.698 0 5.579.193 9.945 4.871 9.752 10.449v12.349a3.8 3.8 0 0 1 3.8 3.799v10.196l3.402 5.952h2.298zm-1.62 9.84a1.88 1.88 0 0 0 1.602-2.119 1.874 1.874 0 0 0-2.116-1.596l-6.755.921-8.333 1.14 4.967 3.104 10.635-1.45zm-27.41-4.434l9.08 1.235 9.08-1.239-3.817-4.452H23.237l-3.817 4.456zm2.343-5.651l-.38-1.509-5.952 6.613 1.753.238 4.579-5.342zm18.058 5.342l1.756-.238-5.952-6.613-.38 1.509 4.576 5.342zm-29.65 4.743l18.329 2.5 4.753-.649-5.085-3.178-10.735-1.464-6.756-.921a1.872 1.872 0 0 0-.506 3.712zm7.171-27.751a1.9 1.9 0 0 0-1.192 1.763V37.05a.955.955 0 0 1-.125.475l-3.8 6.649a.951.951 0 0 1-.825.475H8.55a.95.95 0 1 0 0 1.9h5.277l6.999-7.776-1.741-6.967-1.743-6.968zM30.4 23.751v-4.068a7.3 7.3 0 0 1-1.9.269 7.393 7.393 0 0 1-1.9-.263v4.062a.95.95 0 0 1-.95.95h-1.9v1.215L28.5 27.5l4.75-1.584v-1.215h-1.9a.95.95 0 0 1-.95-.95zm5.164-11.398h-.414a6.662 6.662 0 0 1-6.372-4.763 17.205 17.205 0 0 1-7.695 3.546c.785 3.719 4.118 6.916 7.417 6.916 2.865 0 5.877-2.512 7.064-5.699zM24.7 22.802v-3.875a11.18 11.18 0 0 1-4.75-5.198v9.073h4.75zM37.05 9.695a8.18 8.18 0 0 0-8.55-7.791 8.525 8.525 0 0 0-8.444 7.488 15.33 15.33 0 0 0 8.723-4.36.948.948 0 0 1 1.621.672 4.755 4.755 0 0 0 4.75 4.749h1.9a7.985 7.985 0 0 0 0-.758zm0 4.031a11.263 11.263 0 0 1-4.75 5.195v3.881h4.75v-9.076zm-1.9 10.975v1.9a.95.95 0 0 1-.649.902l-5.7 1.899a.937.937 0 0 1-.601 0l-5.7-1.899v-.001a.95.95 0 0 1-.65-.901v-1.9h-2.583l4.275 17.098h9.916l4.275-17.098H35.15zm9.626 19.473l-3.8-6.649a.956.956 0 0 1-.126-.475V26.601a1.899 1.899 0 0 0-1.193-1.764l-1.742 6.968-1.742 6.967 7 7.777h5.277a.95.95 0 0 0 0-1.9H45.6a.95.95 0 0 1-.824-.475zM13.301.004h1.9v1.9h-1.9v-1.9zm-4.75 21.848v-1.9h1.9v1.9h-1.9zm1.9-3.8h1.9v1.9h-1.9v-1.9zm-1.9-1.9h1.9v1.9h-1.9v-1.9zm-1.902 1.9h1.9v1.9h-1.9v-1.9zM3.799 5.704h1.9v1.899h-1.9V5.704zM1.9 7.603h1.899v1.9h-1.9v-1.9H0V5.704h1.899v-1.9h1.9v1.9H1.9v1.899zm2.849 12.349h-1.9v-1.9h1.9v1.9z"/></svg>