<svg xmlns="http://www.w3.org/2000/svg" width="190" height="57"><path fill-rule="evenodd" fill="#5393DD" d="M154.068 29.252l9.426-23.674h14.122l12.393 31.127c-10.61-2.996-21.117-6.039-35.941-7.453zm17.525-8.911c-.446-1.467-.839-3.113-1.038-4.669-.199 1.556-.591 3.202-1.038 4.669l-1.531 4.803h5.087l-1.48-4.803zm-9.076 35.814h-4.519l-2.129-6.99-2.315 6.99h-1.195l-2.129-3.648 3.324-7.802h4.519l4.444 11.45zm-2.241-11.45h4.145l1.641 4.443 1.011-4.443h3.883v3.371l-3.921 8.079h-4.518l1.606-3.268-3.847-8.182zm-8.497 11.45h-4.895l-2.214-3.845h-.469v3.845h-4.46v-11.45h4.46v3.843h.603l2.08-3.843h4.895l-3.47 5.741 3.47 5.709zm-14.201-29.9h-6.913v2.243c-4.204.09-8.698.291-13.522.616V5.578h13.522v10.45h6.913V5.578H151.1v23.418a193.895 193.895 0 0 0-13.522-.551v-2.19zm-39.137-10.45l-4.419 15.558c-4.128.508-8.43 1.081-12.963 1.742L91.721 5.578h13.283l9.903 23.698c-3.712.274-7.594.613-11.709 1.04l-4.757-14.511zm-61.233 20.1c-4.009-3.783-6.035-8.958-6.035-14.764C31.173 9.275 39.579.002 56.258.002c16.678 0 25.15 9.273 25.15 21.139 0 4.705-1.354 8.989-4.002 12.463-16.119 2.163-29.4 2.701-40.198 2.301zm32.051-14.829c-.156-1.901-.391-4.418-4.805-7.288-4.414-2.871-5.704-4.011-5.274-5.152.43-1.14 2.071-2.853 2.852-3.058.781-.205.508-1.031-.625-.952-1.133.078-5.078-.63-8.516 4.443 0 0-13.595-.944-9.766 9.556 0 0 .312.314-.235.628-.547.315-2.188 1.967-1.719 2.675.469.708 1.954 1.611 4.102-.394 0 0 .508-.039.313.315-.196.354-1.055 1.101-.742 1.494.312.393.585.393 1.367 0 .781-.393 5-3.933 6.68-3.461 1.68.472 3.945 2.871 4.336 3.461.391.59 2.031 1.416 1.992.826-.039-.59-2.422-4.444-.742-4.797 1.68-.355 7.305.55 7.462 4.01.156 3.46-4.845 1.652-4.845 1.652s-3.554-.865-3.047 2.241c0 0 .235-1.061 1.485-.275 1.25.786 3.36 1.848 5.039.59 0 0-1.406.983-.82 2.005.586 1.023 1.719 1.691 1.289 3.461 0 0 1.172.471 1.836-1.495.664-1.966 0-3.893-.547-4.797 0 0-.117-.354.313-.747.429-.393 2.773-3.04 2.617-4.941zM25.51 35.039C12.403 33.533 4.313 30.637-.003 28.604V5.578h17.089c7.297 0 11.331 2.4 11.331 7.87 0 3.024-.952 5.292-4.397 6.671 3.989 1.2 5.666 3.868 5.666 7.559 0 3.718-1.614 6.012-4.176 7.361zM14.435 13.06h-2.719v3.776h2.719c1.317 0 1.81-.988 1.81-1.888 0-.899-.493-1.888-1.81-1.888zm1.206 10.912h-3.925v4.778h3.925c1.733 0 2.345-1.168 2.345-2.389 0-1.22-.612-2.389-2.345-2.389zm1.608 20.733l2.593 7.054v4.396h-2.895l-.385-1.309h-3.421l-.386 1.309h-4.51l4.209-11.45h4.795zm-1.543 7.196l-.502-1.766a11.675 11.675 0 0 1-.353-1.718 11.672 11.672 0 0 1-.351 1.718l-.52 1.766h1.726zm8.995-3.353h.605l2.078-3.843h4.897l-3.471 5.741 3.471 5.709h-4.897l-2.213-3.845h-.47v3.845h-4.459v-11.45h4.459v3.843zm13.901-3.843c2.699 0 4.191.883 4.191 2.894 0 1.113-.351 1.946-1.626 2.455 1.475.44 2.096 1.423 2.096 2.779 0 2.603-2.146 3.322-4.796 3.322h-6.186v-11.45h6.321zm-1.862 8.342h1.291c.571 0 .772-.361.772-.737s-.201-.736-.772-.736H36.74v1.473zm0-3.893h1.107c.537 0 .738-.361.738-.687 0-.328-.201-.688-.738-.688H36.74v1.375zm7.089 3.74c0-.724-.06-1.297-.431-1.793l2.351-6.396h4.795l4.208 11.45h-4.51l-.386-1.309h-3.42l-.386 1.309h-4.51l.031-.085c1.525-.427 2.258-1.411 2.258-3.176zm5.172-.993l-.503-1.766a11.674 11.674 0 0 1-.352-1.718 11.546 11.546 0 0 1-.352 1.718l-.52 1.766h1.727zm19.974-6.544v-1.504h3.957v1.504c2.192.185 3.818.98 4.726 2.274v5.596c-.908 1.294-2.534 2.088-4.726 2.274v1.506h-3.957v-1.506c-3.487-.295-5.549-2.127-5.549-5.071 0-2.946 2.062-4.778 5.549-5.073zm3.873 6.758c.99-.164 1.275-.916 1.275-1.685s-.285-1.523-1.275-1.685v3.37zm-3.788 0v-3.37c-.99.162-1.275.916-1.275 1.685s.285 1.521 1.275 1.685zm13.642-4.957c0 .605 0 1.194-.118 1.996l3.488-4.449h3.537v11.45H85.15v-2.454c0-.606 0-1.194.117-1.996l-3.487 4.45h-3.538v-11.45h4.46v2.453zm16.911 1.309h-2.525v7.688h-4.46v-7.688h-2.313v-3.762h9.298v3.762zm5.464.081h2.281v-3.843h4.46v11.45h-4.46V52.31h-2.281v3.845h-4.46v-11.45h4.46v3.843zm16.716-.483l-4.852-.09v.982h4.863v2.912h-4.863v.981h4.863v3.305h-9.322v-11.45l9.311.09v3.27zm6.845-3.848c3.076 0 5.606 2.272 6.074 5.236h-4.562c-.326-.509-.866-.865-1.512-.865-1.011 0-1.83.824-1.83 1.842 0 1.017.819 1.842 1.83 1.842.884 0 1.586-.644 1.758-1.482h4.378c-.189 3.26-2.85 5.853-6.136 5.853-3.409 0-6.172-2.782-6.172-6.213s2.763-6.213 6.172-6.213zm52.957 3.758h-5.098v.885h1.542c2.214 0 4.545.604 4.545 3.647 0 3.043-2.331 3.648-4.545 3.648h-6.001v-11.45h9.557v3.27zm-5.098 5.334h.705c.619 0 1.022-.181 1.022-.802s-.403-.802-1.022-.802h-.705v1.604z"/></svg>