<svg 
 xmlns="http://www.w3.org/2000/svg"
 xmlns:xlink="http://www.w3.org/1999/xlink"
 width="26px" height="26px">
<path fill-rule="evenodd"  fill="rgb(13, 27, 39)"
 d="M25.778,19.747 L17.144,25.373 C17.125,25.386 17.105,25.397 17.084,25.406 C16.238,25.798 15.317,26.000 14.386,25.999 C13.946,26.000 13.507,25.954 13.077,25.863 C13.066,25.861 13.056,25.859 13.045,25.856 L7.091,24.172 C6.663,24.050 6.205,24.100 5.814,24.313 L4.817,24.851 L4.806,25.256 C4.799,25.520 4.584,25.731 4.322,25.731 L4.309,25.731 L0.470,25.624 C0.203,25.617 -0.008,25.393 -0.000,25.123 L0.232,16.637 C0.239,16.368 0.461,16.155 0.729,16.163 L4.567,16.269 C4.834,16.277 5.045,16.501 5.038,16.770 L5.015,17.583 C6.837,16.622 9.011,16.619 10.835,17.577 L11.191,17.763 C11.684,18.019 12.228,18.161 12.782,18.177 L16.282,18.274 C17.388,18.306 18.392,18.930 18.915,19.911 L22.707,18.106 C23.874,17.515 25.295,17.951 25.936,19.097 C26.062,19.322 25.993,19.607 25.778,19.747 ZM1.186,17.151 L0.981,24.663 L3.851,24.742 L4.057,17.231 L1.186,17.151 ZM23.138,18.979 L23.126,18.985 L19.238,20.836 C19.275,21.045 19.291,21.257 19.285,21.469 C19.277,21.733 19.063,21.943 18.801,21.943 L18.787,21.943 L13.033,21.784 C12.766,21.776 12.555,21.552 12.563,21.283 C12.570,21.013 12.792,20.801 13.060,20.809 L18.274,20.953 C18.074,19.983 17.239,19.277 16.256,19.249 L12.755,19.152 C12.055,19.131 11.368,18.953 10.746,18.629 L10.390,18.443 C8.670,17.540 6.599,17.651 4.984,18.733 L4.848,23.728 L5.357,23.453 C5.969,23.122 6.684,23.042 7.352,23.233 L13.291,24.912 C14.422,25.145 15.596,25.013 16.648,24.535 L24.810,19.215 C24.357,18.792 23.689,18.698 23.138,18.979 ZM23.749,11.261 L23.750,11.276 C23.814,12.407 23.185,13.466 22.148,13.974 L22.140,13.978 C21.773,14.154 21.472,14.445 21.283,14.807 L21.280,14.813 C20.756,15.817 19.674,16.425 18.524,16.364 L18.506,16.363 C18.088,16.339 17.673,16.448 17.320,16.674 C16.344,17.288 15.106,17.288 14.130,16.674 C13.776,16.448 13.362,16.339 12.944,16.363 L12.926,16.364 C11.774,16.425 10.693,15.817 10.170,14.815 L10.166,14.807 C9.977,14.446 9.677,14.155 9.312,13.979 L9.301,13.974 C8.264,13.466 7.636,12.407 7.699,11.277 L7.701,11.260 C7.722,10.862 7.612,10.468 7.388,10.139 C6.743,9.191 6.743,7.941 7.388,6.993 C7.612,6.665 7.722,6.271 7.701,5.873 L7.700,5.857 C7.636,4.726 8.264,3.668 9.301,3.160 L9.311,3.155 C9.677,2.979 9.977,2.688 10.167,2.326 L10.171,2.318 C10.693,1.316 11.775,0.708 12.926,0.769 L12.943,0.770 C13.361,0.794 13.776,0.685 14.130,0.460 C15.105,-0.155 16.344,-0.155 17.320,0.460 L17.320,0.460 C17.673,0.686 18.088,0.794 18.506,0.771 L18.524,0.770 C19.674,0.709 20.756,1.316 21.279,2.319 L21.285,2.330 C21.474,2.690 21.773,2.979 22.138,3.155 L22.147,3.159 C23.185,3.668 23.814,4.726 23.750,5.857 L23.749,5.874 C23.728,6.272 23.838,6.666 24.061,6.994 C24.706,7.942 24.706,9.192 24.061,10.140 C23.837,10.468 23.728,10.862 23.749,11.261 ZM23.265,7.548 C22.919,7.041 22.749,6.433 22.782,5.819 L22.783,5.801 C22.825,5.065 22.410,4.372 21.725,4.037 L21.717,4.033 C21.165,3.767 20.713,3.328 20.427,2.783 L20.421,2.771 C20.075,2.106 19.351,1.703 18.575,1.744 L18.558,1.745 C17.940,1.779 17.326,1.619 16.804,1.285 C16.144,0.869 15.306,0.869 14.646,1.285 C14.123,1.619 13.509,1.780 12.891,1.745 L12.874,1.744 C12.102,1.702 11.375,2.106 11.027,2.773 L11.023,2.782 C10.737,3.328 10.285,3.767 9.732,4.034 L9.723,4.038 C9.050,4.356 8.632,5.052 8.666,5.801 L8.667,5.818 C8.700,6.432 8.531,7.040 8.185,7.547 L8.185,7.548 C7.767,8.161 7.767,8.971 8.184,9.585 C8.530,10.092 8.700,10.700 8.667,11.315 L8.666,11.332 C8.624,12.068 9.039,12.761 9.724,13.096 L9.733,13.101 C10.285,13.367 10.737,13.805 11.022,14.351 L11.027,14.360 C11.391,15.036 12.112,15.438 12.874,15.390 L12.891,15.389 C12.946,15.386 13.001,15.384 13.056,15.384 C13.619,15.384 14.170,15.545 14.646,15.848 C15.306,16.264 16.144,16.264 16.803,15.848 C17.326,15.515 17.940,15.354 18.558,15.389 L18.575,15.390 C19.348,15.431 20.075,15.027 20.422,14.361 L20.426,14.354 C20.711,13.807 21.164,13.367 21.718,13.100 L21.725,13.096 C22.410,12.761 22.825,12.069 22.783,11.332 L22.782,11.316 C22.749,10.701 22.919,10.093 23.264,9.586 C23.682,8.972 23.683,8.162 23.265,7.548 ZM18.334,13.455 C17.155,13.455 16.196,12.353 16.196,10.999 C16.196,9.645 17.155,8.543 18.334,8.543 C19.513,8.543 20.472,9.645 20.472,10.999 C20.472,12.353 19.513,13.455 18.334,13.455 ZM18.334,9.519 C17.689,9.519 17.165,10.183 17.165,10.999 C17.165,11.815 17.689,12.480 18.334,12.480 C18.979,12.480 19.504,11.815 19.504,10.999 C19.504,10.182 18.979,9.519 18.334,9.519 ZM13.268,13.453 C13.127,13.681 12.828,13.751 12.601,13.608 C12.375,13.466 12.305,13.165 12.447,12.936 L18.181,3.681 C18.272,3.532 18.435,3.443 18.609,3.448 C18.783,3.454 18.941,3.553 19.022,3.708 C19.104,3.863 19.096,4.050 19.002,4.198 L13.268,13.453 ZM13.115,8.591 C11.937,8.591 10.978,7.489 10.978,6.135 C10.978,4.781 11.937,3.679 13.115,3.679 C14.294,3.679 15.253,4.781 15.253,6.135 C15.253,7.489 14.294,8.591 13.115,8.591 ZM13.115,4.655 C12.470,4.655 11.946,5.319 11.946,6.135 C11.946,6.951 12.470,7.615 13.115,7.615 C13.760,7.615 14.285,6.951 14.285,6.135 C14.285,5.319 13.760,4.655 13.115,4.655 Z"/>
</svg>