<svg 
 xmlns="http://www.w3.org/2000/svg"
 xmlns:xlink="http://www.w3.org/1999/xlink"
 width="24px" height="21px">
<path fill-rule="evenodd"  fill="rgb(25, 39, 50)"
 d="M23.273,8.209 C23.149,8.316 23.009,8.436 22.859,8.584 C22.640,8.800 22.432,8.996 22.230,9.186 C21.145,10.208 20.428,10.883 20.428,12.425 C20.428,13.803 21.412,14.690 22.453,15.629 C22.870,16.006 23.302,16.395 23.660,16.816 C23.975,17.187 24.051,17.671 23.857,18.080 C23.659,18.498 23.229,18.747 22.707,18.747 C22.238,18.747 21.651,18.221 20.733,17.249 C20.626,17.136 20.536,17.041 20.471,16.976 C19.745,16.261 19.111,15.672 18.552,15.153 C15.933,12.720 15.050,11.900 15.943,8.124 L16.055,7.650 L16.465,7.921 C16.750,8.109 16.968,8.325 17.178,8.534 C17.592,8.947 17.919,9.272 18.658,9.272 C19.479,9.272 20.336,8.334 21.092,7.507 C21.838,6.691 22.482,5.985 23.184,5.985 C23.535,5.985 24.002,6.512 24.002,6.909 C24.002,7.580 23.664,7.872 23.273,8.209 ZM23.128,6.662 C22.730,6.718 22.156,7.348 21.599,7.957 C20.748,8.889 19.783,9.945 18.658,9.945 C17.635,9.945 17.134,9.447 16.693,9.007 C16.624,8.939 16.557,8.872 16.489,8.807 C15.877,11.744 16.563,12.381 19.020,14.664 C19.583,15.186 20.221,15.779 20.954,16.501 C21.023,16.569 21.119,16.671 21.232,16.790 C21.526,17.101 22.420,18.048 22.710,18.075 C22.961,18.075 23.155,17.973 23.239,17.795 C23.320,17.623 23.282,17.419 23.137,17.248 C22.808,16.861 22.412,16.504 21.992,16.125 C20.888,15.129 19.746,14.099 19.746,12.425 C19.746,10.595 20.634,9.759 21.759,8.700 C21.958,8.513 22.163,8.319 22.377,8.109 C22.543,7.945 22.692,7.817 22.823,7.703 C23.184,7.392 23.319,7.275 23.319,6.909 C23.310,6.851 23.202,6.720 23.128,6.662 ZM18.669,5.519 C19.099,5.519 19.497,5.656 19.789,5.905 C20.026,6.107 20.309,6.480 20.309,7.112 C20.309,7.795 20.029,8.204 19.795,8.427 C19.495,8.711 19.088,8.868 18.647,8.868 C17.794,8.868 16.887,8.252 16.887,7.112 C16.887,6.077 17.805,5.519 18.669,5.519 ZM18.647,8.196 C18.910,8.196 19.149,8.105 19.321,7.942 C19.521,7.753 19.627,7.466 19.627,7.112 C19.627,6.809 19.531,6.574 19.343,6.414 C19.175,6.271 18.935,6.192 18.669,6.192 C18.136,6.192 17.569,6.514 17.569,7.112 C17.569,7.823 18.112,8.196 18.647,8.196 ZM18.154,4.887 C17.904,5.134 17.654,5.369 17.412,5.596 C16.207,6.730 15.166,7.710 14.964,9.315 C14.791,10.690 14.860,11.518 15.239,12.598 C15.634,13.722 16.922,14.941 18.058,16.016 C18.324,16.267 18.575,16.504 18.809,16.736 C18.940,16.864 19.087,17.000 19.244,17.145 C19.943,17.790 20.666,18.458 20.666,19.116 C20.666,20.229 20.002,20.978 19.015,20.978 C18.106,20.978 17.565,20.396 17.089,19.883 C16.983,19.769 16.883,19.661 16.778,19.559 L12.521,15.324 C12.326,15.164 12.210,15.114 12.019,15.110 C11.490,15.327 8.903,17.951 7.922,18.946 C7.635,19.237 7.402,19.473 7.255,19.618 C7.217,19.656 7.167,19.710 7.108,19.776 C6.721,20.202 6.000,20.996 5.128,21.000 C5.126,21.000 5.124,21.000 5.122,21.000 C4.694,21.000 4.301,20.810 3.955,20.436 C2.722,19.102 3.966,17.965 4.710,17.285 C4.828,17.176 4.943,17.072 5.046,16.970 L6.892,15.151 C8.466,13.601 9.264,12.052 9.264,10.547 C9.264,9.302 8.339,7.163 7.782,6.578 C7.584,6.371 7.203,6.012 6.761,5.596 C4.421,3.395 3.308,2.240 3.308,1.627 C3.308,0.859 3.942,0.234 4.721,0.234 C5.336,0.234 6.347,1.168 7.997,2.892 C8.182,3.085 8.342,3.253 8.447,3.355 C8.578,3.485 8.720,3.630 8.869,3.784 C9.497,4.430 10.278,5.234 10.963,5.496 C12.291,6.005 13.142,5.657 14.165,4.884 C14.576,4.573 15.343,3.793 16.155,2.966 C18.203,0.883 18.914,0.234 19.372,0.234 C20.161,0.234 20.693,0.657 20.831,1.395 C20.994,2.262 19.871,3.296 18.785,4.295 C18.555,4.507 18.337,4.707 18.154,4.887 ZM19.390,0.907 C19.017,1.021 17.592,2.472 16.646,3.434 C15.815,4.279 15.031,5.077 14.580,5.418 C13.428,6.288 12.330,6.741 10.716,6.123 C9.890,5.807 9.051,4.943 8.376,4.250 C8.230,4.099 8.092,3.957 7.964,3.831 C7.853,3.721 7.697,3.559 7.500,3.353 C6.926,2.753 5.179,0.928 4.720,0.907 C4.319,0.907 3.992,1.228 3.990,1.623 C4.053,2.119 6.280,4.214 7.232,5.110 C7.699,5.550 8.069,5.898 8.279,6.117 C8.922,6.792 9.946,9.093 9.946,10.547 C9.946,12.236 9.081,13.945 7.375,15.626 L5.528,17.446 C5.418,17.554 5.300,17.663 5.174,17.778 C4.246,18.627 3.734,19.199 4.459,19.983 C4.674,20.215 4.891,20.327 5.122,20.327 C5.123,20.327 5.124,20.327 5.125,20.327 C5.693,20.325 6.283,19.676 6.600,19.327 C6.669,19.251 6.728,19.187 6.773,19.142 C6.918,18.999 7.148,18.766 7.432,18.478 C10.820,15.041 11.601,14.437 11.987,14.437 C12.420,14.437 12.694,14.589 12.971,14.818 L12.994,14.839 L17.262,19.084 C17.376,19.196 17.486,19.315 17.592,19.429 C18.029,19.899 18.406,20.305 19.015,20.305 C19.729,20.305 19.984,19.691 19.984,19.116 C19.984,18.749 19.286,18.106 18.777,17.635 C18.617,17.487 18.465,17.347 18.327,17.211 C18.097,16.985 17.848,16.749 17.585,16.501 C16.393,15.373 15.042,14.095 14.594,12.817 C14.182,11.642 14.101,10.704 14.287,9.232 C14.519,7.389 15.695,6.282 16.941,5.110 C17.180,4.885 17.427,4.653 17.672,4.412 C17.862,4.224 18.085,4.019 18.320,3.803 C19.044,3.137 20.255,2.023 20.160,1.517 C20.082,1.100 19.844,0.912 19.390,0.907 ZM12.016,5.129 C12.015,5.129 12.014,5.129 12.012,5.129 C10.763,5.128 9.502,4.298 9.502,2.449 C9.502,1.144 10.719,-0.000 12.106,-0.000 C12.745,-0.000 13.371,0.271 13.870,0.763 C14.382,1.269 14.687,1.943 14.685,2.566 C14.680,4.232 13.307,5.129 12.016,5.129 ZM13.386,1.238 C13.017,0.873 12.562,0.672 12.106,0.672 C11.082,0.672 10.184,1.502 10.184,2.449 C10.184,3.929 11.170,4.456 12.013,4.457 C12.014,4.457 12.015,4.457 12.016,4.457 C12.977,4.457 13.999,3.794 14.003,2.565 C14.004,2.123 13.768,1.615 13.386,1.238 ZM5.436,8.974 C4.333,8.974 3.738,8.052 3.738,7.185 C3.738,6.769 3.875,6.384 4.123,6.102 C4.323,5.874 4.693,5.602 5.317,5.602 C6.035,5.602 6.458,5.874 6.687,6.102 C6.978,6.393 7.139,6.794 7.139,7.229 C7.139,8.087 6.502,8.974 5.436,8.974 ZM6.201,6.574 C6.004,6.378 5.698,6.274 5.317,6.274 C5.023,6.274 4.795,6.364 4.639,6.542 C4.498,6.702 4.420,6.931 4.420,7.185 C4.420,7.726 4.776,8.301 5.436,8.301 C6.099,8.301 6.457,7.749 6.457,7.229 C6.457,6.972 6.366,6.739 6.201,6.574 ZM5.436,9.389 C6.009,9.389 6.428,8.996 6.833,8.615 C7.125,8.339 7.401,8.079 7.730,7.992 L8.124,7.889 L8.158,8.289 C8.174,8.478 8.218,8.703 8.269,8.963 C8.448,9.882 8.694,11.141 7.998,12.460 C7.553,13.304 6.283,14.550 5.576,15.088 C5.046,15.492 4.401,16.158 3.833,16.746 C3.590,16.997 3.360,17.235 3.146,17.446 C3.082,17.509 2.990,17.604 2.883,17.714 C2.438,18.175 2.081,18.537 1.877,18.662 C1.685,18.779 1.473,18.839 1.262,18.839 C1.077,18.839 0.892,18.793 0.723,18.700 C0.334,18.487 0.092,18.062 0.092,17.590 C0.092,17.119 0.720,16.450 1.879,15.381 C2.009,15.261 2.117,15.161 2.187,15.092 C3.521,13.779 3.546,13.753 3.546,11.839 C3.546,10.810 2.326,9.686 1.250,8.693 C0.990,8.453 0.745,8.227 0.515,8.002 C-0.068,7.431 -0.051,6.977 0.066,6.698 C0.229,6.310 0.660,6.103 0.909,6.103 C1.710,6.103 2.390,6.874 3.111,7.690 C3.848,8.526 4.611,9.389 5.436,9.389 ZM2.596,8.131 C2.013,7.471 1.410,6.788 0.923,6.775 C0.871,6.789 0.726,6.861 0.692,6.969 C0.653,7.092 0.767,7.300 0.996,7.525 C1.219,7.743 1.460,7.966 1.716,8.202 C2.894,9.288 4.228,10.519 4.228,11.839 C4.228,13.971 4.097,14.162 2.670,15.568 C2.596,15.640 2.483,15.745 2.346,15.872 C1.968,16.220 0.821,17.278 0.774,17.597 C0.774,17.821 0.879,18.016 1.054,18.112 C1.138,18.159 1.310,18.217 1.516,18.091 C1.663,18.001 2.136,17.512 2.390,17.250 C2.500,17.136 2.597,17.036 2.663,16.970 C2.871,16.766 3.098,16.530 3.339,16.282 C3.924,15.677 4.587,14.991 5.159,14.556 C5.904,13.989 7.042,12.814 7.393,12.149 C7.979,11.039 7.768,9.958 7.599,9.090 C7.584,9.015 7.570,8.941 7.556,8.869 C7.475,8.939 7.391,9.019 7.304,9.101 C6.849,9.529 6.283,10.062 5.436,10.062 C4.300,10.062 3.395,9.036 2.596,8.131 Z"/>
</svg>