<svg 
 xmlns="http://www.w3.org/2000/svg"
 xmlns:xlink="http://www.w3.org/1999/xlink"
 width="24px" height="15px">
<path fill-rule="evenodd"  fill="rgb(15, 15, 15)"
 d="M23.631,5.451 C23.382,5.156 23.031,4.987 22.668,4.987 L22.123,4.987 L22.123,4.553 C22.123,3.773 21.436,3.138 20.592,3.138 L19.873,3.138 L19.873,2.336 C19.873,1.959 19.710,1.591 19.426,1.326 C18.862,0.799 17.886,0.799 17.321,1.326 C17.037,1.591 16.874,1.959 16.874,2.336 L16.874,6.097 L7.124,6.097 L7.124,2.336 C7.124,1.959 6.962,1.591 6.677,1.326 C6.113,0.800 5.137,0.800 4.572,1.326 C4.288,1.591 4.125,1.959 4.125,2.336 L4.125,3.138 L3.318,3.138 C2.939,3.138 2.581,3.273 2.309,3.518 C2.033,3.768 1.875,4.117 1.875,4.474 L1.875,4.987 L1.335,4.987 C0.970,4.987 0.618,5.157 0.368,5.453 C0.131,5.735 -0.000,6.104 -0.000,6.494 L-0.000,8.660 C-0.000,9.049 0.131,9.419 0.368,9.700 C0.618,9.996 0.971,10.166 1.335,10.166 L1.875,10.166 L1.875,10.679 C1.875,11.037 2.033,11.385 2.309,11.636 C2.581,11.880 2.939,12.016 3.318,12.016 L4.125,12.016 L4.125,12.817 C4.125,13.194 4.288,13.562 4.572,13.827 C4.854,14.090 5.228,14.235 5.625,14.235 C6.021,14.235 6.395,14.090 6.677,13.827 C6.962,13.562 7.124,13.194 7.124,12.817 L7.124,9.056 L16.874,9.056 L16.874,12.817 C16.874,13.194 17.037,13.562 17.321,13.827 C17.603,14.090 17.977,14.235 18.374,14.235 C18.770,14.235 19.144,14.090 19.426,13.827 C19.710,13.562 19.873,13.194 19.873,12.817 L19.873,12.016 L20.592,12.016 C21.436,12.016 22.123,11.381 22.123,10.600 L22.123,10.166 L22.668,10.166 C23.031,10.166 23.382,9.996 23.632,9.702 C23.868,9.422 23.998,9.054 23.998,8.666 L23.998,6.488 C23.998,6.100 23.868,5.732 23.631,5.451 ZM1.335,9.426 C1.192,9.426 1.053,9.355 0.944,9.226 C0.821,9.080 0.750,8.874 0.750,8.660 L0.750,6.494 C0.750,6.280 0.821,6.073 0.944,5.927 C1.053,5.798 1.192,5.727 1.335,5.727 L1.875,5.727 L1.875,9.426 L1.335,9.426 L1.335,9.426 ZM3.318,11.276 C3.130,11.276 2.946,11.208 2.816,11.090 C2.693,10.978 2.625,10.832 2.625,10.679 L2.625,9.796 L2.625,5.357 L2.625,4.474 C2.625,4.321 2.693,4.175 2.816,4.063 C2.947,3.945 3.130,3.878 3.318,3.878 L4.125,3.878 L4.125,11.276 L3.318,11.276 L3.318,11.276 ZM6.374,12.817 C6.374,12.994 6.299,13.162 6.163,13.289 C5.881,13.551 5.368,13.551 5.087,13.289 C4.950,13.162 4.875,12.994 4.875,12.817 L4.875,11.646 L4.875,3.508 L4.875,2.336 C4.875,2.159 4.950,1.991 5.086,1.864 C5.227,1.733 5.423,1.658 5.625,1.658 C5.826,1.658 6.022,1.733 6.163,1.864 C6.299,1.991 6.374,2.159 6.374,2.336 L6.374,6.467 L6.374,8.687 L6.374,12.817 ZM7.124,8.316 L7.124,6.837 L16.874,6.837 L16.874,8.316 L7.124,8.316 ZM19.124,12.817 C19.124,12.994 19.048,13.162 18.912,13.289 C18.630,13.551 18.117,13.551 17.836,13.289 C17.699,13.162 17.624,12.994 17.624,12.817 L17.624,8.686 L17.624,6.467 L17.624,2.336 C17.624,2.159 17.699,1.992 17.835,1.865 C17.976,1.734 18.172,1.658 18.374,1.658 C18.575,1.658 18.771,1.734 18.912,1.865 C19.048,1.991 19.124,2.159 19.124,2.336 L19.124,3.508 L19.124,11.646 L19.124,12.817 ZM21.373,10.600 C21.373,10.973 21.023,11.276 20.592,11.276 L19.873,11.276 L19.873,3.878 L20.592,3.878 C21.023,3.878 21.373,4.180 21.373,4.553 L21.373,5.357 L21.373,9.796 L21.373,10.600 ZM23.248,8.666 C23.248,8.878 23.178,9.082 23.055,9.228 C22.947,9.356 22.810,9.426 22.668,9.426 L22.123,9.426 L22.123,5.727 L22.668,5.727 C22.810,5.727 22.947,5.797 23.055,5.925 C23.178,6.070 23.248,6.275 23.248,6.488 L23.248,8.666 Z"/>
</svg>