<svg 
 xmlns="http://www.w3.org/2000/svg"
 xmlns:xlink="http://www.w3.org/1999/xlink"
 width="30px" height="14px">
<path fill-rule="evenodd"  fill="rgb(0, 0, 0)"
 d="M27.991,11.950 C26.695,13.272 24.973,14.000 23.141,14.000 C21.309,14.000 19.586,13.272 18.291,11.950 L15.000,8.591 L11.709,11.950 C10.414,13.272 8.691,14.000 6.859,14.000 C5.027,14.000 3.304,13.272 2.009,11.950 C0.713,10.628 -0.000,8.870 -0.000,7.000 C-0.000,5.130 0.713,3.372 2.009,2.050 C3.304,0.728 5.027,-0.000 6.859,-0.000 C8.691,-0.000 10.414,0.728 11.709,2.050 L15.000,5.408 L18.291,2.050 C19.586,0.728 21.309,-0.000 23.141,-0.000 C24.973,-0.000 26.696,0.728 27.991,2.050 C29.286,3.372 30.000,5.130 30.000,7.000 C30.000,8.870 29.286,10.628 27.991,11.950 ZM27.795,7.000 C27.795,5.731 27.311,4.538 26.432,3.641 C25.553,2.744 24.384,2.250 23.141,2.250 C21.898,2.250 20.729,2.744 19.850,3.641 L16.559,7.000 L19.850,10.358 C20.729,11.255 21.898,11.749 23.141,11.749 C24.384,11.749 25.553,11.255 26.432,10.358 C27.311,9.461 27.795,8.268 27.795,7.000 ZM6.859,2.250 C5.616,2.250 4.447,2.744 3.568,3.641 C2.689,4.538 2.205,5.731 2.205,7.000 C2.205,8.269 2.689,9.461 3.568,10.358 C4.447,11.255 5.616,11.749 6.859,11.749 C8.102,11.749 9.271,11.255 10.150,10.358 L13.441,7.000 L10.150,3.641 C9.271,2.744 8.102,2.250 6.859,2.250 Z"/>
</svg>