<svg 
 xmlns="http://www.w3.org/2000/svg"
 xmlns:xlink="http://www.w3.org/1999/xlink"
 width="6px" height="16px">
<path fill-rule="evenodd"  fill="rgb(0, 0, 0)"
 d="M5.960,8.176 C5.881,9.030 4.686,9.039 4.766,8.176 C4.837,7.409 4.800,6.226 4.393,5.450 C4.383,6.419 4.416,7.390 4.418,8.360 C4.430,8.421 4.438,8.484 4.438,8.553 C4.438,10.788 4.441,13.022 4.523,15.255 C4.560,16.247 3.194,16.244 3.158,15.255 C3.094,13.505 3.079,11.754 3.075,10.003 C3.010,10.007 2.945,10.007 2.881,10.002 C2.877,11.754 2.861,13.505 2.797,15.255 C2.761,16.244 1.395,16.247 1.432,15.255 C1.513,13.022 1.517,10.788 1.517,8.553 C1.517,8.538 1.520,8.525 1.521,8.510 C1.520,8.478 1.517,8.447 1.517,8.414 C1.517,7.475 1.517,6.536 1.517,5.597 C1.177,6.370 1.149,7.456 1.215,8.177 C1.295,9.040 0.100,9.031 0.021,8.177 C-0.161,6.201 0.484,3.609 2.470,3.347 C2.762,3.269 3.086,3.266 3.384,3.334 C5.470,3.501 6.146,6.159 5.960,8.176 ZM2.968,2.692 C2.308,2.692 1.773,2.089 1.773,1.346 C1.773,0.602 2.308,-0.001 2.968,-0.001 C3.627,-0.001 4.162,0.602 4.162,1.346 C4.162,2.089 3.627,2.692 2.968,2.692 Z"/>
</svg>