<svg 
 xmlns="http://www.w3.org/2000/svg"
 xmlns:xlink="http://www.w3.org/1999/xlink"
 width="13px" height="16px">
<path fill-rule="evenodd"  fill="rgb(0, 0, 0)"
 d="M12.960,8.176 C12.881,9.030 11.686,9.039 11.766,8.176 C11.837,7.409 11.800,6.225 11.393,5.450 C11.383,6.419 11.416,7.390 11.418,8.360 C11.430,8.421 11.438,8.484 11.438,8.553 C11.438,10.788 11.441,13.022 11.523,15.255 C11.560,16.247 10.194,16.243 10.158,15.255 C10.094,13.505 10.079,11.754 10.075,10.003 C10.010,10.007 9.945,10.007 9.881,10.003 C9.877,11.754 9.861,13.505 9.797,15.255 C9.761,16.243 8.395,16.247 8.431,15.255 C8.513,13.022 8.517,10.788 8.517,8.553 C8.517,8.538 8.520,8.525 8.521,8.510 C8.519,8.478 8.517,8.447 8.517,8.413 C8.517,7.475 8.517,6.536 8.517,5.597 C8.177,6.370 8.149,7.456 8.215,8.176 C8.295,9.040 7.100,9.031 7.021,8.176 C6.839,6.201 7.484,3.609 9.470,3.347 C9.763,3.269 10.086,3.266 10.384,3.334 C12.471,3.500 13.146,6.159 12.960,8.176 ZM9.968,2.692 C9.308,2.692 8.773,2.089 8.773,1.345 C8.773,0.602 9.308,-0.001 9.968,-0.001 C10.627,-0.001 11.162,0.602 11.162,1.345 C11.162,2.089 10.627,2.692 9.968,2.692 ZM4.766,8.176 C4.837,7.409 4.800,6.225 4.393,5.450 C4.383,6.419 4.416,7.390 4.418,8.360 C4.430,8.421 4.438,8.484 4.438,8.553 C4.438,10.788 4.441,13.022 4.523,15.255 C4.560,16.247 3.194,16.243 3.158,15.255 C3.094,13.505 3.079,11.754 3.075,10.003 C3.010,10.007 2.945,10.007 2.881,10.003 C2.877,11.754 2.861,13.505 2.797,15.255 C2.761,16.243 1.395,16.247 1.431,15.255 C1.513,13.022 1.517,10.788 1.517,8.553 C1.517,8.538 1.520,8.525 1.521,8.510 C1.519,8.478 1.517,8.447 1.517,8.413 C1.517,7.475 1.517,6.536 1.517,5.597 C1.177,6.370 1.149,7.456 1.215,8.176 C1.295,9.040 0.100,9.031 0.021,8.176 C-0.161,6.201 0.484,3.609 2.470,3.347 C2.763,3.269 3.086,3.266 3.384,3.334 C5.471,3.500 6.146,6.159 5.960,8.176 C5.881,9.030 4.686,9.039 4.766,8.176 ZM2.968,2.692 C2.308,2.692 1.773,2.089 1.773,1.345 C1.773,0.602 2.308,-0.001 2.968,-0.001 C3.627,-0.001 4.162,0.602 4.162,1.345 C4.162,2.089 3.627,2.692 2.968,2.692 Z"/>
</svg>