<svg 
 xmlns="http://www.w3.org/2000/svg"
 xmlns:xlink="http://www.w3.org/1999/xlink"
 width="24px" height="25px">
<path fill-rule="evenodd"  fill="rgb(14, 28, 40)"
 d="M22.000,15.757 L22.000,25.000 L18.800,25.000 L18.800,19.776 L5.200,19.776 L5.200,25.000 L2.000,25.000 L2.000,15.757 C0.895,15.757 -0.000,14.857 -0.000,13.748 C-0.000,12.638 0.895,11.738 2.000,11.738 L7.210,11.738 C6.946,11.393 6.801,10.969 6.800,10.533 C6.801,9.424 7.696,8.525 8.800,8.523 L15.200,8.523 C16.304,8.525 17.199,9.424 17.200,10.533 C17.199,10.969 17.054,11.393 16.789,11.738 L22.000,11.738 C23.105,11.738 24.000,12.638 24.000,13.748 C24.000,14.857 23.105,15.757 22.000,15.757 ZM19.600,24.196 L21.200,24.196 L21.200,23.392 L20.400,23.392 L20.400,22.589 L21.200,22.589 L21.200,15.757 L19.600,15.757 L19.600,24.196 ZM5.200,18.972 L18.800,18.972 L18.800,18.168 L5.200,18.168 L5.200,18.972 ZM5.200,17.365 L18.800,17.365 L18.800,15.757 L5.200,15.757 L5.200,17.365 ZM2.800,22.589 L3.600,22.589 L3.600,23.392 L2.800,23.392 L2.800,24.196 L4.400,24.196 L4.400,15.757 L2.800,15.757 L2.800,22.589 ZM15.200,9.327 L8.800,9.327 C8.137,9.327 7.600,9.867 7.600,10.533 C7.600,11.199 8.137,11.738 8.800,11.738 L15.200,11.738 C15.863,11.738 16.400,11.199 16.400,10.533 C16.400,9.867 15.863,9.327 15.200,9.327 ZM22.000,12.542 L2.000,12.542 C1.337,12.542 0.800,13.082 0.800,13.748 C0.800,14.414 1.337,14.953 2.000,14.953 L22.000,14.953 C22.663,14.953 23.200,14.414 23.200,13.748 C23.200,13.082 22.663,12.542 22.000,12.542 ZM21.600,13.346 L22.400,13.346 L22.400,14.150 L21.600,14.150 L21.600,13.346 ZM1.600,13.346 L2.400,13.346 L2.400,14.150 L1.600,14.150 L1.600,13.346 ZM16.334,6.335 L15.534,7.541 C15.411,7.726 15.163,7.775 14.979,7.652 C14.795,7.529 14.745,7.280 14.868,7.095 L15.520,6.112 L14.867,5.130 C14.778,4.995 14.778,4.819 14.868,4.684 L15.520,3.701 L14.866,2.719 C14.777,2.584 14.777,2.408 14.866,2.273 L15.666,1.067 C15.789,0.882 16.037,0.833 16.221,0.956 C16.405,1.079 16.455,1.328 16.332,1.513 L15.680,2.496 L16.332,3.478 C16.422,3.613 16.422,3.789 16.332,3.924 L15.680,4.907 L16.334,5.889 C16.423,6.024 16.423,6.200 16.334,6.335 ZM12.734,6.335 L11.934,7.541 C11.811,7.726 11.563,7.775 11.379,7.652 C11.195,7.529 11.145,7.280 11.268,7.095 L11.920,6.112 L11.267,5.130 C11.178,4.995 11.178,4.819 11.268,4.684 L11.920,3.701 L11.266,2.719 C11.177,2.584 11.177,2.408 11.266,2.273 L12.066,1.067 C12.189,0.882 12.437,0.833 12.621,0.956 C12.805,1.079 12.855,1.328 12.732,1.513 L12.080,2.496 L12.732,3.478 C12.822,3.613 12.822,3.789 12.732,3.924 L12.080,4.907 L12.734,5.889 C12.823,6.024 12.823,6.200 12.734,6.335 ZM9.134,6.335 L8.334,7.541 C8.211,7.726 7.963,7.775 7.779,7.652 C7.595,7.529 7.545,7.280 7.668,7.095 L8.320,6.112 L7.667,5.130 C7.578,4.995 7.578,4.819 7.668,4.684 L8.320,3.701 L7.666,2.719 C7.577,2.584 7.577,2.408 7.666,2.273 L8.466,1.067 C8.589,0.882 8.837,0.833 9.021,0.956 C9.205,1.079 9.255,1.328 9.132,1.513 L8.480,2.496 L9.132,3.478 C9.222,3.613 9.222,3.789 9.132,3.924 L8.480,4.907 L9.134,5.889 C9.223,6.024 9.223,6.200 9.134,6.335 Z"/>
</svg>