<svg 
 xmlns="http://www.w3.org/2000/svg"
 xmlns:xlink="http://www.w3.org/1999/xlink"
 width="23px" height="20px">
<path fill-rule="evenodd"  fill="rgb(0, 0, 0)"
 d="M19.734,20.000 L3.265,20.000 C1.760,20.000 -0.000,19.139 -0.000,16.719 L-0.000,6.375 C-0.000,3.954 1.760,3.094 3.265,3.094 L7.165,3.094 L7.165,1.429 C7.164,1.390 7.164,1.351 7.166,1.312 C7.206,0.549 7.854,-0.037 8.613,0.002 L14.387,0.002 C14.425,0.001 14.464,0.000 14.503,0.001 C15.263,0.026 15.859,0.665 15.835,1.429 L15.835,3.103 L19.734,3.103 C21.244,3.103 23.000,3.964 23.000,6.384 L23.000,16.719 C23.000,19.139 21.239,20.000 19.734,20.000 ZM14.893,1.429 C14.893,1.287 14.893,0.920 14.387,0.920 L8.618,0.920 C8.111,0.920 8.111,1.291 8.111,1.429 L8.111,3.094 L14.893,3.094 L14.893,1.429 ZM22.053,6.384 C22.053,4.283 20.430,4.054 19.734,4.054 L3.265,4.054 C2.565,4.054 0.947,4.283 0.947,6.384 L0.947,16.719 C0.947,18.820 2.570,19.049 3.265,19.049 L19.734,19.049 C20.435,19.049 22.053,18.820 22.053,16.719 L22.053,6.384 ZM15.523,13.523 L13.592,13.523 L13.592,15.463 C13.592,15.854 13.276,16.172 12.887,16.172 L10.109,16.172 C10.107,16.172 10.105,16.172 10.104,16.172 C9.714,16.169 9.401,15.850 9.403,15.458 L9.403,13.523 L7.473,13.523 C7.083,13.523 6.767,13.205 6.767,12.814 L6.767,10.022 C6.767,10.019 6.767,10.016 6.767,10.013 C6.770,9.622 7.088,9.307 7.477,9.309 L9.403,9.309 L9.403,7.369 C9.403,6.978 9.719,6.660 10.109,6.660 L12.891,6.660 C12.893,6.660 12.894,6.660 12.896,6.660 C13.285,6.663 13.599,6.982 13.596,7.374 L13.596,9.314 L15.523,9.314 C15.524,9.314 15.526,9.314 15.527,9.314 C15.917,9.314 16.232,9.631 16.232,10.022 L16.232,12.814 C16.232,12.816 16.232,12.817 16.232,12.819 C16.230,13.210 15.912,13.525 15.523,13.523 ZM15.286,10.260 L13.118,10.260 C12.857,10.260 12.645,10.047 12.645,9.785 L12.645,7.611 L10.350,7.611 L10.350,9.790 C10.350,10.052 10.138,10.265 9.877,10.265 L7.714,10.265 L7.714,12.572 L9.877,12.572 C10.138,12.572 10.350,12.784 10.350,13.047 L10.350,15.221 L12.650,15.221 L12.650,13.047 C12.650,12.784 12.862,12.572 13.123,12.572 L15.286,12.572 L15.286,10.260 Z"/>
</svg>