<svg 
 xmlns="http://www.w3.org/2000/svg"
 xmlns:xlink="http://www.w3.org/1999/xlink"
 width="21px" height="23px">
<path fill-rule="evenodd"  fill="rgb(13, 27, 39)"
 d="M20.637,16.286 L18.042,14.850 L20.233,13.602 C20.585,13.439 20.694,12.987 20.493,12.654 C20.290,12.313 19.850,12.241 19.516,12.428 L16.595,14.065 L11.954,11.480 L16.595,8.921 L19.516,10.556 C19.607,10.620 19.724,10.657 19.855,10.657 C20.102,10.657 20.324,10.545 20.493,10.332 C20.689,9.994 20.585,9.547 20.233,9.385 L18.042,8.136 L20.637,6.701 C20.975,6.515 21.091,6.097 20.898,5.753 C20.713,5.423 20.255,5.309 19.907,5.503 L17.299,6.951 L17.260,4.454 C17.254,4.068 16.947,3.757 16.543,3.757 C16.139,3.757 15.823,4.092 15.826,4.454 L15.852,7.750 L11.237,10.309 L11.237,5.117 L14.144,3.530 C14.484,3.346 14.632,2.918 14.431,2.582 C14.227,2.242 13.809,2.140 13.453,2.332 L11.237,3.530 L11.237,0.697 C11.237,0.311 10.911,-0.000 10.507,-0.000 C10.103,-0.000 9.790,0.311 9.790,0.697 L9.790,3.557 L7.495,2.332 C7.138,2.143 6.731,2.249 6.530,2.582 C6.327,2.923 6.453,3.341 6.804,3.530 L9.790,5.141 L9.790,10.282 L5.070,7.675 L5.096,4.454 C5.136,4.092 4.797,3.757 4.392,3.757 L4.366,3.757 C3.988,3.757 3.653,4.068 3.649,4.454 L3.623,6.877 L1.081,5.479 C0.726,5.282 0.288,5.399 0.103,5.727 C-0.090,6.073 0.010,6.480 0.364,6.677 L2.932,8.099 L0.690,9.385 C0.338,9.547 0.228,10.000 0.442,10.332 C0.580,10.548 0.781,10.657 1.055,10.657 C1.198,10.657 1.317,10.623 1.433,10.556 L4.366,8.898 L9.073,11.480 L4.366,14.089 L1.433,12.428 C1.081,12.231 0.627,12.324 0.442,12.654 C0.249,12.997 0.354,13.410 0.690,13.602 L2.932,14.874 L0.364,16.310 C0.010,16.506 -0.104,16.922 0.103,17.260 C0.248,17.494 0.442,17.609 0.716,17.609 C0.781,17.609 0.911,17.572 1.081,17.508 L3.623,16.110 L3.649,18.533 C3.653,18.918 3.988,19.217 4.366,19.217 L4.392,19.217 C4.797,19.217 5.099,18.894 5.096,18.506 L5.070,15.287 L9.790,12.705 L9.790,17.819 L6.804,19.430 C6.448,19.621 6.323,20.039 6.530,20.378 C6.675,20.614 6.870,20.729 7.143,20.729 C7.274,20.729 7.394,20.708 7.495,20.652 L9.790,19.406 L9.790,22.313 C9.790,22.699 10.103,23.000 10.507,23.000 C10.911,23.000 11.237,22.699 11.237,22.313 L11.237,19.454 L13.453,20.652 C13.555,20.708 13.675,20.729 13.792,20.729 C14.079,20.729 14.290,20.617 14.431,20.378 C14.629,20.042 14.501,19.621 14.144,19.430 L11.237,17.870 L11.237,12.678 L15.852,15.237 L15.826,18.506 C15.823,18.894 16.139,19.217 16.543,19.217 C16.947,19.217 17.254,18.918 17.260,18.533 L17.299,16.022 L19.907,17.484 C20.007,17.539 20.141,17.558 20.285,17.558 C20.559,17.558 20.759,17.449 20.898,17.233 C21.112,16.900 20.975,16.472 20.637,16.286 Z"/>
</svg>