<svg 
 xmlns="http://www.w3.org/2000/svg"
 xmlns:xlink="http://www.w3.org/1999/xlink"
 width="25px" height="19px">
<path fill-rule="evenodd"  fill="rgb(13, 27, 39)"
 d="M24.629,13.855 L0.371,13.855 C0.166,13.855 -0.000,13.695 -0.000,13.498 C-0.000,13.300 0.166,13.140 0.371,13.140 L1.598,13.140 C1.546,12.606 1.965,12.086 2.371,11.582 C2.673,11.207 3.016,10.782 3.016,10.496 C3.016,10.211 2.673,9.786 2.371,9.410 C1.925,8.856 1.463,8.283 1.627,7.693 C1.797,7.081 2.512,6.801 3.203,6.531 C3.645,6.357 4.147,6.161 4.285,5.933 C4.426,5.696 4.352,5.173 4.287,4.710 C4.187,4.007 4.085,3.279 4.542,2.838 C5.000,2.398 5.756,2.497 6.488,2.592 C6.968,2.656 7.513,2.727 7.758,2.590 C7.994,2.458 8.199,1.975 8.379,1.549 C8.660,0.884 8.951,0.196 9.587,0.033 C10.200,-0.125 10.796,0.319 11.372,0.749 C11.762,1.040 12.204,1.369 12.500,1.369 C12.796,1.369 13.238,1.040 13.628,0.749 C14.204,0.319 14.800,-0.125 15.413,0.033 C16.049,0.197 16.339,0.884 16.620,1.549 C16.801,1.975 17.005,2.458 17.242,2.590 C17.487,2.727 18.032,2.656 18.512,2.593 C19.243,2.497 20.000,2.398 20.458,2.839 C20.915,3.279 20.812,4.007 20.713,4.710 C20.647,5.173 20.573,5.697 20.715,5.933 C20.852,6.161 21.354,6.357 21.797,6.531 C22.488,6.801 23.203,7.081 23.373,7.694 C23.536,8.283 23.075,8.856 22.629,9.410 C22.327,9.786 21.984,10.211 21.984,10.496 C21.984,10.782 22.326,11.207 22.629,11.582 C23.035,12.086 23.453,12.607 23.402,13.141 L24.629,13.141 C24.834,13.141 25.000,13.300 25.000,13.498 C25.000,13.695 24.834,13.855 24.629,13.855 ZM22.042,12.020 C21.648,11.531 21.241,11.026 21.241,10.496 C21.241,9.967 21.648,9.461 22.042,8.973 C22.345,8.595 22.724,8.125 22.655,7.878 C22.580,7.609 22.016,7.388 21.517,7.193 C20.937,6.965 20.337,6.731 20.072,6.291 C19.803,5.843 19.891,5.218 19.977,4.614 C20.045,4.133 20.130,3.534 19.932,3.344 C19.735,3.154 19.112,3.235 18.612,3.301 C17.984,3.383 17.335,3.468 16.870,3.209 C16.413,2.954 16.169,2.377 15.932,1.818 C15.730,1.339 15.500,0.795 15.221,0.723 C14.963,0.657 14.475,1.021 14.082,1.314 C13.575,1.692 13.050,2.084 12.500,2.084 C11.950,2.084 11.425,1.692 10.917,1.314 C10.525,1.021 10.036,0.657 9.779,0.723 C9.499,0.795 9.270,1.339 9.067,1.818 C8.831,2.377 8.586,2.954 8.130,3.209 C7.664,3.468 7.015,3.383 6.388,3.301 C5.887,3.235 5.265,3.154 5.068,3.344 C4.870,3.534 4.955,4.133 5.023,4.614 C5.108,5.218 5.196,5.843 4.927,6.290 C4.663,6.730 4.063,6.965 3.482,7.193 C2.984,7.388 2.419,7.609 2.344,7.878 C2.276,8.125 2.654,8.595 2.958,8.973 C3.351,9.461 3.758,9.966 3.758,10.496 C3.758,11.026 3.351,11.531 2.958,12.020 C2.654,12.397 2.275,12.867 2.344,13.114 C2.347,13.123 2.350,13.132 2.354,13.141 L5.620,13.141 C5.270,12.302 5.093,11.415 5.093,10.496 C5.093,6.566 8.416,3.369 12.500,3.369 C12.846,3.369 13.192,3.392 13.529,3.437 C14.359,3.548 15.157,3.793 15.902,4.164 C16.083,4.254 16.155,4.470 16.060,4.645 C15.966,4.820 15.742,4.889 15.560,4.798 C14.891,4.465 14.173,4.245 13.427,4.145 C13.123,4.104 12.811,4.084 12.500,4.084 C8.825,4.084 5.836,6.960 5.836,10.496 C5.836,11.420 6.035,12.309 6.427,13.141 L18.572,13.141 C18.964,12.309 19.164,11.421 19.164,10.496 C19.164,8.540 18.253,6.716 16.666,5.491 C16.506,5.368 16.480,5.143 16.609,4.989 C16.737,4.835 16.971,4.810 17.131,4.934 C18.895,6.295 19.906,8.323 19.906,10.496 C19.906,11.415 19.729,12.302 19.379,13.141 L22.646,13.141 C22.649,13.132 22.652,13.124 22.655,13.116 C22.724,12.867 22.345,12.397 22.042,12.020 ZM16.882,8.883 C17.028,9.023 17.028,9.249 16.882,9.389 C16.810,9.458 16.715,9.493 16.620,9.493 C16.525,9.493 16.430,9.458 16.358,9.389 C16.139,9.178 15.849,9.063 15.540,9.063 C15.231,9.063 14.940,9.178 14.722,9.389 C14.577,9.528 14.342,9.528 14.197,9.389 C14.052,9.249 14.052,9.023 14.197,8.883 C14.556,8.538 15.033,8.348 15.540,8.348 C16.047,8.348 16.524,8.538 16.882,8.883 ZM14.388,10.970 C14.533,11.110 14.533,11.336 14.388,11.476 C13.867,11.977 13.184,12.227 12.500,12.227 C11.816,12.227 11.132,11.977 10.612,11.476 C10.466,11.336 10.466,11.110 10.612,10.970 C10.756,10.831 10.992,10.831 11.137,10.970 C11.888,11.693 13.111,11.693 13.863,10.970 C14.008,10.831 14.243,10.831 14.388,10.970 ZM10.540,9.493 C10.445,9.493 10.350,9.458 10.278,9.389 C9.827,8.955 9.093,8.955 8.642,9.389 C8.497,9.528 8.262,9.528 8.117,9.389 C7.972,9.249 7.972,9.023 8.117,8.883 C8.857,8.171 10.062,8.171 10.803,8.883 C10.947,9.023 10.947,9.249 10.803,9.389 C10.730,9.458 10.635,9.493 10.540,9.493 ZM1.950,14.855 L16.887,14.855 C17.092,14.855 17.258,15.015 17.258,15.213 C17.258,15.410 17.092,15.570 16.887,15.570 L1.950,15.570 C1.745,15.570 1.579,15.410 1.579,15.213 C1.579,15.015 1.745,14.855 1.950,14.855 ZM3.286,16.570 L7.234,16.570 C7.439,16.570 7.605,16.730 7.605,16.928 C7.605,17.125 7.439,17.285 7.234,17.285 L3.286,17.285 C3.082,17.285 2.915,17.125 2.915,16.928 C2.915,16.730 3.082,16.570 3.286,16.570 ZM4.326,18.285 L20.674,18.285 C20.879,18.285 21.045,18.445 21.045,18.642 C21.045,18.840 20.879,19.000 20.674,19.000 L4.326,19.000 C4.121,19.000 3.955,18.840 3.955,18.642 C3.955,18.445 4.121,18.285 4.326,18.285 ZM8.348,16.928 C8.348,16.730 8.514,16.570 8.719,16.570 L21.713,16.570 C21.918,16.570 22.085,16.730 22.085,16.928 C22.085,17.125 21.918,17.285 21.713,17.285 L8.719,17.285 C8.514,17.285 8.348,17.125 8.348,16.928 ZM18.001,15.213 C18.001,15.015 18.167,14.855 18.372,14.855 L23.050,14.855 C23.255,14.855 23.421,15.015 23.421,15.213 C23.421,15.410 23.255,15.570 23.050,15.570 L18.372,15.570 C18.167,15.570 18.001,15.410 18.001,15.213 Z"/>
</svg>