<svg 
 xmlns="http://www.w3.org/2000/svg"
 xmlns:xlink="http://www.w3.org/1999/xlink"
 width="23px" height="22px">
<path fill-rule="evenodd"  fill="rgb(14, 28, 40)"
 d="M19.922,20.636 C19.085,21.285 18.040,21.632 16.965,21.618 C15.891,21.632 14.845,21.285 14.009,20.636 C13.330,20.091 12.470,19.800 11.586,19.816 C10.702,19.800 9.842,20.091 9.164,20.636 C8.327,21.285 7.281,21.632 6.207,21.618 C5.133,21.632 4.087,21.285 3.250,20.636 C2.571,20.091 1.711,19.800 0.827,19.816 L0.827,18.915 C1.902,18.900 2.948,19.247 3.784,19.896 C4.463,20.441 5.323,20.732 6.207,20.717 C7.090,20.732 7.950,20.441 8.629,19.896 C9.466,19.247 10.512,18.900 11.586,18.915 C12.660,18.900 13.706,19.247 14.543,19.896 C15.958,20.990 17.973,20.990 19.388,19.896 C20.225,19.247 21.270,18.900 22.345,18.915 L22.345,19.816 C21.461,19.800 20.601,20.091 19.922,20.636 ZM16.965,17.113 C15.891,17.127 14.845,16.780 14.009,16.131 C13.330,15.586 12.470,15.295 11.586,15.311 C10.702,15.295 9.842,15.586 9.164,16.131 C8.327,16.780 7.281,17.127 6.207,17.113 C5.133,17.127 4.087,16.780 3.250,16.131 C2.571,15.586 1.711,15.295 0.827,15.311 L0.827,14.410 C1.902,14.395 2.948,14.742 3.784,15.391 C4.463,15.936 5.323,16.227 6.207,16.212 C7.090,16.227 7.950,15.936 8.629,15.391 C9.466,14.742 10.512,14.395 11.586,14.410 C12.660,14.395 13.706,14.742 14.543,15.391 C15.958,16.485 17.973,16.485 19.388,15.391 C20.225,14.742 21.270,14.395 22.345,14.410 L22.345,15.311 C21.461,15.295 20.601,15.586 19.922,16.131 C19.085,16.780 18.040,17.127 16.965,17.113 ZM16.965,12.607 C15.891,12.622 14.845,12.275 14.009,11.626 C13.330,11.081 12.470,10.790 11.586,10.806 C10.702,10.790 9.842,11.081 9.164,11.626 C8.327,12.275 7.281,12.622 6.207,12.607 C5.133,12.622 4.087,12.275 3.250,11.626 C2.571,11.081 1.711,10.790 0.827,10.806 L0.827,9.905 C1.902,9.890 2.948,10.237 3.784,10.886 C3.903,10.982 4.029,11.069 4.158,11.149 L5.984,10.094 C6.001,10.012 6.043,9.933 6.110,9.869 L8.710,7.359 L8.388,7.048 C7.130,5.829 7.130,3.859 8.388,2.640 L10.992,0.126 C11.178,-0.044 11.469,-0.044 11.655,0.126 L12.957,1.383 C13.139,1.559 13.139,1.844 12.957,2.020 L11.329,3.591 C10.793,4.110 10.793,4.949 11.329,5.469 L11.679,5.807 C11.674,5.003 11.988,4.198 12.623,3.583 C13.882,2.368 15.925,2.366 17.187,3.579 C17.189,3.580 17.190,3.582 17.192,3.583 C18.450,4.802 18.450,6.772 17.192,7.991 C16.598,8.568 15.793,8.894 14.951,8.903 L17.776,11.624 C18.351,11.506 18.904,11.260 19.388,10.886 C20.225,10.237 21.270,9.890 22.345,9.905 L22.345,10.806 C21.461,10.790 20.601,11.081 19.922,11.626 C19.085,12.275 18.040,12.622 16.965,12.607 ZM5.210,11.592 C5.533,11.673 5.868,11.713 6.207,11.707 C6.554,11.713 6.898,11.671 7.228,11.585 L6.477,10.860 L5.210,11.592 ZM10.669,6.106 C9.770,5.234 9.770,3.826 10.669,2.955 L11.968,1.702 L11.324,1.082 L9.051,3.277 C8.156,4.144 8.156,5.545 9.051,6.412 L9.702,7.040 C9.884,7.216 9.884,7.501 9.702,7.677 L7.102,10.187 L8.157,11.207 C8.322,11.112 8.480,11.006 8.629,10.886 C9.466,10.237 10.512,9.890 11.586,9.905 C12.249,9.896 12.901,10.025 13.500,10.277 L13.925,9.869 C14.102,9.698 14.102,9.420 13.925,9.249 L10.669,6.106 ZM16.529,4.219 C16.100,3.803 15.516,3.569 14.907,3.571 C14.620,3.570 14.340,3.622 14.077,3.720 L17.046,6.586 C17.363,5.793 17.191,4.860 16.529,4.219 ZM16.525,7.359 L13.279,4.225 C12.390,5.093 12.392,6.489 13.285,7.355 C14.179,8.217 15.629,8.219 16.525,7.359 ZM14.871,10.101 C14.804,10.247 14.709,10.384 14.585,10.504 L14.341,10.739 C14.410,10.787 14.477,10.835 14.543,10.886 C15.125,11.336 15.809,11.601 16.511,11.681 L14.871,10.101 ZM20.474,6.751 L21.409,6.751 L21.409,7.652 L20.474,7.652 L20.474,6.751 ZM19.538,5.850 L20.474,5.850 L20.474,6.751 L19.538,6.751 L19.538,5.850 ZM17.667,1.345 L18.603,1.345 L18.603,2.246 L17.667,2.246 L17.667,1.345 ZM5.973,1.345 L6.908,1.345 L6.908,2.246 L5.973,2.246 L5.973,1.345 ZM2.699,4.949 L3.634,4.949 L3.634,5.850 L2.699,5.850 L2.699,4.949 ZM1.763,4.048 L2.699,4.048 L2.699,4.949 L1.763,4.949 L1.763,4.048 Z"/>
</svg>