<svg 
 xmlns="http://www.w3.org/2000/svg"
 xmlns:xlink="http://www.w3.org/1999/xlink"
 width="24px" height="24px">
<path fill-rule="evenodd"  fill="rgb(13, 27, 39)"
 d="M22.799,4.400 L21.199,4.400 L21.199,23.600 C21.199,23.821 21.020,24.000 20.799,24.000 L7.999,24.000 C7.778,24.000 7.599,23.821 7.599,23.600 L7.599,18.400 L3.199,18.400 C2.978,18.400 2.799,18.221 2.799,18.000 L2.799,4.400 L1.199,4.400 C0.879,4.402 0.572,4.273 0.349,4.043 C0.123,3.821 -0.003,3.517 -0.001,3.200 C-0.001,2.538 0.536,2.000 1.199,2.000 L2.919,2.000 C3.274,0.816 4.363,0.003 5.599,0.000 L18.399,0.000 C19.144,-0.003 19.858,0.293 20.382,0.823 C20.711,1.149 20.951,1.555 21.079,2.000 L22.799,2.000 C23.119,1.999 23.427,2.127 23.650,2.357 C23.875,2.579 24.002,2.884 23.999,3.200 C23.999,3.863 23.462,4.400 22.799,4.400 ZM2.799,2.800 L1.199,2.800 C0.978,2.800 0.799,2.980 0.799,3.200 C0.798,3.305 0.840,3.405 0.914,3.478 C0.988,3.556 1.091,3.601 1.199,3.600 L2.799,3.600 L2.799,2.800 ZM8.399,21.600 L16.799,21.600 C17.020,21.600 17.199,21.779 17.199,22.000 C17.199,22.221 17.020,22.400 16.799,22.400 L8.399,22.400 L8.399,23.200 L20.399,23.200 L20.399,4.400 L16.399,4.400 L16.399,18.000 C16.399,18.221 16.220,18.400 15.999,18.400 L8.399,18.400 L8.399,21.600 ZM3.599,17.600 L15.599,17.600 L15.599,14.868 C15.445,14.930 15.301,15.015 15.172,15.120 C14.418,15.760 13.311,15.760 12.557,15.120 C12.088,14.693 11.372,14.693 10.902,15.120 C10.149,15.760 9.043,15.760 8.290,15.120 C7.822,14.693 7.106,14.693 6.638,15.120 C5.885,15.760 4.779,15.760 4.025,15.120 C3.897,15.015 3.753,14.930 3.599,14.868 L3.599,17.600 ZM3.599,14.038 C3.933,14.108 4.244,14.261 4.506,14.480 C4.974,14.907 5.690,14.907 6.158,14.480 C6.911,13.840 8.017,13.840 8.770,14.480 C9.238,14.907 9.954,14.907 10.422,14.480 C11.176,13.840 12.283,13.840 13.037,14.480 C13.506,14.907 14.223,14.907 14.692,14.480 C14.953,14.260 15.265,14.108 15.599,14.038 L15.599,13.268 C15.445,13.330 15.301,13.415 15.172,13.520 C14.418,14.160 13.311,14.160 12.557,13.520 C12.088,13.094 11.372,13.094 10.902,13.520 C10.149,14.160 9.043,14.160 8.290,13.520 C7.822,13.094 7.106,13.094 6.638,13.520 C5.885,14.160 4.779,14.160 4.025,13.520 C3.897,13.415 3.753,13.330 3.599,13.268 L3.599,14.038 ZM5.599,0.800 C4.495,0.802 3.601,1.696 3.599,2.800 L3.599,12.438 C3.933,12.509 4.244,12.660 4.506,12.880 C4.974,13.307 5.690,13.307 6.158,12.880 C6.911,12.240 8.017,12.240 8.770,12.880 C9.238,13.307 9.954,13.307 10.422,12.880 C11.176,12.240 12.283,12.240 13.037,12.880 C13.506,13.307 14.223,13.307 14.692,12.880 C14.953,12.660 15.265,12.508 15.599,12.438 L15.599,2.400 C15.601,2.325 15.624,2.252 15.667,2.189 C15.672,2.167 15.677,2.152 15.684,2.124 C15.690,2.097 15.697,2.071 15.704,2.044 C15.718,1.994 15.734,1.943 15.750,1.896 C15.766,1.849 15.784,1.803 15.802,1.757 C15.813,1.728 15.824,1.700 15.837,1.671 C15.979,1.345 16.183,1.050 16.437,0.800 L5.599,0.800 ZM19.814,1.389 C19.351,0.916 18.681,0.709 18.033,0.838 C18.003,0.843 17.974,0.850 17.944,0.857 C17.847,0.880 17.751,0.910 17.658,0.946 C17.640,0.954 17.622,0.960 17.604,0.967 C17.378,1.066 17.172,1.205 16.997,1.378 L16.973,1.402 C16.894,1.483 16.822,1.570 16.758,1.663 C16.750,1.674 16.742,1.683 16.735,1.694 C16.671,1.791 16.615,1.894 16.569,2.000 L20.234,2.000 C20.134,1.772 19.992,1.564 19.814,1.389 ZM23.084,2.923 C23.010,2.844 22.907,2.800 22.799,2.800 L16.399,2.800 L16.399,3.600 L22.799,3.600 C23.020,3.600 23.199,3.421 23.199,3.200 C23.200,3.096 23.159,2.996 23.084,2.923 ZM18.399,21.600 L19.199,21.600 C19.420,21.600 19.599,21.779 19.599,22.000 C19.599,22.221 19.420,22.400 19.199,22.400 L18.399,22.400 C18.178,22.400 17.999,22.221 17.999,22.000 C17.999,21.779 18.178,21.600 18.399,21.600 Z"/>
</svg>