<svg 
 xmlns="http://www.w3.org/2000/svg"
 xmlns:xlink="http://www.w3.org/1999/xlink"
 width="23px" height="23px">
<path fill-rule="evenodd"  fill="rgb(13, 27, 39)"
 d="M22.629,23.000 L0.376,23.000 C0.339,23.000 0.339,23.000 0.302,23.000 C0.116,22.963 -0.032,22.740 0.005,22.555 L0.970,17.324 C1.303,15.395 2.787,13.874 4.715,13.466 L8.832,12.613 C8.869,12.613 8.869,12.613 8.906,12.613 L8.906,10.276 C7.757,9.459 7.052,8.124 7.052,6.677 L7.052,4.451 C7.052,2.003 9.055,-0.000 11.503,-0.000 C13.950,-0.000 15.953,2.003 15.953,4.451 L15.953,6.677 C15.953,8.087 15.249,9.459 14.099,10.276 L14.099,12.613 C14.136,12.613 14.136,12.613 14.173,12.613 L18.290,13.503 C20.218,13.911 21.702,15.432 22.036,17.361 L23.000,22.555 C23.000,22.592 23.000,22.592 23.000,22.629 C23.000,22.852 22.852,23.000 22.629,23.000 ZM0.821,22.258 L5.568,22.258 L5.568,21.516 L0.970,21.516 L0.821,22.258 ZM11.503,0.742 C9.722,0.742 8.239,1.966 7.868,3.709 L15.137,3.709 C14.766,1.966 13.283,0.742 11.503,0.742 ZM7.942,4.451 L9.055,5.564 L13.950,5.564 L15.063,4.451 L7.942,4.451 ZM15.211,6.677 L15.211,5.342 L14.358,6.195 C14.284,6.269 14.210,6.306 14.099,6.306 L8.906,6.306 C8.795,6.306 8.721,6.269 8.647,6.195 L7.794,5.342 L7.794,6.677 C7.794,8.718 9.463,10.387 11.503,10.387 C13.542,10.387 15.211,8.718 15.211,6.677 ZM9.648,10.721 L9.648,13.206 L9.908,13.466 C10.316,13.911 10.872,14.134 11.465,14.134 L11.540,14.134 C12.096,14.134 12.689,13.874 13.097,13.466 L13.357,13.206 L13.357,10.721 C12.764,10.980 12.133,11.129 11.503,11.129 C10.872,11.129 10.242,10.980 9.648,10.721 ZM14.878,13.540 L14.247,13.392 L13.654,13.985 C13.097,14.542 12.318,14.839 11.540,14.839 L11.465,14.839 C10.649,14.839 9.908,14.542 9.351,13.985 L8.795,13.392 L8.165,13.540 L8.165,14.727 L10.130,17.324 C10.204,17.250 10.242,17.213 10.316,17.139 C11.095,16.471 12.244,16.545 12.912,17.324 L14.878,14.727 L14.878,13.540 ZM10.390,18.548 C10.390,19.179 10.872,19.661 11.503,19.661 C11.725,19.661 11.873,19.810 11.873,20.032 L11.873,20.774 L12.615,20.774 L12.615,18.548 C12.615,17.918 12.133,17.435 11.503,17.435 C10.872,17.435 10.390,17.918 10.390,18.548 ZM21.331,17.510 C21.034,15.877 19.773,14.579 18.141,14.245 L15.582,13.689 L15.582,14.839 C15.582,14.913 15.545,14.987 15.508,15.061 L13.283,18.029 C13.320,18.177 13.357,18.363 13.357,18.548 L13.357,21.145 C13.357,21.368 13.209,21.516 12.986,21.516 L11.503,21.516 C11.280,21.516 11.132,21.368 11.132,21.145 L11.132,20.366 C10.279,20.180 9.648,19.439 9.648,18.548 C9.648,18.363 9.685,18.177 9.722,18.029 L7.497,15.061 C7.460,14.987 7.423,14.913 7.423,14.839 L7.423,13.651 L4.864,14.208 C3.232,14.542 1.971,15.840 1.674,17.472 L1.081,20.774 L5.568,20.774 L5.568,17.435 L6.310,17.435 L6.310,22.295 L16.695,22.295 L16.695,17.472 L17.437,17.472 L17.437,20.811 L21.924,20.811 L21.331,17.510 ZM22.036,21.516 L17.437,21.516 L17.437,22.258 L22.184,22.258 L22.036,21.516 ZM11.873,18.919 L11.132,18.919 L11.132,18.177 L11.873,18.177 L11.873,18.919 Z"/>
</svg>