<svg 
 xmlns="http://www.w3.org/2000/svg"
 xmlns:xlink="http://www.w3.org/1999/xlink"
 width="23px" height="21px">
<path fill-rule="evenodd"  fill="rgb(13, 27, 39)"
 d="M22.935,14.546 C22.837,14.849 22.479,15.555 21.271,15.555 L18.144,15.555 L18.144,19.444 C18.144,20.302 17.443,21.000 16.581,21.000 L6.419,21.000 C5.557,21.000 4.856,20.302 4.856,19.444 L4.856,15.555 L1.729,15.555 C0.521,15.555 0.163,14.849 0.065,14.546 C-0.033,14.242 -0.154,13.460 0.829,12.761 L9.864,6.340 C10.217,6.089 10.649,5.927 11.109,5.868 L11.109,4.278 C11.109,4.063 11.284,3.889 11.500,3.889 C12.362,3.889 13.063,3.191 13.063,2.333 C13.063,1.476 12.362,0.778 11.500,0.778 C10.638,0.778 9.937,1.476 9.937,2.333 C9.937,2.548 9.762,2.722 9.546,2.722 C9.330,2.722 9.155,2.548 9.155,2.333 C9.155,1.047 10.207,-0.000 11.500,-0.000 C12.793,-0.000 13.845,1.047 13.845,2.333 C13.845,3.487 12.999,4.449 11.891,4.634 L11.891,5.868 C12.351,5.927 12.783,6.089 13.135,6.340 L22.171,12.761 C23.154,13.460 23.033,14.242 22.935,14.546 ZM21.716,13.394 L12.681,6.973 C12.362,6.746 11.942,6.620 11.500,6.620 C11.058,6.620 10.638,6.746 10.319,6.973 L1.284,13.394 C0.874,13.685 0.710,14.001 0.809,14.308 C0.908,14.615 1.226,14.778 1.729,14.778 L4.856,14.778 L4.856,13.222 C4.856,13.007 5.031,12.833 5.247,12.833 L17.753,12.833 C17.969,12.833 18.144,13.007 18.144,13.222 L18.784,13.222 L11.772,8.238 C11.737,8.213 11.636,8.176 11.500,8.176 C11.364,8.176 11.263,8.213 11.227,8.238 L4.191,13.240 C4.350,13.289 4.465,13.436 4.465,13.611 C4.465,13.826 4.290,14.000 4.074,14.000 L2.996,14.000 C2.826,14.000 2.675,13.891 2.624,13.730 C2.572,13.569 2.630,13.393 2.769,13.294 L10.773,7.606 C10.958,7.474 11.223,7.398 11.500,7.398 C11.777,7.398 12.041,7.474 12.227,7.606 L20.231,13.294 C20.369,13.393 20.428,13.569 20.376,13.730 C20.324,13.891 20.174,14.000 20.004,14.000 L18.144,14.000 C18.144,14.215 17.969,14.389 17.753,14.389 C17.537,14.389 17.362,14.215 17.362,14.000 L17.362,13.611 L5.638,13.611 L5.638,19.444 C5.638,19.873 5.988,20.222 6.419,20.222 L16.581,20.222 C17.012,20.222 17.362,19.873 17.362,19.444 L17.362,15.167 C17.362,14.952 17.537,14.778 17.753,14.778 C17.762,14.778 17.770,14.778 17.778,14.779 C17.786,14.778 17.794,14.778 17.802,14.778 L21.271,14.778 C21.774,14.778 22.092,14.615 22.191,14.308 C22.290,14.001 22.126,13.685 21.716,13.394 ZM14.958,17.022 C14.822,17.120 14.668,17.187 14.497,17.222 C14.325,17.257 14.154,17.275 13.983,17.275 L13.600,17.275 L13.600,19.009 L12.860,19.009 L12.860,14.736 L14.046,14.736 C14.171,14.736 14.313,14.746 14.472,14.767 C14.631,14.788 14.780,14.839 14.920,14.920 C15.060,15.001 15.178,15.123 15.274,15.285 C15.371,15.447 15.419,15.672 15.419,15.959 C15.419,16.229 15.376,16.449 15.290,16.620 C15.204,16.791 15.093,16.925 14.958,17.022 ZM14.619,15.634 C14.579,15.547 14.527,15.481 14.462,15.438 C14.398,15.394 14.325,15.365 14.246,15.350 C14.167,15.336 14.087,15.328 14.008,15.328 L13.600,15.328 L13.600,16.689 L13.939,16.689 C14.039,16.689 14.134,16.681 14.224,16.667 C14.314,16.652 14.392,16.620 14.459,16.570 C14.526,16.520 14.579,16.448 14.619,16.355 C14.659,16.261 14.679,16.136 14.679,15.977 C14.679,15.836 14.659,15.721 14.619,15.634 ZM11.331,14.742 L12.064,14.742 L12.064,19.009 L11.331,19.009 L11.331,14.742 ZM8.722,19.009 L7.581,14.748 L8.340,14.748 L8.973,17.406 L9.168,18.317 L9.193,18.317 L9.418,17.312 L10.027,14.748 L10.766,14.748 L9.625,19.009 L8.722,19.009 Z"/>
</svg>