<svg xmlns="http://www.w3.org/2000/svg" width="1924" height="13"><path fill-rule="evenodd" fill="#1FE39C" d="M1913.284 12.997c-8.06 0-14.35-2.595-20.432-5.105-6.057-2.499-11.778-4.86-19.192-4.86-7.413 0-13.134 2.361-19.191 4.86-6.082 2.51-12.371 5.105-20.432 5.105-8.06 0-14.349-2.595-20.432-5.105-6.057-2.499-11.778-4.86-19.191-4.86-7.414 0-13.135 2.361-19.192 4.86-6.082 2.51-12.372 5.105-20.432 5.105-8.06 0-14.35-2.595-20.432-5.105-6.057-2.499-11.778-4.86-19.191-4.86-7.414 0-13.135 2.361-19.192 4.86-3.112 1.284-6.278 2.59-9.709 3.56l.002.004c-2.655.75-5.223 1.221-7.782 1.424l-.349.026-.04.003-.312.02-.059.004-.295.016-.07.003-.287.013-.076.003-.285.01-.076.002-.291.008-.072.001-.311.005-.052.001-.359.002h-.009l-.359-.002-.051-.001-.312-.005-.071-.001a28.454 28.454 0 0 1-.654-.02l-.074-.003-.289-.013-.068-.003-.297-.017-.057-.003a33.486 33.486 0 0 1-.316-.02l-.036-.003c-2.675-.187-5.356-.666-8.132-1.45l.001-.004c-3.43-.97-6.596-2.276-9.708-3.56-6.057-2.499-11.778-4.86-19.192-4.86s-13.134 2.361-19.191 4.86c-6.082 2.51-12.372 5.105-20.432 5.105-8.061 0-14.35-2.595-20.432-5.105-6.057-2.499-11.778-4.86-19.191-4.86-7.414 0-13.135 2.361-19.192 4.86-6.082 2.51-12.372 5.105-20.432 5.105-8.06 0-14.35-2.595-20.432-5.105-6.057-2.499-11.778-4.86-19.191-4.86-7.414 0-13.135 2.361-19.192 4.86-6.082 2.51-12.372 5.105-20.432 5.105l-.311-.002-.311.002c-8.06 0-14.35-2.595-20.432-5.105-6.057-2.499-11.778-4.86-19.192-4.86s-13.134 2.361-19.191 4.86c-6.082 2.51-12.372 5.105-20.432 5.105-8.06 0-14.35-2.595-20.432-5.105-6.057-2.499-11.778-4.86-19.191-4.86-7.414 0-13.135 2.361-19.192 4.86-6.082 2.51-12.372 5.105-20.432 5.105-8.06 0-14.35-2.595-20.432-5.105-6.057-2.499-11.778-4.86-19.191-4.86-7.414 0-13.135 2.361-19.192 4.86-3.112 1.284-6.279 2.59-9.709 3.56l.001.004c-2.654.75-5.223 1.221-7.781 1.424h-.001l-.348.026-.04.003-.312.02-.06.004-.294.016-.07.003-.287.013-.076.003-.285.01-.077.002-.291.008-.071.001-.312.005-.051.001-.36.002h-.008l-.359-.002-.052-.001-.312-.005-.07-.001-.292-.008-.076-.002-.286-.01-.074-.003a26.723 26.723 0 0 1-.289-.013l-.069-.003-.297-.017-.057-.003-.315-.02-.036-.003c-2.675-.187-5.357-.666-8.132-1.45l.001-.004c-3.43-.97-6.596-2.276-9.709-3.56-6.056-2.499-11.777-4.86-19.191-4.86s-13.135 2.361-19.191 4.86c-6.083 2.51-12.372 5.105-20.432 5.105-8.061 0-14.35-2.595-20.433-5.105-6.056-2.499-11.777-4.86-19.191-4.86s-13.134 2.361-19.191 4.86c-6.083 2.51-12.372 5.105-20.432 5.105-8.06 0-14.35-2.595-20.432-5.105-6.057-2.499-11.778-4.86-19.192-4.86-7.413 0-13.134 2.361-19.191 4.86-2.956 1.22-5.961 2.459-9.194 3.412l.046.152c-3.669 1.037-7.174 1.541-10.716 1.541a26.7 26.7 0 0 1-.284-.002l-.284.002c-3.542 0-7.047-.504-10.716-1.541l.046-.152c-3.233-.953-6.238-2.192-9.194-3.412-6.057-2.499-11.778-4.86-19.191-4.86-7.414 0-13.135 2.361-19.192 4.86-6.082 2.51-12.371 5.105-20.432 5.105-8.06 0-14.35-2.595-20.432-5.105-6.057-2.499-11.778-4.86-19.191-4.86-7.414 0-13.135 2.361-19.192 4.86-6.082 2.51-12.372 5.105-20.432 5.105-8.06 0-14.35-2.595-20.432-5.105-6.057-2.499-11.778-4.86-19.191-4.86-7.414 0-13.135 2.361-19.192 4.86-3.112 1.284-6.278 2.59-9.709 3.56l.002.004c-2.776.784-5.457 1.263-8.132 1.45l-.038.003-.313.02-.059.003-.295.017-.07.003-.287.013-.075.003-.286.01-.076.002-.292.008-.071.001-.311.005-.052.001-.359.002h-.009l-.359-.002-.051-.001a32.46 32.46 0 0 1-.312-.005l-.071-.001a28.454 28.454 0 0 1-.292-.008l-.075-.002a27.507 27.507 0 0 1-.287-.01l-.074-.003-.289-.013-.068-.003a29.548 29.548 0 0 1-.297-.017l-.057-.003-.316-.02-.036-.003c-2.675-.187-5.356-.666-8.132-1.45l.001-.004c-3.43-.97-6.596-2.276-9.708-3.56-6.057-2.499-11.778-4.86-19.192-4.86s-13.135 2.361-19.191 4.86c-6.082 2.51-12.372 5.105-20.432 5.105-8.061 0-14.35-2.595-20.432-5.105-6.057-2.499-11.778-4.86-19.191-4.86-7.414 0-13.135 2.361-19.192 4.86-6.082 2.51-12.372 5.105-20.432 5.105-8.06 0-14.35-2.595-20.432-5.105-6.057-2.499-11.778-4.86-19.191-4.86-7.414 0-13.135 2.361-19.192 4.86-6.082 2.51-12.372 5.105-20.432 5.105l-.311-.002-.311.002c-8.06 0-14.35-2.595-20.432-5.105-6.057-2.499-11.778-4.86-19.192-4.86s-13.134 2.361-19.191 4.86c-6.082 2.51-12.372 5.105-20.432 5.105-8.06 0-14.35-2.595-20.432-5.105-6.057-2.499-11.778-4.86-19.191-4.86-7.414 0-13.135 2.361-19.192 4.86-6.082 2.51-12.372 5.105-20.432 5.105-8.06 0-14.35-2.595-20.432-5.105-6.057-2.499-11.778-4.86-19.191-4.86-7.414 0-13.135 2.361-19.192 4.86-3.112 1.284-6.279 2.59-9.709 3.56l.001.004c-2.775.784-5.456 1.263-8.131 1.45l-.038.003-.313.02-.059.003-.296.017-.069.003-.288.013-.075.003-.286.01-.076.002-.291.008-.071.001-.312.005-.051.001-.36.002h-.008l-.36-.002-.051-.001-.312-.005-.07-.001-.292-.008-.076-.002-.286-.01a45.131 45.131 0 0 1-.363-.016l-.069-.003-.297-.017-.057-.003a33.275 33.275 0 0 1-.351-.023c-2.675-.187-5.357-.666-8.132-1.45l.001-.004c-3.43-.97-6.596-2.276-9.709-3.56-6.056-2.499-11.777-4.86-19.191-4.86s-13.135 2.361-19.191 4.86c-6.083 2.51-12.372 5.105-20.433 5.105-8.06 0-14.349-2.595-20.432-5.105-6.056-2.499-11.777-4.86-19.191-4.86s-13.134 2.361-19.191 4.86c-6.083 2.51-12.372 5.105-20.432 5.105-8.06 0-14.35-2.595-20.432-5.105-6.057-2.499-11.778-4.86-19.192-4.86-7.413 0-13.134 2.361-19.191 4.86-6.083 2.51-12.372 5.105-20.432 5.105-3.542 0-7.047-.504-10.716-1.541l.887-2.915c3.376.954 6.591 1.418 9.829 1.418 7.414 0 13.135-2.361 19.191-4.859C35.99 2.59 42.279-.006 50.339-.006c8.06 0 14.35 2.596 20.432 5.106 6.057 2.498 11.778 4.859 19.192 4.859 7.413 0 13.134-2.36 19.191-4.859 6.082-2.51 12.372-5.106 20.432-5.106 8.06 0 14.35 2.596 20.432 5.106 6.057 2.498 11.778 4.859 19.191 4.859 7.415 0 13.135-2.361 19.192-4.859 6.082-2.51 12.372-5.106 20.432-5.106 8.06 0 14.349 2.596 20.432 5.106 3.115 1.285 6.141 2.533 9.354 3.442v-.001c2.945.832 5.768 1.291 8.59 1.395l.071.002.217.007.153.004.153.003.236.004.083.001a36.302 36.302 0 0 0 .66 0l.084-.001.235-.004.154-.003.152-.004.219-.007.069-.002c2.822-.104 5.645-.563 8.591-1.395v.001c3.213-.909 6.239-2.157 9.354-3.442 6.082-2.51 12.372-5.106 20.432-5.106 8.059 0 14.349 2.596 20.431 5.106 6.057 2.498 11.778 4.859 19.192 4.859s13.134-2.36 19.191-4.859c6.083-2.51 12.372-5.106 20.433-5.106 8.06 0 14.349 2.596 20.431 5.106 6.057 2.498 11.778 4.859 19.192 4.859s13.135-2.361 19.191-4.859c6.083-2.51 12.372-5.106 20.432-5.106 8.06 0 14.35 2.596 20.432 5.106 3.302 1.362 6.505 2.683 9.936 3.603l.049-.162c3.268.923 6.385 1.387 9.518 1.416 3.132-.029 6.249-.493 9.518-1.416l.049.162c3.431-.92 6.634-2.241 9.935-3.603 6.083-2.51 12.373-5.106 20.433-5.106 8.059 0 14.349 2.596 20.431 5.106 6.057 2.498 11.778 4.859 19.192 4.859s13.134-2.36 19.191-4.859c6.083-2.51 12.372-5.106 20.433-5.106 8.059 0 14.349 2.596 20.431 5.106 6.057 2.498 11.778 4.859 19.192 4.859S658.44 7.598 664.496 5.1c6.083-2.51 12.372-5.106 20.432-5.106 8.06 0 14.35 2.596 20.432 5.106 3.115 1.285 6.141 2.533 9.354 3.442v-.001c2.946.832 5.768 1.291 8.59 1.395l.071.002.218.007.153.004.152.003.236.004.084.001a35.867 35.867 0 0 0 .659 0l.085-.001.234-.004.154-.003.152-.004.219-.007.069-.002c2.822-.104 5.645-.563 8.591-1.395l.001.001c3.212-.909 6.238-2.157 9.353-3.442 6.082-2.51 12.372-5.106 20.432-5.106 8.06 0 14.35 2.596 20.432 5.106 6.057 2.498 11.778 4.859 19.191 4.859 7.414 0 13.135-2.36 19.192-4.859 6.082-2.51 12.372-5.106 20.432-5.106 8.06 0 14.349 2.596 20.432 5.106 6.056 2.498 11.777 4.859 19.191 4.859s13.135-2.361 19.192-4.859c6.082-2.51 12.371-5.106 20.432-5.106 8.06 0 14.349 2.596 20.432 5.106 5.979 2.466 11.631 4.798 18.907 4.857 7.276-.059 12.928-2.391 18.907-4.857 6.083-2.51 12.372-5.106 20.432-5.106 8.06 0 14.35 2.596 20.432 5.106 6.057 2.498 11.778 4.859 19.192 4.859 7.413 0 13.134-2.36 19.191-4.859 6.082-2.51 12.372-5.106 20.432-5.106 8.06 0 14.35 2.596 20.432 5.106 6.057 2.498 11.778 4.859 19.192 4.859s13.134-2.361 19.191-4.859c6.082-2.51 12.372-5.106 20.432-5.106 8.06 0 14.349 2.596 20.432 5.106 3.115 1.285 6.141 2.533 9.354 3.442v-.001c2.945.832 5.768 1.291 8.59 1.395l.071.002.217.007.153.004.153.003.236.004.083.001a36.302 36.302 0 0 0 .66 0l.084-.001.235-.004.154-.003.152-.004.219-.007.069-.002c2.822-.104 5.645-.563 8.591-1.395v.001c3.213-.909 6.239-2.157 9.354-3.442 6.082-2.51 12.372-5.106 20.432-5.106 8.059 0 14.349 2.596 20.431 5.106 6.057 2.498 11.778 4.859 19.192 4.859s13.134-2.36 19.191-4.859c6.083-2.51 12.372-5.106 20.433-5.106 8.059 0 14.349 2.596 20.431 5.106 6.057 2.498 11.778 4.859 19.192 4.859s13.135-2.361 19.191-4.859c6.083-2.51 12.372-5.106 20.432-5.106 8.06 0 14.35 2.596 20.432 5.106 3.302 1.362 6.505 2.683 9.936 3.603l.049-.162c3.268.923 6.385 1.387 9.518 1.416 3.132-.029 6.249-.493 9.518-1.416l.049.162c3.431-.92 6.634-2.241 9.935-3.603 6.083-2.51 12.373-5.106 20.433-5.106 8.059 0 14.349 2.596 20.431 5.106 6.057 2.498 11.778 4.859 19.192 4.859s13.134-2.36 19.191-4.859c6.083-2.51 12.372-5.106 20.433-5.106 8.059 0 14.349 2.596 20.431 5.106 6.057 2.498 11.778 4.859 19.192 4.859s13.135-2.361 19.191-4.859c6.083-2.51 12.372-5.106 20.432-5.106 8.06 0 14.35 2.596 20.432 5.106 3.115 1.285 6.141 2.533 9.354 3.442v-.001c2.946.832 5.768 1.291 8.59 1.395l.071.002.218.007.153.004a390.42 390.42 0 0 1 .388.007l.084.001a35.867 35.867 0 0 0 .659 0l.085-.001.235-.004.153-.003.152-.004.219-.007.069-.002c2.822-.104 5.645-.563 8.591-1.395v.001c3.213-.909 6.239-2.157 9.354-3.442 6.082-2.51 12.372-5.106 20.432-5.106 8.06 0 14.35 2.596 20.432 5.106 6.057 2.498 11.778 4.859 19.191 4.859 7.414 0 13.135-2.36 19.192-4.859 6.082-2.51 12.372-5.106 20.432-5.106 8.06 0 14.349 2.596 20.432 5.106 6.056 2.498 11.777 4.859 19.191 4.859s13.135-2.361 19.192-4.859c6.082-2.51 12.371-5.106 20.431-5.106 8.061 0 14.35 2.596 20.433 5.106 6.056 2.498 11.777 4.859 19.191 4.859 3.237 0 6.452-.464 9.829-1.418l.887 2.915c-3.669 1.037-7.174 1.541-10.716 1.541z"/></svg>