<svg xmlns="http://www.w3.org/2000/svg" width="6093" height="41"><path fill-rule="evenodd" fill="#79FA91" d="M6059.065 40.991c-25.526 0-45.443-8.184-64.706-16.1-19.18-7.881-37.297-15.327-60.776-15.327-23.478 0-41.595 7.445-60.776 15.327-19.261 7.916-39.179 16.1-64.705 16.1-25.525 0-45.443-8.184-64.705-16.1-19.181-7.882-37.298-15.327-60.775-15.327-23.479 0-41.596 7.446-60.777 15.327-19.262 7.916-39.18 16.1-64.704 16.1-25.526 0-45.444-8.184-64.706-16.1-19.181-7.882-37.298-15.327-60.776-15.327s-41.595 7.446-60.776 15.327c-9.856 4.05-19.884 8.171-30.747 11.229l.004.011c-11.619 3.27-22.72 4.86-33.936 4.86h-.026c-11.217 0-22.317-1.59-33.936-4.86l.003-.011c-10.862-3.058-20.89-7.179-30.746-11.229-19.181-7.881-37.297-15.327-60.776-15.327-23.478 0-41.595 7.445-60.776 15.327-19.261 7.916-39.179 16.1-64.705 16.1-25.526 0-45.443-8.184-64.705-16.1-19.181-7.882-37.298-15.327-60.775-15.327-23.479 0-41.596 7.446-60.777 15.327-19.262 7.916-39.18 16.1-64.705 16.1s-45.444-8.184-64.705-16.1c-19.181-7.882-37.299-15.327-60.776-15.327-23.478 0-41.595 7.446-60.776 15.327-19.263 7.916-39.181 16.1-64.705 16.1-.329 0-.657-.002-.986-.004-.328.002-.656.004-.985.004-25.525 0-45.443-8.184-64.705-16.1-19.181-7.881-37.298-15.327-60.776-15.327s-41.596 7.445-60.776 15.327c-19.261 7.916-39.179 16.1-64.706 16.1-25.525 0-45.442-8.184-64.705-16.1-19.18-7.882-37.297-15.327-60.775-15.327s-41.595 7.446-60.776 15.327c-19.262 7.916-39.18 16.1-64.705 16.1s-45.444-8.184-64.705-16.1c-19.182-7.882-37.299-15.327-60.776-15.327-23.478 0-41.595 7.446-60.776 15.327-9.856 4.05-19.884 8.171-30.747 11.229l.003.011c-11.619 3.27-22.719 4.86-33.935 4.86h-.026c-11.217 0-22.318-1.59-33.937-4.86l.004-.011c-10.863-3.058-20.89-7.179-30.746-11.229-19.181-7.881-37.298-15.327-60.776-15.327-23.479 0-41.596 7.445-60.776 15.327-19.262 7.916-39.179 16.1-64.705 16.1-25.526 0-45.443-8.184-64.706-16.1-19.18-7.882-37.298-15.327-60.775-15.327-23.478 0-41.595 7.446-60.777 15.327-19.261 7.916-39.18 16.1-64.704 16.1-25.526 0-45.444-8.184-64.705-16.1-19.182-7.882-37.299-15.327-60.776-15.327-23.479 0-41.596 7.446-60.777 15.327-9.361 3.847-18.877 7.757-29.116 10.761l.146.479c-11.619 3.27-22.72 4.86-33.935 4.86-.301 0-.601-.002-.9-.004-.299.002-.599.004-.9.004-11.216 0-22.317-1.59-33.936-4.86l.146-.48c-10.239-3.003-19.754-6.913-29.115-10.76-19.181-7.881-37.298-15.327-60.776-15.327-23.479 0-41.596 7.445-60.776 15.327-19.262 7.916-39.179 16.1-64.705 16.1-25.526 0-45.443-8.184-64.706-16.1-19.18-7.882-37.298-15.327-60.775-15.327-23.478 0-41.595 7.446-60.777 15.327-19.261 7.916-39.18 16.1-64.704 16.1-25.526 0-45.444-8.184-64.705-16.1-19.182-7.882-37.299-15.327-60.777-15.327s-41.595 7.446-60.776 15.327c-9.856 4.05-19.884 8.171-30.746 11.229l.003.011c-11.619 3.27-22.719 4.86-33.936 4.86h-.026c-11.216 0-22.317-1.59-33.936-4.86l.003-.011c-10.862-3.058-20.89-7.179-30.746-11.229-19.18-7.881-37.297-15.327-60.776-15.327-23.478 0-41.595 7.445-60.776 15.327-19.261 7.916-39.179 16.1-64.705 16.1-25.525 0-45.443-8.184-64.705-16.1-19.181-7.882-37.298-15.327-60.775-15.327-23.479 0-41.595 7.446-60.777 15.327-19.262 7.916-39.18 16.1-64.704 16.1-25.526 0-45.444-8.184-64.706-16.1-19.181-7.882-37.299-15.327-60.776-15.327-23.478 0-41.595 7.446-60.776 15.327-19.262 7.916-39.18 16.1-64.705 16.1-.328 0-.657-.002-.985-.004-.329.002-.657.004-.986.004-25.525 0-45.442-8.184-64.705-16.1-19.18-7.881-37.297-15.327-60.776-15.327-23.478 0-41.595 7.445-60.776 15.327-19.261 7.916-39.179 16.1-64.705 16.1-25.526 0-45.443-8.184-64.705-16.1-19.181-7.882-37.298-15.327-60.775-15.327-23.479 0-41.596 7.446-60.777 15.327-19.262 7.916-39.18 16.1-64.705 16.1s-45.444-8.184-64.705-16.1c-19.181-7.882-37.299-15.327-60.776-15.327-23.478 0-41.595 7.446-60.776 15.327-9.856 4.05-19.884 8.171-30.747 11.229l.003.011c-11.619 3.27-22.719 4.86-33.935 4.86h-.026c-11.217 0-22.318-1.59-33.937-4.86l.004-.011c-10.863-3.058-20.89-7.179-30.746-11.229-19.181-7.881-37.298-15.327-60.776-15.327-23.479 0-41.596 7.445-60.776 15.327-19.262 7.916-39.179 16.1-64.705 16.1-25.526 0-45.443-8.184-64.706-16.1-19.18-7.882-37.297-15.327-60.775-15.327s-41.595 7.446-60.776 15.327c-19.262 7.916-39.181 16.1-64.705 16.1-25.525 0-45.444-8.184-64.705-16.1-19.182-7.882-37.299-15.327-60.776-15.327-23.478 0-41.596 7.446-60.776 15.327-19.262 7.916-39.181 16.1-64.705 16.1-11.217 0-22.318-1.59-33.937-4.86l2.81-9.192c10.692 3.008 20.874 4.472 31.127 4.472 23.478 0 41.595-7.445 60.776-15.327 19.262-7.915 39.18-16.099 64.705-16.099 25.524 0 45.443 8.184 64.704 16.099 19.182 7.882 37.299 15.327 60.777 15.327s41.595-7.444 60.776-15.327c19.262-7.915 39.18-16.099 64.705-16.099s45.442 8.184 64.705 16.099c19.18 7.882 37.297 15.327 60.776 15.327 23.479 0 41.596-7.445 60.777-15.327C615.898 8.169 635.815-.015 661.341-.015c25.525 0 45.442 8.184 64.705 16.099 9.864 4.053 19.446 7.991 29.621 10.86l.002-.005c9.833 2.766 19.234 4.226 28.656 4.443l.144.003.296.006.291.005.188.003a55.773 55.773 0 0 0 .505.006 93.242 93.242 0 0 0 2.12 0l.097-.001.407-.005.191-.003.288-.005.299-.006.139-.003c9.422-.216 18.824-1.676 28.661-4.443l.001.005c10.174-2.869 19.757-6.807 29.62-10.86C866.834 8.169 886.753-.015 912.277-.015s45.443 8.184 64.704 16.099c19.182 7.882 37.299 15.327 60.777 15.327s41.595-7.444 60.776-15.327c19.262-7.915 39.18-16.099 64.706-16.099 25.524 0 45.442 8.184 64.704 16.099 19.18 7.882 37.298 15.327 60.776 15.327 23.479 0 41.596-7.445 60.777-15.327 19.262-7.915 39.179-16.099 64.704-16.099 25.525 0 45.443 8.184 64.705 16.099 10.457 4.297 20.598 8.464 31.464 11.366l.156-.511c10.35 2.912 20.221 4.376 30.142 4.467 9.919-.091 19.79-1.555 30.142-4.467l.156.511c10.866-2.902 21.007-7.069 31.463-11.366 19.263-7.915 39.181-16.099 64.705-16.099 25.525 0 45.443 8.184 64.704 16.099 19.182 7.882 37.299 15.327 60.778 15.327 23.477 0 41.594-7.444 60.775-15.327 19.262-7.915 39.181-16.099 64.706-16.099 25.524 0 45.442 8.184 64.704 16.099 19.181 7.882 37.298 15.327 60.776 15.327 23.479 0 41.597-7.445 60.777-15.327 19.262-7.915 39.179-16.099 64.704-16.099 25.526 0 45.443 8.184 64.705 16.099 9.864 4.053 19.447 7.991 29.622 10.86l.001-.005c9.834 2.766 19.234 4.226 28.656 4.443l.145.003.295.006.292.005.187.003a55.37 55.37 0 0 0 .505.006 93.374 93.374 0 0 0 2.12 0l.097-.001.408-.005.19-.003a27.66 27.66 0 0 0 .587-.011l.14-.003c9.422-.216 18.823-1.676 28.66-4.443l.002.005c10.174-2.869 19.756-6.807 29.619-10.86 19.263-7.915 39.181-16.099 64.705-16.099 25.525 0 45.443 8.184 64.705 16.099 19.181 7.882 37.299 15.327 60.777 15.327 23.477 0 41.594-7.444 60.776-15.327 19.261-7.915 39.18-16.099 64.705-16.099 25.524 0 45.442 8.184 64.704 16.099 19.181 7.882 37.298 15.327 60.777 15.327s41.596-7.445 60.776-15.327c19.262-7.915 39.179-16.099 64.705-16.099 25.525 0 45.442 8.184 64.705 16.099 18.935 7.781 36.834 15.135 59.876 15.323 23.043-.188 40.942-7.542 59.876-15.323 19.263-7.915 39.181-16.099 64.706-16.099 25.524 0 45.442 8.184 64.704 16.099 19.181 7.882 37.299 15.327 60.777 15.327 23.477 0 41.594-7.444 60.776-15.327 19.261-7.915 39.18-16.099 64.705-16.099 25.524 0 45.442 8.184 64.704 16.099 19.181 7.882 37.298 15.327 60.777 15.327s41.596-7.445 60.776-15.327c19.262-7.915 39.179-16.099 64.705-16.099 25.525 0 45.442 8.184 64.705 16.099 9.864 4.053 19.446 7.991 29.621 10.86l.001-.005c9.834 2.766 19.235 4.226 28.656 4.443l.145.003.296.006.291.005.188.003.409.005.096.001a93.242 93.242 0 0 0 2.12 0l.097-.001.407-.005.19-.003.288-.005.3-.006.139-.003c9.422-.216 18.824-1.676 28.66-4.443l.001.005c10.175-2.869 19.757-6.807 29.621-10.86 19.262-7.915 39.181-16.099 64.705-16.099s45.443 8.184 64.704 16.099c19.182 7.882 37.299 15.327 60.777 15.327 23.477 0 41.594-7.444 60.776-15.327 19.261-7.915 39.18-16.099 64.705-16.099s45.442 8.184 64.705 16.099c19.18 7.882 37.297 15.327 60.775 15.327 23.48 0 41.597-7.445 60.778-15.327 19.261-7.915 39.179-16.099 64.704-16.099 25.525 0 45.443 8.184 64.705 16.099 10.457 4.297 20.598 8.464 31.464 11.366l.156-.511c10.35 2.912 20.221 4.376 30.141 4.467 9.92-.091 19.791-1.555 30.143-4.467l.156.511c10.866-2.902 21.006-7.069 31.463-11.366 19.262-7.915 39.181-16.099 64.705-16.099s45.443 8.184 64.704 16.099c19.182 7.882 37.299 15.327 60.777 15.327s41.595-7.444 60.776-15.327c19.262-7.915 39.18-16.099 64.706-16.099 25.524 0 45.442 8.184 64.704 16.099 19.18 7.882 37.297 15.327 60.776 15.327 23.479 0 41.596-7.445 60.777-15.327 19.261-7.915 39.179-16.099 64.704-16.099 25.525 0 45.443 8.184 64.705 16.099 9.864 4.053 19.447 7.991 29.622 10.86l.001-.005c9.833 2.766 19.234 4.226 28.656 4.443l.145.003.295.006a28.24 28.24 0 0 0 .479.008l.409.005.096.001a93.374 93.374 0 0 0 2.12 0l.097-.001.408-.005.19-.003.288-.005.299-.006.14-.003c9.421-.216 18.823-1.676 28.66-4.443l.001.005c10.175-2.869 19.757-6.807 29.62-10.86 19.262-7.915 39.181-16.099 64.705-16.099 25.525 0 45.443 8.184 64.705 16.099 19.181 7.882 37.298 15.327 60.777 15.327 23.477 0 41.594-7.444 60.775-15.327 19.262-7.915 39.181-16.099 64.706-16.099 25.524 0 45.442 8.184 64.704 16.099 19.181 7.882 37.298 15.327 60.776 15.327 23.479 0 41.596-7.445 60.777-15.327 19.261-7.915 39.179-16.099 64.704-16.099 25.526 0 45.443 8.184 64.705 16.099 19.181 7.882 37.298 15.327 60.777 15.327 10.251 0 20.433-1.464 31.128-4.472l2.807 9.192c-11.619 3.27-22.72 4.86-33.935 4.86z"/></svg>