<svg xmlns="http://www.w3.org/2000/svg" width="6093" height="41"><path fill-rule="evenodd" fill="#53E9B3" d="M6059.065 40.99c-25.526 0-45.443-8.184-64.706-16.099-19.18-7.882-37.297-15.327-60.776-15.327-23.478 0-41.595 7.445-60.776 15.327-19.261 7.915-39.179 16.099-64.705 16.099-25.525 0-45.443-8.184-64.705-16.099-19.181-7.882-37.298-15.327-60.775-15.327-23.479 0-41.596 7.445-60.777 15.327-19.262 7.915-39.18 16.099-64.704 16.099-25.526 0-45.444-8.184-64.706-16.099-19.181-7.882-37.298-15.327-60.776-15.327s-41.595 7.445-60.776 15.327c-9.856 4.05-19.884 8.17-30.747 11.229l.004.011c-11.619 3.27-22.72 4.859-33.936 4.859h-.026c-11.217 0-22.317-1.589-33.937-4.859l.004-.011c-10.862-3.059-20.89-7.179-30.746-11.229-19.181-7.882-37.297-15.327-60.776-15.327-23.478 0-41.595 7.445-60.776 15.327-19.261 7.915-39.179 16.099-64.705 16.099-25.526 0-45.443-8.184-64.705-16.099-19.181-7.882-37.298-15.327-60.775-15.327-23.479 0-41.596 7.445-60.777 15.327-19.262 7.915-39.18 16.099-64.705 16.099s-45.444-8.184-64.705-16.099c-19.181-7.882-37.299-15.327-60.776-15.327-23.478 0-41.595 7.445-60.776 15.327-19.263 7.915-39.181 16.099-64.705 16.099-.329 0-.657-.001-.986-.004-.328.003-.656.004-.985.004-25.525 0-45.443-8.184-64.705-16.099-19.181-7.882-37.298-15.327-60.776-15.327s-41.596 7.445-60.776 15.327c-19.261 7.915-39.179 16.099-64.706 16.099-25.525 0-45.442-8.184-64.705-16.099-19.18-7.882-37.297-15.327-60.775-15.327s-41.595 7.445-60.776 15.327c-19.262 7.915-39.18 16.099-64.705 16.099s-45.444-8.184-64.705-16.099c-19.182-7.882-37.299-15.327-60.776-15.327-23.478 0-41.595 7.445-60.776 15.327-9.856 4.05-19.885 8.17-30.747 11.229l.003.011c-11.619 3.27-22.72 4.859-33.935 4.859h-.026c-11.217 0-22.318-1.589-33.937-4.859l.004-.011c-10.863-3.059-20.89-7.179-30.746-11.229-19.181-7.882-37.298-15.327-60.776-15.327-23.479 0-41.596 7.445-60.776 15.327-19.262 7.915-39.179 16.099-64.705 16.099-25.526 0-45.443-8.184-64.706-16.099-19.18-7.882-37.298-15.327-60.775-15.327-23.478 0-41.595 7.445-60.777 15.327-19.261 7.915-39.18 16.099-64.704 16.099-25.526 0-45.444-8.184-64.705-16.099-19.182-7.882-37.299-15.327-60.776-15.327-23.479 0-41.596 7.445-60.777 15.327-9.361 3.847-18.877 7.757-29.116 10.76l.146.48c-11.619 3.27-22.72 4.859-33.935 4.859-.301 0-.601-.001-.9-.003-.299.002-.599.003-.9.003-11.216 0-22.317-1.589-33.936-4.859l.147-.48c-10.239-3.003-19.755-6.913-29.116-10.76-19.181-7.882-37.298-15.327-60.776-15.327-23.479 0-41.596 7.445-60.776 15.327-19.262 7.915-39.179 16.099-64.705 16.099-25.526 0-45.443-8.184-64.706-16.099-19.18-7.882-37.298-15.327-60.775-15.327-23.478 0-41.595 7.445-60.777 15.327-19.261 7.915-39.18 16.099-64.704 16.099-25.526 0-45.444-8.184-64.705-16.099-19.182-7.882-37.299-15.327-60.777-15.327s-41.595 7.445-60.776 15.327c-9.856 4.05-19.884 8.17-30.747 11.229l.004.011c-11.619 3.27-22.719 4.859-33.936 4.859h-.026c-11.216 0-22.317-1.589-33.936-4.859l.003-.011c-10.862-3.059-20.89-7.179-30.746-11.229-19.18-7.882-37.297-15.327-60.776-15.327-23.478 0-41.595 7.445-60.776 15.327-19.261 7.915-39.179 16.099-64.705 16.099-25.525 0-45.443-8.184-64.705-16.099-19.181-7.882-37.298-15.327-60.775-15.327-23.479 0-41.595 7.445-60.777 15.327-19.262 7.915-39.18 16.099-64.704 16.099-25.526 0-45.444-8.184-64.706-16.099-19.181-7.882-37.299-15.327-60.776-15.327-23.478 0-41.595 7.445-60.776 15.327-19.262 7.915-39.18 16.099-64.705 16.099-.329 0-.657-.001-.985-.004-.329.003-.657.004-.986.004-25.525 0-45.442-8.184-64.705-16.099-19.18-7.882-37.297-15.327-60.776-15.327-23.478 0-41.595 7.445-60.776 15.327-19.261 7.915-39.179 16.099-64.705 16.099-25.526 0-45.443-8.184-64.705-16.099-19.181-7.882-37.298-15.327-60.775-15.327-23.479 0-41.596 7.445-60.777 15.327-19.262 7.915-39.18 16.099-64.705 16.099s-45.444-8.184-64.705-16.099c-19.182-7.882-37.299-15.327-60.776-15.327-23.478 0-41.595 7.445-60.776 15.327-9.856 4.05-19.884 8.17-30.747 11.229l.003.011c-11.619 3.27-22.719 4.859-33.935 4.859h-.026c-11.217 0-22.318-1.589-33.937-4.859l.004-.011c-10.863-3.059-20.89-7.179-30.746-11.229-19.181-7.882-37.298-15.327-60.776-15.327-23.479 0-41.596 7.445-60.776 15.327-19.262 7.915-39.179 16.099-64.705 16.099-25.526 0-45.443-8.184-64.706-16.099-19.18-7.882-37.297-15.327-60.775-15.327s-41.595 7.445-60.777 15.327c-19.261 7.915-39.18 16.099-64.704 16.099-25.525 0-45.444-8.184-64.705-16.099-19.182-7.882-37.299-15.327-60.776-15.327-23.478 0-41.596 7.445-60.776 15.327C79.379 32.806 59.46 40.99 33.936 40.99c-11.217 0-22.318-1.589-33.937-4.859l2.81-9.192c10.692 3.008 20.874 4.471 31.127 4.471 23.478 0 41.595-7.445 60.776-15.326 19.262-7.915 39.18-16.099 64.705-16.099 25.524 0 45.443 8.184 64.704 16.099 19.182 7.881 37.299 15.326 60.777 15.326 23.477 0 41.595-7.444 60.776-15.326 19.262-7.915 39.18-16.099 64.705-16.099s45.442 8.184 64.705 16.099c19.18 7.881 37.297 15.326 60.776 15.326 23.479 0 41.596-7.445 60.776-15.326C615.898 8.169 635.815-.015 661.341-.015c25.525 0 45.442 8.184 64.705 16.099 9.864 4.053 19.446 7.991 29.621 10.859l.002-.004c9.834 2.766 19.235 4.226 28.656 4.443l.144.003.296.006.29.005.189.003.409.005.096.001a124.262 124.262 0 0 0 2.12 0l.097-.001.407-.005.191-.003.287-.005.301-.006.138-.003c9.421-.217 18.823-1.677 28.661-4.443l.001.004c10.174-2.869 19.757-6.806 29.62-10.859C866.834 8.169 886.753-.015 912.277-.015s45.443 8.184 64.704 16.099c19.182 7.881 37.299 15.326 60.777 15.326s41.595-7.444 60.776-15.326c19.262-7.915 39.18-16.099 64.706-16.099 25.524 0 45.442 8.184 64.704 16.099 19.18 7.881 37.298 15.326 60.776 15.326 23.479 0 41.596-7.445 60.777-15.326 19.261-7.915 39.179-16.099 64.704-16.099 25.525 0 45.443 8.184 64.705 16.099 10.457 4.297 20.598 8.464 31.464 11.365l.156-.51c10.35 2.911 20.221 4.376 30.142 4.467 9.919-.091 19.79-1.556 30.142-4.467l.156.51c10.866-2.902 21.006-7.068 31.463-11.365 19.263-7.915 39.181-16.099 64.705-16.099 25.525 0 45.443 8.184 64.704 16.099 19.182 7.881 37.299 15.326 60.778 15.326 23.477 0 41.594-7.444 60.775-15.326 19.262-7.915 39.181-16.099 64.706-16.099 25.524 0 45.442 8.184 64.704 16.099 19.181 7.881 37.298 15.326 60.776 15.326 23.479 0 41.597-7.445 60.777-15.326 19.262-7.915 39.179-16.099 64.704-16.099 25.526 0 45.443 8.184 64.705 16.099 9.864 4.053 19.447 7.991 29.622 10.859l.001-.004c9.834 2.766 19.235 4.226 28.657 4.443a325.117 325.117 0 0 0 .44.009l.29.005.188.003.409.005.096.001a124.458 124.458 0 0 0 2.12 0l.098-.001.406-.005.192-.003.286-.005.301-.006.138-.003c9.422-.217 18.824-1.677 28.661-4.443l.002.004c10.174-2.869 19.756-6.806 29.619-10.859 19.263-7.915 39.181-16.099 64.705-16.099 25.525 0 45.443 8.184 64.705 16.099 19.181 7.881 37.299 15.326 60.777 15.326 23.477 0 41.594-7.444 60.776-15.326 19.261-7.915 39.18-16.099 64.705-16.099 25.524 0 45.442 8.184 64.704 16.099 19.181 7.881 37.298 15.326 60.777 15.326s41.596-7.445 60.776-15.326c19.262-7.915 39.179-16.099 64.705-16.099 25.525 0 45.442 8.184 64.705 16.099 18.935 7.78 36.833 15.135 59.876 15.322 23.043-.187 40.942-7.542 59.876-15.322 19.263-7.915 39.181-16.099 64.706-16.099 25.524 0 45.442 8.184 64.704 16.099 19.181 7.881 37.299 15.326 60.777 15.326 23.477 0 41.594-7.444 60.776-15.326 19.261-7.915 39.18-16.099 64.705-16.099 25.524 0 45.442 8.184 64.704 16.099 19.181 7.881 37.298 15.326 60.777 15.326s41.596-7.445 60.776-15.326c19.262-7.915 39.179-16.099 64.705-16.099 25.525 0 45.442 8.184 64.705 16.099 9.863 4.053 19.446 7.991 29.621 10.859l.001-.004c9.834 2.766 19.235 4.226 28.657 4.443a325.117 325.117 0 0 1 .44.009l.29.005.189.003.409.005.096.001a124.262 124.262 0 0 0 2.119 0l.098-.001.407-.005.191-.003.287-.005.301-.006.137-.003c9.422-.217 18.824-1.677 28.661-4.443l.001.004c10.175-2.869 19.757-6.806 29.621-10.859 19.262-7.915 39.181-16.099 64.705-16.099s45.443 8.184 64.704 16.099c19.182 7.881 37.299 15.326 60.777 15.326 23.477 0 41.594-7.444 60.776-15.326 19.261-7.915 39.18-16.099 64.705-16.099s45.442 8.184 64.705 16.099c19.18 7.881 37.297 15.326 60.775 15.326 23.48 0 41.597-7.445 60.778-15.326 19.261-7.915 39.179-16.099 64.704-16.099 25.525 0 45.443 8.184 64.705 16.099 10.457 4.297 20.598 8.464 31.464 11.365l.156-.51c10.35 2.911 20.221 4.376 30.141 4.467 9.92-.091 19.791-1.556 30.143-4.467l.156.51c10.866-2.902 21.006-7.068 31.463-11.365 19.262-7.915 39.181-16.099 64.705-16.099s45.443 8.184 64.704 16.099c19.182 7.881 37.299 15.326 60.777 15.326s41.595-7.444 60.776-15.326c19.262-7.915 39.18-16.099 64.706-16.099 25.524 0 45.442 8.184 64.704 16.099 19.18 7.881 37.297 15.326 60.776 15.326 23.479 0 41.596-7.445 60.777-15.326 19.261-7.915 39.179-16.099 64.704-16.099 25.525 0 45.443 8.184 64.705 16.099 9.864 4.053 19.447 7.991 29.622 10.859l.001-.004c9.834 2.766 19.235 4.226 28.657 4.443a325.117 325.117 0 0 0 .439.009l.291.005.188.003.409.005.096.001a124.458 124.458 0 0 0 2.12 0l.098-.001.406-.005.191-.003.287-.005.301-.006.138-.003c9.422-.217 18.824-1.677 28.661-4.443l.001.004c10.175-2.869 19.757-6.806 29.62-10.859 19.262-7.915 39.181-16.099 64.705-16.099 25.525 0 45.443 8.184 64.705 16.099 19.181 7.881 37.298 15.326 60.777 15.326 23.477 0 41.594-7.444 60.775-15.326 19.262-7.915 39.181-16.099 64.706-16.099 25.524 0 45.442 8.184 64.704 16.099 19.181 7.881 37.298 15.326 60.776 15.326 23.479 0 41.596-7.445 60.777-15.326 19.261-7.915 39.179-16.099 64.704-16.099 25.526 0 45.443 8.184 64.705 16.099 19.181 7.881 37.298 15.326 60.777 15.326 10.251 0 20.433-1.463 31.128-4.471l2.807 9.192c-11.619 3.27-22.72 4.859-33.935 4.859z"/></svg>