<svg xmlns="http://www.w3.org/2000/svg" width="1924" height="13"><path fill-rule="evenodd" fill="#C7C7C7" d="M1913.284 12.997c-8.06 0-14.35-2.595-20.432-5.105-6.057-2.499-11.778-4.859-19.191-4.859-7.414 0-13.135 2.36-19.192 4.859-6.082 2.51-12.371 5.105-20.432 5.105-8.06 0-14.349-2.595-20.432-5.105-6.057-2.499-11.778-4.859-19.191-4.859-7.414 0-13.135 2.36-19.192 4.859-6.082 2.51-12.372 5.105-20.432 5.105-8.06 0-14.349-2.595-20.432-5.105-6.057-2.499-11.778-4.859-19.191-4.859-7.414 0-13.135 2.36-19.191 4.859-3.113 1.284-6.279 2.591-9.709 3.561l.001.003c-1.805.51-3.571.891-5.321 1.147l-.011.001a38.027 38.027 0 0 1-.639.088l-.059.008-.287.035-.058.007-.328.037-.016.002a41.899 41.899 0 0 1-.725.071l-.327.028-.062.004-.288.022-.077.005-.276.018-.084.005-.272.015-.086.004c-.091.004-.181.009-.272.012l-.087.004-.276.009a63.651 63.651 0 0 1-.368.01l-.076.002-.309.005h-.053l-.359.002h-.009l-.359-.002h-.053l-.309-.005-.075-.002a26.638 26.638 0 0 1-.286-.007l-.083-.003-.277-.009-.085-.004-.274-.012-.085-.004-.273-.015-.082-.005-.279-.018-.074-.005-.294-.022-.056-.004-.338-.029h-.01c-.35-.032-.7-.068-1.051-.109l-.043-.006a14.647 14.647 0 0 1-.302-.037l-.047-.006-.301-.039-.03-.005a41.483 41.483 0 0 1-5.65-1.193l.001-.003c-3.43-.97-6.596-2.277-9.708-3.561-6.057-2.499-11.778-4.859-19.192-4.859s-13.134 2.36-19.191 4.859c-6.082 2.51-12.372 5.105-20.432 5.105-8.06 0-14.35-2.595-20.432-5.105-6.057-2.499-11.778-4.859-19.191-4.859-7.414 0-13.135 2.36-19.192 4.859-6.082 2.51-12.372 5.105-20.432 5.105-8.06 0-14.35-2.595-20.432-5.105-6.057-2.499-11.778-4.859-19.191-4.859-7.414 0-13.135 2.36-19.192 4.859-6.082 2.51-12.372 5.105-20.432 5.105l-.311-.001-.311.001c-8.06 0-14.35-2.595-20.432-5.105-6.057-2.499-11.778-4.859-19.192-4.859-7.413 0-13.134 2.36-19.191 4.859-6.082 2.51-12.372 5.105-20.432 5.105-8.06 0-14.35-2.595-20.432-5.105-6.057-2.499-11.778-4.859-19.191-4.859-7.414 0-13.135 2.36-19.192 4.859-6.082 2.51-12.372 5.105-20.432 5.105-8.06 0-14.35-2.595-20.432-5.105-6.057-2.499-11.778-4.859-19.191-4.859-7.414 0-13.135 2.36-19.192 4.859-3.112 1.284-6.279 2.591-9.709 3.561l.001.003c-1.805.51-3.57.891-5.32 1.147l-.011.001a32.8 32.8 0 0 1-.309.044l-.042.006-.288.038-.059.008-.288.035-.058.007-.327.037-.016.002c-.235.025-.469.048-.704.069l-.021.002-.327.028-.062.004-.288.022-.078.005-.275.018-.084.005-.272.015-.086.004-.272.012-.087.004-.276.009-.083.003-.286.007-.075.002-.309.005h-.053l-.36.002h-.008l-.359-.002h-.053l-.31-.005-.074-.002a27.481 27.481 0 0 1-.287-.007l-.082-.003-.277-.009-.085-.004c-.092-.003-.183-.008-.274-.012l-.085-.004-.274-.015-.081-.005-.279-.018-.074-.005-.294-.022-.057-.004-.337-.029h-.01c-.35-.032-.7-.068-1.051-.109l-.043-.006a14.647 14.647 0 0 1-.349-.043l-.301-.039-.031-.005a41.47 41.47 0 0 1-5.649-1.193l.001-.003c-3.43-.97-6.596-2.277-9.709-3.561-6.056-2.499-11.777-4.859-19.191-4.859s-13.135 2.36-19.191 4.859c-6.083 2.51-12.372 5.105-20.432 5.105-8.061 0-14.35-2.595-20.433-5.105-6.056-2.499-11.777-4.859-19.191-4.859s-13.134 2.36-19.191 4.859c-6.083 2.51-12.372 5.105-20.432 5.105-8.06 0-14.35-2.595-20.432-5.105-6.057-2.499-11.778-4.859-19.192-4.859-7.413 0-13.134 2.36-19.191 4.859-2.956 1.22-5.961 2.46-9.194 3.412l.046.152c-3.669 1.037-7.174 1.541-10.716 1.541l-.284-.001-.284.001c-3.542 0-7.047-.504-10.716-1.541l.046-.152c-3.233-.952-6.238-2.192-9.194-3.412-6.057-2.499-11.778-4.859-19.191-4.859-7.414 0-13.135 2.36-19.192 4.859-6.082 2.51-12.371 5.105-20.432 5.105-8.06 0-14.349-2.595-20.432-5.105-6.057-2.499-11.778-4.859-19.191-4.859-7.414 0-13.135 2.36-19.192 4.859-6.082 2.51-12.372 5.105-20.432 5.105-8.06 0-14.35-2.595-20.432-5.105-6.057-2.499-11.778-4.859-19.191-4.859-7.414 0-13.135 2.36-19.191 4.859-3.113 1.284-6.279 2.591-9.709 3.561l.001.003c-1.806.51-3.573.891-5.323 1.147l-.008.001-.312.044-.039.006-.292.038-.055.008-.293.036-.053.006-.335.038-.008.001c-.235.025-.47.048-.705.069l-.017.002-.331.028-.059.004-.292.022-.075.005-.277.018-.083.005-.273.015-.086.004-.272.012-.086.004-.277.009-.083.003-.286.007-.075.002-.309.005h-.053l-.359.002h-.009l-.359-.002h-.053l-.309-.005-.075-.002a26.638 26.638 0 0 1-.286-.007l-.083-.003-.277-.009-.085-.004-.274-.012-.085-.004-.274-.015-.081-.005-.279-.018-.074-.005-.294-.022-.056-.004-.338-.029h-.01c-.35-.032-.7-.068-1.051-.109l-.042-.005-.303-.038a5.545 5.545 0 0 1-.046-.006c-.101-.012-.201-.026-.302-.039l-.029-.005a41.346 41.346 0 0 1-5.651-1.193l.001-.003c-3.43-.97-6.596-2.277-9.708-3.561-6.057-2.499-11.778-4.859-19.192-4.859s-13.134 2.36-19.191 4.859c-6.082 2.51-12.372 5.105-20.432 5.105-8.061 0-14.35-2.595-20.432-5.105-6.057-2.499-11.778-4.859-19.191-4.859-7.414 0-13.135 2.36-19.192 4.859-6.082 2.51-12.372 5.105-20.432 5.105-8.06 0-14.35-2.595-20.432-5.105-6.057-2.499-11.778-4.859-19.191-4.859-7.414 0-13.135 2.36-19.192 4.859-6.082 2.51-12.372 5.105-20.432 5.105l-.311-.001-.311.001c-8.06 0-14.35-2.595-20.432-5.105-6.057-2.499-11.778-4.859-19.192-4.859s-13.134 2.36-19.191 4.859c-6.082 2.51-12.372 5.105-20.432 5.105-8.06 0-14.35-2.595-20.432-5.105-6.057-2.499-11.778-4.859-19.191-4.859-7.414 0-13.135 2.36-19.192 4.859-6.082 2.51-12.372 5.105-20.432 5.105-8.06 0-14.35-2.595-20.432-5.105-6.057-2.499-11.778-4.859-19.191-4.859-7.414 0-13.135 2.36-19.192 4.859-3.112 1.284-6.279 2.591-9.709 3.561l.001.003c-1.806.51-3.572.891-5.323 1.147l-.007.001-.313.044-.038.006-.293.038-.055.008-.292.036-.053.006-.336.038-.008.001c-.235.025-.47.048-.704.069l-.017.002-.331.028-.06.004-.291.022-.075.005-.278.018-.082.005-.273.015-.086.004-.273.012-.086.004-.276.009-.083.003-.286.007-.075.002-.309.005h-.053l-.36.002h-.008l-.359-.002h-.053l-.31-.005-.074-.002a27.481 27.481 0 0 1-.287-.007l-.082-.003-.277-.009-.085-.004c-.092-.003-.183-.008-.274-.012l-.085-.004-.274-.015-.081-.005-.28-.018-.073-.005-.295-.022-.055-.004a35.46 35.46 0 0 1-.338-.029h-.01a42.06 42.06 0 0 1-1.094-.114l-.303-.038-.045-.006-.303-.039-.029-.005a41.364 41.364 0 0 1-5.65-1.193l.001-.003c-3.43-.97-6.596-2.277-9.709-3.561-6.056-2.499-11.777-4.859-19.191-4.859s-13.135 2.36-19.191 4.859c-6.083 2.51-12.372 5.105-20.432 5.105-8.061 0-14.35-2.595-20.433-5.105-6.056-2.499-11.777-4.859-19.191-4.859s-13.134 2.36-19.191 4.859c-6.083 2.51-12.372 5.105-20.432 5.105-8.06 0-14.35-2.595-20.432-5.105-6.057-2.499-11.778-4.859-19.192-4.859-7.413 0-13.134 2.36-19.191 4.859-6.083 2.51-12.372 5.105-20.432 5.105-3.542 0-7.047-.504-10.716-1.541l.887-2.914c3.376.953 6.591 1.417 9.829 1.417 7.414 0 13.135-2.36 19.191-4.859C35.99 2.59 42.279-.005 50.339-.005c8.06 0 14.35 2.595 20.432 5.105 6.057 2.499 11.778 4.859 19.192 4.859 7.413 0 13.134-2.36 19.191-4.859 6.082-2.51 12.372-5.105 20.432-5.105 8.06 0 14.35 2.595 20.432 5.105 6.057 2.499 11.778 4.859 19.192 4.859s13.134-2.36 19.191-4.859c6.082-2.51 12.372-5.105 20.432-5.105 8.06 0 14.349 2.595 20.432 5.105 3.115 1.285 6.141 2.533 9.354 3.443v-.001c2.946.832 5.77 1.291 8.592 1.395l.065.002.223.007.148.003.157.004c.077.001.155.003.233.003l.086.002.329.001.33-.001.086-.002c.078 0 .155-.002.233-.003l.157-.004.147-.003.225-.007.062-.002c2.823-.104 5.647-.563 8.594-1.395v.001c3.213-.91 6.239-2.158 9.354-3.443 6.082-2.51 12.372-5.105 20.432-5.105 8.059 0 14.349 2.595 20.431 5.105 6.057 2.499 11.778 4.859 19.192 4.859s13.134-2.36 19.191-4.859c6.083-2.51 12.372-5.105 20.433-5.105 8.06 0 14.349 2.595 20.431 5.105 6.057 2.499 11.778 4.859 19.192 4.859s13.135-2.36 19.191-4.859c6.083-2.51 12.372-5.105 20.432-5.105 8.061 0 14.35 2.595 20.432 5.105 3.302 1.362 6.505 2.683 9.936 3.603l.049-.161c3.268.923 6.385 1.387 9.518 1.416 3.132-.029 6.249-.493 9.518-1.416l.049.161c3.431-.92 6.634-2.241 9.935-3.603 6.083-2.51 12.373-5.105 20.433-5.105S540.784 2.59 546.866 5.1c6.057 2.499 11.778 4.859 19.192 4.859s13.134-2.36 19.191-4.859c6.083-2.51 12.372-5.105 20.433-5.105 8.06 0 14.349 2.595 20.431 5.105 6.057 2.499 11.778 4.859 19.192 4.859s13.135-2.36 19.191-4.859c6.083-2.51 12.372-5.105 20.432-5.105 8.06 0 14.35 2.595 20.432 5.105 3.115 1.285 6.141 2.533 9.354 3.443v-.001c2.947.832 5.77 1.291 8.593 1.395l.064.002.223.007.149.003.156.004.234.003.085.002.33.001.329-.001.086-.002c.078 0 .155-.002.233-.003l.157-.004.148-.003.225-.007.061-.002c2.823-.104 5.647-.563 8.594-1.395l.001.001c3.212-.91 6.238-2.158 9.353-3.443 6.082-2.51 12.372-5.105 20.432-5.105 8.06 0 14.35 2.595 20.432 5.105 6.057 2.499 11.778 4.859 19.191 4.859 7.414 0 13.135-2.36 19.192-4.859 6.082-2.51 12.372-5.105 20.432-5.105 8.06 0 14.349 2.595 20.432 5.105 6.056 2.499 11.777 4.859 19.191 4.859s13.135-2.36 19.192-4.859c6.082-2.51 12.371-5.105 20.432-5.105 8.06 0 14.349 2.595 20.432 5.105 5.979 2.467 11.631 4.798 18.907 4.858 7.276-.06 12.928-2.391 18.907-4.858 6.083-2.51 12.372-5.105 20.432-5.105 8.06 0 14.35 2.595 20.432 5.105 6.057 2.499 11.778 4.859 19.192 4.859 7.413 0 13.134-2.36 19.191-4.859 6.082-2.51 12.372-5.105 20.432-5.105 8.06 0 14.35 2.595 20.432 5.105 6.057 2.499 11.778 4.859 19.192 4.859s13.134-2.36 19.191-4.859c6.082-2.51 12.372-5.105 20.432-5.105 8.06 0 14.35 2.595 20.432 5.105 3.115 1.285 6.141 2.533 9.354 3.443v-.001c2.946.832 5.77 1.291 8.593 1.395l.064.002.223.007.148.003.157.004c.077.001.155.003.233.003l.086.002.329.001.33-.001.086-.002c.078 0 .155-.002.233-.003l.157-.004.147-.003.225-.007.062-.002c2.823-.104 5.647-.563 8.594-1.395v.001c3.213-.91 6.239-2.158 9.354-3.443 6.082-2.51 12.372-5.105 20.432-5.105 8.059 0 14.349 2.595 20.431 5.105 6.057 2.499 11.778 4.859 19.192 4.859s13.134-2.36 19.191-4.859c6.083-2.51 12.372-5.105 20.433-5.105 8.06 0 14.349 2.595 20.431 5.105 6.057 2.499 11.778 4.859 19.192 4.859s13.135-2.36 19.192-4.859c6.082-2.51 12.371-5.105 20.431-5.105 8.061 0 14.35 2.595 20.432 5.105 3.302 1.362 6.505 2.683 9.936 3.603l.049-.161c3.268.923 6.385 1.387 9.518 1.416 3.132-.029 6.249-.493 9.518-1.416l.049.161c3.431-.92 6.634-2.241 9.936-3.603 6.082-2.51 12.372-5.105 20.432-5.105 8.059 0 14.349 2.595 20.431 5.105 6.057 2.499 11.778 4.859 19.192 4.859s13.134-2.36 19.191-4.859c6.083-2.51 12.372-5.105 20.433-5.105 8.059 0 14.349 2.595 20.431 5.105 6.057 2.499 11.778 4.859 19.192 4.859s13.135-2.36 19.191-4.859c6.083-2.51 12.372-5.105 20.432-5.105 8.06 0 14.35 2.595 20.432 5.105 3.115 1.285 6.141 2.533 9.354 3.443v-.001c2.947.832 5.77 1.291 8.593 1.395l.064.002.223.007.149.003.156.004.234.003.085.002.33.001.329-.001.086-.002c.078 0 .156-.002.233-.003l.157-.004.148-.003.225-.007.061-.002c2.823-.104 5.647-.563 8.594-1.395l.001.001c3.212-.91 6.238-2.158 9.353-3.443 6.082-2.51 12.372-5.105 20.432-5.105 8.06 0 14.35 2.595 20.432 5.105 6.057 2.499 11.778 4.859 19.191 4.859 7.414 0 13.135-2.36 19.192-4.859 6.082-2.51 12.372-5.105 20.432-5.105 8.06 0 14.349 2.595 20.432 5.105 6.056 2.499 11.777 4.859 19.191 4.859s13.135-2.36 19.192-4.859c6.082-2.51 12.371-5.105 20.432-5.105 8.06 0 14.349 2.595 20.432 5.105 6.056 2.499 11.777 4.859 19.191 4.859 3.237 0 6.452-.464 9.83-1.417l.886 2.914c-3.669 1.037-7.174 1.541-10.716 1.541z"/></svg>