<svg xmlns="http://www.w3.org/2000/svg" width="24" height="24"><path fill-rule="evenodd" fill="#0D1B27" d="M23.412 14.1l-1.868.303a9.736 9.736 0 0 1-1.097 2.644l1.074 1.505c.2.279.168.662-.075.905l-1.988 1.989a.707.707 0 0 1-.906.075l-1.505-1.074a9.736 9.736 0 0 1-2.644 1.097l-.303 1.868a.704.704 0 0 1-.694.588h-2.812a.703.703 0 0 1-.694-.588l-.303-1.868a9.742 9.742 0 0 1-2.645-1.097l-1.504 1.074a.707.707 0 0 1-.906-.075l-1.988-1.989a.702.702 0 0 1-.075-.905l1.074-1.504a9.755 9.755 0 0 1-1.097-2.645L.588 14.1A.704.704 0 0 1 0 13.406v-2.813c0-.344.249-.637.588-.693l1.868-.303a9.742 9.742 0 0 1 1.097-2.645L2.479 5.448a.703.703 0 0 1 .075-.906l1.988-1.988a.7.7 0 0 1 .906-.075l1.504 1.074a9.776 9.776 0 0 1 2.645-1.098L9.9.588A.702.702 0 0 1 10.594 0h2.812c.344 0 .637.248.694.587l.303 1.868a9.739 9.739 0 0 1 2.644 1.098l1.505-1.074a.701.701 0 0 1 .906.075l1.988 1.988a.703.703 0 0 1 .075.906l-1.074 1.504a9.742 9.742 0 0 1 1.097 2.645l1.868.303a.702.702 0 0 1 .588.693v2.813a.704.704 0 0 1-.588.694zM12 4.265c-4.265 0-7.734 3.47-7.734 7.735 0 4.265 3.469 7.734 7.734 7.734 4.265 0 7.734-3.469 7.734-7.734 0-4.265-3.469-7.735-7.734-7.735zm-4.685 11.95a4.954 4.954 0 0 1 1.437-2.259c.774.944 1.935 1.559 3.248 1.559 1.313 0 2.474-.615 3.248-1.559a4.954 4.954 0 0 1 1.437 2.259c-1.159 1.287-2.821 2.113-4.685 2.113-1.865 0-3.526-.826-4.685-2.113zM12 14.109a2.815 2.815 0 0 1-2.813-2.812A2.816 2.816 0 0 1 12 8.484a2.815 2.815 0 0 1 2.812 2.813A2.815 2.815 0 0 1 12 14.109z"/></svg>