<svg xmlns="http://www.w3.org/2000/svg" width="24" height="24"><path fill-rule="evenodd" fill="#0D1B27" d="M11.999.002C5.384.002.003 5.385.003 11.999c0 6.615 5.381 11.997 11.996 11.997s11.997-5.382 11.997-11.997c0-6.614-5.382-11.997-11.997-11.997zm6.917 18.609v-.474c0-1.636-1.89-2.233-2.901-2.665a50.396 50.396 0 0 1-1.766-.835.966.966 0 0 1-.482-.694l-.079-.775c.542-.505 1.031-1.208 1.114-1.992h.122c.192 0 .374-.144.402-.321l.192-1.185c.025-.253-.214-.407-.407-.407l.013-.072c.024-.142.039-.28.048-.414.013-.108.023-.219.027-.335.02-.559-.075-1.049-.231-1.323a3.154 3.154 0 0 0-.738-1.074c-.938-.887-2.024-1.233-2.951-.519-.631-.11-1.381.179-1.923.813-.296.347-.48.743-.559 1.133a3.59 3.59 0 0 0-.128.856 3.46 3.46 0 0 0 .087.941.395.395 0 0 0-.369.402l.191 1.186c.029.176.21.32.402.32h.11a3.98 3.98 0 0 0 1.122 2.028l-.075.75a.975.975 0 0 1-.482.695 37.61 37.61 0 0 1-1.765.823c-.951.392-2.902 1.029-2.902 2.665v.37a9.534 9.534 0 0 1-2.569-6.507c0-5.283 4.298-9.58 9.581-9.58 5.283 0 9.58 4.297 9.58 9.58a9.54 9.54 0 0 1-2.664 6.61z"/></svg>