<svg xmlns="http://www.w3.org/2000/svg" width="41" height="37"><path fill-rule="evenodd" fill="#FFF" d="M37.878 36.112a8.23 8.23 0 0 1-7.428 0 6.14 6.14 0 0 0-3.122-.752 6.134 6.134 0 0 0-3.121.752 7.54 7.54 0 0 1-3.711.886 7.533 7.533 0 0 1-3.712-.886 6.14 6.14 0 0 0-3.122-.752 6.133 6.133 0 0 0-3.12.752 7.53 7.53 0 0 1-3.711.886 7.54 7.54 0 0 1-3.711-.886 6.127 6.127 0 0 0-3.119-.752v-1.365a7.526 7.526 0 0 1 3.71.886 6.133 6.133 0 0 0 3.12.752 6.127 6.127 0 0 0 3.119-.752 7.536 7.536 0 0 1 3.712-.886 7.54 7.54 0 0 1 3.713.886 6.134 6.134 0 0 0 3.121.752 6.133 6.133 0 0 0 3.12-.752 7.533 7.533 0 0 1 3.712-.886 7.54 7.54 0 0 1 3.713.886 6.14 6.14 0 0 0 3.122.752 6.139 6.139 0 0 0 3.123-.752A7.54 7.54 0 0 1 41 33.995v1.365a6.138 6.138 0 0 0-3.122.752zm-7.428-4.778a6.15 6.15 0 0 0-3.122-.751 6.143 6.143 0 0 0-3.121.751 7.53 7.53 0 0 1-3.711.887 7.523 7.523 0 0 1-3.712-.887 6.15 6.15 0 0 0-3.122-.751 6.142 6.142 0 0 0-3.12.751 7.52 7.52 0 0 1-3.711.887 7.53 7.53 0 0 1-3.711-.887 6.136 6.136 0 0 0-3.119-.751v-1.365a7.526 7.526 0 0 1 3.71.886 6.133 6.133 0 0 0 3.12.752 6.127 6.127 0 0 0 3.119-.752 7.536 7.536 0 0 1 3.712-.886 7.54 7.54 0 0 1 3.713.886 6.134 6.134 0 0 0 3.121.752 6.133 6.133 0 0 0 3.12-.752 7.533 7.533 0 0 1 3.712-.886 7.54 7.54 0 0 1 3.713.886 6.14 6.14 0 0 0 3.122.752 6.139 6.139 0 0 0 3.123-.752A7.54 7.54 0 0 1 41 29.218v1.365a6.147 6.147 0 0 0-3.122.751 8.223 8.223 0 0 1-7.428 0zm0-4.776a6.14 6.14 0 0 0-3.122-.752 6.134 6.134 0 0 0-3.121.752 7.54 7.54 0 0 1-3.711.886 7.533 7.533 0 0 1-3.712-.886 6.14 6.14 0 0 0-3.122-.752 6.133 6.133 0 0 0-3.12.752 7.53 7.53 0 0 1-3.711.886 7.54 7.54 0 0 1-3.711-.886 6.127 6.127 0 0 0-3.119-.752v-1.365a7.526 7.526 0 0 1 3.71.886 6.133 6.133 0 0 0 3.12.752 6.127 6.127 0 0 0 3.119-.752 7.536 7.536 0 0 1 3.712-.886h.005v-8.357L1.738 8.711a2.863 2.863 0 0 1-.95-3.91 2.87 2.87 0 0 1 3.936-.983l11.866 7.111h.054a6.138 6.138 0 0 1 0-9.57 6.156 6.156 0 0 1 8.648.933 6.138 6.138 0 0 1-.934 8.637h.059l11.199-6.475a2.868 2.868 0 0 1 3.893 1.004 2.86 2.86 0 0 1-.982 3.927l-11.193 6.707v8.349a7.539 7.539 0 0 1 3.707.886 6.14 6.14 0 0 0 3.122.752 6.139 6.139 0 0 0 3.123-.752A7.54 7.54 0 0 1 41 24.441v1.365a6.138 6.138 0 0 0-3.122.752 8.23 8.23 0 0 1-7.428 0zM25.284 6.152a4.78 4.78 0 0 0-4.783-4.777 4.78 4.78 0 0 0-4.784 4.777 4.787 4.787 0 0 0 4.785 4.777 4.781 4.781 0 0 0 4.782-4.777zm12.54 2.063a1.497 1.497 0 0 0-1.523-2.58l-11.358 6.567a.686.686 0 0 1-.343.092h-8.199a.682.682 0 0 1-.352-.098L4.02 4.988a1.507 1.507 0 0 0-2.049.497 1.5 1.5 0 0 0 .486 2.065l12.253 7.573a.68.68 0 0 1 .324.58v8.84a7.79 7.79 0 0 1 2.341.784 6.134 6.134 0 0 0 3.121.752 6.143 6.143 0 0 0 3.12-.752 7.78 7.78 0 0 1 2.351-.786v-8.835c0-.24.126-.462.332-.585l11.525-6.906z"/></svg>