<svg xmlns="http://www.w3.org/2000/svg" width="37" height="42"><path fill-rule="evenodd" fill="#FFF" d="M34.311 19.618a2.692 2.692 0 0 0-2.54 1.809l-4.796-6.404a7.678 7.678 0 0 0-4.527-2.888 6.788 6.788 0 0 0 2.598-5.339l-.002-.091a1.935 1.935 0 0 0 1.123-1.753 1.935 1.935 0 0 0-1.934-1.934h-.335A6.836 6.836 0 0 0 18.249 0a6.838 6.838 0 0 0-5.65 3.018h-.335a1.936 1.936 0 0 0-1.934 1.934c0 .776.461 1.445 1.123 1.753l-.002.091a6.788 6.788 0 0 0 2.642 5.373 7.664 7.664 0 0 0-1.67.604 7.677 7.677 0 0 0-2.695 2.25l-1.166 1.558-.667-.578a2.694 2.694 0 0 0 1.41-3.211 2.693 2.693 0 0 0-3.358-1.784c-.686.21-1.25.675-1.587 1.309a2.692 2.692 0 0 0 .206 2.853c-.488.19-.93.513-1.265.962a2.875 2.875 0 0 0-.509 2.369 2.69 2.69 0 0 0-2.674 3.471 2.693 2.693 0 0 0 3.357 1.785 2.692 2.692 0 0 0 1.894-2.367l2.007 1.613.016.013a2.865 2.865 0 0 0 2.14.547 2.864 2.864 0 0 0 1.9-1.126l.28-.374V39.04c0 1.576 1.256 2.903 2.798 2.957.796.029 1.55-.26 2.122-.811a2.88 2.88 0 0 0 .888-2.091v-7.819l.001-.01-.001-.009v-1.89c0-.457.339-.838.772-.867a.82.82 0 0 1 .647.241.826.826 0 0 1 .244.587v9.716c0 1.602 1.28 2.927 2.854 2.955h.048c.776 0 1.505-.301 2.056-.851.548-.549.85-1.278.85-2.053V22.063l2.763 3.688a2.692 2.692 0 0 0-2.224 2.647 2.69 2.69 0 0 0 2.688 2.688 2.69 2.69 0 0 0 2.689-2.688c0-.429-.102-.835-.282-1.196a2.86 2.86 0 0 0 2.534-2.468A2.691 2.691 0 0 0 37 22.306a2.691 2.691 0 0 0-2.689-2.688zM18.249 1.226c1.56 0 3.045.667 4.09 1.792h-8.181a5.605 5.605 0 0 1 4.091-1.792zM12.68 6.885h8.65a.612.612 0 1 0 0-1.226h-9.066a.709.709 0 0 1 0-1.415h11.969a.708.708 0 0 1 0 1.415h-.922a.612.612 0 1 0 0 1.226h.506a5.575 5.575 0 0 1-5.569 5.482 5.576 5.576 0 0 1-5.568-5.482zm7.365 6.465v.888c0 .99-.806 1.796-1.796 1.796a1.798 1.798 0 0 1-1.796-1.796v-.888a6.776 6.776 0 0 0 3.592 0zm-14.602-.458a1.452 1.452 0 0 1 1.29-.776 1.463 1.463 0 1 1-1.29.776zm-2.326 9.692a1.463 1.463 0 1 1-.429-2.86 1.462 1.462 0 0 1 .429 2.86zm7.334-.882a1.65 1.65 0 0 1-1.093.648 1.65 1.65 0 0 1-1.223-.309l-3.499-2.813-.017-.013a1.666 1.666 0 0 1-.672-1.345 1.68 1.68 0 0 1 2.668-1.353l1.43 1.238v1.344a.613.613 0 0 0 1.227 0V17.68l.329-.441 1.974 2.962-1.124 1.501zm13.314 17.393a1.677 1.677 0 0 1-1.708 1.678c-.908-.016-1.648-.792-1.648-1.729v-7.165h3.356v7.216zm4.453-9.235a1.463 1.463 0 0 1-1.462-1.462 1.463 1.463 0 0 1 2.924 0c0 .807-.655 1.462-1.462 1.462zm3.142-4.24a1.66 1.66 0 0 1-1.262.36 1.665 1.665 0 0 1-1.135-.659l-3.776-5.041 1.519-1.519a.612.612 0 1 0-.867-.867l-.848.848v-.492a.613.613 0 0 0-1.226 0v1.966l-.001.006v4.583h-.83a.614.614 0 0 0 0 1.227h.83v4.621h-3.355v-1.325a2.06 2.06 0 0 0-2.201-2.052c-1.073.073-1.914.991-1.914 2.091v1.286h-1.756a.614.614 0 0 0 0 1.226h1.756v7.216c0 .46-.183.889-.514 1.208-.33.318-.766.485-1.226.468-.891-.031-1.616-.808-1.616-1.731V26.032h7.637a.614.614 0 1 0 0-1.227h-7.637v-4.379l1.403-1.872a.614.614 0 0 0-.981-.736l-1.005 1.342-1.974-2.963.328-.439a6.461 6.461 0 0 1 2.263-1.889 6.448 6.448 0 0 1 2.254-.647v1.016a3.026 3.026 0 0 0 3.022 3.022 3.026 3.026 0 0 0 3.023-3.022v-1.033a6.443 6.443 0 0 1 4.722 2.553l5.623 7.508c.554.739.439 1.795-.256 2.354zm2.951-1.852a1.464 1.464 0 0 1-1.462-1.462c0-.806.656-1.462 1.462-1.462.807 0 1.463.656 1.463 1.462 0 .806-.656 1.462-1.463 1.462z"/></svg>