<svg xmlns="http://www.w3.org/2000/svg" width="73" height="74"><path fill-rule="evenodd" fill="#0D1B27" d="M70.567 72.893V57.2a3.65 3.65 0 0 0-1.557-2.986l-7.352-5.055 2.28 6.08c.69 1.825.728 3.83.109 5.68l2.513 2.51-1.72 1.718-8.495-8.483a1.747 1.747 0 0 0-1.397-.521 1.773 1.773 0 0 0-1.308.712 1.8 1.8 0 0 0 .167 2.343l4.237 4.231c.228.227.356.536.356.859a6.116 6.116 0 0 0 6.083 6.074v2.43a8.49 8.49 0 0 1-8.011-5.638l-3.669 1.378a4.104 4.104 0 0 0 2.327 1.986l-.769 2.308a6.533 6.533 0 0 1-3.854-3.436l-12.054 4.535-.002.001a1.218 1.218 0 0 1-1.567-.711l-2.175-5.803c-.36.209-.736.387-1.126.532-3.786 1.409-7.999-.513-9.41-4.294a7.302 7.302 0 0 1 5.481-9.722l-3.035-8.094a1.215 1.215 0 0 1 .711-1.563l8.453-3.179a1.215 1.215 0 0 1 1.645 1.2 4.851 4.851 0 0 0 .301 1.975 4.869 4.869 0 0 0 6.263 2.849 4.887 4.887 0 0 0 2.846-6.284 9.328 9.328 0 0 0-.398-.913c-.13-.267-.253-.524-.384-.865a1.214 1.214 0 0 1 .644-1.545l7.909-3.493c.022-.009.044-.019.067-.027.63-.234 1.33.086 1.564.715l3.929 10.481 10.229 7.033A6.083 6.083 0 0 1 73 57.2v15.693h-2.433zm-16.159-36.13l-5.597 2.475c.098.211.199.448.311.747a7.318 7.318 0 0 1-4.267 9.408 7.404 7.404 0 0 1-1.188.334c-3.959.759-7.785-1.831-8.546-5.784l-5.793 2.178 3.178 8.473a1.214 1.214 0 0 1-1.204 1.639 4.328 4.328 0 0 0-.763.025 4.738 4.738 0 0 0-1.203.272 4.855 4.855 0 0 0-1.784 7.871 4.872 4.872 0 0 0 6.88.195 1.213 1.213 0 0 1 1.115-.317c.402.089.731.375.875.759l2.319 6.188 17.194-6.467-3.848-3.843-.076-.075a4.217 4.217 0 0 1 .076-5.97 4.232 4.232 0 0 1 5.978.075l3.95 3.943a6.088 6.088 0 0 0-.356-2.798l-7.251-19.328zm5.209-5.176h-7.404c.069.401.104.807.104 1.214h-2.434a4.8 4.8 0 0 0-.411-1.943 1.216 1.216 0 0 1 1.115-1.701H58.4V8.504a6.086 6.086 0 0 0-6.083-6.075H31.633v6.178a7.09 7.09 0 0 1 1.217-.103c4.032 0 7.3 3.263 7.3 7.289s-3.268 7.289-7.3 7.289a7.09 7.09 0 0 1-1.217-.103v6.178h7.814a1.216 1.216 0 0 1 1.114 1.701 4.8 4.8 0 0 0-.411 1.943 4.877 4.877 0 0 0 3.893 4.764l-.486 2.38a7.312 7.312 0 0 1-5.84-7.144 7.056 7.056 0 0 1 .103-1.214h-6.187v8.916a1.218 1.218 0 0 1-1.703 1.113 4.867 4.867 0 0 0-6.415 2.51 4.858 4.858 0 0 0 2.522 6.395l-.974 2.225a7.289 7.289 0 0 1-4.382-6.684c.001-4.026 3.271-7.288 7.302-7.287a7.19 7.19 0 0 1 1.217.101v-7.289h-7.814a1.26 1.26 0 0 1-1.114-1.803 4.855 4.855 0 0 0 0-3.91 4.868 4.868 0 0 0-6.413-2.494 4.857 4.857 0 0 0-2.498 6.404 1.308 1.308 0 0 1-1.114 1.803H2.433v20.552a6.086 6.086 0 0 0 6.084 6.074H21.9v2.43H8.517C3.816 60.637.006 56.833 0 52.139V8.504C.006 3.81 3.816.006 8.517 0h43.8c4.701.006 8.51 3.81 8.516 8.504v21.868c0 .671-.545 1.215-1.216 1.215zm-29.2-20.141a1.216 1.216 0 0 1-1.217-1.215V2.429H8.517a6.087 6.087 0 0 0-6.084 6.075v20.552h6.179a7.048 7.048 0 0 1-.095-1.114v-.063-.038c0-4.026 3.268-7.289 7.3-7.289 4.031 0 7.3 3.263 7.3 7.289v.101a7.168 7.168 0 0 1-.095 1.114H29.2v-7.701a1.217 1.217 0 0 1 1.703-1.113 4.815 4.815 0 0 0 1.947.411 4.864 4.864 0 0 0 4.867-4.86 4.863 4.863 0 0 0-6.814-4.449 1.21 1.21 0 0 1-.486.102z"/></svg>