<svg xmlns="http://www.w3.org/2000/svg" width="45" height="45"><path fill-rule="evenodd" fill="#0D1B27" d="M22.5 2.811c10.854 0 19.687 8.833 19.687 19.688 0 10.854-8.833 19.688-19.687 19.688-10.855 0-19.688-8.834-19.688-19.688 0-10.855 8.833-19.688 19.688-19.688m0-2.812C10.074-.001 0 10.073 0 22.499c0 12.425 10.074 22.499 22.5 22.499 12.425 0 22.5-10.074 22.5-22.499 0-12.426-10.075-22.5-22.5-22.5zm12.543 30.023l-.126-.384c-.296-.885-1.274-1.808-2.175-2.055l-3.326-.909c-.901-.245-2.186.085-2.848.746l-1.203 1.204a12.78 12.78 0 0 1-8.985-8.987l1.204-1.203c.659-.659.988-1.945.744-2.848l-.907-3.327c-.244-.901-1.172-1.878-2.057-2.175l-.379-.126c-.887-.297-2.153.003-2.812.664l-1.802 1.802c-.321.319-.527 1.234-.527 1.237a21.284 21.284 0 0 0 6.223 15.27 21.262 21.262 0 0 0 15.219 6.221c.03 0 .972-.2 1.294-.521l1.802-1.803c.659-.656.955-1.922.661-2.806z"/></svg>