<svg xmlns="http://www.w3.org/2000/svg" width="24" height="24"><path fill-rule="evenodd" fill="#0D1B27" d="M11.881 24.008c-6.566 0-11.889-5.231-11.889-11.679C-.008 5.877 5.315.645 11.881.645c6.564 0 11.885 5.232 11.885 11.684 0 6.448-5.321 11.679-11.885 11.679zm0-19.819c-4.565 0-8.28 3.65-8.28 8.139 0 4.484 3.715 8.132 8.28 8.132 4.564 0 8.275-3.648 8.276-8.132 0-4.488-3.711-8.139-8.276-8.139zm1.021 9.505v.001h-2.047V7.174c0-.555.458-1.002 1.026-1.002a1.01 1.01 0 0 1 1.022 1.002l-.001 4.51h4.591c.562 0 1.021.449 1.021 1.006 0 .557-.459 1.005-1.021 1.005l-4.591-.001z"/></svg>