<svg xmlns="http://www.w3.org/2000/svg" width="231" height="131"><path fill-rule="evenodd" fill="#EDEDED" d="M227.114 44.868c-2.396-2.882-5.769-4.532-9.254-4.532h-5.24v-4.24c0-7.616-6.602-13.816-14.714-13.816h-6.908v-7.826c0-3.683-1.568-7.277-4.296-9.862-5.427-5.139-14.808-5.139-20.235 0-2.732 2.589-4.299 6.182-4.299 9.866v36.715H68.471V14.458c0-3.684-1.564-7.277-4.296-9.863-5.427-5.138-14.808-5.138-20.235 0-2.731 2.586-4.299 6.179-4.299 9.863v7.825h-7.748c-3.643 0-7.089 1.318-9.705 3.713-2.649 2.437-4.169 5.839-4.169 9.327v5.013h-5.19c-3.503 0-6.89 1.657-9.294 4.55C1.257 47.63 0 51.238 0 55.041v21.147c0 3.802 1.257 7.411 3.539 10.155 2.403 2.892 5.791 4.55 9.29 4.55h5.19v5.012c0 3.489 1.52 6.891 4.176 9.335 2.609 2.391 6.055 3.709 9.698 3.709h7.748v7.826c0 3.683 1.568 7.276 4.296 9.858 2.713 2.568 6.306 3.983 10.119 3.983 3.813 0 7.406-1.415 10.119-3.983 2.732-2.585 4.296-6.178 4.296-9.858V80.06h93.697v36.715c0 3.683 1.567 7.276 4.296 9.858 2.713 2.568 6.306 3.983 10.119 3.983 3.812 0 7.405-1.415 10.119-3.983 2.728-2.585 4.296-6.178 4.296-9.858v-7.826h6.908c8.112 0 14.714-6.197 14.714-13.816v-4.24h5.24c3.485 0 6.858-1.654 9.258-4.532 2.27-2.734 3.524-6.323 3.524-10.111V54.983c-.003-3.788-1.254-7.382-3.528-10.115zM12.829 83.671c-1.373 0-2.706-.694-3.751-1.951-1.19-1.426-1.871-3.444-1.871-5.532V55.041c0-2.087.681-4.103 1.871-5.533 1.045-1.256 2.378-1.95 3.751-1.95h5.19v36.113h-5.19zm19.064 18.055c-1.813 0-3.575-.66-4.825-1.809-1.19-1.094-1.842-2.517-1.842-4.012V35.323c0-1.495.652-2.921 1.834-4.008 1.262-1.152 3.02-1.813 4.833-1.813h7.748v72.224h-7.748zm29.37 15.049c0 1.729-.724 3.365-2.036 4.608-2.703 2.556-7.636 2.556-10.339 0-1.315-1.243-2.04-2.882-2.04-4.608V14.454c0-1.729.725-3.366 2.036-4.608 1.352-1.279 3.237-2.011 5.172-2.011 1.935 0 3.82.732 5.171 2.011 1.312 1.242 2.036 2.882 2.036 4.612v102.317zm7.208-43.938V58.392h93.697v14.445H68.471zm115.319 43.938c0 1.729-.724 3.365-2.036 4.608-2.703 2.556-7.636 2.556-10.339 0-1.315-1.243-2.04-2.882-2.04-4.608V14.458c0-1.73.725-3.366 2.036-4.608 1.352-1.278 3.236-2.012 5.172-2.012 1.935 0 3.82.734 5.171 2.012 1.312 1.238 2.036 2.878 2.036 4.608v102.317zm21.623-21.642c0 3.636-3.366 6.593-7.507 6.593h-6.908V29.502h6.908c4.137 0 7.507 2.958 7.507 6.594v59.037zm18.018-18.887c0 2.073-.677 4.07-1.852 5.489-1.038 1.249-2.36 1.936-3.719 1.936h-5.24V47.558h5.24c1.359 0 2.681.686 3.719 1.936 1.178 1.416 1.852 3.416 1.852 5.489v21.263z"/></svg>