<svg xmlns="http://www.w3.org/2000/svg" width="37" height="30"><path fill-rule="evenodd" fill="#FFF" d="M35.508 30H24.169c-.822 0-1.492-.571-1.492-1.271v-3.144c0-.179.044-.353.129-.516l2.233-4.28a.237.237 0 0 0 .025-.103v-2.127a.233.233 0 0 0-.06-.153l-1.432-1.626a1.16 1.16 0 0 1-.298-.763v-4.81c0-.106-.077-.202-.194-.239l-4.041-1.291a.371.371 0 0 0-.105-.016h-1.075a.304.304 0 0 0-.266.14l-.852 1.451a1.343 1.343 0 0 1-.439.449l-1.98 1.265a1.679 1.679 0 0 1-.895.254c-.164 0-.298.114-.298.255v.862c0 .427-.248.822-.664 1.058l-2.784 1.581a.246.246 0 0 0-.133.211v1.218c0 .086.05.165.133.212l.993.564c.416.237.665.632.665 1.058v3.852c0 .066.031.132.087.179l1.863 1.587c.277.237.437.565.437.899v1.973c0 .7-.67 1.271-1.492 1.271H1.492C.669 30 0 29.429 0 28.729v-7.208c0-.18.046-.362.134-.526l2.824-5.292a.244.244 0 0 0 .026-.106v-2.654c0-.252.086-.496.25-.705l3.28-4.192a.227.227 0 0 0 .05-.141V6.417c0-.334.16-.662.437-.898l3.736-3.183a1.57 1.57 0 0 1 .713-.338L21.246.033c.11-.022.226-.033.341-.033h1.476c.23 0 .46.046.666.134l5.285 2.251c.508.216.825.652.825 1.137v2.964c0 .028.004.054.015.079l1.102 2.817c.051.129.076.265.076.403v1.975a.25.25 0 0 0 .15.221l3.365 1.638c.383.187.648.507.727.877l1.084 5.082c.039.178.032.358-.02.536l-.523 1.783a.215.215 0 0 0-.009.061v2.302c0 .032.008.064.022.094l1.065 2.27c.071.151.107.31.107.472v1.633c0 .7-.67 1.271-1.492 1.271zm-23.274-1.017c.164 0 .298-.114.298-.254v-1.973a.24.24 0 0 0-.087-.179l-.757-.645H8.127l-.597 1.017H5.74l-1.194 2.034h7.688zm-11.041-.254c0 .14.134.254.299.254h1.72l1.526-2.601-.43-1.467H1.193v3.814zm.027-7.313a.228.228 0 0 0-.027.105v2.377H5.24l.597 2.034h.955l.597-1.017h3.122a1.17 1.17 0 0 1-.366-.824v-3.852a.246.246 0 0 0-.133-.212l-.994-.565c-.416-.236-.664-.631-.664-1.057v-.398l-1.48-1.261-2.94-.418-2.714 5.088zm33.542 3.408l-2.268-2.008-2.059-.585v-1.892h1.194v1.159l1.522.432 1.462 1.295v-1.267c0-.103.015-.207.045-.308l.522-1.783a.212.212 0 0 0 .004-.106L34.1 14.678a.257.257 0 0 0-.145-.175l-3.365-1.639a1.491 1.491 0 0 1-.234-.152h-2.308v-1.017h1.791v-1.91a.2.2 0 0 0-.016-.08l-1.102-2.817a1.108 1.108 0 0 1-.076-.402v-.112l-1.375-.781h-3.302l-3.489.991-.377-.965 3.672-1.043h3.858l1.013.575V3.522c0-.097-.063-.184-.165-.227l-5.283-2.251a.36.36 0 0 0-.134-.027h-1.476a.38.38 0 0 0-.067.006l-9.797 1.964a.328.328 0 0 0-.143.068L7.845 6.237a.243.243 0 0 0-.087.18v1.21h1.079l5.968-2.034h3.098V6.61h-2.869L9.066 8.644H7.481l-3.254 4.158a.229.229 0 0 0-.05.141v2.389l3.271.464 1.04.886c.113-.22.289-.414.531-.552l2.783-1.581a.245.245 0 0 0 .133-.212v-.862c0-.701.67-1.272 1.492-1.272a.34.34 0 0 0 .18-.051l1.979-1.264a.276.276 0 0 0 .087-.09l.852-1.451c.254-.434.765-.703 1.334-.703h1.075c.18 0 .357.028.525.082l4.041 1.29c.579.185.968.664.968 1.191v3.03h2.983v1.017h-2.983v.763c0 .055.021.108.06.153l1.432 1.627c.192.219.298.489.298.762v2.127c0 .179-.044.353-.129.516l-2.043 3.917 1.075.305h3.484v-1.017h1.194v1.211l1.931.823h3.752l-.76-1.617zm1.044 2.634h-4.318l-2.387-1.017h-4.133l-1.097-.312v2.6c0 .14.134.254.298.254h11.339c.165 0 .298-.114.298-.254v-1.271zm-3.58-10.678h-1.194v-1.017h1.194v1.017zm-4.178 1.525h1.194v1.017h-1.194v-1.017zM25.661 7.119h1.194v1.017h-1.194V7.119zm-6.564-4.577h1.193v1.017h-1.193V2.542zM8.355 10.678h1.193v1.017H8.355v-1.017zM6.564 13.22h1.194v1.017H6.564V13.22zm-2.983 5.593h1.193v1.017H3.581v-1.017zm0 3.56H2.387v-1.017h1.194v1.017zm4.774 0H7.161v-1.017h1.194v1.017z"/></svg>