<svg xmlns="http://www.w3.org/2000/svg" width="486" height="290"><path fill-rule="evenodd" fill="#FAEF79" d="M478.905 200.637c-11.99 0-17.6 5.186-24.703 11.751-7.865 7.27-16.779 15.509-34.283 15.509-17.5 0-26.414-8.239-34.279-15.509-7.101-6.565-12.711-11.75-24.698-11.75s-17.597 5.185-24.699 11.749c-7.864 7.271-16.778 15.51-34.279 15.51-17.501 0-26.414-8.239-34.279-15.51-7.101-6.564-12.71-11.749-24.697-11.749-11.986 0-17.595 5.185-24.696 11.749-7.864 7.271-16.777 15.51-34.279 15.51-17.499 0-26.41-8.239-34.274-15.51-7.1-6.564-12.709-11.749-24.693-11.749-11.986 0-17.595 5.185-24.696 11.749-7.864 7.271-16.778 15.51-34.278 15.51-17.501 0-26.415-8.239-34.28-15.51-7.101-6.564-12.711-11.749-24.697-11.749-3.918 0-7.095-3.209-7.095-7.166 0-3.958 3.177-7.166 7.095-7.166 17.5 0 26.414 8.24 34.279 15.509 7.101 6.565 12.711 11.75 24.698 11.75 11.986 0 17.595-5.185 24.696-11.75 7.864-7.269 16.777-15.509 34.278-15.509 17.499 0 26.411 8.24 34.275 15.51 7.1 6.564 12.707 11.749 24.692 11.749 11.988 0 17.596-5.185 24.697-11.75 7.864-7.269 16.778-15.509 34.278-15.509 17.501 0 26.414 8.24 34.279 15.509 7.101 6.565 12.711 11.75 24.697 11.75 11.988 0 17.597-5.185 24.698-11.75 7.865-7.269 16.779-15.509 34.28-15.509s26.415 8.24 34.28 15.509c7.101 6.565 12.71 11.75 24.697 11.75 11.99 0 17.6-5.185 24.703-11.75 7.865-7.269 16.78-15.509 34.283-15.509 3.917 0 7.095 3.208 7.095 7.166 0 3.957-3.178 7.165-7.095 7.165zm0-62.101c-11.99 0-17.6 5.185-24.703 11.75-7.865 7.27-16.779 15.509-34.283 15.509-17.5 0-26.414-8.239-34.279-15.509-7.101-6.565-12.711-11.75-24.698-11.75s-17.597 5.185-24.699 11.749c-7.864 7.271-16.778 15.51-34.279 15.51-17.501 0-26.414-8.239-34.279-15.51-7.101-6.564-12.71-11.749-24.697-11.749-11.986 0-17.595 5.185-24.696 11.749-7.864 7.271-16.777 15.51-34.279 15.51-17.499 0-26.41-8.239-34.274-15.51-7.1-6.564-12.709-11.749-24.693-11.749-11.986 0-17.595 5.185-24.696 11.749-7.864 7.271-16.778 15.51-34.278 15.51-17.501 0-26.415-8.239-34.28-15.51-7.101-6.564-12.711-11.749-24.697-11.749-3.918 0-7.095-3.209-7.095-7.166 0-3.957 3.177-7.165 7.095-7.165 17.5 0 26.414 8.239 34.279 15.509 7.101 6.564 12.711 11.75 24.698 11.75 11.986 0 17.595-5.186 24.696-11.75 7.864-7.27 16.777-15.509 34.278-15.509 17.499 0 26.411 8.239 34.275 15.51 7.1 6.563 12.707 11.749 24.692 11.749 11.988 0 17.596-5.186 24.697-11.75 7.864-7.27 16.778-15.509 34.278-15.509 17.501 0 26.414 8.239 34.279 15.509 7.101 6.564 12.711 11.75 24.697 11.75 11.988 0 17.597-5.186 24.698-11.75 7.865-7.27 16.779-15.509 34.28-15.509s26.415 8.239 34.28 15.509c7.101 6.564 12.71 11.75 24.697 11.75 11.99 0 17.6-5.186 24.703-11.75 7.865-7.27 16.78-15.509 34.283-15.509 3.917 0 7.095 3.208 7.095 7.165s-3.178 7.166-7.095 7.166zm0-62.103c-11.99 0-17.6 5.185-24.703 11.751-7.865 7.269-16.779 15.508-34.283 15.508-17.5 0-26.414-8.239-34.279-15.508-7.101-6.566-12.711-11.751-24.698-11.751s-17.597 5.185-24.699 11.751c-7.864 7.269-16.778 15.508-34.279 15.508-17.501 0-26.414-8.239-34.279-15.508-7.101-6.566-12.71-11.751-24.697-11.751-11.986 0-17.595 5.185-24.696 11.751-7.864 7.269-16.777 15.508-34.279 15.508-17.499 0-26.41-8.239-34.274-15.508-7.1-6.566-12.709-11.751-24.693-11.751-11.986 0-17.595 5.185-24.696 11.751-7.864 7.269-16.778 15.508-34.278 15.508-17.501 0-26.415-8.239-34.28-15.508-7.101-6.566-12.71-11.751-24.697-11.751C3.177 76.433 0 73.225 0 69.267c0-3.956 3.177-7.165 7.095-7.165 17.5 0 26.414 8.239 34.279 15.508 7.101 6.566 12.711 11.751 24.698 11.751 11.986 0 17.595-5.185 24.696-11.749 7.864-7.271 16.777-15.51 34.278-15.51 17.499 0 26.411 8.241 34.275 15.51 7.1 6.565 12.707 11.749 24.692 11.749 11.988 0 17.596-5.185 24.697-11.749 7.864-7.271 16.778-15.51 34.278-15.51 17.501 0 26.414 8.239 34.279 15.51 7.101 6.564 12.711 11.749 24.697 11.749 11.988 0 17.597-5.185 24.698-11.749 7.865-7.271 16.779-15.51 34.28-15.51s26.415 8.239 34.28 15.51c7.101 6.564 12.71 11.749 24.697 11.749 11.99 0 17.6-5.185 24.703-11.751 7.865-7.269 16.78-15.508 34.283-15.508 3.917 0 7.095 3.209 7.095 7.165 0 3.958-3.178 7.166-7.095 7.166zm0-62.102c-11.99 0-17.6 5.186-24.703 11.751-7.865 7.269-16.779 15.508-34.283 15.508-17.5 0-26.414-8.239-34.279-15.508-7.101-6.565-12.711-11.751-24.698-11.751s-17.597 5.186-24.699 11.751c-7.864 7.269-16.778 15.508-34.279 15.508-17.501 0-26.414-8.239-34.279-15.508-7.101-6.565-12.71-11.751-24.697-11.751-11.986 0-17.595 5.186-24.696 11.751-7.864 7.269-16.777 15.508-34.279 15.508-17.499 0-26.41-8.239-34.274-15.508-7.1-6.565-12.709-11.751-24.693-11.751-11.986 0-17.595 5.186-24.696 11.751-7.864 7.269-16.778 15.508-34.278 15.508-17.501 0-26.415-8.239-34.28-15.508-7.101-6.565-12.71-11.751-24.697-11.751C3.177 14.331 0 11.124 0 7.166 0 3.209 3.177 0 7.095 0c17.5 0 26.414 8.239 34.279 15.509 7.101 6.565 12.711 11.75 24.698 11.75 11.986 0 17.595-5.185 24.696-11.748C98.632 8.239 107.545 0 125.046 0c17.499 0 26.411 8.24 34.275 15.511 7.1 6.564 12.707 11.748 24.692 11.748 11.988 0 17.596-5.185 24.697-11.748C216.574 8.239 225.488 0 242.988 0c17.501 0 26.414 8.239 34.279 15.511 7.101 6.563 12.711 11.748 24.697 11.748 11.988 0 17.597-5.185 24.698-11.748C334.527 8.239 343.441 0 360.942 0s26.415 8.239 34.28 15.511c7.101 6.563 12.71 11.748 24.697 11.748 11.99 0 17.6-5.185 24.703-11.75C452.487 8.239 461.402 0 478.905 0 482.822 0 486 3.209 486 7.166c0 3.958-3.178 7.165-7.095 7.165zM7.095 248.408c17.5 0 26.414 8.24 34.279 15.509 7.101 6.565 12.711 11.75 24.698 11.75 11.986 0 17.595-5.185 24.696-11.75 7.864-7.269 16.777-15.509 34.278-15.509 17.499 0 26.411 8.24 34.275 15.51 7.1 6.564 12.707 11.749 24.692 11.749 11.988 0 17.596-5.185 24.697-11.75 7.864-7.269 16.778-15.509 34.278-15.509 17.501 0 26.414 8.24 34.279 15.509 7.101 6.565 12.711 11.75 24.697 11.75 11.988 0 17.597-5.185 24.698-11.75 7.865-7.269 16.779-15.509 34.28-15.509s26.415 8.24 34.28 15.509c7.101 6.565 12.71 11.75 24.697 11.75 11.99 0 17.6-5.185 24.703-11.75 7.865-7.269 16.78-15.509 34.283-15.509 3.917 0 7.095 3.207 7.095 7.166 0 3.956-3.178 7.165-7.095 7.165-11.99 0-17.6 5.186-24.703 11.751-7.865 7.269-16.779 15.508-34.283 15.508-17.5 0-26.414-8.239-34.279-15.508-7.101-6.565-12.711-11.751-24.698-11.751s-17.597 5.186-24.699 11.75c-7.864 7.27-16.778 15.509-34.279 15.509-17.501 0-26.414-8.239-34.279-15.509-7.101-6.564-12.71-11.75-24.697-11.75-11.986 0-17.595 5.186-24.696 11.75-7.864 7.27-16.777 15.509-34.279 15.509-17.499 0-26.41-8.239-34.274-15.509-7.1-6.564-12.709-11.75-24.693-11.75-11.986 0-17.595 5.186-24.696 11.75-7.864 7.27-16.778 15.509-34.278 15.509-17.501 0-26.415-8.239-34.28-15.509-7.101-6.564-12.711-11.75-24.697-11.75-3.918 0-7.095-3.209-7.095-7.165 0-3.959 3.177-7.166 7.095-7.166z"/></svg>