<svg xmlns="http://www.w3.org/2000/svg" width="33" height="28"><path fill-rule="evenodd" fill="#FFF" d="M32.35 28H19.319a.642.642 0 0 1-.65-.635c0-.35.291-.634.65-.634H31.7v-1.597H1.3v1.597h11.8c.359 0 .65.284.65.634a.642.642 0 0 1-.65.635H.65a.642.642 0 0 1-.65-.635V.634C0 .284.291 0 .65 0h31.7c.359 0 .65.284.65.634v26.731a.642.642 0 0 1-.65.635zM17.218 17.796c1.747-.302 3.078-1.794 3.078-3.586 0-1.79-1.331-3.282-3.078-3.583v7.169zM1.3 15.885h1.313v-3.314H1.3v3.314zm0-4.583h1.963c.359 0 .65.284.65.634v4.584c0 .35-.291.634-.65.634H1.3v2.497h3.925V8.771H1.3v2.531zm0-3.8h4.575c.359 0 .65.284.65.635v2.867c1.317.33 2.303 1.642 2.303 3.206 0 .859-.296 1.666-.833 2.273a2.857 2.857 0 0 1-1.47.9v2.903c0 .35-.291.634-.65.634H1.3v2.945h14.618v-4.786c-2.467-.313-4.379-2.376-4.379-4.869 0-2.491 1.912-4.554 4.379-4.866V4.145H1.3v3.357zm5.225 4.852v3.678c.589-.303 1.003-1.005 1.003-1.822 0-.831-.414-1.547-1.003-1.856zm9.393 5.442v-7.169c-1.747.301-3.079 1.793-3.079 3.583 0 1.792 1.332 3.284 3.079 3.586zM31.7 1.269H1.3v1.607h30.4V1.269zm0 19.651h-4.577a.642.642 0 0 1-.65-.634v-2.903a2.857 2.857 0 0 1-1.469-.9c-.537-.607-.832-1.414-.832-2.273 0-1.564.985-2.875 2.301-3.206V8.137c0-.351.291-.635.65-.635H31.7V4.145H17.218v5.199c2.467.312 4.378 2.375 4.378 4.866 0 2.493-1.911 4.556-4.378 4.869v4.786H31.7V20.92zm-1.964-3.766a.642.642 0 0 1-.65-.634v-4.583c0-.351.291-.635.65-.635H31.7V8.771h-3.927v10.88H31.7v-2.497h-1.964zm1.964-1.269v-3.314h-1.314v3.314H31.7zm-5.227.147v-3.677c-.588.309-1.001 1.024-1.001 1.855 0 .816.413 1.518 1.001 1.822zm-9.974 10.699h.02c.359 0 .65.284.65.634a.642.642 0 0 1-.65.635h-.02a.642.642 0 0 1-.65-.635c0-.35.291-.634.65-.634z"/></svg>