<svg xmlns="http://www.w3.org/2000/svg" width="55" height="55"><path fill-rule="evenodd" fill="#0E1C28" d="M48.808 52.502a12.107 12.107 0 0 1-7.558 2.497 12.107 12.107 0 0 1-7.558-2.497 9.65 9.65 0 0 0-6.192-2.087 9.65 9.65 0 0 0-6.192 2.087 12.107 12.107 0 0 1-7.558 2.497 12.107 12.107 0 0 1-7.558-2.497A9.65 9.65 0 0 0 0 50.415v-2.293a12.114 12.114 0 0 1 7.558 2.498 9.656 9.656 0 0 0 6.192 2.087 9.656 9.656 0 0 0 6.192-2.087 12.108 12.108 0 0 1 7.558-2.498 12.114 12.114 0 0 1 7.558 2.498c3.617 2.783 8.766 2.783 12.384 0A12.108 12.108 0 0 1 55 48.122v2.293a9.65 9.65 0 0 0-6.192 2.087zm-7.558-8.964a12.114 12.114 0 0 1-7.558-2.498 9.656 9.656 0 0 0-6.192-2.087 9.656 9.656 0 0 0-6.192 2.087 12.108 12.108 0 0 1-7.558 2.498 12.114 12.114 0 0 1-7.558-2.498A9.656 9.656 0 0 0 0 38.953v-2.292a12.113 12.113 0 0 1 7.558 2.497 9.651 9.651 0 0 0 6.192 2.088 9.651 9.651 0 0 0 6.192-2.088 12.113 12.113 0 0 1 7.558-2.497 12.113 12.113 0 0 1 7.558 2.497c3.617 2.783 8.766 2.783 12.384 0A12.113 12.113 0 0 1 55 36.661v2.292a9.656 9.656 0 0 0-6.192 2.087 12.108 12.108 0 0 1-7.558 2.498zm0-11.462a12.107 12.107 0 0 1-7.558-2.497 9.645 9.645 0 0 0-6.192-2.087 9.645 9.645 0 0 0-6.192 2.087 12.107 12.107 0 0 1-7.558 2.497 12.107 12.107 0 0 1-7.558-2.497A9.645 9.645 0 0 0 0 27.492v-2.293a12.114 12.114 0 0 1 7.558 2.498c.304.243.624.466.956.669l4.665-2.685c.046-.209.153-.409.322-.571l6.647-6.388-.822-.789c-3.217-3.103-3.217-8.113 0-11.215L25.983.321a1.268 1.268 0 0 1 1.693 0l3.328 3.198a1.112 1.112 0 0 1 0 1.619l-4.161 3.998a3.291 3.291 0 0 0 0 4.778l.895.859c-.014-2.044.79-4.093 2.411-5.657 3.219-3.091 8.443-3.096 11.668-.011l.012.011c3.216 3.103 3.216 8.112 0 11.214-1.518 1.467-3.576 2.3-5.728 2.322l7.22 6.922a10.063 10.063 0 0 0 4.121-1.877c2.139-1.651 4.812-2.534 7.558-2.498v2.293a9.645 9.645 0 0 0-6.192 2.087 12.107 12.107 0 0 1-7.558 2.497zm-30.048-2.584a9.777 9.777 0 0 0 2.548.292 9.79 9.79 0 0 0 2.611-.308l-1.922-1.846-3.237 1.862zm13.954-13.958c-2.299-2.218-2.299-5.799 0-8.016l3.32-3.189-1.647-1.576-5.809 5.584c-2.289 2.207-2.289 5.771 0 7.977l1.664 1.598a1.113 1.113 0 0 1 0 1.62l-6.647 6.387 2.699 2.594a9.489 9.489 0 0 0 1.206-.816c2.139-1.651 4.812-2.534 7.558-2.498a12.228 12.228 0 0 1 4.892.949l1.086-1.038a1.088 1.088 0 0 0 0-1.58l-8.322-7.996zm14.979-4.799a5.953 5.953 0 0 0-4.146-1.651 6.066 6.066 0 0 0-2.121.38l7.589 7.294c.81-2.019.37-4.392-1.322-6.023zm-.011 7.988l-8.296-7.973c-2.273 2.208-2.269 5.76.015 7.962 2.284 2.194 5.991 2.198 8.281.011zm-4.228 6.975a3.398 3.398 0 0 1-.731 1.027l-.623.598c.175.121.347.244.516.374a10.1 10.1 0 0 0 5.031 2.021l-4.193-4.02zm14.321-8.522h2.392v2.292h-2.392v-2.292zm-2.391-2.292h2.391v2.292h-2.391v-2.292zM43.043 3.422h2.392v2.293h-2.392V3.422zm-29.891 0h2.391v2.293h-2.391V3.422zm-8.369 9.169h2.391v2.293H4.783v-2.293zm-2.392-2.292h2.392v2.292H2.391v-2.292z"/></svg>