<svg xmlns="http://www.w3.org/2000/svg" width="36" height="36"><path fill-rule="evenodd" fill="#FFF" d="M28.121 36h-2.243a7.41 7.41 0 0 1-1.672-.195A1.765 1.765 0 0 1 23.4 36H1.8A1.8 1.8 0 0 1 0 34.2V5.4a1.8 1.8 0 0 1 1.8-1.8h2.51A1.803 1.803 0 0 1 6 2.4h3.214a3.589 3.589 0 0 1 6.772 0H19.2c.76.004 1.436.484 1.69 1.2h2.51a1.8 1.8 0 0 1 1.8 1.8v10.125a5.017 5.017 0 0 1 1.543 2.339 7.907 7.907 0 0 1 3.554-3.982.6.6 0 0 1 .61 1.033c-2.593 1.531-3.276 3.535-3.407 4.915.258-.216.554-.383.872-.493l.059-.017c.262-.079.533-.119.806-.12h1.317c3.003 0 5.446 2.604 5.446 5.802V27.6c0 4.632-3.535 8.4-7.879 8.4zM4.2 4.8H1.8a.6.6 0 0 0-.6.6v28.8a.6.6 0 0 0 .6.6h20.04a8.042 8.042 0 0 1-1.465-1.2H3.6a1.2 1.2 0 0 1-1.2-1.2V7.2A1.2 1.2 0 0 1 3.6 6h.6V4.8zm15.6-.6a.6.6 0 0 0-.6-.6h-3.66a.465.465 0 0 1-.287-.081.575.575 0 0 1-.116-.078.579.579 0 0 1-.057-.064.603.603 0 0 1-.073-.108.903.903 0 0 1-.034-.086c-.009-.021-.018-.042-.025-.064a2.4 2.4 0 0 0-4.703 0 .388.388 0 0 1-.023.056.578.578 0 0 1-.502.413.637.637 0 0 1-.06.012H6a.6.6 0 0 0-.6.6v2.4a.6.6 0 0 0 .6.6h13.2a.6.6 0 0 0 .6-.6V4.2zm-.6 4.2H6a1.8 1.8 0 0 1-1.69-1.2H3.6v25.2h15.822A8.725 8.725 0 0 1 18 27.6v-2.598a5.831 5.831 0 0 1 3.217-5.286c-1.429-1.154-1.536-3.339-1.325-4.574.056-.246.158-.678 1.708-.733V7.2h-.71a1.8 1.8 0 0 1-1.69 1.2zm4.8-3a.6.6 0 0 0-.6-.6H21V6h.6a1.2 1.2 0 0 1 1.2 1.2v7.261a4.81 4.81 0 0 1 1.2.328V5.4zm1.518 12.594v.003a3.539 3.539 0 0 0-3.318-2.395h-.013c-.385-.002-.77.02-1.153.064-.075.829-.102 3.146 1.883 3.544.016.003.027.012.042.016a5.24 5.24 0 0 1 .487-.026h1.313c.314 0 .625.054.92.16.061.02.114.054.174.08a8.068 8.068 0 0 0-.335-1.446zm9.282 7.008c0-2.536-1.905-4.602-4.247-4.603h-1.325a1.634 1.634 0 0 0-.48.078l-.028.009a1.796 1.796 0 0 0-1.12 1.718v.596a.6.6 0 0 1-1.2 0v-.595a1.796 1.796 0 0 0-1.127-1.715 1.547 1.547 0 0 0-.504-.09h-1.323c-2.341 0-4.246 2.066-4.246 4.602V27.6c0 3.971 2.996 7.2 6.678 7.2h2.243c3.682 0 6.679-3.231 6.679-7.2v-2.598zm-11.805-2.235c-.068.025-1.395.529-1.395 2.433a.6.6 0 0 1-1.2 0c0-2.8 2.12-3.54 2.21-3.569a.6.6 0 1 1 .385 1.136zM15.6 13.2H7.2a.6.6 0 1 1 0-1.2h8.4a.6.6 0 0 1 0 1.2zm-8.4 4.2h6.6a.6.6 0 0 1 0 1.2H7.2a.6.6 0 0 1 0-1.2zm0 5.4h5.4a.6.6 0 1 1 0 1.2H7.2a.6.6 0 0 1 0-1.2zm0 5.4h5.4a.6.6 0 1 1 0 1.2H7.2a.6.6 0 0 1 0-1.2z"/></svg>