<svg xmlns="http://www.w3.org/2000/svg" width="1211" height="1245"><path fill-rule="evenodd" fill="#203C54" d="M193.3 753.002c8.397-15.468-13.425-13.753-13.425-13.753C87.532 826.903 23.74 787.387 3.593 756.45c-20.146-30.937 50.366-103.122 73.865-116.883 23.507-13.752 10.074-27.488 10.074-27.488-164.525-458.893 419.723-417.645 419.723-417.645C654.993-27.278 824.562 3.658 873.244.21c48.69-3.44 60.439 32.653 26.867 41.612-33.58 8.967-104.093 83.851-122.563 133.696-18.462 49.853 36.94 99.682 226.648 225.161 189.715 125.454 199.788 235.448 206.501 318.556 6.721 83.101-94.012 198.762-112.482 215.947-18.47 17.2-13.434 32.669-13.434 32.669 23.507 39.516 52.051 123.746 23.507 209.668-28.543 85.938-78.909 65.313-78.909 65.313 18.47-77.341-30.22-106.562-55.403-151.235-25.183-44.697 35.256-87.653 35.256-87.653-72.189 54.984-162.848 8.579-216.574-25.781-53.719-34.385-63.792 12.02-63.792 12.02-21.831-135.767 130.952-97.966 130.952-97.966s214.89 79.057 208.177-72.186c-6.712-151.234-248.47-190.776-320.667-175.307-72.189 15.468 30.22 183.912 31.904 209.692 1.676 25.781-68.836-10.312-85.622-36.093-16.794-25.78-114.166-130.634-186.355-151.259-72.197-20.625-253.515 134.059-287.087 151.259-33.58 17.176-45.33 17.176-58.763 0-13.434-17.2 23.506-49.853 31.895-65.321z"/></svg>