<svg xmlns="http://www.w3.org/2000/svg" width="34" height="34"><path fill-rule="evenodd" fill="#FFF" d="M33.693 29.985l-5.827-5.826a1.043 1.043 0 0 0-.9-.294l-2.099-2.1a43.401 43.401 0 0 0-.325-2.264c3.435-.641 6.156-3.445 6.589-7.018a.499.499 0 0 0-.989-.12 7.109 7.109 0 0 1-1.786 3.917 7.084 7.084 0 0 1-1.838-4.787c0-1.791.649-3.472 1.838-4.787a7.106 7.106 0 0 1 1.786 3.917.499.499 0 0 0 .989-.12 8.15 8.15 0 0 0-8.088-7.157 8.1 8.1 0 0 0-4.305 1.234 13.571 13.571 0 0 0-.664-.718l-.027-.028-.011-.011C15.969 1.761 13.34.436 10.629.09 7.906-.257 5.328.407 3.37 1.961a.497.497 0 1 0 .619.78C7.662-.174 13.403.599 17.342 4.538l.006.005.02.021a15.265 15.265 0 0 1 .556.597 8.171 8.171 0 0 0-.495.434.507.507 0 0 0-.055.049l-.031.035a8.265 8.265 0 0 0-.245.25 11.879 11.879 0 0 0-.552-.593l-.001-.001h-.001a11.33 11.33 0 0 0-3.255-2.286c-1.766-.816-3.642-1.1-5.353-.825a.477.477 0 0 0-.092.015c-1.407.243-2.698.867-3.718 1.887l-.002.003h-.001v.001C3.11 5.143 2.488 6.424 2.242 7.819a.497.497 0 0 0-.026.157c-.264 1.7.022 3.561.832 5.314a11.389 11.389 0 0 0 2.286 3.256c1.804 1.804 4.08 2.93 6.409 3.17.31.032.616.048.917.048a8.06 8.06 0 0 0 1.303-.104l.051-.008c1.446-.246 2.731-.889 3.737-1.895h.001l.002-.002.037-.04c.29.245.597.47.918.673l-.158.164a7.784 7.784 0 0 1-3.272 1.95.498.498 0 0 0 .016.958l.08.021.123.034c2.419.637 4.583.984 5.658 1.134a.497.497 0 0 0 .421-.142l.93-.93a.5.5 0 0 0 .142-.421 46.791 46.791 0 0 0-.242-1.541 8.367 8.367 0 0 0 1.145.008c.176 1.04.275 1.82.317 2.187l-2.06 2.059c-1.476-.172-9.664-1.262-15.014-4.729l-.007-.004a12.701 12.701 0 0 1-2.251-1.793C.589 13.395-.178 7.648 2.752 3.974a.498.498 0 1 0-.779-.621C.412 5.31-.258 7.891.088 10.619c.343 2.719 1.674 5.357 3.745 7.428a13.654 13.654 0 0 0 2.424 1.931c3.179 2.06 7.276 3.284 10.154 3.949 2.658.614 4.744.872 5.354.94l2.1 2.1c-.048.318.049.655.294.899l5.826 5.826c.198.199.462.308.742.308.281 0 .544-.109.742-.308l2.224-2.222a1.052 1.052 0 0 0 0-1.485zM14.07 18.627l-2.428-2.429 1.923-1.923 3.114 3.114a5.881 5.881 0 0 1-2.609 1.238zm-7.671-2.442l1.911-1.91 1.923 1.923-1.567 1.567a10.356 10.356 0 0 1-2.267-1.58zm-2.283-2.972l1.566-1.566 1.923 1.924-1.91 1.91a10.397 10.397 0 0 1-1.579-2.268zM3.113 9.078l1.865 1.865-1.295 1.295a8.427 8.427 0 0 1-.57-3.16zm1.379-3.876l3.113 3.113-1.923 1.924L3.254 7.81a5.885 5.885 0 0 1 1.238-2.608zm3.31-1.946l2.431 2.432L8.31 7.611 5.195 4.497a5.903 5.903 0 0 1 2.607-1.241zm7.678 2.44l-1.915 1.915-1.923-1.923 1.57-1.571c.794.406 1.561.934 2.268 1.579zm-2.619 2.619l-1.924 1.924-1.923-1.924 1.923-1.923 1.924 1.923zm2.823 6.67l-1.414-1.414.738-.738c.125.757.356 1.48.676 2.152zm-.787-3.451l-1.332 1.332-1.923-1.923 1.923-1.923 1.402 1.401a8.248 8.248 0 0 0-.071 1.072l.001.041zm-4.664-.591L8.31 12.866l-1.924-1.923L8.31 9.02l1.923 1.923zm-1.219 2.628l1.923-1.924 1.924 1.924-1.924 1.923-1.923-1.923zm8.72 2.707a7.125 7.125 0 0 1-1.841-4.785c0-1.838.697-3.517 1.841-4.785a7.085 7.085 0 0 1 1.837 4.785c0 1.79-.649 3.47-1.837 4.785zm-2.525-7.023l-.939-.94 1.914-1.914c.092.101.183.203.27.307-.554.76-.98 1.62-1.245 2.547zm-2.972-5.571l-1.3 1.299-1.869-1.869a8.449 8.449 0 0 1 3.169.57zm-.392 15.041a8.809 8.809 0 0 1-2.203-.527l1.295-1.295 1.864 1.863a7.935 7.935 0 0 1-.956-.041zm9.782 2.323l-.579.579c-.894-.13-2.344-.37-4.016-.759a8.653 8.653 0 0 0 2.578-1.989c.555.26 1.145.458 1.759.587.097.537.184 1.067.258 1.582zm-3.176-4.079a8.07 8.07 0 0 0 2.116-5.476 8.073 8.073 0 0 0-2.116-5.477 7.12 7.12 0 0 1 4.592-1.674c1.739 0 3.346.625 4.596 1.673a8.07 8.07 0 0 0-2.117 5.478c0 2.051.748 3.976 2.117 5.478a7.14 7.14 0 0 1-9.188-.002zm5.939 5.728l1.727 1.727-1.693 1.693-1.727-1.726 1.693-1.694zm8.598 8.068l-2.223 2.223a.054.054 0 0 1-.076 0l-5.826-5.826a.054.054 0 0 1 0-.076l2.223-2.223a.052.052 0 0 1 .038-.015c.015 0 .027.005.038.015l5.826 5.826a.054.054 0 0 1 0 .076z"/></svg>