<svg xmlns="http://www.w3.org/2000/svg" width="33" height="36"><path fill-rule="evenodd" fill="#FFF" d="M32.4 7.797H30a.6.6 0 0 0-.6.6v.6a.6.6 0 0 0-.6-.6H27a.6.6 0 0 0-.6.561l-.042.639H25.2v-1.2a.6.6 0 0 0-.6-.6h-2.4a.6.6 0 0 0-.6.6v3.601a.6.6 0 0 0 .6.6h2.4a.6.6 0 0 0 .6-.6v-1.2h1.08l-.328 4.909a1.194 1.194 0 0 1-1.196 1.091H21v-.257a.602.602 0 0 0-.343-.54 9.65 9.65 0 0 0-2.56-.786.605.605 0 0 0-.286.028c-.33-.1-.668-.172-1.011-.213v-1.637a5.13 5.13 0 0 0 .516-.304C19.332 11.678 21 10.261 21 7.212v-.615a6.626 6.626 0 0 0-2.088-4.817 6.661 6.661 0 0 0-8.469-.496A4.794 4.794 0 0 0 4.8 5.997v9.001a.6.6 0 0 0 .6.6 8.891 8.891 0 0 0 6.159-2.464c.143.093.29.18.441.259v1.637c-.343.04-.682.111-1.012.211a.589.589 0 0 0-.285-.029 9.686 9.686 0 0 0-2.56.786.6.6 0 0 0-.343.54v.02a14.232 14.232 0 0 0-3.6 9.241c0 1.646.078 3.54.566 4.8H3.6v-1.2a.6.6 0 0 0-.6-.6H.6a.6.6 0 0 0-.6.6V33a.6.6 0 0 0 .6.6H3a.6.6 0 0 0 .6-.6v-1.2h3.43A9.179 9.179 0 0 0 6 36h1.2a7.968 7.968 0 0 1 .6-3.009V33a.6.6 0 0 0 .6.6h2.4a.6.6 0 0 0 .6-.6v-2.401h7.512l.345.432A7.984 7.984 0 0 1 21 36h1.2a9.189 9.189 0 0 0-2.006-5.718l-.459-.574-.23-.691a7.49 7.49 0 0 1 .15-5.142l.034-.084A1.874 1.874 0 0 0 21 22.109v-.025l6.503-1.393a2.415 2.415 0 0 0 1.897-2.348v-6.345a.6.6 0 0 0 .6.6h2.4a.6.6 0 0 0 .6-.6V8.397a.6.6 0 0 0-.6-.6zM24 11.398h-1.2V8.997H24v2.401zM2.4 32.4H1.2v-2.401h1.2V32.4zm4.649-2.054l.042.255h-.996c-.342-.477-.695-1.717-.695-4.802.05-2.643.885-5.211 2.4-7.378v3.644c-.792 1.793-1.054 6.458-.751 8.281zM14.04 1.208a5.394 5.394 0 0 1 5.712 4.694L16.468 4.26a.594.594 0 0 0-.373-.054l-6.97 1.23a5.326 5.326 0 0 1 4.915-4.228zM6 14.375V5.997a3.603 3.603 0 0 1 3.267-3.583A6.601 6.601 0 0 0 7.8 6.597v.615c0 2.574 1.191 3.984 2.774 5.211A7.69 7.69 0 0 1 6 14.375zm3-7.163v-.535l7.109-1.255 3.688 1.844c-.018 2.235-1.038 3.347-3.169 4.84a3.902 3.902 0 0 1-4.457 0C10.023 10.601 9 9.485 9 7.212zm2.4 9.149a4.587 4.587 0 0 1 1.2-.163.6.6 0 0 0 .6-.6v-1.75a4.672 4.672 0 0 0 2.4 0v1.75a.6.6 0 0 0 .6.6c.405.001.809.056 1.2.163v.96l-3 .645-3-.645v-.96zM8.135 28.867a25.188 25.188 0 0 1 .463-5.348c.156.108.324.198.501.267a7.428 7.428 0 0 1 .074 5.013H8.4a.6.6 0 0 0-.265.068zM10.2 32.4H9v-2.401h1.2V32.4zm1.2-3.001a.6.6 0 0 0-.6-.6h-.36a8.628 8.628 0 0 0 0-4.8h7.896a8.69 8.69 0 0 0 .03 5.4H11.4zm8.4-7.29c0 .325-.513.69-1.2.69h-8.4c-.687 0-1.2-.365-1.2-.69v-5.178c.389-.16.79-.291 1.2-.391v1.267a.6.6 0 0 0 .474.587l3.6.775a.595.595 0 0 0 .252 0l3.6-.775a.6.6 0 0 0 .474-.587v-1.268c.409.1.81.231 1.2.392v5.178zm7.451-2.592L21 20.856v-2.858h3.756a2.391 2.391 0 0 0 2.391-2.197l.414-6.204h.639v8.746a1.207 1.207 0 0 1-.949 1.174zm4.549-8.119h-1.2V8.997h1.2v2.401z"/></svg>