<svg xmlns="http://www.w3.org/2000/svg" width="35" height="36"><path fill-rule="evenodd" fill="#FFF" d="M34.983 12.774l-.921-3.641a.538.538 0 0 0-.95-.191l-3.036 4.001-1.138 1.425-5.764-3.008-.007-.003-.027-.013-.028-.011a.332.332 0 0 0-.029-.01l-.029-.008a1.442 1.442 0 0 1-.06-.011 2.752 2.752 0 0 0-.061-.005H22.363l-1.146-6.721a.588.588 0 0 0-.045-.14l.005-.064v-.001l.08-.895a3.193 3.193 0 0 0-.833-2.44A3.238 3.238 0 0 0 18.049 0h-1.143c-.901 0-1.766.378-2.375 1.038a3.193 3.193 0 0 0-.833 2.44l.104 1.168-1.135 6.653h-.525a.53.53 0 0 0-.317.056l-5.764 3.012-1.136-1.423-3.038-4.002a.54.54 0 0 0-.949.191l-.922 3.641a.53.53 0 0 0 .101.462l1.863 2.326.001.001 1.71 2.141a2.695 2.695 0 0 0 3.576.586l5.166-2.889.791 3.096c.167.651.196 1.317.088 1.98l-.731 4.488-4.17-1.323a1.776 1.776 0 0 0-2.226 1.141l-.515 1.602a1.94 1.94 0 0 0 1.267 2.439l1.655.525-.025.008a.533.533 0 0 0-.348.67l1.8 5.602a.537.537 0 0 0 .675.346l1.488-.472a.534.534 0 0 0 .348-.67l-.316-.984 5.286-1.676 5.285 1.676-.315.984a.534.534 0 0 0 .348.67l1.488.472a.536.536 0 0 0 .674-.346l1.801-5.602a.532.532 0 0 0-.348-.67l-.026-.008 1.625-.515a1.973 1.973 0 0 0 1.288-2.48l-.496-1.544a1.804 1.804 0 0 0-2.262-1.159l-4.124 1.307-.637-3.887a7.78 7.78 0 0 1 .139-3.193l.62-2.436 5.174 2.849a2.693 2.693 0 0 0 3.574-.587l1.711-2.141v-.001l1.864-2.327a.527.527 0 0 0 .1-.461zm-33.861.004l.583-2.304 1.101 1.45-1.533 1.042-.151-.188zm5.604 4.591a1.625 1.625 0 0 1-2.194-.328l-2.588-3.24 1.488-1.01 2.065 2.585c.16.201.442.26.67.141l5.554-2.903.438 1.716-5.433 3.039zm14.026-9.133l.522 3.063h-1.702V9.644a2.652 2.652 0 0 0 1.18-1.408zM17.5 13.67c-.834 0-1.54-.55-1.771-1.305h.236a.536.536 0 0 0 .53-.613.542.542 0 0 0 .007-.081V9.989c.069.006.14.009.211.009h1.53c.086 0 .171-.004.255-.012v1.685c0 .027.003.054.007.081a.535.535 0 0 0 .53.613h.236A1.853 1.853 0 0 1 17.5 13.67zm.305 12.618zm.437-17.356h-1.529a1.584 1.584 0 0 1-1.577-1.39l-.27-3.05c.91-.122 1.503-.519 1.86-.871.537.477 1.564 1.099 3.333 1.213l-.24 2.709a1.584 1.584 0 0 1-1.577 1.389zm-2.919-7.174a2.132 2.132 0 0 1 1.583-.692h1.143c.61 0 1.172.246 1.583.692a2.1 2.1 0 0 1 .555 1.627l-.034.386c-2.23-.134-2.938-1.164-2.993-1.249a.528.528 0 0 0-.946.038c-.033.062-.402.708-1.442.869l-.004-.044a2.103 2.103 0 0 1 .555-1.627zm-1.068 6.613c.233.556.65 1.013 1.173 1.299v1.629h-1.672l.499-2.928zm-1.007 5.883l-.482-1.889H14.626a2.921 2.921 0 0 0 2.331 2.321c-.012.995-.039 3.361-.055 5.715a389.255 389.255 0 0 0-.008 4.304c.005.793.011 1.301.026 1.635l-3.305-1.047.757-4.646a5.857 5.857 0 0 0-.107-2.412l-1.017-3.981zm-2.369 20.542l-1.474-4.585.465-.148 1.474 4.586-.465.147zm1.009-1.963l-.873-2.716 4.72 1.497-3.847 1.219zm-1.266-3.96a.529.529 0 0 0-.178-.056l-3.181-1.009a.87.87 0 0 1-.571-1.099l.515-1.602a.686.686 0 0 1 .345-.404.69.69 0 0 1 .532-.045l16.022 5.081-.994 3.095-12.49-3.961zm13.499 5.923l-.466-.147 1.474-4.586.466.148-1.474 4.585zm-2.01-8.614a.581.581 0 0 0 .12-.039l4.658-1.476a.726.726 0 0 1 .912.467l.496 1.544a.906.906 0 0 1-.592 1.14l-3.063.971-5.377-1.705 2.846-.902zM21.69 14.51l-.791 3.107a8.833 8.833 0 0 0-.157 3.626l.662 4.043-3.408 1.081c-.065-1.339-.017-7.509.034-11.679a2.922 2.922 0 0 0 2.344-2.323H22.235l-.545 2.145zm10.497.378l-.008.01-1.712 2.143a1.623 1.623 0 0 1-2.162.347c-.011-.008-.022-.014-.034-.021l-5.439-2.994.446-1.754 5.554 2.898a.54.54 0 0 0 .67-.14l2.066-2.586 1.487 1.011-.868 1.086zm1.54-1.922l-1.533-1.042 1.1-1.45.583 2.304-.15.188z"/></svg>