<svg xmlns="http://www.w3.org/2000/svg" width="24" height="24"><path fill-rule="evenodd" fill="#0D1B27" d="M10.115 13.201c0 .693-.552 1.255-1.232 1.255a1.243 1.243 0 0 1-1.232-1.255c0-.693.551-1.255 1.232-1.255.68 0 1.232.562 1.232 1.255zm5.002-1.255c-.681 0-1.232.562-1.232 1.255 0 .693.551 1.255 1.232 1.255.681 0 1.232-.562 1.232-1.255 0-.693-.551-1.255-1.232-1.255zm8.883.555v2.386c0 1.198-.953 2.168-2.129 2.168h-1.545C18.795 21.385 14.886 24 12 24c-2.887 0-6.796-2.615-8.326-6.945H2.129C.953 17.055 0 16.085 0 14.887v-2.386c0-.824.451-1.54 1.116-1.907.022-3.387.991-6.032 2.884-7.861C5.878.92 8.57 0 12 0c3.43 0 6.122.92 7.999 2.733 1.894 1.829 2.862 4.474 2.885 7.861A2.172 2.172 0 0 1 24 12.501zm-4.506.708c0-.558-.028-1.082-.069-1.59-.945-.881-2.661-1.549-4.825-1.797.284.325.53.754.678 1.317-1.326-1.064-3.928-.81-5.897-3.192a6.253 6.253 0 0 1-.295-.376l-.003-.003c-.35-.483-.469-.77-.476-.452-.058 2.736-1.962 4.87-4.077 5.171a21.14 21.14 0 0 0-.024.922c0 1.157.185 2.211.501 3.161 1.188 1.46 3.149 1.872 4.885 1.981.323-.522 1.046-.887 1.888-.887 1.142 0 2.068.669 2.068 1.495 0 .825-.926 1.495-2.068 1.495-.878 0-1.627-.397-1.926-.955-1.214-.072-2.548-.283-3.737-.855 1.672 2.51 4.264 3.838 5.883 3.838 2.543 0 7.494-3.273 7.494-9.273zm2.108-2.876c-.135-5.91-3.447-9.032-9.602-9.032s-9.467 3.122-9.602 9.032h.819c.299-1.992.932-3.63 1.893-4.89C6.642 3.436 8.96 2.418 12 2.418c3.04 0 5.358 1.018 6.89 3.025.961 1.26 1.594 2.898 1.893 4.89h.819z"/></svg>