<svg xmlns="http://www.w3.org/2000/svg" width="45" height="45"><path fill-rule="evenodd" fill="#0D1B27" d="M43.204 31.239c-2.373 5.534-6.405 9.584-11.982 11.964A22.112 22.112 0 0 1 22.463 45c-3.051 0-5.949-.602-8.734-1.797-5.531-2.374-9.581-6.42-11.958-11.964C.58 28.462 0 25.528 0 22.475c0-3.052.58-5.962 1.771-8.739C4.148 8.193 8.198 4.171 13.729 1.797A21.878 21.878 0 0 1 22.463 0c3.051 0 5.972.608 8.759 1.797 5.578 2.38 9.609 6.405 11.982 11.939A21.908 21.908 0 0 1 45 22.475c0 3.053-.602 5.978-1.796 8.764zm-3.593-18.66c-1.771-3.028-4.185-5.435-7.233-7.212-3.029-1.767-6.347-2.659-9.915-2.659-3.567 0-6.864.886-9.89 2.659-3.026 1.772-5.446 4.179-7.209 7.212-1.756 3.023-2.633 6.327-2.633 9.896 0 2.684.506 5.273 1.55 7.706 1.048 2.441 2.448 4.566 4.207 6.326 1.76 1.76 3.863 3.151 6.299 4.21 2.436 1.058 4.995 1.575 7.676 1.575 3.568 0 6.886-.891 9.916-2.658 3.047-1.778 5.467-4.182 7.233-7.213 1.777-3.05 2.656-6.376 2.656-9.946 0-3.569-.885-6.868-2.657-9.896zM28.885 31.141l-7.357-7.361c-.295-.295-.418-.665-.369-1.108 0-.073-.049-.172-.049-.197V9.527c0-.764.64-1.379 1.353-1.379.763 0 1.427.615 1.427 1.379v12.751l6.889 6.943c.529.532.566 1.354 0 1.92-.492.492-1.402.492-1.894 0z"/></svg>