<svg xmlns="http://www.w3.org/2000/svg" width="41" height="30"><path fill-rule="evenodd" fill="#FFF" d="M39.827 7.756l-2.49-2.472 1.174-1.165L41 6.591l-1.173 1.165zm-5.811-5.767L35.189.824l2.489 2.471-1.173 1.165-2.489-2.471zm3.32 8.237L31.528 4.46l1.174-1.165 5.807 5.766-1.173 1.165zm-5.808-.821l-2.489-2.471 1.173-1.165 2.49 2.471-1.174 1.165zm-1.072 6.007c0 5.451-4.466 9.886-9.956 9.886-5.318 0-9.664-4.165-9.931-9.381a4.978 4.978 0 0 1-.026-.505c0-5.452 4.467-9.887 9.957-9.887 5.318 0 9.663 4.166 9.931 9.382.017.166.025.334.025.505zM20.5 7.173c-4.575 0-8.297 3.696-8.297 8.239 0 1.817 1.488 3.295 3.319 3.295a4.051 4.051 0 0 0 3.78-2.541l.854-2.12a5.705 5.705 0 0 1 5.322-3.577c.684 0 1.335.137 1.928.386A8.308 8.308 0 0 0 20.5 7.173zm4.978 4.943a4.05 4.05 0 0 0-3.78 2.542l-.855 2.12a5.704 5.704 0 0 1-5.321 3.577 4.976 4.976 0 0 1-1.929-.387A8.31 8.31 0 0 0 20.5 23.65c4.575 0 8.297-3.696 8.297-8.238 0-1.818-1.489-3.296-3.319-3.296zm-20.5-.582l6.638-6.591 1.173 1.165-6.637 6.591-1.174-1.165zM2.49 9.062l6.637-6.59 1.174 1.165-6.638 6.591L2.49 9.062zM0 6.591L6.637 0l1.174 1.165-6.638 6.591L0 6.591zm6.981 22.244L5.808 30 0 24.233l1.174-1.165 5.807 5.767zm.001-4.943l2.489 2.472-1.173 1.165-2.49-2.472 1.174-1.165zm-4.494-2.13l1.173-1.166 2.49 2.472-1.174 1.165-2.489-2.471zm3.664-3.633l5.807 5.766-1.173 1.165-5.808-5.766 1.174-1.165zm26.551 4.456l-2.49 2.471-1.173-1.165 2.489-2.472 1.174 1.166zm2.489 2.471l-2.49 2.472-1.173-1.165 2.489-2.472 1.174 1.165zm2.489 2.472L35.192 30l-1.174-1.165 2.489-2.472 1.174 1.165zm.83-5.768l-2.49 2.472-1.173-1.165 2.489-2.472 1.174 1.165zm-6.152-11.53l1.173-1.165 2.489 2.472-1.173 1.165-2.489-2.472zm1.174 11.531l-1.174-1.165 2.49-2.472 1.173 1.166-2.489 2.471zm6.293 1.307L41 24.233l-2.49 2.472-1.173-1.165 2.489-2.472z"/></svg>