<svg xmlns="http://www.w3.org/2000/svg" width="43" height="37"><path fill-rule="evenodd" fill="#FFF" d="M42.259 29.449c-1.101 0-1.623.304-2.228.656-.688.4-1.468.854-2.962.854-1.494 0-2.274-.454-2.963-.854-.604-.352-1.126-.656-2.227-.656-1.1 0-1.622.304-2.226.656-.688.4-1.468.854-2.962.854-1.495 0-2.274-.454-2.963-.854-.604-.352-1.126-.656-2.226-.656-1.101 0-1.623.304-2.227.656-.688.4-1.468.854-2.962.854-1.494 0-2.274-.454-2.962-.854-.604-.352-1.126-.656-2.227-.656-1.1 0-1.622.304-2.226.656-.688.4-1.468.854-2.963.854-1.494 0-2.274-.454-2.962-.854-.604-.352-1.126-.656-2.226-.656a.748.748 0 0 1-.742-.755c0-.417.332-.755.742-.755 1.494 0 2.274.454 2.962.854.604.352 1.126.656 2.226.656 1.101 0 1.623-.304 2.227-.656.221-.128.451-.262.711-.385V9.08c0-5.007 3.999-9.08 8.914-9.08.205 0 .412.007.616.021a.751.751 0 0 1 .689.805.745.745 0 0 1-.79.702 7.383 7.383 0 0 0-.515-.018c-4.098 0-7.431 3.396-7.431 7.57v1.454h6.69V9.08c0-5.007 3.998-9.08 8.914-9.08 4.915 0 8.914 4.073 8.914 9.08a.748.748 0 0 1-.742.755.748.748 0 0 1-.741-.755c0-4.174-3.334-7.57-7.431-7.57-.915 0-1.792.171-2.602.48 2.111 1.714 3.343 4.291 3.343 7.09a.748.748 0 0 1-.741.755.748.748 0 0 1-.742-.755c0-2.569-1.244-4.913-3.34-6.321a7.604 7.604 0 0 0-3.35 6.321v17.405a.748.748 0 0 1-.741.755.748.748 0 0 1-.741-.755v-2.303h-6.69v3.801a6.43 6.43 0 0 1 .768-.044c1.494 0 2.274.454 2.962.854.605.352 1.127.656 2.227.656 1.1 0 1.622-.304 2.227-.656.688-.4 1.468-.854 2.962-.854 1.494 0 2.274.454 2.962.854.604.352 1.126.656 2.227.656 1.1 0 1.622-.304 2.226-.656.688-.4 1.468-.854 2.962-.854 1.495 0 2.275.454 2.963.854.604.352 1.127.656 2.227.656 1.101 0 1.623-.304 2.227-.656.688-.4 1.468-.854 2.963-.854.409 0 .741.338.741.755a.748.748 0 0 1-.741.755zM17.046 12.044h-6.69v4.559h6.69v-4.559zm0 10.628v-4.559h-6.69v4.559h6.69zM5.935 32.469c1.101 0 1.623-.304 2.227-.655.688-.401 1.468-.855 2.962-.855 1.494 0 2.274.454 2.962.855.605.351 1.127.655 2.227.655 1.1 0 1.622-.304 2.227-.655.688-.401 1.468-.855 2.962-.855 1.494 0 2.274.454 2.962.855.604.351 1.126.655 2.227.655 1.1 0 1.622-.303 2.226-.655.688-.401 1.468-.855 2.962-.855 1.495 0 2.275.454 2.963.855.604.351 1.127.655 2.227.655.409 0 .741.338.741.755a.75.75 0 0 1-.741.756c-1.494 0-2.274-.455-2.963-.855-.604-.352-1.126-.656-2.227-.656-1.1 0-1.622.304-2.226.656-.688.4-1.468.855-2.962.855-1.494 0-2.274-.455-2.963-.855-.604-.352-1.126-.656-2.226-.656-1.101 0-1.623.304-2.227.656-.688.4-1.468.855-2.962.855-1.494 0-2.274-.455-2.962-.855-.604-.352-1.126-.656-2.227-.656-1.1 0-1.622.304-2.226.656-.688.4-1.468.855-2.963.855a.75.75 0 0 1-.741-.756c0-.417.332-.755.741-.755zm5.189 1.511c1.494 0 2.274.454 2.962.854.605.352 1.127.656 2.227.656 1.1 0 1.622-.304 2.227-.656.688-.4 1.468-.854 2.962-.854 1.494 0 2.274.454 2.962.854.604.352 1.126.656 2.227.656 1.1 0 1.622-.304 2.226-.656.688-.4 1.468-.854 2.962-.854.41 0 .742.338.742.755a.748.748 0 0 1-.742.755c-1.1 0-1.622.303-2.226.655-.688.401-1.468.855-2.962.855-1.494 0-2.274-.454-2.963-.855-.604-.351-1.126-.655-2.226-.655-1.101 0-1.623.303-2.227.655-.688.401-1.468.855-2.962.855-1.494 0-2.274-.454-2.962-.855-.604-.351-1.126-.655-2.227-.655a.748.748 0 0 1-.741-.755c0-.417.332-.755.741-.755z"/></svg>