<svg xmlns="http://www.w3.org/2000/svg" width="38" height="34"><path fill-rule="evenodd" fill="#FFF" d="M34.282 24.587c-.297 3.355-1.843 5.833-4.609 7.375C27.213 33.333 23.722 34 19 34s-8.213-.667-10.673-2.038c-2.766-1.542-4.312-4.02-4.609-7.375C1.611 24.239 0 22.418 0 20.229c0-2.17 1.584-3.978 3.664-4.348v-.654C3.664 6.831 10.544 0 19 0s15.335 6.831 15.335 15.227v.654c2.081.37 3.665 2.178 3.665 4.348 0 2.189-1.612 4.01-3.718 4.358zM3.664 17.48a2.866 2.866 0 0 0-2.093 2.749c0 1.306.887 2.41 2.093 2.75V17.48zm29.101-2.253c0-7.474-6.074-13.564-13.577-13.665a8.016 8.016 0 0 1 1.855 1.305c1.372 1.299 2.191 3.04 2.191 4.659 0 2.577-2.111 4.673-4.706 4.673-2.162 0-3.922-1.747-3.922-3.894 0-1.804 1.478-3.272 3.295-3.272.434 0 .785.349.785.78 0 .431-.351.78-.785.78a1.72 1.72 0 0 0-1.724 1.712 2.345 2.345 0 0 0 2.351 2.334c1.729 0 3.135-1.397 3.135-3.113 0-2.241-2.299-5.336-6.618-5.39-5.668 1.691-9.81 6.919-9.81 13.091v8.133c0 3.425 1.263 5.794 3.861 7.242 2.219 1.237 5.459 1.838 9.904 1.838s7.685-.601 9.904-1.838c2.598-1.448 3.861-3.817 3.861-7.242v-8.133zm1.57 2.253v5.499a2.866 2.866 0 0 0 2.094-2.75 2.866 2.866 0 0 0-2.094-2.749zm-7.411 4.883c-.833 0-1.509-.67-1.509-1.498 0-.827.676-1.498 1.509-1.498.833 0 1.509.671 1.509 1.498 0 .828-.676 1.498-1.509 1.498zM19 30.663c-3.235 0-5.867-2.614-5.867-5.826 0-.43.352-.78.786-.78h10.162c.434 0 .786.35.786.78 0 3.212-2.632 5.826-5.867 5.826zm.111-5.046v.738c0 .431-.352.78-.785.78a.783.783 0 0 1-.786-.78v-.738h-2.764A4.295 4.295 0 0 0 19 29.103a4.295 4.295 0 0 0 4.224-3.486h-4.113zm-8.035-3.254c-.834 0-1.509-.67-1.509-1.498 0-.827.675-1.498 1.509-1.498.833 0 1.508.671 1.508 1.498 0 .828-.675 1.498-1.508 1.498z"/></svg>