<svg xmlns="http://www.w3.org/2000/svg" width="36" height="36"><path fill-rule="evenodd" fill="#FFF" d="M34.27 10.345C30.043 1.348 19.342-2.513 10.345 1.714c-8.997 4.228-12.858 14.93-8.63 23.928 4.214 8.972 14.9 12.872 23.925 8.632 8.997-4.228 12.857-14.93 8.63-23.929zm-1.608 1.575C29.96 23.733 14.935 30.833 4.08 25.469a1.42 1.42 0 0 0-.122-.05 15.914 15.914 0 0 1-1.784-5.971c10.675 4.007 23.348-1.989 27.03-12.709a15.918 15.918 0 0 1 3.458 5.181zm-5.195-6.677C24.481 15.614 12.062 21.494 2.13 17.157c.108-2 .599-3.991 1.472-5.873a17.976 17.976 0 0 0 18.414-8.652 16.026 16.026 0 0 1 5.451 2.611zm-7.669-3.03c-3.236 4.978-9.093 7.795-15.104 7.097 3.26-5.014 9.156-7.789 15.104-7.097zm4.946 30.153c-6.647 3.123-14.192 1.21-18.653-3.852 10.693 3.208 23.265-2.739 27.597-12.957 1.045 6.67-2.306 13.69-8.944 16.809z"/></svg>