<svg xmlns="http://www.w3.org/2000/svg" width="56" height="56"><path fill-rule="evenodd" fill="#5393DD" d="M28 0C12.561 0 0 12.561 0 28s12.561 28 28 28 28-12.561 28-28S43.439 0 28 0zm25.921 32.14l-3.399-5.635 2.345-6.895a26.13 26.13 0 0 1 1.054 12.53zm-6.613 13.621a.87.87 0 0 0-.357-.018l-8.469 1.358a.862.862 0 0 0-.107-.302l-4.814-8.023 7.784-11.988h7.374c.02.095.041.188.092.273l4.581 7.593a26.21 26.21 0 0 1-6.084 11.107zm-8.825 3.112l6.727-1.078a26.21 26.21 0 0 1-10.242 5.509l3.515-4.431zM11.069 7.962a26.125 26.125 0 0 1 16.299-6.196c.046.12.11.234.21.329l4.835 4.562-1.912 7.136-12.458 4.782c-.045-.037-.081-.082-.134-.11l-7.762-4.113.922-6.39zm22.519-2.604L29.84 1.822a26.04 26.04 0 0 1 9.615 2.564l-5.867.972zM19.189 33.895l-.714-13.61L31.198 15.4l8.578 10.593-7.423 11.43-13.164-3.528zm32.703-16.749c-.027.048-.063.086-.081.14l-2.639 7.752h-7.917l-8.983-11.093 1.849-6.901 7.236-1.2a.853.853 0 0 0 .396-.191 26.425 26.425 0 0 1 10.139 11.493zM9.022 9.893L8.32 14.76l-4.68 3.478a26.295 26.295 0 0 1 5.382-8.345zM2.674 21.111c.038-.02.079-.032.115-.059l6.769-5.033 7.139 3.783.777 14.819c.001.022.011.042.014.064l-6.747 6.675c-.057.057-.091.127-.13.195L4.142 38.78c-.024-.011-.05-.008-.074-.016a26.142 26.142 0 0 1-1.394-17.653zm2.644 20.077l4.738 2.032 3.624 6.763a26.457 26.457 0 0 1-8.362-8.795zm11.164 10.394c-.016-.056-.022-.115-.05-.168l-4.653-8.683c.067-.038.136-.07.193-.127l7.023-6.95 12.694 3.402 5.186 8.644a.851.851 0 0 0 .156.19l-4.768 6.009A26.397 26.397 0 0 1 28 54.25c-4.13 0-8.038-.962-11.518-2.668z"/></svg>