<svg xmlns="http://www.w3.org/2000/svg" width="73" height="45"><path fill-rule="evenodd" fill="#FF4800" d="M71.934 31.133c-1.801 0-2.643.805-3.71 1.823-1.182 1.129-2.521 2.407-5.15 2.407-2.628 0-3.967-1.278-5.149-2.406-1.066-1.019-1.909-1.824-3.71-1.824-1.8 0-2.643.805-3.709 1.823-1.182 1.129-2.521 2.407-5.149 2.407-2.629 0-3.968-1.278-5.149-2.407-1.067-1.018-1.909-1.823-3.71-1.823-1.8 0-2.643.805-3.709 1.823-1.182 1.129-2.52 2.407-5.149 2.407s-3.967-1.278-5.148-2.407c-1.067-1.018-1.909-1.823-3.709-1.823-1.801 0-2.643.805-3.71 1.823-1.181 1.129-2.52 2.407-5.149 2.407-2.628 0-3.967-1.278-5.149-2.407-1.066-1.018-1.909-1.823-3.709-1.823-.589 0-1.066-.498-1.066-1.112 0-.614.477-1.111 1.066-1.111 2.628 0 3.967 1.278 5.149 2.406 1.066 1.019 1.909 1.823 3.709 1.823 1.801 0 2.643-.804 3.71-1.823 1.181-1.128 2.52-2.406 5.149-2.406 2.628 0 3.967 1.278 5.148 2.406 1.066 1.019 1.909 1.823 3.709 1.823s2.643-.804 3.709-1.823c1.182-1.128 2.521-2.406 5.149-2.406 2.629 0 3.968 1.278 5.149 2.406 1.067 1.019 1.909 1.823 3.71 1.823 1.8 0 2.643-.804 3.709-1.823 1.182-1.128 2.521-2.406 5.149-2.406 2.629 0 3.968 1.278 5.15 2.406 1.066 1.019 1.909 1.823 3.709 1.823 1.801 0 2.644-.805 3.711-1.823 1.181-1.128 2.52-2.406 5.149-2.406.589 0 1.066.497 1.066 1.111s-.477 1.112-1.066 1.112zm0-9.636c-1.801 0-2.643.805-3.71 1.823-1.182 1.128-2.521 2.407-5.15 2.407-2.628 0-3.967-1.279-5.149-2.407-1.066-1.018-1.909-1.823-3.71-1.823-1.8 0-2.643.805-3.709 1.823-1.182 1.128-2.521 2.407-5.149 2.407-2.629 0-3.968-1.279-5.149-2.407-1.067-1.018-1.909-1.823-3.71-1.823-1.8 0-2.643.805-3.709 1.823-1.182 1.128-2.52 2.407-5.149 2.407s-3.967-1.279-5.148-2.407c-1.067-1.018-1.909-1.823-3.709-1.823-1.801 0-2.643.805-3.71 1.823-1.181 1.128-2.52 2.407-5.149 2.407-2.628 0-3.967-1.279-5.149-2.407-1.066-1.018-1.909-1.823-3.709-1.823-.589 0-1.066-.498-1.066-1.112 0-.614.477-1.112 1.066-1.112 2.628 0 3.967 1.279 5.149 2.407 1.066 1.018 1.909 1.823 3.709 1.823 1.801 0 2.643-.805 3.71-1.823 1.181-1.128 2.52-2.407 5.149-2.407 2.628 0 3.967 1.279 5.148 2.407 1.066 1.018 1.909 1.823 3.709 1.823s2.643-.805 3.709-1.823c1.182-1.128 2.521-2.407 5.149-2.407 2.629 0 3.968 1.279 5.149 2.407 1.067 1.018 1.909 1.823 3.71 1.823 1.8 0 2.643-.805 3.709-1.823 1.182-1.128 2.521-2.407 5.149-2.407 2.629 0 3.968 1.279 5.15 2.407 1.066 1.018 1.909 1.823 3.709 1.823 1.801 0 2.644-.805 3.711-1.823 1.181-1.128 2.52-2.407 5.149-2.407.589 0 1.066.498 1.066 1.112 0 .614-.477 1.112-1.066 1.112zm0-9.637c-1.801 0-2.643.805-3.71 1.824-1.182 1.128-2.521 2.406-5.15 2.406-2.628 0-3.967-1.278-5.149-2.406-1.066-1.019-1.909-1.824-3.71-1.824-1.8 0-2.643.805-3.709 1.824-1.182 1.128-2.521 2.406-5.149 2.406-2.629 0-3.968-1.278-5.149-2.406-1.067-1.019-1.909-1.824-3.71-1.824-1.8 0-2.643.805-3.709 1.824-1.182 1.128-2.52 2.406-5.149 2.406s-3.967-1.278-5.148-2.406c-1.067-1.019-1.909-1.824-3.709-1.824-1.801 0-2.643.805-3.71 1.824-1.181 1.128-2.52 2.406-5.149 2.406-2.628 0-3.967-1.278-5.149-2.406-1.066-1.019-1.909-1.824-3.709-1.824C.477 11.86 0 11.363 0 10.748c0-.614.477-1.112 1.066-1.112 2.628 0 3.967 1.279 5.149 2.407 1.066 1.019 1.909 1.823 3.709 1.823 1.801 0 2.643-.804 3.71-1.823 1.181-1.128 2.52-2.407 5.149-2.407 2.628 0 3.967 1.279 5.148 2.407 1.066 1.019 1.909 1.823 3.709 1.823s2.643-.804 3.709-1.823c1.182-1.128 2.521-2.407 5.149-2.407 2.629 0 3.968 1.279 5.149 2.407 1.067 1.019 1.909 1.823 3.71 1.823 1.8 0 2.643-.804 3.709-1.823 1.182-1.128 2.521-2.407 5.149-2.407 2.629 0 3.968 1.279 5.15 2.407 1.066 1.019 1.909 1.823 3.709 1.823 1.801 0 2.644-.804 3.711-1.823 1.181-1.128 2.52-2.407 5.149-2.407.589 0 1.066.498 1.066 1.112 0 .615-.477 1.112-1.066 1.112zm0-9.636c-1.801 0-2.643.804-3.71 1.823-1.182 1.128-2.521 2.407-5.15 2.407-2.628 0-3.967-1.279-5.149-2.407-1.066-1.019-1.909-1.823-3.71-1.823-1.8 0-2.643.804-3.709 1.823-1.182 1.128-2.521 2.407-5.149 2.407-2.629 0-3.968-1.279-5.149-2.407-1.067-1.019-1.909-1.823-3.71-1.823-1.8 0-2.643.804-3.709 1.823-1.182 1.128-2.52 2.407-5.149 2.407s-3.967-1.279-5.148-2.407c-1.067-1.019-1.909-1.823-3.709-1.823-1.801 0-2.643.804-3.71 1.823-1.181 1.128-2.52 2.407-5.149 2.407-2.628 0-3.967-1.279-5.149-2.407-1.066-1.019-1.909-1.823-3.709-1.823C.477 2.224 0 1.726 0 1.112 0 .498.477 0 1.066 0c2.628 0 3.967 1.279 5.149 2.406C7.281 3.425 8.124 4.23 9.924 4.23c1.801 0 2.643-.805 3.71-1.824C14.815 1.279 16.154 0 18.783 0c2.628 0 3.967 1.279 5.148 2.406C24.997 3.425 25.84 4.23 27.64 4.23s2.643-.805 3.709-1.824C32.531 1.279 33.87 0 36.498 0c2.629 0 3.968 1.279 5.149 2.406 1.067 1.019 1.909 1.824 3.71 1.824 1.8 0 2.643-.805 3.709-1.824C50.248 1.279 51.587 0 54.215 0c2.629 0 3.968 1.279 5.15 2.406 1.066 1.019 1.909 1.824 3.709 1.824 1.801 0 2.644-.805 3.711-1.824C67.966 1.279 69.305 0 71.934 0 72.523 0 73 .498 73 1.112c0 .614-.477 1.112-1.066 1.112zM1.066 38.546c2.628 0 3.967 1.278 5.149 2.406 1.066 1.019 1.909 1.824 3.709 1.824 1.801 0 2.643-.805 3.71-1.824 1.181-1.128 2.52-2.406 5.149-2.406 2.628 0 3.967 1.278 5.148 2.407 1.066 1.018 1.909 1.823 3.709 1.823s2.643-.805 3.709-1.824c1.182-1.128 2.521-2.406 5.149-2.406 2.629 0 3.968 1.278 5.149 2.406 1.067 1.019 1.909 1.824 3.71 1.824 1.8 0 2.643-.805 3.709-1.824 1.182-1.128 2.521-2.406 5.149-2.406 2.629 0 3.968 1.278 5.15 2.406 1.066 1.019 1.909 1.824 3.709 1.824 1.801 0 2.644-.805 3.711-1.824 1.181-1.128 2.52-2.406 5.149-2.406.589 0 1.066.498 1.066 1.112 0 .614-.477 1.112-1.066 1.112-1.801 0-2.643.804-3.71 1.823C67.042 43.721 65.703 45 63.074 45c-2.628 0-3.967-1.279-5.149-2.407-1.066-1.019-1.909-1.823-3.71-1.823-1.8 0-2.643.804-3.709 1.823C49.324 43.721 47.985 45 45.357 45c-2.629 0-3.968-1.279-5.149-2.407-1.067-1.019-1.909-1.823-3.71-1.823-1.8 0-2.643.804-3.709 1.823C31.607 43.721 30.269 45 27.64 45s-3.967-1.279-5.148-2.407c-1.067-1.019-1.909-1.823-3.709-1.823-1.801 0-2.643.804-3.71 1.823C13.892 43.721 12.553 45 9.924 45c-2.628 0-3.967-1.279-5.149-2.407-1.066-1.019-1.909-1.823-3.709-1.823C.477 40.77 0 40.272 0 39.658c0-.614.477-1.112 1.066-1.112z"/></svg>