<svg xmlns="http://www.w3.org/2000/svg" width="41" height="36"><path fill-rule="evenodd" fill="#FFF" d="M40.399 36c-.331 0-.6-.309-.6-.689v-5.09c0-.58-.281-1.101-.733-1.36L37.06 27.71l-.698.76c-.487.533-1.114.799-1.74.799-.626 0-1.252-.266-1.74-.799l-.698-.761-.929.534c.479.645.758 1.476.758 2.358v4.709c0 .381-.269.69-.6.69-.332 0-.601-.309-.601-.69v-4.709c0-.894-.46-1.704-1.172-2.065l-3.433-1.74c-1.076 2.476-3.267 4.047-5.707 4.047-2.431 0-4.63-1.575-5.706-4.048l-3.434 1.741c-.712.361-1.172 1.171-1.172 2.065v4.709c0 .381-.269.69-.601.69-.331 0-.6-.309-.6-.69v-4.709c0-1.191.508-2.289 1.333-2.962l-.609-.2c-.149-.049-.353-.116-.558-.231L7.62 28.966v6.345c0 .38-.269.689-.6.689-.332 0-.601-.309-.601-.689v-6.345L4.897 27.22a1.332 1.332 0 0 1-.255.116l-2.48.813c-.566.186-.961.787-.961 1.462v5.7c0 .38-.269.689-.601.689-.331 0-.6-.309-.6-.689v-5.7c0-1.287.753-2.433 1.832-2.787l2.48-.813c.107-.035.181-.149.181-.276v-.996c-1.16-.963-1.925-2.563-1.925-4.346v-1.125l-.308-.706a4.096 4.096 0 0 1-.334-1.626v-.041c0-2.411 1.709-4.372 3.81-4.372h5.662a279.2 279.2 0 0 0 .158-2.309c.196-3.05 1.152-5.626 2.764-7.449C15.92.956 18.057 0 20.5 0c2.442 0 4.579.956 6.179 2.765 1.613 1.823 2.569 4.399 2.765 7.45.149 2.312.304 4.296.452 5.975a5.862 5.862 0 0 1 1.667-2.493 3.376 3.376 0 0 1-.109-.853c0-1.802 1.421-3.268 3.168-3.268s3.168 1.466 3.168 3.268c0 .291-.037.576-.11.853 1.236 1.068 2.036 2.764 2.036 4.671a6.498 6.498 0 0 1-.686 2.919c-.176 1.464-.883 2.711-1.882 3.5v1.403c0 .018.009.034.023.042l2.432 1.396c.862.494 1.397 1.488 1.397 2.593v5.09c0 .38-.269.689-.601.689zm-6.69-8.529c.512.559 1.314.559 1.826 0l.558-.608a1.604 1.604 0 0 1-.146-.673v-.733a3.943 3.943 0 0 1-2.65 0v.733c0 .24-.052.47-.146.673l.558.608zM20.5 29.465c1.961 0 3.724-1.251 4.606-3.227l-.874-.443c-.682-.346-1.123-1.122-1.123-1.978v-1.654a6.21 6.21 0 0 1-2.609.578 6.206 6.206 0 0 1-2.609-.578v1.654c0 .856-.441 1.632-1.123 1.978l-.874.443c.882 1.974 2.652 3.227 4.606 3.227zM7.02 27.706l1.362-1.563a2.143 2.143 0 0 1-.037-.409v-.276c-.423.15-.868.229-1.324.229l-.138-.002a3.724 3.724 0 0 1-1.188-.241v.291c0 .137-.016.272-.044.401l1.369 1.57zm3.893-13.805H5.736c-1.439 0-2.609 1.343-2.609 2.994v.041c0 .349.072.698.207 1.01l.371.851a.765.765 0 0 1 .064.308v1.288c0 2.098 1.413 3.854 3.15 3.914.888.031 1.728-.343 2.364-1.052.637-.708.988-1.659.988-2.677v-1.473c0-.107.021-.213.063-.308l.303-.696c.18-.413.276-.877.276-1.339v-2.861zm-.018 10.483a1.363 1.363 0 0 1-.435-.563 4.69 4.69 0 0 1-.914.964v.949c0 .154 0 .217.495.38l1.898.622 1.682-.853c-1.336-.547-2.245-1.142-2.726-1.499zm17.351-14.068c-.175-2.712-1.008-4.984-2.41-6.569-1.37-1.55-3.216-2.369-5.336-2.369-2.121 0-3.966.819-5.336 2.369-1.402 1.585-2.236 3.857-2.41 6.569-.473 7.351-1.011 11.45-1.221 12.871-.003.022.003.031.015.04.57.424 1.81 1.215 3.744 1.809l.991-.502c.247-.125.407-.407.407-.717v-2.369c-1.93-1.437-3.21-3.932-3.21-6.763v-.576c0-.753.362-1.459.944-1.844a3.971 3.971 0 0 0 1.655-2.218c.105-.361.445-.556.759-.436.315.121.485.511.38.872a5.297 5.297 0 0 1-2.194 2.976.773.773 0 0 0-.343.649v.577c0 3.682 2.611 6.677 5.819 6.677 3.208 0 5.818-2.995 5.818-6.677v-1.292c0-.441-.16-.854-.44-1.134-1.099-1.097-3.601-3.012-8.006-3.518-.33-.038-.57-.375-.537-.754.033-.379.328-.655.657-.617 4.736.543 7.467 2.645 8.674 3.849.542.542.854 1.334.854 2.174v1.292c0 2.831-1.28 5.326-3.21 6.762v2.37c0 .31.16.592.407.717l.991.502c1.933-.594 3.173-1.385 3.744-1.809.011-.009.018-.018.014-.04-.209-1.421-.747-5.52-1.22-12.871zm1.859 14.068c-.482.358-1.391.952-2.726 1.499l2.746 1.392c.022.011.044.025.066.037l1.882-1.08a.048.048 0 0 0 .023-.042v-1.403a4.957 4.957 0 0 1-1.459-1.927l.014.097c.082.559-.132 1.119-.546 1.427zm4.517-13.43c-1.085 0-1.967.848-1.967 1.89 0 .043.003.086.006.13a4.5 4.5 0 0 1 3.922 0c.003-.044.006-.087.006-.13 0-1.042-.882-1.89-1.967-1.89zm3.201 10.267c-.941-1.528-3.039-2.398-4.049-2.742a3.422 3.422 0 0 1-.653 1.113.547.547 0 0 1-.849 0 .762.762 0 0 1 0-.975c.438-.503.466-.981.466-.986 0-.208.082-.406.224-.537a.548.548 0 0 1 .505-.136c.145.037 3.145.816 4.85 2.804.13-.449.198-.919.198-1.394 0-2.463-1.746-4.467-3.893-4.467s-3.893 2.004-3.893 4.467c0 .819.2 1.625.577 2.33a.741.741 0 0 1 .085.287c.179 1.895 1.568 3.324 3.231 3.324 1.593 0 2.934-1.312 3.201-3.088zm-28.878-2.9a.53.53 0 0 1-.268-.073c-.947-.543-2.908-.663-3.583-.664-.332 0-.601-.309-.601-.689 0-.381.269-.689.601-.689.11 0 2.725.009 4.12.809.297.17.417.584.268.925-.105.241-.317.381-.537.381zM3.168 30.202c.332 0 .601.308.601.689v4.42c0 .38-.269.689-.601.689-.332 0-.6-.309-.6-.689v-4.42c0-.381.268-.689.6-.689zm10.913 1.473c.331 0 .6.308.6.689v2.947c0 .38-.269.689-.6.689-.332 0-.601-.309-.601-.689v-2.947c0-.381.269-.689.601-.689zm12.838 0c.332 0 .601.308.601.689v2.947c0 .38-.269.689-.601.689-.332 0-.601-.309-.601-.689v-2.947c0-.381.269-.689.601-.689zm10.913-.563c.331 0 .6.309.6.69v3.509c0 .38-.269.689-.6.689-.332 0-.601-.309-.601-.689v-3.509c0-.381.269-.69.601-.69z"/></svg>