<svg xmlns="http://www.w3.org/2000/svg" width="601" height="357"><path fill-rule="evenodd" fill="#F1F7FC" d="M601 246.342v82.983c0 15.259-12.392 27.673-27.623 27.673H27.622C12.391 356.998 0 344.583 0 329.325V27.676C0 12.416 12.392.001 27.622.001h545.755C588.608.001 601 12.416 601 27.676v82.983c0 7.857-4.038 15.241-10.54 19.27-16.969 10.514-27.099 28.672-27.099 48.572 0 19.901 10.13 38.059 27.1 48.573 6.501 4.027 10.539 11.411 10.539 19.268zm-17.607 0c0-1.794-.842-3.429-2.194-4.267-22.194-13.752-35.444-37.518-35.444-63.575 0-26.057 13.25-49.823 35.444-63.574 1.352-.84 2.194-2.474 2.194-4.269V27.673c0-5.532-4.493-10.032-10.016-10.032h-94.702v.606c0 4.871-3.94 8.82-8.803 8.82-4.864 0-8.804-3.949-8.804-8.82v-.606H27.622c-5.522 0-10.015 4.501-10.015 10.032v301.652c0 5.533 4.493 10.034 10.015 10.034h433.446v-.607c0-4.871 3.94-8.82 8.804-8.82 4.863 0 8.803 3.949 8.803 8.82v.607h94.702c5.523 0 10.016-4.502 10.016-10.034v-82.983zm-113.521 63.522c-4.864 0-8.804-3.949-8.804-8.819v-18.853c0-4.871 3.94-8.82 8.804-8.82 4.863 0 8.803 3.949 8.803 8.82v18.853c0 4.87-3.94 8.819-8.803 8.819zm0-56.558c-4.864 0-8.804-3.949-8.804-8.82v-18.853c0-4.872 3.94-8.819 8.804-8.819 4.863 0 8.803 3.949 8.803 8.819v18.853c0 4.871-3.94 8.82-8.803 8.82zm0-56.559c-4.864 0-8.804-3.948-8.804-8.82v-18.852c0-4.872 3.94-8.82 8.804-8.82 4.863 0 8.803 3.949 8.803 8.82v18.852c0 4.872-3.94 8.82-8.803 8.82zm0-56.561c-4.864 0-8.804-3.949-8.804-8.819v-18.853c0-4.871 3.94-8.82 8.804-8.82 4.863 0 8.803 3.949 8.803 8.82v18.853c0 4.87-3.94 8.819-8.803 8.819zm0-56.557c-4.864 0-8.804-3.949-8.804-8.82V55.956c0-4.872 3.94-8.819 8.804-8.819 4.863 0 8.803 3.948 8.803 8.819v18.853c0 4.871-3.94 8.82-8.803 8.82zM308.167 206.203l12.702 50.579c2.293 9.13-1.138 18.606-8.741 24.139-7.603 5.533-17.658 5.875-25.618.869l-44.092-27.732-44.092 27.73a22.815 22.815 0 0 1-12.174 3.532c-4.718 0-9.423-1.473-13.443-4.399-7.604-5.534-11.034-15.01-8.742-24.14l12.701-50.579-39.95-33.439c-7.213-6.037-9.996-15.723-7.092-24.677 2.904-8.954 10.84-15.153 20.215-15.789l51.942-3.528 19.399-48.397c3.503-8.738 11.838-14.382 21.237-14.382s17.733 5.645 21.235 14.382l19.399 48.397 51.942 3.528c9.376.637 17.311 6.835 20.215 15.788 2.905 8.955.122 18.641-7.091 24.678l-39.952 33.44zm30.298-52.667c-.331-1.022-1.448-3.422-4.661-3.64l-57.456-3.903a8.805 8.805 0 0 1-7.573-5.513l-21.46-53.536c-1.199-2.992-3.823-3.315-4.895-3.315-1.073 0-3.697.323-4.897 3.316l-21.459 53.535a8.805 8.805 0 0 1-7.573 5.513l-57.456 3.903c-3.211.219-4.329 2.619-4.662 3.641-.332 1.022-.836 3.62 1.635 5.689l44.191 36.991a8.83 8.83 0 0 1 2.894 8.92l-14.05 55.948c-.785 3.128 1.148 4.934 2.015 5.565.869.632 3.183 1.914 5.907.201l48.773-30.675a8.793 8.793 0 0 1 9.361 0l48.774 30.675c2.728 1.715 5.04.431 5.906-.201.868-.631 2.801-2.437 2.016-5.564l-14.051-55.948a8.827 8.827 0 0 1 2.894-8.92l44.192-36.992c2.47-2.068 1.966-4.668 1.635-5.69z"/></svg>