<svg xmlns="http://www.w3.org/2000/svg" width="36" height="36"><path fill-rule="evenodd" fill="#FFF" d="M31.332 4.744c1.52 1.517 2.224 3.704 1.98 6.158-.259 2.61-1.539 5.181-3.605 7.241-2.065 2.06-4.643 3.337-7.259 3.596a9.764 9.764 0 0 1-.944.047c-2.074 0-3.906-.702-5.229-2.022-1.52-1.517-2.223-3.704-1.98-6.158.26-2.61 1.54-5.181 3.605-7.241 2.065-2.06 4.643-3.337 7.259-3.596 2.459-.243 4.652.459 6.173 1.975zm-6.759 1.672l2.157 2.152 2.157-2.152-2.157-2.152-2.157 2.152zm-3.696 7.99l2.157-2.152-2.157-2.152-2.157 2.152 2.157 2.152zm-2.927-1.384l-2.157 2.152 2.157 2.152 2.158-2.152-2.158-2.152zm8.78-2.919l-2.157 2.151 2.157 2.152 2.157-2.152-2.157-2.151zm2.926 1.384l2.158-2.152-2.157-2.152-2.158 2.152 2.157 2.152zm-5.852 1.535l-2.158 2.152 2.157 2.151 2.158-2.152-2.157-2.151zm0-1.535l2.157-2.152-2.158-2.152-2.157 2.152 2.158 2.152zm4.278-7.409l1.575 1.57.501-.5a5.8 5.8 0 0 0-2.076-1.07zm2.846 1.837l-.502.501 1.576 1.572a5.78 5.78 0 0 0-1.074-2.073zm1.301 4.88a9.26 9.26 0 0 0 .029-.368l-1.833 1.827 1.16 1.157a9.699 9.699 0 0 0 .644-2.616zm-1.127 3.668l-1.446-1.441-2.157 2.151 1.816 1.811a11.944 11.944 0 0 0 1.787-2.521zm-2.557 3.288l-1.815-1.81-2.157 2.152 1.445 1.441a11.948 11.948 0 0 0 2.527-1.783zm-6.204 2.908a9.81 9.81 0 0 0 2.622-.642l-1.16-1.157-1.831 1.827c.122-.007.245-.016.369-.028zm.693-2.566l-2.157-2.152-2.157 2.152 2.157 2.152 2.157-2.152zm-3.508 2.339L17.95 18.86l-.501.501c.599.488 1.3.848 2.077 1.071zm-2.847-1.839l.502-.5-1.576-1.572a5.783 5.783 0 0 0 1.074 2.072zm-1.301-4.88a7.787 7.787 0 0 0-.028.368l1.831-1.827-1.159-1.156a9.72 9.72 0 0 0-.644 2.615zm1.127-3.668l1.446 1.442 2.157-2.152-1.815-1.811a11.938 11.938 0 0 0-1.788 2.521zm2.557-3.288l1.815 1.81 2.157-2.151-1.445-1.442a11.959 11.959 0 0 0-2.527 1.783zm4.741-1.109l1.832-1.827a9.443 9.443 0 0 0-.369.028 9.804 9.804 0 0 0-2.622.643l1.159 1.156zm12.136 5.514c-.319 3.214-1.869 6.355-4.365 8.844-2.495 2.489-5.644 4.036-8.865 4.354-.411.04-.816.061-1.215.061-2.58 0-4.907-.84-6.689-2.423l-5.437 5.423a1.283 1.283 0 0 1-.013 1.802l-6.416 6.401a1.278 1.278 0 0 1-.99.373 1.322 1.322 0 0 1-.851-.394l-.722-.72a1.283 1.283 0 0 1 0-1.816l.617-.616a.543.543 0 1 1 .77.768l-.617.615a.2.2 0 0 0 0 .282l.742.74c.051.051.11.058.141.058.031 0 .09-.007.141-.058l6.416-6.4a.198.198 0 0 0 0-.281l-.742-.741a.2.2 0 0 0-.282 0l-4.111 4.101a.546.546 0 0 1-.77 0 .542.542 0 0 1 0-.767l4.111-4.101c.244-.243.567-.376.911-.376.337 0 .654.129.896.363l5.436-5.423c-1.832-2.053-2.67-4.831-2.367-7.884.319-3.214 1.869-6.355 4.365-8.844.673-.672 1.4-1.28 2.169-1.815a.543.543 0 1 1 .619.893 14.965 14.965 0 0 0-2.019 1.689c-2.318 2.312-3.757 5.219-4.051 8.183-.291 2.925.571 5.555 2.427 7.406 3.86 3.851 10.871 3.124 15.627-1.621C35.562 14.494 36.29 7.501 32.43 3.65c-1.45-1.446-3.384-2.293-5.592-2.45-2.032-.143-4.149.3-6.156 1.284a.541.541 0 0 1-.713-.232l-.001-.002a.537.537 0 0 1 .233-.739C22.38.441 24.691-.04 26.914.118c2.474.175 4.647 1.131 6.285 2.764 2.09 2.085 3.063 5.026 2.74 8.28zM10.45 8.254H9.218l-6.983 2.389a.544.544 0 0 1-.721-.513V.543A.545.545 0 0 1 2.235.03l6.983 2.39h1.232a2.924 2.924 0 0 1 2.924 2.917 2.924 2.924 0 0 1-2.924 2.917zM8.583 3.35L2.602 1.303v3.491h5.981V3.35zm0 2.529H2.602V9.37l5.981-2.046V5.879zm1.867-2.374h-.779v3.664h.779a1.836 1.836 0 0 0 1.836-1.832c0-1.01-.824-1.832-1.836-1.832z"/></svg>