<svg xmlns="http://www.w3.org/2000/svg" width="324" height="96"><path fill-rule="evenodd" fill="#FFF" d="M262.701 49.26l16.072-39.859h24.08l21.13 52.408c-18.09-5.045-36.007-10.169-61.282-12.549zm29.881-15.003c-.761-2.47-1.431-5.241-1.769-7.861-.339 2.62-1.009 5.391-1.769 7.861l-2.611 8.086h8.672l-2.523-8.086zm-15.475 60.298h-7.705l-3.629-11.767-3.948 11.767h-2.038l-3.629-6.141 5.667-13.136h7.705l7.577 19.277zm-3.821-19.277h7.068l2.798 7.48 1.723-7.48h6.622v5.674l-6.686 13.603h-7.704l2.738-5.502-6.559-13.775zm-14.488 19.277h-8.346l-3.775-6.473h-.799v6.473h-7.606V75.278h7.606v6.47h1.027l3.547-6.47h8.346l-5.917 9.667 5.917 9.61zm-24.213-50.341h-11.788v3.776c-7.168.152-14.83.49-23.056 1.037V9.401h23.056v17.594h11.788V9.401h23.056v39.428c-7.066-.54-14.707-.866-23.056-.927v-3.688zM167.853 26.62l-7.534 26.195c-7.039.855-14.374 1.82-22.103 2.933l18.18-46.347h22.647l16.886 39.9a682.554 682.554 0 0 0-19.965 1.75l-8.111-24.431zM63.447 60.461c-6.835-6.368-10.29-15.082-10.29-24.857 0-19.978 14.332-35.592 42.77-35.592 28.439 0 42.884 15.614 42.884 35.592 0 7.922-2.309 15.135-6.823 20.983-27.485 3.642-50.131 4.548-68.541 3.874zm54.649-24.966c-.266-3.202-.666-7.438-8.193-12.271-7.527-4.833-9.725-6.753-8.992-8.673.733-1.92 3.53-4.805 4.862-5.15 1.333-.345.866-1.736-1.065-1.603-1.932.133-8.659-1.059-14.521 7.482 0 0-23.18-1.589-16.652 16.087 0 0 .533.529-.4 1.059-.932.53-3.73 3.311-2.931 4.502.8 1.192 3.331 2.714 6.994-.662 0 0 .866-.066.533.53-.333.596-1.798 1.853-1.265 2.516.532.662.999.662 2.331 0 1.332-.663 8.526-6.621 11.39-5.827 2.864.795 6.727 4.834 7.393 5.827.667.993 3.464 2.383 3.397 1.39-.066-.993-4.129-7.481-1.265-8.077 2.864-.596 12.456.927 12.722 6.753.267 5.826-8.259 2.78-8.259 2.78s-6.062-1.456-5.196 3.774c0 0 .4-1.788 2.531-.463 2.132 1.323 5.729 3.111 8.593.993 0 0-2.398 1.655-1.399 3.376.999 1.721 2.931 2.847 2.198 5.826 0 0 1.998.795 3.131-2.516 1.132-3.31 0-6.554-.933-8.076 0 0-.2-.596.533-1.259.733-.662 4.729-5.117 4.463-8.318zM43.5 59.003C21.152 56.468 7.358 51.592-.001 48.169V9.401h29.138c12.442 0 19.321 4.042 19.321 13.251 0 5.091-1.623 8.91-7.497 11.231 6.801 2.022 9.66 6.512 9.66 12.727 0 6.259-2.751 10.122-7.121 12.393zM24.616 21.999h-4.634v6.357h4.634c2.247 0 3.088-1.664 3.088-3.179 0-1.513-.841-3.178-3.088-3.178zm2.057 18.372h-6.691v8.044h6.691c2.956 0 3.999-1.966 3.999-4.023 0-2.054-1.043-4.021-3.999-4.021zm2.743 34.907l4.42 11.877v7.4H28.9l-.657-2.203h-5.832l-.658 2.203h-7.69l7.177-19.277h8.176zm-2.631 12.115l-.857-2.973a19.25 19.25 0 0 1-.601-2.893c-.114.966-.343 1.983-.599 2.893l-.887 2.973h2.944zm15.337-5.645h1.03l3.544-6.47h8.349l-5.918 9.667 5.918 9.61h-8.349l-3.773-6.473h-.801v6.473h-7.604V75.278h7.604v6.47zm23.701-6.47c4.602 0 7.147 1.486 7.147 4.871 0 1.875-.6 3.277-2.773 4.134 2.515.742 3.574 2.396 3.574 4.68 0 4.382-3.659 5.592-8.177 5.592H55.045V75.278h10.778zm-3.174 14.045h2.202c.972 0 1.316-.608 1.316-1.241 0-.633-.344-1.239-1.316-1.239h-2.202v2.48zm0-6.554h1.888c.915 0 1.258-.608 1.258-1.158 0-.552-.343-1.157-1.258-1.157h-1.888v2.315zm12.086 6.296c0-1.219-.101-2.183-.734-3.019l4.009-10.768h8.175l7.175 19.277h-7.69l-.657-2.203H79.18l-.657 2.203h-7.69l.053-.143c2.6-.718 3.849-2.375 3.849-5.347zm8.82-1.672l-.857-2.973a19.25 19.25 0 0 1-.601-2.893c-.114.966-.344 1.983-.6 2.893l-.886 2.973h2.944zm34.057-11.017v-2.533h6.747v2.533c3.737.312 6.51 1.649 8.058 3.828v9.423c-1.548 2.178-4.321 3.515-8.058 3.827v2.535h-6.747v-2.535c-5.946-.497-9.462-3.581-9.462-8.538 0-4.959 3.516-8.044 9.462-8.54zm6.604 11.377c1.687-.276 2.173-1.543 2.173-2.837 0-1.294-.486-2.563-2.173-2.836v5.673zm-6.46 0V82.08c-1.688.273-2.173 1.542-2.173 2.836 0 1.294.485 2.561 2.173 2.837zm23.26-8.345c0 1.018 0 2.011-.199 3.361l5.946-7.491h6.032v19.277h-7.604v-4.13c0-1.021 0-2.011.2-3.361l-5.947 7.491h-6.032V75.278h7.604v4.13zm28.835 2.203h-4.305v12.944h-7.604V81.611h-3.944v-6.333h15.853v6.333zm9.317.137h3.889v-6.47h7.604v19.277h-7.604v-6.473h-3.889v6.473h-7.604V75.278h7.604v6.47zm28.501-.814l-8.271-.151v1.654h8.291v4.903h-8.291v1.651h8.291v5.564h-15.896V75.278l15.876.151v5.505zm11.672-6.478a10.48 10.48 0 0 1 10.357 8.816h-7.779c-.555-.857-1.477-1.457-2.578-1.457a3.11 3.11 0 0 0-3.12 3.101 3.111 3.111 0 0 0 3.12 3.102c1.507 0 2.705-1.084 2.997-2.496h7.466a10.469 10.469 0 0 1-10.463 9.855c-5.812 0-10.524-4.684-10.524-10.461 0-5.776 4.712-10.46 10.524-10.46zm90.296 6.327h-8.692v1.489h2.629c3.775 0 7.749 1.018 7.749 6.142 0 5.124-3.974 6.141-7.749 6.141h-10.232V75.278h16.295v5.505zm-8.692 8.981h1.202c1.055 0 1.742-.304 1.742-1.35s-.687-1.35-1.742-1.35h-1.202v2.7z"/></svg>