<svg xmlns="http://www.w3.org/2000/svg" width="1924" height="13"><path fill-rule="evenodd" fill="#5393DD" d="M1913.284 12.997c-8.06 0-14.35-2.595-20.432-5.105-6.057-2.499-11.778-4.86-19.191-4.86-7.414 0-13.135 2.361-19.192 4.86-6.082 2.51-12.371 5.105-20.432 5.105-8.06 0-14.349-2.595-20.432-5.105-6.057-2.499-11.778-4.86-19.191-4.86-7.414 0-13.135 2.361-19.192 4.86-6.082 2.51-12.372 5.105-20.432 5.105-8.06 0-14.349-2.595-20.432-5.105-6.057-2.499-11.778-4.86-19.191-4.86-7.414 0-13.135 2.361-19.191 4.86-3.113 1.284-6.279 2.591-9.71 3.56l.002.004c-2.654.75-5.222 1.221-7.781 1.424l-.007.001-.342.025-.044.003-.308.02-.062.004-.292.016a1.736 1.736 0 0 0-.072.004l-.285.012-.077.003-.284.01-.078.003-.29.007-.072.002-.311.004-.052.001-.359.002H1675.543l-.359-.002-.052-.001-.311-.004-.072-.002-.29-.007-.077-.003-.285-.01-.076-.003-.286-.013-.071-.003a28.94 28.94 0 0 1-.665-.04l-.041-.003-.348-.025-.001-.001c-2.559-.203-5.128-.674-7.782-1.424l.001-.004c-3.43-.969-6.596-2.276-9.708-3.56-6.057-2.499-11.778-4.86-19.192-4.86s-13.134 2.361-19.191 4.86c-6.082 2.51-12.372 5.105-20.432 5.105-8.06 0-14.35-2.595-20.432-5.105-6.057-2.499-11.778-4.86-19.191-4.86-7.414 0-13.135 2.361-19.192 4.86-6.082 2.51-12.372 5.105-20.432 5.105-8.06 0-14.35-2.595-20.432-5.105-6.057-2.499-11.778-4.86-19.191-4.86-7.414 0-13.135 2.361-19.192 4.86-6.082 2.51-12.372 5.105-20.432 5.105l-.311-.001-.311.001c-8.06 0-14.35-2.595-20.432-5.105-6.057-2.499-11.778-4.86-19.192-4.86-7.413 0-13.134 2.361-19.191 4.86-6.082 2.51-12.372 5.105-20.432 5.105-8.06 0-14.35-2.595-20.432-5.105-6.057-2.499-11.778-4.86-19.191-4.86-7.414 0-13.135 2.361-19.192 4.86-6.082 2.51-12.372 5.105-20.432 5.105-8.06 0-14.35-2.595-20.432-5.105-6.057-2.499-11.778-4.86-19.191-4.86-7.414 0-13.135 2.361-19.192 4.86-3.112 1.284-6.279 2.591-9.709 3.56l.001.004c-2.654.75-5.222 1.221-7.78 1.424l-.007.001-.342.025-.044.003-.308.02-.063.004-.291.016-.073.004-.285.012-.077.003-.284.01-.077.003-.29.007-.072.002-.311.004-.052.001-.36.002h-.008l-.359-.002-.052-.001a31.839 31.839 0 0 1-.311-.004l-.072-.002a28.252 28.252 0 0 1-.291-.007l-.076-.003-.285-.01-.076-.003a27.541 27.541 0 0 1-.287-.013l-.07-.003a28.94 28.94 0 0 1-.666-.04l-.04-.003-.348-.025-.001-.001c-2.559-.203-5.128-.674-7.782-1.424l.001-.004c-3.43-.969-6.596-2.276-9.709-3.56-6.056-2.499-11.777-4.86-19.191-4.86s-13.135 2.361-19.191 4.86c-6.083 2.51-12.372 5.105-20.432 5.105-8.061 0-14.35-2.595-20.433-5.105-6.056-2.499-11.777-4.86-19.191-4.86s-13.134 2.361-19.191 4.86c-6.083 2.51-12.372 5.105-20.432 5.105-8.06 0-14.35-2.595-20.432-5.105-6.057-2.499-11.778-4.86-19.192-4.86-7.413 0-13.134 2.361-19.191 4.86-2.956 1.22-5.961 2.46-9.194 3.412l.046.152c-3.669 1.037-7.174 1.541-10.716 1.541a26.7 26.7 0 0 1-.284-.002l-.284.002c-3.542 0-7.047-.504-10.716-1.541l.046-.152c-3.233-.952-6.238-2.192-9.194-3.412-6.057-2.499-11.778-4.86-19.191-4.86-7.414 0-13.135 2.361-19.192 4.86-6.082 2.51-12.371 5.105-20.432 5.105-8.06 0-14.349-2.595-20.432-5.105-6.057-2.499-11.778-4.86-19.191-4.86-7.414 0-13.135 2.361-19.192 4.86-6.082 2.51-12.372 5.105-20.432 5.105-8.06 0-14.35-2.595-20.432-5.105-6.057-2.499-11.778-4.86-19.191-4.86-7.414 0-13.135 2.361-19.191 4.86-3.113 1.284-6.279 2.591-9.71 3.56l.002.004c-2.654.75-5.223 1.221-7.781 1.424l-.005.001-.344.025a8.896 8.896 0 0 0-.043.003l-.309.02a1.336 1.336 0 0 1-.061.004l-.293.016-.072.003-.286.013-.076.003a27.125 27.125 0 0 1-.652.02l-.072.002-.311.004-.052.001-.359.002H724.543l-.359-.002-.052-.001-.311-.004-.072-.002a28.058 28.058 0 0 1-.29-.007l-.077-.003-.285-.01-.076-.003a26.16 26.16 0 0 1-.357-.016l-.294-.016a30.48 30.48 0 0 1-.371-.024l-.041-.003-.348-.025-.001-.001c-2.559-.203-5.128-.674-7.782-1.424l.001-.004c-3.43-.969-6.596-2.276-9.708-3.56-6.057-2.499-11.778-4.86-19.192-4.86s-13.134 2.361-19.191 4.86c-6.082 2.51-12.372 5.105-20.432 5.105-8.061 0-14.35-2.595-20.432-5.105-6.057-2.499-11.778-4.86-19.191-4.86-7.414 0-13.135 2.361-19.192 4.86-6.082 2.51-12.372 5.105-20.432 5.105-8.06 0-14.35-2.595-20.432-5.105-6.057-2.499-11.778-4.86-19.191-4.86-7.414 0-13.135 2.361-19.192 4.86-6.082 2.51-12.372 5.105-20.432 5.105l-.311-.001-.311.001c-8.06 0-14.35-2.595-20.432-5.105-6.057-2.499-11.778-4.86-19.192-4.86s-13.134 2.361-19.191 4.86c-6.082 2.51-12.372 5.105-20.432 5.105-8.06 0-14.35-2.595-20.432-5.105-6.057-2.499-11.778-4.86-19.191-4.86-7.414 0-13.135 2.361-19.192 4.86-6.082 2.51-12.372 5.105-20.432 5.105-8.06 0-14.35-2.595-20.432-5.105-6.057-2.499-11.778-4.86-19.191-4.86-7.414 0-13.135 2.361-19.192 4.86-3.112 1.284-6.279 2.591-9.709 3.56l.001.004c-2.654.75-5.222 1.221-7.78 1.424l-.005.001-.345.025-.042.003-.309.02a27.256 27.256 0 0 1-.426.023l-.286.013-.076.003-.285.01-.077.003-.29.007-.072.002-.311.004-.052.001-.36.002h-.008l-.359-.002-.052-.001a31.839 31.839 0 0 1-.311-.004l-.072-.002a28.252 28.252 0 0 1-.291-.007l-.076-.003-.285-.01-.076-.003a27.541 27.541 0 0 1-.287-.013l-.07-.003a27.637 27.637 0 0 1-.355-.02l-.311-.02-.04-.003-.348-.025-.001-.001c-2.559-.203-5.128-.674-7.782-1.424l.001-.004c-3.43-.969-6.596-2.276-9.709-3.56-6.056-2.499-11.777-4.86-19.191-4.86s-13.135 2.361-19.191 4.86c-6.083 2.51-12.372 5.105-20.432 5.105-8.061 0-14.35-2.595-20.433-5.105-6.056-2.499-11.777-4.86-19.191-4.86s-13.134 2.361-19.191 4.86c-6.083 2.51-12.372 5.105-20.432 5.105-8.06 0-14.35-2.595-20.432-5.105-6.057-2.499-11.778-4.86-19.192-4.86-7.413 0-13.134 2.361-19.191 4.86-6.083 2.51-12.372 5.105-20.432 5.105-3.542 0-7.047-.504-10.716-1.541l.887-2.915c3.376.954 6.591 1.418 9.829 1.418 7.414 0 13.135-2.36 19.191-4.859C35.99 2.59 42.279-.005 50.339-.005c8.06 0 14.35 2.595 20.432 5.105 6.057 2.499 11.778 4.859 19.192 4.859 7.413 0 13.134-2.36 19.191-4.859 6.082-2.51 12.372-5.105 20.432-5.105 8.06 0 14.35 2.595 20.432 5.105 6.057 2.499 11.778 4.859 19.192 4.859s13.134-2.36 19.191-4.859c6.082-2.51 12.372-5.105 20.432-5.105 8.06 0 14.349 2.595 20.432 5.105 3.115 1.285 6.141 2.533 9.354 3.443v-.002c2.945.833 5.768 1.292 8.589 1.395l.073.003.216.007.154.003.152.004.236.003.083.001a36.302 36.302 0 0 0 .66 0l.084-.001.235-.003.154-.004.152-.003.218-.007.07-.003c2.822-.103 5.645-.562 8.591-1.395v.002c3.213-.91 6.239-2.158 9.354-3.443 6.082-2.51 12.372-5.105 20.432-5.105 8.059 0 14.349 2.595 20.431 5.105 6.057 2.499 11.778 4.859 19.192 4.859s13.134-2.36 19.191-4.859c6.083-2.51 12.372-5.105 20.433-5.105 8.06 0 14.349 2.595 20.431 5.105 6.057 2.499 11.778 4.859 19.192 4.859s13.135-2.36 19.191-4.859c6.083-2.51 12.372-5.105 20.432-5.105 8.061 0 14.35 2.595 20.432 5.105 3.302 1.362 6.505 2.683 9.936 3.603l.049-.162c3.268.924 6.385 1.388 9.518 1.417 3.132-.029 6.249-.493 9.518-1.417l.049.162c3.431-.92 6.634-2.241 9.935-3.603 6.083-2.51 12.373-5.105 20.433-5.105S540.784 2.59 546.866 5.1c6.057 2.499 11.778 4.859 19.192 4.859s13.134-2.36 19.191-4.859c6.083-2.51 12.372-5.105 20.433-5.105 8.06 0 14.349 2.595 20.431 5.105 6.057 2.499 11.778 4.859 19.192 4.859s13.135-2.36 19.191-4.859c6.083-2.51 12.372-5.105 20.432-5.105 8.06 0 14.35 2.595 20.432 5.105 3.115 1.285 6.141 2.533 9.354 3.443v-.002c2.946.833 5.768 1.292 8.59 1.395l.072.003.216.007.154.003.152.004.236.003.084.001a35.867 35.867 0 0 0 .659 0l.084-.001.236-.003.153-.004.152-.003.218-.007.071-.003c2.821-.103 5.644-.562 8.59-1.395l.001.002c3.212-.91 6.238-2.158 9.353-3.443 6.082-2.51 12.372-5.105 20.432-5.105 8.06 0 14.35 2.595 20.432 5.105 6.057 2.499 11.778 4.859 19.191 4.859 7.414 0 13.135-2.36 19.192-4.859 6.082-2.51 12.372-5.105 20.432-5.105 8.06 0 14.349 2.595 20.432 5.105 6.056 2.499 11.777 4.859 19.191 4.859s13.135-2.36 19.192-4.859c6.082-2.51 12.371-5.105 20.432-5.105 8.06 0 14.349 2.595 20.432 5.105 5.979 2.467 11.631 4.798 18.907 4.858 7.276-.06 12.928-2.391 18.907-4.858 6.083-2.51 12.372-5.105 20.432-5.105 8.06 0 14.35 2.595 20.432 5.105 6.057 2.499 11.778 4.859 19.192 4.859 7.413 0 13.134-2.36 19.191-4.859 6.082-2.51 12.372-5.105 20.432-5.105 8.06 0 14.35 2.595 20.432 5.105 6.057 2.499 11.778 4.859 19.192 4.859s13.134-2.36 19.191-4.859c6.082-2.51 12.372-5.105 20.432-5.105 8.06 0 14.35 2.595 20.432 5.105 3.115 1.285 6.141 2.533 9.354 3.443v-.002c2.945.833 5.768 1.292 8.589 1.395l.073.003.216.007.154.003.152.004.236.003.083.001a36.302 36.302 0 0 0 .66 0l.084-.001.235-.003.154-.004.152-.003.218-.007.07-.003c2.822-.103 5.645-.562 8.591-1.395v.002c3.213-.91 6.239-2.158 9.354-3.443 6.082-2.51 12.372-5.105 20.432-5.105 8.059 0 14.349 2.595 20.431 5.105 6.057 2.499 11.778 4.859 19.192 4.859s13.134-2.36 19.191-4.859c6.083-2.51 12.372-5.105 20.433-5.105 8.06 0 14.349 2.595 20.431 5.105 6.057 2.499 11.778 4.859 19.192 4.859s13.135-2.36 19.192-4.859c6.082-2.51 12.371-5.105 20.431-5.105 8.061 0 14.35 2.595 20.432 5.105 3.302 1.362 6.505 2.683 9.936 3.603l.049-.162c3.268.924 6.385 1.388 9.518 1.417 3.132-.029 6.249-.493 9.518-1.417l.049.162c3.431-.92 6.634-2.241 9.936-3.603 6.082-2.51 12.372-5.105 20.432-5.105 8.059 0 14.349 2.595 20.431 5.105 6.057 2.499 11.778 4.859 19.192 4.859s13.134-2.36 19.191-4.859c6.083-2.51 12.372-5.105 20.433-5.105 8.059 0 14.349 2.595 20.431 5.105 6.057 2.499 11.778 4.859 19.192 4.859s13.135-2.36 19.191-4.859c6.083-2.51 12.372-5.105 20.432-5.105 8.06 0 14.35 2.595 20.432 5.105 3.115 1.285 6.141 2.533 9.354 3.443v-.002c2.946.833 5.768 1.292 8.59 1.395l.072.003.216.007.154.003.152.004.236.003.084.001a35.867 35.867 0 0 0 .659 0l.084-.001.236-.003.153-.004.152-.003.219-.007.07-.003c2.821-.103 5.644-.562 8.59-1.395l.001.002c3.212-.91 6.238-2.158 9.353-3.443 6.082-2.51 12.372-5.105 20.432-5.105 8.06 0 14.35 2.595 20.432 5.105 6.057 2.499 11.778 4.859 19.191 4.859 7.414 0 13.135-2.36 19.192-4.859 6.082-2.51 12.372-5.105 20.432-5.105 8.06 0 14.349 2.595 20.432 5.105 6.056 2.499 11.777 4.859 19.191 4.859s13.135-2.36 19.192-4.859c6.082-2.51 12.371-5.105 20.432-5.105 8.06 0 14.349 2.595 20.432 5.105 6.056 2.499 11.777 4.859 19.191 4.859 3.237 0 6.452-.464 9.83-1.418l.886 2.915c-3.669 1.037-7.174 1.541-10.716 1.541z"/></svg>