<svg xmlns="http://www.w3.org/2000/svg" width="169" height="168"><path fill-rule="evenodd" fill="#EDEDED" d="M154.124 103.602v64.397h-22.351v-36.398H36.782v36.398H14.431v-64.397c-7.715 0-13.97-6.269-13.97-14 0-7.732 6.255-14 13.97-14h36.393a13.873 13.873 0 0 1-2.867-8.4c.009-7.728 6.258-13.99 13.97-13.999h44.701c7.712.009 13.961 6.271 13.97 13.999a13.88 13.88 0 0 1-2.867 8.4h36.393c7.715 0 13.969 6.268 13.969 14 0 7.731-6.254 14-13.969 14zM137.361 162.4h11.175v-5.6h-5.587v-5.6h5.587v-47.598h-11.175V162.4zM36.782 126.001h94.991v-5.6H36.782v5.6zm0-11.2h94.991v-11.199H36.782v11.199zM20.019 151.2h5.587v5.6h-5.587v5.6h11.175v-58.798H20.019V151.2zm86.609-92.397H61.927c-4.629 0-8.382 3.76-8.382 8.399 0 4.64 3.753 8.4 8.382 8.4h44.701c4.629 0 8.382-3.76 8.382-8.4 0-4.639-3.753-8.399-8.382-8.399zm47.496 22.399H14.431c-4.629 0-8.382 3.761-8.382 8.4s3.753 8.4 8.382 8.4h139.693c4.629 0 8.382-3.761 8.382-8.4s-3.753-8.4-8.382-8.4zm-2.794 5.6h5.588v5.6h-5.588v-5.6zm-139.693 0h5.588v5.6h-5.588v-5.6zm102.909-48.844l-5.588 8.399a2.79 2.79 0 0 1-3.875.775 2.803 2.803 0 0 1-.773-3.883l4.553-6.846-4.559-6.846a2.805 2.805 0 0 1 .006-3.108l4.553-6.845-4.565-6.846a2.807 2.807 0 0 1 0-3.108l5.588-8.4a2.79 2.79 0 0 1 3.875-.775 2.804 2.804 0 0 1 .774 3.883l-4.554 6.846 4.554 6.846a2.807 2.807 0 0 1 0 3.108l-4.554 6.846 4.565 6.846c.627.94.627 2.166 0 3.108zm-25.145 0l-5.587 8.399a2.79 2.79 0 0 1-3.875.775 2.803 2.803 0 0 1-.774-3.883l4.554-6.846-4.56-6.846a2.805 2.805 0 0 1 .006-3.108l4.554-6.845-4.566-6.846a2.807 2.807 0 0 1 0-3.108l5.588-8.4a2.79 2.79 0 0 1 3.875-.775 2.803 2.803 0 0 1 .774 3.883l-4.554 6.846 4.554 6.846a2.803 2.803 0 0 1 0 3.108l-4.554 6.846 4.565 6.846c.627.94.627 2.166 0 3.108zm-25.144 0l-5.588 8.399a2.79 2.79 0 0 1-3.875.775 2.803 2.803 0 0 1-.774-3.883l4.554-6.846-4.56-6.846a2.807 2.807 0 0 1 .006-3.108l4.554-6.845-4.565-6.846a2.803 2.803 0 0 1 0-3.108l5.587-8.4a2.791 2.791 0 0 1 3.876-.775 2.803 2.803 0 0 1 .773 3.883l-4.554 6.846 4.554 6.846a2.803 2.803 0 0 1 0 3.108l-4.554 6.846 4.566 6.846c.626.94.626 2.166 0 3.108z"/></svg>