<svg xmlns="http://www.w3.org/2000/svg" width="66" height="60"><path fill-rule="evenodd" fill="#191816" d="M65.716 49.856a.969.969 0 0 1-.683.281h-.138v8.904a.963.963 0 0 1-.967.959.963.963 0 0 1-.967-.959v-8.904h-2.484v8.904a.963.963 0 0 1-.967.959.963.963 0 0 1-.967-.959V46.986c0-.53.433-.959.967-.959s.967.429.967.959v1.233h3.589v-4.487c0-.957-.579-1.806-1.475-2.162L58.9 40.106c-1.294 3.998-5.05 6.743-9.331 6.743a9.848 9.848 0 0 1-7.091-3.011 8.672 8.672 0 0 1-4.093 5.177v1.565c0 .058.038.111.094.129l3.607 1.193a4.244 4.244 0 0 1 2.926 4.029v3.109c0 .53-.432.96-.966.96a.964.964 0 0 1-.967-.96v-3.109a2.327 2.327 0 0 0-1.605-2.209l-1.06-.351a7.608 7.608 0 0 1-6.31 3.341 7.614 7.614 0 0 1-6.309-3.341l-1.06.351a2.327 2.327 0 0 0-1.605 2.209v3.109c0 .53-.433.96-.967.96a.964.964 0 0 1-.967-.96v-3.109a4.245 4.245 0 0 1 2.927-4.029l3.607-1.193a.137.137 0 0 0 .094-.129v-1.565c-2.635-1.484-4.418-4.293-4.418-7.509v-.136h-.138a3.183 3.183 0 0 1-2.563-1.293 10.917 10.917 0 0 1-5.169 1.293c-5.066 0-9.455-3.506-10.611-8.307l-3.319.988a2.317 2.317 0 0 0-1.672 2.23v9.746H6.628v-3.525c0-.462-.137-.908-.395-1.291l-1.652-2.46a.955.955 0 0 1 .268-1.33.972.972 0 0 1 1.341.266l1.652 2.459c.471.7.719 1.515.719 2.356V59.04c0 .53-.433.96-.967.96a.964.964 0 0 1-.967-.96V47.945H3.038V59.04c0 .53-.433.96-.967.96a.963.963 0 0 1-.966-.96V47.945H.967A.963.963 0 0 1 0 46.986V36.281c0-1.89 1.226-3.524 3.05-4.067l7.996-2.38v-2.651c-2.471-1.821-4.144-4.65-4.388-7.87a3.16 3.16 0 0 1-2.24-3.012c0-.953.429-1.807 1.105-2.385V8.63C5.523 3.871 9.425 0 14.222 0h8.836a4.245 4.245 0 0 1 4.12 3.131c1.472.991 2.37 2.64 2.37 4.403v6.382a3.133 3.133 0 0 1 1.105 2.385 3.16 3.16 0 0 1-2.24 3.012 10.713 10.713 0 0 1-.558 2.683c.018.008.036.014.054.023l6.195 3.073 2.111-1.047c.146-2.277.236-4.682.236-6.648 0-7.176 5.885-13.014 13.118-13.014 7.233 0 13.117 5.838 13.117 13.014 0 7.516 1.084 15.131 1.095 15.207a.955.955 0 0 1-.344.877c-.11.09-2.588 2.065-7.819 3.245.038.02.076.041.117.058l7.574 3.005A4.227 4.227 0 0 1 66 43.732v5.446a.954.954 0 0 1-.284.678zm-35.991 2.877a5.68 5.68 0 0 0 4.38 2.061 5.678 5.678 0 0 0 4.38-2.061l-.617-.204a2.054 2.054 0 0 1-1.416-1.949v-.765a8.738 8.738 0 0 1-4.694 0v.765c0 .885-.57 1.669-1.417 1.949l-.616.204zm-5.707-21.919a10.838 10.838 0 0 1 2.492-3.65v-2.53a10.933 10.933 0 0 1-2.485 2.549v3.365c0 .089-.003.178-.007.266zM8.782 32.511c.91 4.004 4.548 6.94 8.754 6.94a8.985 8.985 0 0 0 4.556-1.232c0-.916.412-1.784 1.104-2.377v-.911c0-.475.032-.947.094-1.412a6.501 6.501 0 0 1-5.754 3.467c-3.147 0-5.777-2.233-6.366-5.186l-2.388.711zm13.31-1.964v-2.223a10.906 10.906 0 0 1-4.556.991c-1.626 0-3.169-.355-4.556-.991V30.56c.007 2.486 2.048 4.508 4.556 4.508 2.512 0 4.556-2.028 4.556-4.521zm6.627-14.246c0-.68-.557-1.232-1.242-1.232h-1.105a.963.963 0 0 1-.966-.96c0-.529.433-.959.966-.959h1.105c.046 0 .092.002.138.004v-5.62c0-1.22-.678-2.357-1.77-2.968a.959.959 0 0 1-.48-.685 2.323 2.323 0 0 0-2.306-1.963h-8.837c-3.731 0-6.766 3.011-6.766 6.712v4.524l.138-.003h1.513l.884-2.632a.965.965 0 0 1 .917-.656c.086 0 8.662-.027 12.823-2.091a.97.97 0 0 1 1.297.429.956.956 0 0 1-.432 1.287c-3.879 1.924-10.766 2.234-12.988 2.284l-.887 2.641a.966.966 0 0 1-.917.656h-2.21c-.685 0-1.242.553-1.242 1.232 0 .68.557 1.233 1.242 1.233.534 0 .967.429.967.959 0 4.91 4.026 8.904 8.975 8.904 4.948 0 8.974-3.995 8.974-8.904 0-.53.433-.959.967-.959.685 0 1.242-.553 1.242-1.233zm-.275 8.128V27.9l3.499-1.736-3.499-1.735zm5.661 2.807l-6.196 3.074a.978.978 0 0 1-.94-.042.965.965 0 0 1-.308-.305 8.866 8.866 0 0 0-1.531 4.968v.112c2.549-.101 9.557-.608 14.018-3.137a.971.971 0 0 1 1.319.358.954.954 0 0 1-.36 1.308c-5.092 2.887-12.839 3.333-15.229 3.402a.938.938 0 0 1-.228.186 1.217 1.217 0 0 0-.625 1.059 1.24 1.24 0 0 0 1.243 1.232h1.104c.534 0 .967.43.967.959v1.096c0 3.702 3.035 6.713 6.766 6.713 3.73 0 6.765-3.011 6.765-6.713v-.117-.979c0-.529.433-.959.967-.959h1.104a1.24 1.24 0 0 0 1.243-1.232c0-.438-.233-.833-.624-1.059a.958.958 0 0 1-.481-.829v-1.4a8.858 8.858 0 0 0-1.531-4.968.955.955 0 0 1-.816.448.981.981 0 0 1-.432-.101l-6.195-3.074zm2.161-1.072l3.499 1.736v-3.471l-3.499 1.735zm25.522 6.129c-.254-1.944-1.035-8.455-1.035-14.896 0-6.118-5.017-11.095-11.184-11.095-6.167 0-11.184 4.977-11.184 11.095 0 1.761-.058 3.66-.173 5.657l2.088-1.035a.97.97 0 0 1 .94.042.956.956 0 0 1 .459.816v4.287a10.834 10.834 0 0 1 2.647 4.048 8.946 8.946 0 0 0 5.223 1.664 8.913 8.913 0 0 0 5.637-1.975 8.93 8.93 0 0 0 3.115-4.949 8.862 8.862 0 0 0 .222-1.979c0-3.676-2.131-4.266-6.216-5.071-2.114-.416-4.462-.879-6.559-2.111-.507 1.275-1.751 2.972-4.801 3.729a.969.969 0 0 1-1.173-.698.959.959 0 0 1 .704-1.163c3.644-.904 3.686-3.428 3.686-3.453a.96.96 0 0 1 .548-.865.974.974 0 0 1 1.023.116c2.002 1.589 4.517 2.084 6.948 2.563 3.822.753 7.774 1.531 7.774 6.953 0 .811-.091 1.619-.27 2.404a10.856 10.856 0 0 1-5.253 7.005v1.526c3.75-.814 5.968-2.052 6.834-2.615zm-6.771 6.272a3.138 3.138 0 0 1-1.997-2.926v-1.405a10.966 10.966 0 0 1-8.069-.453c.041.38.062.764.062 1.15v.911a3.141 3.141 0 0 1 1.104 2.377c0 1.73-1.413 3.138-3.153 3.15a7.894 7.894 0 0 0 6.605 3.562c3.482 0 6.533-2.262 7.533-5.539l-2.085-.827zM45.15 20.822c.534 0 .967.429.967.959v1.095c0 .53-.433.96-.967.96a.963.963 0 0 1-.966-.96v-1.095c0-.53.433-.959.966-.959zm2.961 5.834c.39.477.908.741 1.458.741.55 0 1.068-.264 1.458-.741a.971.971 0 0 1 1.36-.141.954.954 0 0 1 .142 1.349c-.754.922-1.833 1.451-2.96 1.451-1.128 0-2.207-.529-2.96-1.451a.954.954 0 0 1 .142-1.349.972.972 0 0 1 1.36.141zm5.876-5.834c.534 0 .967.429.967.959v1.095c0 .53-.433.96-.967.96a.964.964 0 0 1-.967-.96v-1.095c0-.53.433-.959.967-.959zM37.383 40.278a.963.963 0 0 1-.967-.959c0-.53.433-.959.967-.959s.967.429.967.959-.433.959-.967.959zm-.318 4.024c-.754.922-1.833 1.451-2.96 1.451-1.128 0-2.207-.529-2.96-1.451a.953.953 0 0 1 .142-1.349.972.972 0 0 1 1.359.141c.391.478.909.741 1.459.741.549 0 1.067-.263 1.458-.741a.972.972 0 0 1 1.36-.141.955.955 0 0 1 .142 1.349zm-6.256-4.024a.963.963 0 0 1-.967-.959c0-.53.433-.959.967-.959.533 0 .966.429.966.959s-.433.959-.966.959zm-8.855-21.922a.963.963 0 0 1-.967-.959v-1.096c0-.53.433-.959.967-.959s.967.429.967.959v1.096c0 .53-.433.959-.967.959zm-4.418 5.48c-1.128 0-2.207-.529-2.96-1.451a.953.953 0 0 1 .142-1.349.97.97 0 0 1 1.359.141c.391.477.909.741 1.459.741s1.067-.264 1.458-.741a.971.971 0 0 1 1.36-.141.955.955 0 0 1 .142 1.349c-.754.922-1.833 1.451-2.96 1.451zm-4.419-5.48a.962.962 0 0 1-.966-.959v-1.096c0-.53.432-.959.966-.959s.967.429.967.959v1.096c0 .53-.433.959-.967.959z"/></svg>