<svg xmlns="http://www.w3.org/2000/svg" width="4" height="38"><path fill-rule="evenodd" fill="#D3D3D3" d="M2.22 28.827c-.769 0-1.393-.564-1.393-1.26 0-.696.624-1.26 1.393-1.26s1.392.564 1.392 1.26c0 .696-.623 1.26-1.392 1.26zm0-8.771c-.769 0-1.393-.564-1.393-1.26 0-.696.624-1.26 1.393-1.26s1.392.564 1.392 1.26c0 .696-.623 1.26-1.392 1.26zm0-8.771c-.769 0-1.393-.564-1.393-1.26 0-.695.624-1.259 1.393-1.259s1.392.564 1.392 1.259c0 .696-.623 1.26-1.392 1.26zm0-8.77c-.769 0-1.393-.564-1.393-1.26 0-.696.624-1.26 1.393-1.26s1.392.564 1.392 1.26c0 .696-.623 1.26-1.392 1.26zm0 32.562c.769 0 1.392.564 1.392 1.26 0 .696-.623 1.26-1.392 1.26-.769 0-1.393-.564-1.393-1.26 0-.696.624-1.26 1.393-1.26z"/></svg>