<svg xmlns="http://www.w3.org/2000/svg" width="51" height="56"><path fill-rule="evenodd" fill="#5393DD" d="M50.073 12.129h-3.709a.931.931 0 0 0-.928.934v.933a.93.93 0 0 0-.927-.933h-2.782a.93.93 0 0 0-.927.871l-.064.995h-1.791v-1.866a.93.93 0 0 0-.927-.934h-3.709a.93.93 0 0 0-.927.934v5.6a.93.93 0 0 0 .927.933h3.709a.93.93 0 0 0 .927-.933v-1.867h1.669l-.506 7.637a1.851 1.851 0 0 1-1.849 1.698h-5.804v-.401a.936.936 0 0 0-.531-.84 14.882 14.882 0 0 0-3.956-1.223.92.92 0 0 0-.441.045 8.984 8.984 0 0 0-1.563-.332v-2.547c.275-.141.541-.299.797-.473 3.116-2.194 5.694-4.398 5.694-9.141v-.957a10.34 10.34 0 0 0-3.226-7.492 10.242 10.242 0 0 0-13.089-.772c-4.028-.73-7.88 1.966-8.605 6.02a7.58 7.58 0 0 0-.117 1.311V23.33a.93.93 0 0 0 .927.934 13.697 13.697 0 0 0 9.52-3.834c.22.146.447.281.68.403v2.547a9.079 9.079 0 0 0-1.564.328.915.915 0 0 0-.44-.045c-1.369.221-2.7.633-3.956 1.223a.936.936 0 0 0-.531.84v.031a22.222 22.222 0 0 0-5.563 14.375c0 2.56.121 5.507.874 7.467H5.564v-1.867a.931.931 0 0 0-.928-.933H.927a.93.93 0 0 0-.927.933v5.601a.93.93 0 0 0 .927.933h3.709a.931.931 0 0 0 .928-.933v-1.867h5.301A14.353 14.353 0 0 0 9.273 56h1.854c.005-1.606.32-3.195.927-4.68v.013c0 .515.416.933.928.933h3.709a.93.93 0 0 0 .927-.933v-3.734h11.61l.534.672A12.474 12.474 0 0 1 32.455 56h1.854a14.349 14.349 0 0 0-3.1-8.895l-.709-.892-.356-1.075a11.725 11.725 0 0 1 .232-7.999l.052-.13a2.915 2.915 0 0 0 2.027-2.618v-.038l10.05-2.167a3.749 3.749 0 0 0 2.931-3.652v-9.871a.93.93 0 0 0 .928.933h3.709a.93.93 0 0 0 .927-.933v-5.6a.93.93 0 0 0-.927-.934zM37.091 17.73h-1.855v-3.734h1.855v3.734zM3.709 50.399H1.854v-3.733h1.855v3.733zm7.186-3.194l.064.397H9.42c-.529-.742-1.075-2.671-1.075-7.47a20.8 20.8 0 0 1 3.709-11.477v5.669c-1.223 2.789-1.629 10.045-1.159 12.881zM21.698 1.879c4.398-.298 8.266 2.902 8.828 7.302l-5.075-2.554a.911.911 0 0 0-.576-.084L14.102 8.456c.762-3.67 3.877-6.367 7.596-6.577zM9.273 22.361V9.329c.003-2.891 2.19-5.305 5.05-5.575a10.32 10.32 0 0 0-2.269 6.508v.957c0 4.004 1.841 6.197 4.288 8.105a11.854 11.854 0 0 1-7.069 3.037zm4.636-11.142v-.833l10.987-1.951 5.699 2.868c-.027 3.476-1.604 5.207-4.897 7.528a5.992 5.992 0 0 1-6.887 0c-3.321-2.341-4.902-4.076-4.902-7.612zm3.709 14.231a7.009 7.009 0 0 1 1.855-.253.93.93 0 0 0 .927-.933v-2.723a7.177 7.177 0 0 0 3.709 0v2.723a.93.93 0 0 0 .927.933c.627.001 1.25.086 1.855.253v1.493l-4.636 1.004-4.637-1.004V25.45zm-5.045 19.454c-.057-2.791.183-5.58.715-8.319.241.168.501.307.775.415.935 2.508.975 5.264.114 7.799h-1.195a.897.897 0 0 0-.409.105zm3.191 5.495h-1.855v-3.733h1.855v3.733zm1.854-4.667a.93.93 0 0 0-.927-.933h-.556a13.523 13.523 0 0 0 0-7.468h12.202a13.609 13.609 0 0 0 .048 8.401H17.618zM30.6 34.391c0 .507-.793 1.074-1.855 1.074H15.764c-1.062 0-1.855-.567-1.855-1.074v-8.053a12.86 12.86 0 0 1 1.855-.61v1.973a.93.93 0 0 0 .732.912l5.564 1.205a.88.88 0 0 0 .389 0l5.564-1.205a.932.932 0 0 0 .732-.912v-1.974c.633.156 1.253.36 1.855.61v8.054zm11.516-4.031l-9.661 2.083v-4.446h5.804a3.706 3.706 0 0 0 3.696-3.418l.64-9.65h.987v13.605a1.875 1.875 0 0 1-1.466 1.826zm7.029-12.63h-1.854v-3.734h1.854v3.734z"/></svg>