<svg xmlns="http://www.w3.org/2000/svg" width="21" height="21"><path fill-rule="evenodd" fill="#0D1B27" d="M20.807 20.455c-.22.341-.592.545-.996.545H1.188c-.403 0-.775-.204-.995-.545a1.204 1.204 0 0 1-.09-1.14l2.375-5.402a1.2 1.2 0 0 1 .537-.577l3.687-1.938a.237.237 0 0 1 .253.022 5.803 5.803 0 0 0 3.545 1.217 5.805 5.805 0 0 0 3.545-1.217.237.237 0 0 1 .253-.022l3.687 1.938a1.2 1.2 0 0 1 .537.577l2.375 5.402c.164.372.13.798-.09 1.14zM10.5 11.126c-2.6 0-4.708-2.491-4.708-5.563C5.792 1.302 7.9 0 10.5 0s4.708 1.302 4.708 5.563c0 3.072-2.108 5.563-4.708 5.563z"/></svg>