<svg xmlns="http://www.w3.org/2000/svg" width="61" height="61"><path fill-rule="evenodd" d="M58.967 4.071V2.037H61v2.034h-2.033zm0 2.033h-2.034V4.071h2.034v2.033zM54.9 4.071V2.037h2.033v2.034H54.9zM56.933.004h2.034v2.033h-2.034V.004zM54.9 24.402h-2.033v-2.034H54.9v2.034zm-2.033 2.033h-2.034v-2.033h2.034v2.033zM48.8 24.402v-2.034h2.033v2.034H48.8zm2.033-4.067h2.034v2.033h-2.034v-2.033zm0-18.298h2.034v2.034h-2.034V2.037zm1.017 43.712a3.042 3.042 0 0 1 1.027 5.909 4.013 4.013 0 0 1-2.485 6.637l-19.753 2.693a1.062 1.062 0 0 1-.276 0L10.61 58.295a4.013 4.013 0 0 1-2.486-6.637 3.042 3.042 0 0 1 1.026-5.909h2.459l3.641-6.37V28.467a4.066 4.066 0 0 1 4.067-4.065V11.186h.007c0-.013-.007-.025-.007-.038C19.52 5.746 23.509.004 30.5.004c.249-.008.498-.008.747 0 5.97.207 10.643 5.213 10.437 11.182v13.216a4.065 4.065 0 0 1 4.066 4.065v10.912l3.641 6.37h2.459zm-1.734 10.53a2.011 2.011 0 0 0 1.715-2.268 2.005 2.005 0 0 0-2.265-1.707l-7.229.986-8.918 1.219 5.316 3.322 11.381-1.552zm-29.333-4.745l9.717 1.322 9.718-1.326-4.085-4.764H24.868l-4.085 4.768zm2.507-6.047l-.407-1.615-6.369 7.077 1.876.255 4.9-5.717zm19.325 5.717l1.88-.255-6.37-7.077-.406 1.615 4.896 5.717zm-31.73 5.075L30.5 58.955l5.087-.695-5.443-3.401-11.488-1.566-7.23-.986a2.007 2.007 0 0 0-2.267 1.722 2.005 2.005 0 0 0 1.726 2.25zm7.674-29.698a2.034 2.034 0 0 0-1.275 1.887V39.65c0 .178-.046.353-.135.508l-4.067 7.116a1.014 1.014 0 0 1-.882.508H9.15a1.017 1.017 0 0 0 0 2.033h5.648l7.49-8.321-1.864-7.456-1.865-7.457zm13.975-1.163v-4.354a7.811 7.811 0 0 1-2.034.288 7.938 7.938 0 0 1-2.033-.281v4.347c0 .561-.455 1.017-1.017 1.017h-2.033v1.3l5.083 1.694 5.084-1.694v-1.3H33.55a1.017 1.017 0 0 1-1.016-1.017zM38.06 13.22h-.443a7.132 7.132 0 0 1-6.82-5.097 18.393 18.393 0 0 1-8.235 3.794c.841 3.98 4.407 7.402 7.938 7.402 3.067 0 6.289-2.689 7.56-6.099zM26.434 24.402v-4.147a11.961 11.961 0 0 1-5.084-5.562v9.709h5.084zM39.65 10.375a8.754 8.754 0 0 0-9.15-8.338 9.123 9.123 0 0 0-9.036 8.014 16.403 16.403 0 0 0 9.334-4.666 1.018 1.018 0 0 1 1.736.719 5.088 5.088 0 0 0 5.083 5.082h2.033c.013-.27.013-.541 0-.811zm0 4.315a12.057 12.057 0 0 1-5.083 5.559v4.153h5.083V14.69zm-2.033 11.745v2.033c0 .437-.279.826-.694.964l-6.1 2.033a1 1 0 0 1-.644 0l-6.1-2.033v-.001a1.015 1.015 0 0 1-.695-.963v-2.033h-2.765l4.575 18.298h10.612l4.575-18.298h-2.764zm10.301 20.839l-4.067-7.116a1.018 1.018 0 0 1-.134-.508V28.468c0-.831-.505-1.579-1.277-1.888l-1.864 7.456-1.864 7.457 7.491 8.322h5.647a1.017 1.017 0 1 0 0-2.033H48.8c-.364.001-.7-.193-.882-.508zM14.234.004h2.033v2.033h-2.033V.004zM9.151 23.385v-2.033h2.033v2.033H9.151zm2.033-4.066h2.033v2.033h-2.033v-2.033zm-2.033-2.033h2.033v2.033H9.151v-2.033zm-2.035 2.033h2.033v2.033H7.116v-2.033zM4.066 6.104h2.033v2.033H4.066V6.104zM2.033 8.137h2.033v2.033H2.033V8.137H0V6.104h2.033V4.071h2.033v2.033H2.033v2.033zm3.05 13.215H3.049v-2.033h2.034v2.033z"/></svg>