<svg 
 xmlns="http://www.w3.org/2000/svg"
 xmlns:xlink="http://www.w3.org/1999/xlink"
 width="46px" height="45px">
<path fill-rule="evenodd"  fill="rgb(13, 27, 39)"
 d="M39.096,38.410 C34.771,42.660 29.021,45.000 22.905,45.000 C16.788,45.000 11.038,42.660 6.714,38.410 C2.389,34.160 0.007,28.510 0.007,22.500 C0.007,16.490 2.389,10.839 6.714,6.590 C11.038,2.340 16.788,-0.000 22.905,-0.000 C29.021,-0.000 34.771,2.340 39.096,6.590 C43.420,10.839 45.802,16.490 45.802,22.500 C45.802,28.510 43.420,34.160 39.096,38.410 ZM22.905,4.075 C12.566,4.075 4.155,12.340 4.155,22.500 C4.155,32.659 12.566,40.925 22.905,40.925 C33.244,40.925 41.655,32.659 41.655,22.500 C41.655,12.340 33.244,4.075 22.905,4.075 ZM28.265,19.102 L27.659,23.020 L24.336,23.020 C24.336,27.993 24.336,33.598 24.336,33.598 L20.424,33.598 C20.424,33.598 20.424,28.050 20.424,23.020 L17.544,23.020 L17.544,19.102 L20.424,19.102 L20.424,16.055 C20.424,14.237 21.330,11.402 25.300,11.402 L28.209,11.417 L28.209,15.219 C28.209,15.219 26.092,15.219 25.670,15.219 C25.246,15.219 24.336,15.420 24.336,16.284 L24.336,19.102 L28.265,19.102 Z"/>
</svg>