<svg 
 xmlns="http://www.w3.org/2000/svg"
 xmlns:xlink="http://www.w3.org/1999/xlink"
 width="14px" height="14px">
<path fill-rule="evenodd"  fill="rgb(143, 146, 148)"
 d="M13.689,12.166 L10.803,9.280 C11.499,8.276 11.847,7.157 11.847,5.923 C11.847,5.121 11.691,4.354 11.380,3.622 C11.068,2.890 10.648,2.259 10.117,1.728 C9.587,1.199 8.956,0.778 8.224,0.466 C7.492,0.155 6.725,-0.001 5.923,-0.001 C5.121,-0.001 4.354,0.155 3.622,0.466 C2.890,0.778 2.259,1.199 1.728,1.728 C1.198,2.259 0.778,2.890 0.466,3.622 C0.155,4.354 -0.001,5.121 -0.001,5.923 C-0.001,6.725 0.155,7.492 0.466,8.224 C0.778,8.956 1.198,9.587 1.728,10.117 C2.259,10.647 2.890,11.068 3.622,11.379 C4.354,11.691 5.121,11.847 5.923,11.847 C7.157,11.847 8.276,11.498 9.280,10.803 L12.166,13.680 C12.368,13.894 12.620,14.000 12.923,14.000 C13.215,14.000 13.468,13.894 13.681,13.680 C13.894,13.468 14.000,13.215 14.000,12.923 C14.000,12.626 13.897,12.374 13.689,12.166 ZM8.586,8.586 C7.848,9.323 6.961,9.692 5.923,9.692 C4.885,9.692 3.997,9.323 3.260,8.586 C2.522,7.848 2.153,6.961 2.153,5.923 C2.153,4.885 2.522,3.997 3.260,3.260 C3.997,2.522 4.885,2.154 5.923,2.154 C6.961,2.154 7.848,2.522 8.586,3.260 C9.324,3.997 9.693,4.885 9.693,5.923 C9.693,6.961 9.324,7.848 8.586,8.586 Z"/>
</svg>