<svg xmlns="http://www.w3.org/2000/svg" width="18" height="25" viewBox="0 0 18 25">
  <metadata><?xpacket begin="﻿" id="W5M0MpCehiHzreSzNTczkc9d"?>
<x:xmpmeta xmlns:x="adobe:ns:meta/" x:xmptk="Adobe XMP Core 5.6-c138 79.159824, 2016/09/14-01:09:01        ">
   <rdf:RDF xmlns:rdf="http://www.w3.org/1999/02/22-rdf-syntax-ns#">
      <rdf:Description rdf:about=""/>
   </rdf:RDF>
</x:xmpmeta>
                                                                                                    
                                                                                                    
                                                                                                    
                                                                                                    
                                                                                                    
                                                                                                    
                                                                                                    
                                                                                                    
                                                                                                    
                                                                                                    
                                                                                                    
                                                                                                    
                                                                                                    
                                                                                                    
                                                                                                    
                                                                                                    
                                                                                                    
                                                                                                    
                                                                                                    
                                                                                                    
                           
<?xpacket end="w"?></metadata>
<defs>
    <style>
      .cls-1 {
        fill: #9b9b9b;
        fill-rule: evenodd;
      }
    </style>
  </defs>
  <path class="cls-1" d="M367,47a9.037,9.037,0,0,0-9,9.054c0,6.2,8.054,15.291,8.4,15.675a0.807,0.807,0,0,0,1.206,0c0.343-.384,8.4-9.479,8.4-15.675A9.038,9.038,0,0,0,367,47Zm0,22.936c-2.711-3.239-7.379-9.63-7.379-13.882a7.379,7.379,0,1,1,14.758,0C374.379,60.306,369.711,66.7,367,69.936ZM367,51.5a4.555,4.555,0,1,0,4.528,4.555A4.547,4.547,0,0,0,367,51.5Zm0,7.48a2.925,2.925,0,1,1,2.907-2.925A2.919,2.919,0,0,1,367,58.978Z" transform="translate(-358 -47)"/>
</svg>
