<svg 
 xmlns="http://www.w3.org/2000/svg"
 xmlns:xlink="http://www.w3.org/1999/xlink"
 width="25px" height="25px">
<path fill-rule="evenodd"  fill="rgb(155, 155, 155)"
 d="M12.500,1.562 C18.530,1.562 23.437,6.469 23.437,12.500 C23.437,18.530 18.530,23.437 12.500,23.437 C6.470,23.437 1.562,18.530 1.562,12.500 C1.562,6.469 6.470,1.562 12.500,1.562 M12.500,-0.000 C5.597,-0.000 -0.000,5.597 -0.000,12.500 C-0.000,19.403 5.597,25.000 12.500,25.000 C19.403,25.000 25.000,19.403 25.000,12.500 C25.000,5.597 19.403,-0.000 12.500,-0.000 L12.500,-0.000 ZM19.469,16.679 L19.398,16.466 C19.234,15.974 18.690,15.462 18.190,15.324 L16.342,14.819 C15.842,14.683 15.127,14.867 14.760,15.234 L14.091,15.902 C11.662,15.245 9.756,13.339 9.100,10.910 L9.769,10.242 C10.135,9.875 10.318,9.161 10.182,8.659 L9.678,6.811 C9.543,6.311 9.027,5.767 8.536,5.603 L8.325,5.533 C7.832,5.368 7.129,5.534 6.762,5.902 L5.762,6.903 C5.583,7.080 5.469,7.588 5.469,7.589 C5.435,10.767 6.680,13.826 8.926,16.073 C11.166,18.314 14.215,19.557 17.381,19.530 C17.398,19.530 17.921,19.418 18.100,19.240 L19.101,18.239 C19.467,17.874 19.632,17.170 19.469,16.679 Z"/>
</svg>