<svg 
 xmlns="http://www.w3.org/2000/svg"
 xmlns:xlink="http://www.w3.org/1999/xlink"
 width="46px" height="45px">
<path fill-rule="evenodd"  fill="rgb(13, 27, 39)"
 d="M31.882,44.653 L14.941,44.653 C7.145,44.653 0.823,38.441 0.823,30.780 L0.823,14.133 C0.823,6.472 7.145,0.260 14.941,0.260 L31.882,0.260 C39.678,0.260 46.000,6.472 46.000,14.133 L46.000,30.780 C46.000,38.441 39.678,44.653 31.882,44.653 ZM41.765,14.133 C41.765,8.778 37.332,4.422 31.882,4.422 L14.941,4.422 C9.491,4.422 5.058,8.778 5.058,14.133 L5.058,30.780 C5.058,36.135 9.491,40.491 14.941,40.491 L31.882,40.491 C37.332,40.491 41.765,36.135 41.765,30.780 L41.765,14.133 ZM35.553,12.005 C34.722,12.005 34.048,11.343 34.048,10.526 C34.048,9.709 34.722,9.047 35.553,9.047 C36.384,9.047 37.058,9.709 37.058,10.526 C37.058,11.343 36.384,12.005 35.553,12.005 ZM23.411,33.555 C17.174,33.555 12.117,28.586 12.117,22.457 C12.117,16.328 17.174,11.358 23.411,11.358 C29.649,11.358 34.706,16.328 34.706,22.457 C34.706,28.586 29.649,33.555 23.411,33.555 ZM23.411,15.520 C19.521,15.520 16.352,18.630 16.352,22.457 C16.352,26.280 19.521,29.393 23.411,29.393 C27.302,29.393 30.470,26.280 30.470,22.457 C30.470,18.630 27.302,15.520 23.411,15.520 Z"/>
</svg>