<svg 
 xmlns="http://www.w3.org/2000/svg"
 xmlns:xlink="http://www.w3.org/1999/xlink"
 width="47px" height="45px">
<path fill-rule="evenodd"  fill="rgb(13, 27, 39)"
 d="M39.968,38.410 C35.644,42.660 29.894,45.000 23.777,45.000 C17.661,45.000 11.911,42.660 7.586,38.410 C3.262,34.160 0.880,28.510 0.880,22.500 C0.880,16.490 3.262,10.839 7.586,6.590 C11.911,2.340 17.661,-0.000 23.777,-0.000 C29.894,-0.000 35.644,2.340 39.968,6.590 C44.293,10.839 46.675,16.490 46.675,22.500 C46.675,28.510 44.293,34.160 39.968,38.410 ZM23.777,4.075 C13.438,4.075 5.027,12.340 5.027,22.500 C5.027,32.659 13.438,40.925 23.777,40.925 C34.116,40.925 42.527,32.659 42.527,22.500 C42.527,12.340 34.116,4.075 23.777,4.075 ZM30.938,28.789 C28.567,29.049 26.167,29.051 23.777,29.049 C21.387,29.051 18.986,29.049 16.615,28.789 C15.613,28.679 14.782,27.941 14.548,26.942 C14.215,25.519 14.215,23.966 14.215,22.500 C14.215,21.035 14.218,19.481 14.552,18.058 C14.786,17.058 15.617,16.321 16.618,16.211 C18.990,15.950 21.390,15.949 23.780,15.950 C26.170,15.949 28.570,15.950 30.942,16.211 C31.943,16.321 32.775,17.058 33.009,18.058 C33.343,19.481 33.340,21.035 33.340,22.500 C33.340,23.965 33.339,25.519 33.005,26.942 C32.771,27.942 31.939,28.679 30.938,28.789 ZM21.309,19.202 C21.309,21.281 21.309,23.338 21.309,25.417 C23.341,24.381 25.356,23.355 27.389,22.319 C25.350,21.273 23.336,20.241 21.309,19.202 Z"/>
</svg>