<svg xmlns="http://www.w3.org/2000/svg" width="186" height="112"><path fill-rule="evenodd" fill="#EDEDED" d="M183.292 77.514c-4.575 0-6.716 1.981-9.427 4.49-3.001 2.777-6.403 5.926-13.083 5.926-6.678 0-10.079-3.149-13.081-5.926-2.71-2.509-4.851-4.49-9.425-4.49-4.575 0-6.715 1.981-9.426 4.489-3.001 2.778-6.402 5.927-13.081 5.927-6.679 0-10.08-3.149-13.081-5.927-2.71-2.508-4.851-4.489-9.425-4.489-4.574 0-6.715 1.981-9.425 4.489-3 2.778-6.402 5.927-13.081 5.927-6.678 0-10.078-3.149-13.079-5.927-2.71-2.508-4.85-4.489-9.424-4.489s-6.714 1.981-9.424 4.489c-3.001 2.778-6.403 5.927-13.081 5.927-6.679 0-10.081-3.149-13.082-5.927-2.71-2.508-4.851-4.489-9.425-4.489-1.495 0-2.707-1.226-2.707-2.738s1.212-2.738 2.707-2.738c6.679 0 10.08 3.148 13.082 5.926 2.71 2.508 4.85 4.49 9.425 4.49 4.574 0 6.714-1.982 9.424-4.49 3.001-2.778 6.403-5.926 13.081-5.926s10.079 3.148 13.08 5.926c2.71 2.508 4.85 4.49 9.423 4.49 4.575 0 6.715-1.982 9.425-4.49 3.001-2.778 6.402-5.926 13.081-5.926 6.679 0 10.08 3.148 13.081 5.926 2.71 2.508 4.851 4.49 9.425 4.49 4.575 0 6.715-1.982 9.425-4.49 3.001-2.778 6.403-5.926 13.082-5.926 6.679 0 10.08 3.148 13.082 5.926 2.71 2.508 4.85 4.49 9.425 4.49 4.575 0 6.716-1.982 9.427-4.49 3.001-2.778 6.403-5.926 13.082-5.926 1.495 0 2.708 1.226 2.708 2.738s-1.213 2.738-2.708 2.738zm0-23.729c-4.575 0-6.716 1.981-9.427 4.49-3.001 2.778-6.403 5.926-13.083 5.926-6.678 0-10.079-3.148-13.081-5.926-2.71-2.509-4.851-4.49-9.425-4.49-4.575 0-6.715 1.981-9.426 4.489-3.001 2.779-6.402 5.927-13.081 5.927-6.679 0-10.08-3.148-13.081-5.927-2.71-2.508-4.851-4.489-9.425-4.489-4.574 0-6.715 1.981-9.425 4.489-3 2.779-6.402 5.927-13.081 5.927-6.678 0-10.078-3.148-13.079-5.927-2.71-2.508-4.85-4.489-9.424-4.489s-6.714 1.981-9.424 4.489c-3.001 2.779-6.403 5.927-13.081 5.927-6.679 0-10.081-3.148-13.082-5.927-2.71-2.508-4.851-4.489-9.425-4.489-1.495 0-2.707-1.226-2.707-2.738s1.212-2.738 2.707-2.738c6.679 0 10.08 3.148 13.082 5.926 2.71 2.508 4.85 4.49 9.425 4.49 4.574 0 6.714-1.982 9.424-4.49 3.001-2.778 6.403-5.926 13.081-5.926s10.079 3.148 13.08 5.926c2.71 2.508 4.85 4.49 9.423 4.49 4.575 0 6.715-1.982 9.425-4.49 3.001-2.778 6.402-5.926 13.081-5.926 6.679 0 10.08 3.148 13.081 5.926 2.71 2.508 4.851 4.49 9.425 4.49 4.575 0 6.715-1.982 9.425-4.49 3.001-2.778 6.403-5.926 13.082-5.926 6.679 0 10.08 3.148 13.082 5.926 2.71 2.508 4.85 4.49 9.425 4.49 4.575 0 6.716-1.982 9.427-4.49 3.001-2.778 6.403-5.926 13.082-5.926 1.495 0 2.708 1.226 2.708 2.738s-1.213 2.738-2.708 2.738zm0-23.729c-4.575 0-6.716 1.981-9.427 4.49-3.001 2.777-6.403 5.926-13.083 5.926-6.678 0-10.079-3.149-13.081-5.926-2.71-2.509-4.851-4.49-9.425-4.49-4.575 0-6.715 1.981-9.426 4.49-3.001 2.777-6.402 5.926-13.081 5.926-6.679 0-10.08-3.149-13.081-5.926-2.71-2.509-4.851-4.49-9.425-4.49-4.574 0-6.715 1.981-9.425 4.49-3 2.777-6.402 5.926-13.081 5.926-6.678 0-10.078-3.149-13.079-5.926-2.71-2.509-4.85-4.49-9.424-4.49s-6.714 1.981-9.424 4.49c-3.001 2.777-6.403 5.926-13.081 5.926-6.679 0-10.081-3.149-13.082-5.926-2.71-2.509-4.85-4.49-9.425-4.49-1.495 0-2.707-1.226-2.707-2.738s1.212-2.738 2.707-2.738c6.679 0 10.08 3.148 13.082 5.925 2.71 2.509 4.85 4.49 9.425 4.49 4.574 0 6.714-1.981 9.424-4.489 3.001-2.778 6.403-5.926 13.081-5.926s10.079 3.148 13.08 5.926c2.71 2.509 4.85 4.489 9.423 4.489 4.575 0 6.715-1.981 9.425-4.489 3.001-2.778 6.402-5.926 13.081-5.926 6.679 0 10.08 3.148 13.081 5.926 2.71 2.508 4.851 4.489 9.425 4.489 4.575 0 6.715-1.981 9.425-4.489 3.001-2.778 6.403-5.926 13.082-5.926 6.679 0 10.08 3.148 13.082 5.926 2.71 2.508 4.85 4.489 9.425 4.489 4.575 0 6.716-1.981 9.427-4.49 3.001-2.777 6.403-5.925 13.082-5.925 1.495 0 2.708 1.226 2.708 2.738s-1.213 2.738-2.708 2.738zm0-23.729c-4.575 0-6.716 1.981-9.427 4.49-3.001 2.777-6.403 5.926-13.083 5.926-6.678 0-10.079-3.149-13.081-5.926-2.71-2.509-4.851-4.49-9.425-4.49-4.575 0-6.715 1.981-9.426 4.49-3.001 2.777-6.402 5.926-13.081 5.926-6.679 0-10.08-3.149-13.081-5.926-2.71-2.509-4.851-4.49-9.425-4.49-4.574 0-6.715 1.981-9.425 4.49-3 2.777-6.402 5.926-13.081 5.926-6.678 0-10.078-3.149-13.079-5.926-2.71-2.509-4.85-4.49-9.424-4.49s-6.714 1.981-9.424 4.49c-3.001 2.777-6.403 5.926-13.081 5.926-6.679 0-10.081-3.149-13.082-5.926-2.71-2.509-4.85-4.49-9.425-4.49-1.495 0-2.707-1.226-2.707-2.738S1.747.851 3.242.851c6.679 0 10.08 3.148 13.082 5.926 2.71 2.508 4.85 4.489 9.425 4.489 4.574 0 6.714-1.981 9.424-4.489C38.174 3.999 41.576.851 48.254.851S58.333 4 61.334 6.777c2.71 2.509 4.85 4.489 9.423 4.489 4.575 0 6.715-1.981 9.425-4.489C83.183 3.999 86.584.851 93.263.851c6.679 0 10.08 3.148 13.081 5.926 2.71 2.508 4.851 4.489 9.425 4.489 4.575 0 6.715-1.981 9.425-4.489 3.001-2.778 6.403-5.926 13.082-5.926 6.679 0 10.08 3.148 13.082 5.926 2.71 2.508 4.85 4.489 9.425 4.489 4.575 0 6.716-1.981 9.427-4.489 3.001-2.778 6.403-5.926 13.082-5.926 1.495 0 2.708 1.226 2.708 2.738s-1.213 2.738-2.708 2.738zM3.242 95.767c6.679 0 10.08 3.148 13.082 5.926 2.71 2.508 4.85 4.49 9.425 4.49 4.574 0 6.714-1.982 9.424-4.49 3.001-2.778 6.403-5.926 13.081-5.926s10.079 3.148 13.08 5.926c2.71 2.508 4.85 4.49 9.423 4.49 4.575 0 6.715-1.982 9.425-4.49 3.001-2.778 6.402-5.926 13.081-5.926 6.679 0 10.08 3.148 13.081 5.926 2.71 2.508 4.851 4.49 9.425 4.49 4.575 0 6.715-1.982 9.425-4.49 3.001-2.778 6.403-5.926 13.082-5.926 6.679 0 10.08 3.148 13.082 5.926 2.71 2.508 4.85 4.49 9.425 4.49 4.575 0 6.716-1.982 9.427-4.49 3.001-2.778 6.403-5.926 13.082-5.926 1.495 0 2.708 1.225 2.708 2.738 0 1.512-1.213 2.738-2.708 2.738-4.575 0-6.716 1.981-9.427 4.49-3.001 2.777-6.403 5.926-13.083 5.926-6.678 0-10.079-3.149-13.081-5.926-2.71-2.509-4.851-4.49-9.425-4.49-4.575 0-6.715 1.981-9.426 4.489-3.001 2.778-6.402 5.927-13.081 5.927-6.679 0-10.08-3.149-13.081-5.927-2.71-2.508-4.851-4.489-9.425-4.489-4.574 0-6.715 1.981-9.425 4.489-3 2.778-6.402 5.927-13.081 5.927-6.678 0-10.078-3.149-13.079-5.927-2.71-2.508-4.85-4.489-9.424-4.489s-6.714 1.981-9.424 4.489c-3.001 2.778-6.403 5.927-13.081 5.927-6.679 0-10.081-3.149-13.082-5.927-2.71-2.508-4.851-4.489-9.425-4.489-1.495 0-2.707-1.226-2.707-2.738 0-1.513 1.212-2.738 2.707-2.738z"/></svg>