<svg xmlns="http://www.w3.org/2000/svg" width="21" height="29"><path fill-rule="evenodd" fill="#0D1B27" d="M21 14.731l-3.242 1.898-.416 2.021 3.46 7.495-3.612.049L14.852 29l-3.402-7.369-.95.877-.95-.877L6.148 29l-2.339-2.806-3.611-.049 3.46-7.495-.416-2.021L0 14.731l1.529-3.477L0 7.776l3.242-1.897.769-3.73 3.717.407L10.5 0l2.772 2.556 3.718-.407.768 3.729L21 7.776l-1.529 3.478L21 14.731zM10.5 4.416c-3.699 0-6.708 3.068-6.708 6.838s3.009 6.837 6.708 6.837c3.699 0 6.708-3.067 6.708-6.837 0-3.77-3.009-6.838-6.708-6.838zm0 11.976c-2.78 0-5.041-2.305-5.041-5.138 0-2.834 2.261-5.139 5.041-5.139 2.78 0 5.041 2.305 5.041 5.139 0 2.833-2.261 5.138-5.041 5.138z"/></svg>