<svg 
 xmlns="http://www.w3.org/2000/svg"
 xmlns:xlink="http://www.w3.org/1999/xlink"
 width="1924px" height="13px">
<path fill-rule="evenodd"  fill="rgb(237, 237, 237)"
 d="M1913.284,12.997 C1905.224,12.997 1898.935,10.402 1892.852,7.892 C1886.795,5.393 1881.075,3.032 1873.661,3.032 C1866.247,3.032 1860.526,5.393 1854.469,7.892 C1848.387,10.402 1842.098,12.997 1834.037,12.997 C1825.977,12.997 1819.688,10.402 1813.605,7.892 C1807.548,5.393 1801.828,3.032 1794.414,3.032 C1787.000,3.032 1781.279,5.393 1775.222,7.892 C1769.140,10.402 1762.850,12.997 1754.791,12.997 C1746.730,12.997 1740.441,10.402 1734.358,7.892 C1728.301,5.393 1722.580,3.032 1715.167,3.032 C1707.753,3.032 1702.032,5.393 1695.976,7.892 C1692.863,9.177 1689.697,10.483 1686.267,11.453 L1686.268,11.456 C1683.614,12.206 1681.046,12.677 1678.489,12.880 C1678.484,12.881 1678.479,12.881 1678.475,12.881 C1678.363,12.890 1678.251,12.899 1678.139,12.907 C1678.123,12.908 1678.107,12.909 1678.092,12.910 C1677.990,12.917 1677.889,12.923 1677.787,12.929 C1677.766,12.931 1677.744,12.932 1677.723,12.933 C1677.626,12.939 1677.529,12.944 1677.433,12.949 C1677.408,12.950 1677.384,12.951 1677.359,12.953 C1677.265,12.957 1677.170,12.962 1677.075,12.965 C1677.049,12.967 1677.023,12.968 1676.998,12.969 C1676.903,12.972 1676.808,12.976 1676.714,12.979 C1676.688,12.979 1676.662,12.980 1676.636,12.981 C1676.540,12.984 1676.443,12.986 1676.346,12.988 C1676.322,12.989 1676.298,12.989 1676.274,12.990 C1676.171,12.992 1676.067,12.993 1675.963,12.995 C1675.946,12.995 1675.929,12.995 1675.911,12.995 C1675.792,12.996 1675.672,12.997 1675.552,12.997 C1675.550,12.997 1675.549,12.997 1675.548,12.997 C1675.546,12.997 1675.545,12.997 1675.544,12.997 C1675.424,12.997 1675.304,12.996 1675.184,12.995 C1675.167,12.995 1675.150,12.995 1675.132,12.995 C1675.029,12.993 1674.925,12.992 1674.821,12.990 C1674.797,12.989 1674.773,12.989 1674.749,12.988 C1674.653,12.986 1674.556,12.984 1674.459,12.981 C1674.433,12.980 1674.408,12.979 1674.382,12.979 C1674.287,12.976 1674.192,12.972 1674.097,12.969 C1674.072,12.968 1674.046,12.967 1674.021,12.965 C1673.926,12.962 1673.830,12.957 1673.735,12.953 C1673.711,12.951 1673.687,12.950 1673.663,12.949 C1673.566,12.944 1673.469,12.939 1673.371,12.933 C1673.350,12.932 1673.330,12.931 1673.309,12.929 C1673.206,12.923 1673.104,12.917 1673.001,12.910 C1672.987,12.909 1672.972,12.908 1672.957,12.907 C1672.843,12.899 1672.729,12.890 1672.616,12.881 C1672.613,12.881 1672.610,12.881 1672.608,12.881 C1670.049,12.677 1667.481,12.206 1664.827,11.456 L1664.828,11.453 C1661.398,10.483 1658.232,9.176 1655.120,7.892 C1649.063,5.393 1643.342,3.032 1635.928,3.032 C1628.515,3.032 1622.794,5.393 1616.737,7.892 C1610.655,10.402 1604.365,12.997 1596.305,12.997 C1588.245,12.997 1581.955,10.402 1575.873,7.892 C1569.816,5.393 1564.095,3.032 1556.682,3.032 C1549.268,3.032 1543.547,5.393 1537.490,7.892 C1531.408,10.402 1525.118,12.997 1517.058,12.997 C1508.998,12.997 1502.708,10.402 1496.626,7.892 C1490.569,5.393 1484.848,3.032 1477.435,3.032 C1470.021,3.032 1464.300,5.393 1458.243,7.892 C1452.161,10.402 1445.871,12.997 1437.811,12.997 C1437.707,12.997 1437.604,12.997 1437.500,12.996 C1437.396,12.997 1437.293,12.997 1437.189,12.997 C1429.129,12.997 1422.839,10.402 1416.757,7.892 C1410.700,5.393 1404.979,3.032 1397.565,3.032 C1390.152,3.032 1384.431,5.393 1378.374,7.892 C1372.292,10.402 1366.002,12.997 1357.942,12.997 C1349.882,12.997 1343.592,10.402 1337.510,7.892 C1331.453,5.393 1325.732,3.032 1318.319,3.032 C1310.905,3.032 1305.184,5.393 1299.127,7.892 C1293.045,10.402 1286.755,12.997 1278.695,12.997 C1270.635,12.997 1264.345,10.402 1258.263,7.892 C1252.206,5.393 1246.485,3.032 1239.072,3.032 C1231.658,3.032 1225.937,5.393 1219.880,7.892 C1216.768,9.177 1213.601,10.483 1210.171,11.453 L1210.172,11.456 C1207.519,12.206 1204.951,12.677 1202.393,12.880 C1202.389,12.881 1202.384,12.881 1202.380,12.881 C1202.268,12.890 1202.156,12.899 1202.044,12.907 C1202.028,12.908 1202.012,12.909 1201.996,12.910 C1201.895,12.917 1201.793,12.923 1201.692,12.929 C1201.670,12.931 1201.649,12.932 1201.627,12.933 C1201.531,12.939 1201.434,12.944 1201.337,12.949 C1201.313,12.950 1201.288,12.951 1201.264,12.953 C1201.169,12.957 1201.075,12.962 1200.980,12.965 C1200.954,12.967 1200.928,12.968 1200.902,12.969 C1200.808,12.972 1200.713,12.976 1200.619,12.979 C1200.593,12.979 1200.567,12.980 1200.541,12.981 C1200.444,12.984 1200.348,12.986 1200.251,12.988 C1200.227,12.989 1200.203,12.989 1200.179,12.990 C1200.075,12.992 1199.972,12.993 1199.868,12.995 C1199.851,12.995 1199.833,12.995 1199.816,12.995 C1199.696,12.996 1199.576,12.997 1199.457,12.997 C1199.455,12.997 1199.454,12.997 1199.452,12.997 C1199.451,12.997 1199.450,12.997 1199.448,12.997 C1199.328,12.997 1199.208,12.996 1199.089,12.995 C1199.071,12.995 1199.054,12.995 1199.037,12.995 C1198.933,12.993 1198.830,12.992 1198.726,12.990 C1198.702,12.989 1198.678,12.989 1198.654,12.988 C1198.557,12.986 1198.460,12.984 1198.364,12.981 C1198.338,12.980 1198.312,12.979 1198.287,12.979 C1198.192,12.976 1198.097,12.972 1198.002,12.969 C1197.976,12.968 1197.951,12.967 1197.926,12.965 C1197.830,12.962 1197.735,12.957 1197.640,12.953 C1197.616,12.951 1197.592,12.950 1197.568,12.949 C1197.471,12.944 1197.373,12.939 1197.276,12.933 C1197.255,12.932 1197.234,12.931 1197.214,12.929 C1197.111,12.923 1197.008,12.917 1196.906,12.910 C1196.891,12.909 1196.877,12.908 1196.862,12.907 C1196.748,12.899 1196.634,12.890 1196.520,12.881 C1196.518,12.881 1196.515,12.881 1196.512,12.881 C1193.954,12.677 1191.386,12.206 1188.732,11.456 L1188.733,11.453 C1185.303,10.483 1182.137,9.176 1179.024,7.892 C1172.968,5.393 1167.247,3.032 1159.833,3.032 C1152.419,3.032 1146.698,5.393 1140.642,7.892 C1134.559,10.402 1128.270,12.997 1120.210,12.997 C1112.149,12.997 1105.860,10.402 1099.777,7.892 C1093.721,5.393 1088.000,3.032 1080.586,3.032 C1073.173,3.032 1067.452,5.393 1061.395,7.892 C1055.312,10.402 1049.023,12.997 1040.963,12.997 C1032.903,12.997 1026.613,10.402 1020.531,7.892 C1014.474,5.393 1008.753,3.032 1001.339,3.032 C993.926,3.032 988.205,5.393 982.148,7.892 C979.192,9.112 976.187,10.352 972.954,11.304 L973.000,11.456 C969.331,12.493 965.826,12.997 962.284,12.997 C962.189,12.997 962.095,12.996 962.000,12.996 C961.905,12.996 961.811,12.997 961.716,12.997 C958.174,12.997 954.669,12.493 951.000,11.456 L951.046,11.304 C947.813,10.352 944.808,9.112 941.852,7.892 C935.795,5.393 930.075,3.032 922.661,3.032 C915.247,3.032 909.526,5.393 903.469,7.892 C897.387,10.402 891.098,12.997 883.037,12.997 C874.977,12.997 868.688,10.402 862.605,7.892 C856.548,5.393 850.827,3.032 843.414,3.032 C836.000,3.032 830.279,5.393 824.222,7.892 C818.140,10.402 811.850,12.997 803.791,12.997 C795.730,12.997 789.441,10.402 783.358,7.892 C777.301,5.393 771.580,3.032 764.167,3.032 C756.753,3.032 751.032,5.393 744.976,7.892 C741.863,9.177 738.697,10.483 735.267,11.453 L735.268,11.456 C732.614,12.206 730.046,12.677 727.488,12.880 C727.484,12.881 727.481,12.881 727.477,12.881 C727.364,12.890 727.251,12.899 727.139,12.907 C727.123,12.908 727.108,12.909 727.093,12.910 C726.991,12.917 726.889,12.923 726.787,12.929 C726.766,12.931 726.745,12.932 726.723,12.933 C726.626,12.939 726.529,12.944 726.432,12.949 C726.408,12.950 726.384,12.951 726.360,12.953 C726.265,12.957 726.170,12.962 726.075,12.965 C726.049,12.967 726.023,12.968 725.998,12.969 C725.903,12.972 725.808,12.976 725.714,12.979 C725.688,12.979 725.662,12.980 725.636,12.981 C725.540,12.984 725.443,12.986 725.346,12.988 C725.322,12.989 725.298,12.989 725.274,12.990 C725.171,12.992 725.067,12.993 724.963,12.995 C724.946,12.995 724.929,12.995 724.911,12.995 C724.792,12.996 724.672,12.997 724.552,12.997 C724.550,12.997 724.549,12.997 724.548,12.997 C724.546,12.997 724.545,12.997 724.544,12.997 C724.424,12.997 724.304,12.996 724.184,12.995 C724.167,12.995 724.150,12.995 724.132,12.995 C724.029,12.993 723.925,12.992 723.821,12.990 C723.797,12.989 723.773,12.989 723.749,12.988 C723.653,12.986 723.556,12.984 723.459,12.981 C723.433,12.980 723.408,12.979 723.382,12.979 C723.287,12.976 723.192,12.972 723.097,12.969 C723.072,12.968 723.046,12.967 723.021,12.965 C722.926,12.962 722.830,12.957 722.735,12.953 C722.711,12.951 722.687,12.950 722.663,12.949 C722.566,12.944 722.468,12.939 722.371,12.933 C722.350,12.932 722.330,12.931 722.309,12.929 C722.206,12.923 722.104,12.917 722.001,12.910 C721.986,12.909 721.972,12.908 721.957,12.907 C721.843,12.899 721.729,12.890 721.615,12.881 C721.613,12.881 721.610,12.881 721.608,12.881 C719.049,12.677 716.481,12.206 713.827,11.456 L713.828,11.452 C710.398,10.483 707.232,9.176 704.120,7.892 C698.063,5.393 692.342,3.032 684.928,3.032 C677.514,3.032 671.794,5.393 665.737,7.892 C659.655,10.402 653.365,12.997 645.305,12.997 C637.245,12.997 630.955,10.402 624.873,7.892 C618.816,5.393 613.095,3.032 605.682,3.032 C598.268,3.032 592.547,5.393 586.490,7.892 C580.408,10.402 574.118,12.997 566.058,12.997 C557.998,12.997 551.708,10.402 545.626,7.892 C539.569,5.393 533.848,3.032 526.435,3.032 C519.021,3.032 513.300,5.393 507.243,7.892 C501.161,10.402 494.871,12.997 486.811,12.997 C486.708,12.997 486.604,12.997 486.500,12.996 C486.396,12.997 486.293,12.997 486.189,12.997 C478.129,12.997 471.839,10.402 465.757,7.892 C459.700,5.393 453.979,3.032 446.566,3.032 C439.152,3.032 433.431,5.393 427.374,7.892 C421.292,10.402 415.002,12.997 406.942,12.997 C398.882,12.997 392.592,10.402 386.510,7.892 C380.453,5.393 374.732,3.032 367.319,3.032 C359.905,3.032 354.184,5.393 348.127,7.892 C342.045,10.402 335.755,12.997 327.695,12.997 C319.635,12.997 313.345,10.402 307.263,7.892 C301.206,5.393 295.485,3.032 288.072,3.032 C280.658,3.032 274.937,5.393 268.880,7.892 C265.768,9.177 262.602,10.483 259.171,11.453 L259.173,11.456 C256.519,12.206 253.951,12.677 251.393,12.880 C251.389,12.881 251.385,12.881 251.382,12.881 C251.269,12.890 251.156,12.899 251.043,12.907 C251.028,12.908 251.013,12.909 250.998,12.910 C250.896,12.917 250.794,12.923 250.692,12.929 C250.670,12.931 250.649,12.932 250.628,12.933 C250.531,12.939 250.434,12.944 250.337,12.949 C250.313,12.950 250.289,12.951 250.264,12.953 C250.170,12.957 250.075,12.962 249.980,12.965 C249.954,12.967 249.928,12.968 249.903,12.969 C249.808,12.972 249.713,12.976 249.618,12.979 C249.593,12.979 249.567,12.980 249.541,12.981 C249.444,12.984 249.348,12.986 249.251,12.988 C249.227,12.989 249.203,12.989 249.179,12.990 C249.075,12.992 248.972,12.993 248.868,12.995 C248.851,12.995 248.833,12.995 248.816,12.995 C248.696,12.996 248.577,12.997 248.457,12.997 C248.455,12.997 248.454,12.997 248.452,12.997 C248.451,12.997 248.450,12.997 248.448,12.997 C248.328,12.997 248.209,12.996 248.089,12.995 C248.072,12.995 248.054,12.995 248.037,12.995 C247.933,12.993 247.830,12.992 247.726,12.990 C247.702,12.989 247.678,12.989 247.654,12.988 C247.557,12.986 247.461,12.984 247.364,12.981 C247.338,12.980 247.312,12.979 247.287,12.979 C247.192,12.976 247.097,12.972 247.002,12.969 C246.977,12.968 246.951,12.967 246.926,12.965 C246.830,12.962 246.735,12.957 246.640,12.953 C246.616,12.951 246.592,12.950 246.568,12.949 C246.471,12.944 246.373,12.939 246.276,12.933 C246.255,12.932 246.234,12.931 246.214,12.929 C246.111,12.923 246.009,12.917 245.906,12.910 C245.891,12.909 245.877,12.908 245.862,12.907 C245.748,12.899 245.634,12.890 245.520,12.881 C245.518,12.881 245.515,12.881 245.513,12.881 C242.954,12.677 240.386,12.206 237.732,11.456 L237.733,11.452 C234.303,10.483 231.137,9.176 228.025,7.892 C221.968,5.393 216.247,3.032 208.833,3.032 C201.419,3.032 195.698,5.393 189.642,7.892 C183.560,10.402 177.270,12.997 169.210,12.997 C161.149,12.997 154.860,10.402 148.778,7.892 C142.721,5.393 137.000,3.032 129.586,3.032 C122.173,3.032 116.452,5.393 110.395,7.892 C104.313,10.402 98.023,12.997 89.963,12.997 C81.903,12.997 75.613,10.402 69.531,7.892 C63.474,5.393 57.753,3.032 50.339,3.032 C42.926,3.032 37.205,5.393 31.148,7.892 C25.066,10.402 18.776,12.997 10.716,12.997 C7.174,12.997 3.669,12.493 -0.000,11.456 L0.887,8.542 C4.263,9.495 7.478,9.959 10.716,9.959 C18.130,9.959 23.851,7.599 29.907,5.100 C35.990,2.590 42.280,-0.005 50.339,-0.005 C58.399,-0.005 64.689,2.590 70.771,5.100 C76.828,7.599 82.549,9.959 89.963,9.959 C97.377,9.959 103.097,7.599 109.154,5.100 C115.237,2.590 121.526,-0.005 129.586,-0.005 C137.646,-0.005 143.936,2.590 150.018,5.100 C156.075,7.599 161.796,9.959 169.210,9.959 C176.624,9.959 182.345,7.599 188.401,5.100 C194.484,2.590 200.773,-0.005 208.833,-0.005 C216.893,-0.005 223.183,2.590 229.265,5.100 C232.380,6.385 235.406,7.633 238.619,8.543 L238.619,8.542 C241.566,9.374 244.389,9.833 247.212,9.936 C247.233,9.937 247.254,9.938 247.276,9.939 C247.350,9.941 247.425,9.944 247.499,9.946 C247.548,9.947 247.598,9.948 247.648,9.949 C247.700,9.951 247.752,9.952 247.804,9.953 C247.882,9.954 247.959,9.955 248.037,9.956 C248.066,9.957 248.094,9.957 248.123,9.958 C248.232,9.959 248.342,9.959 248.452,9.959 C248.563,9.959 248.673,9.959 248.782,9.958 C248.811,9.957 248.839,9.957 248.868,9.956 C248.946,9.955 249.023,9.954 249.101,9.953 C249.153,9.952 249.206,9.951 249.258,9.949 C249.307,9.948 249.357,9.947 249.406,9.946 C249.481,9.944 249.556,9.941 249.631,9.939 C249.651,9.938 249.672,9.937 249.692,9.937 C252.515,9.833 255.339,9.374 258.286,8.542 L258.287,8.543 C261.499,7.633 264.525,6.385 267.640,5.100 C273.722,2.590 280.012,-0.005 288.072,-0.005 C296.132,-0.005 302.421,2.590 308.504,5.100 C314.561,7.599 320.282,9.959 327.695,9.959 C335.109,9.959 340.830,7.599 346.887,5.100 C352.969,2.590 359.259,-0.005 367.319,-0.005 C375.379,-0.005 381.668,2.590 387.751,5.100 C393.807,7.599 399.528,9.959 406.942,9.959 C414.356,9.959 420.077,7.599 426.134,5.100 C432.216,2.590 438.505,-0.005 446.566,-0.005 C454.626,-0.005 460.915,2.590 466.998,5.100 C470.300,6.462 473.502,7.783 476.933,8.703 L476.982,8.542 C480.251,9.465 483.368,9.929 486.500,9.958 C489.632,9.929 492.749,9.465 496.018,8.542 L496.068,8.703 C499.499,7.783 502.701,6.462 506.003,5.100 C512.085,2.590 518.375,-0.005 526.435,-0.005 C534.495,-0.005 540.784,2.590 546.867,5.100 C552.924,7.599 558.644,9.959 566.058,9.959 C573.472,9.959 579.193,7.599 585.250,5.100 C591.332,2.590 597.622,-0.005 605.682,-0.005 C613.742,-0.005 620.031,2.590 626.114,5.100 C632.170,7.599 637.891,9.959 645.305,9.959 C652.719,9.959 658.440,7.599 664.497,5.100 C670.579,2.590 676.868,-0.005 684.928,-0.005 C692.989,-0.005 699.278,2.590 705.360,5.100 C708.475,6.385 711.501,7.633 714.714,8.543 L714.714,8.542 C717.661,9.374 720.484,9.833 723.307,9.936 C723.328,9.937 723.350,9.938 723.371,9.939 C723.445,9.941 723.520,9.944 723.594,9.946 C723.644,9.947 723.693,9.948 723.743,9.949 C723.795,9.951 723.847,9.952 723.899,9.953 C723.977,9.954 724.055,9.955 724.133,9.956 C724.161,9.957 724.189,9.957 724.218,9.958 C724.327,9.959 724.437,9.959 724.548,9.959 C724.658,9.959 724.768,9.959 724.877,9.958 C724.906,9.957 724.935,9.957 724.963,9.956 C725.041,9.955 725.119,9.954 725.196,9.953 C725.248,9.952 725.301,9.951 725.353,9.949 C725.403,9.948 725.452,9.947 725.501,9.946 C725.576,9.944 725.651,9.941 725.726,9.939 C725.746,9.938 725.767,9.937 725.788,9.937 C728.610,9.833 731.434,9.374 734.381,8.542 L734.382,8.543 C737.595,7.633 740.620,6.385 743.735,5.100 C749.817,2.590 756.107,-0.005 764.167,-0.005 C772.227,-0.005 778.517,2.590 784.599,5.100 C790.656,7.599 796.377,9.959 803.791,9.959 C811.204,9.959 816.925,7.599 822.982,5.100 C829.064,2.590 835.354,-0.005 843.414,-0.005 C851.474,-0.005 857.763,2.590 863.846,5.100 C869.902,7.599 875.623,9.959 883.037,9.959 C890.451,9.959 896.172,7.599 902.229,5.100 C908.311,2.590 914.600,-0.005 922.661,-0.005 C930.721,-0.005 937.010,2.590 943.093,5.100 C949.072,7.567 954.724,9.898 962.000,9.958 C969.276,9.898 974.928,7.567 980.907,5.100 C986.990,2.590 993.280,-0.005 1001.339,-0.005 C1009.399,-0.005 1015.689,2.590 1021.771,5.100 C1027.828,7.599 1033.549,9.959 1040.963,9.959 C1048.376,9.959 1054.097,7.599 1060.154,5.100 C1066.236,2.590 1072.526,-0.005 1080.586,-0.005 C1088.646,-0.005 1094.936,2.590 1101.018,5.100 C1107.075,7.599 1112.796,9.959 1120.210,9.959 C1127.624,9.959 1133.345,7.599 1139.401,5.100 C1145.483,2.590 1151.773,-0.005 1159.833,-0.005 C1167.893,-0.005 1174.183,2.590 1180.265,5.100 C1183.380,6.385 1186.406,7.633 1189.619,8.543 L1189.619,8.542 C1192.566,9.374 1195.389,9.833 1198.212,9.936 C1198.233,9.937 1198.254,9.938 1198.276,9.939 C1198.350,9.941 1198.424,9.944 1198.499,9.946 C1198.548,9.947 1198.598,9.948 1198.648,9.949 C1198.700,9.951 1198.752,9.952 1198.804,9.953 C1198.881,9.954 1198.959,9.955 1199.037,9.956 C1199.066,9.957 1199.094,9.957 1199.123,9.958 C1199.232,9.959 1199.342,9.959 1199.452,9.959 C1199.563,9.959 1199.673,9.959 1199.782,9.958 C1199.811,9.957 1199.839,9.957 1199.868,9.956 C1199.946,9.955 1200.023,9.954 1200.101,9.953 C1200.153,9.952 1200.206,9.951 1200.258,9.949 C1200.307,9.948 1200.356,9.947 1200.405,9.946 C1200.480,9.944 1200.555,9.941 1200.630,9.939 C1200.651,9.938 1200.672,9.937 1200.692,9.937 C1203.515,9.833 1206.339,9.374 1209.286,8.542 L1209.286,8.543 C1212.499,7.633 1215.525,6.385 1218.640,5.100 C1224.722,2.590 1231.012,-0.005 1239.072,-0.005 C1247.132,-0.005 1253.421,2.590 1259.504,5.100 C1265.561,7.599 1271.281,9.959 1278.695,9.959 C1286.109,9.959 1291.830,7.599 1297.887,5.100 C1303.969,2.590 1310.259,-0.005 1318.319,-0.005 C1326.379,-0.005 1332.668,2.590 1338.751,5.100 C1344.807,7.599 1350.528,9.959 1357.942,9.959 C1365.356,9.959 1371.077,7.599 1377.134,5.100 C1383.216,2.590 1389.505,-0.005 1397.565,-0.005 C1405.626,-0.005 1411.915,2.590 1417.997,5.100 C1421.300,6.462 1424.502,7.783 1427.933,8.703 L1427.982,8.542 C1431.250,9.465 1434.367,9.929 1437.500,9.958 C1440.632,9.929 1443.749,9.465 1447.018,8.542 L1447.068,8.703 C1450.499,7.783 1453.701,6.462 1457.003,5.100 C1463.085,2.590 1469.375,-0.005 1477.435,-0.005 C1485.495,-0.005 1491.784,2.590 1497.866,5.100 C1503.923,7.599 1509.644,9.959 1517.058,9.959 C1524.472,9.959 1530.192,7.599 1536.250,5.100 C1542.332,2.590 1548.621,-0.005 1556.682,-0.005 C1564.742,-0.005 1571.031,2.590 1577.113,5.100 C1583.170,7.599 1588.891,9.959 1596.305,9.959 C1603.719,9.959 1609.440,7.599 1615.497,5.100 C1621.579,2.590 1627.868,-0.005 1635.928,-0.005 C1643.989,-0.005 1650.278,2.590 1656.360,5.100 C1659.475,6.385 1662.501,7.633 1665.714,8.543 L1665.714,8.542 C1668.661,9.374 1671.484,9.833 1674.307,9.936 C1674.328,9.937 1674.350,9.938 1674.371,9.939 C1674.445,9.941 1674.520,9.944 1674.594,9.946 C1674.644,9.947 1674.693,9.948 1674.743,9.949 C1674.795,9.951 1674.847,9.952 1674.899,9.953 C1674.977,9.954 1675.055,9.955 1675.133,9.956 C1675.161,9.957 1675.190,9.957 1675.218,9.958 C1675.327,9.959 1675.437,9.959 1675.548,9.959 C1675.658,9.959 1675.768,9.959 1675.877,9.958 C1675.906,9.957 1675.935,9.957 1675.963,9.956 C1676.041,9.955 1676.119,9.954 1676.196,9.953 C1676.248,9.952 1676.301,9.951 1676.353,9.949 C1676.403,9.948 1676.452,9.947 1676.501,9.946 C1676.576,9.944 1676.651,9.941 1676.726,9.939 C1676.746,9.938 1676.767,9.937 1676.788,9.937 C1679.610,9.833 1682.434,9.374 1685.381,8.542 L1685.382,8.543 C1688.594,7.633 1691.620,6.385 1694.735,5.100 C1700.817,2.590 1707.107,-0.005 1715.167,-0.005 C1723.227,-0.005 1729.517,2.590 1735.599,5.100 C1741.656,7.599 1747.377,9.959 1754.791,9.959 C1762.204,9.959 1767.925,7.599 1773.982,5.100 C1780.064,2.590 1786.354,-0.005 1794.414,-0.005 C1802.474,-0.005 1808.763,2.590 1814.846,5.100 C1820.903,7.599 1826.623,9.959 1834.037,9.959 C1841.451,9.959 1847.172,7.599 1853.229,5.100 C1859.311,2.590 1865.601,-0.005 1873.661,-0.005 C1881.721,-0.005 1888.010,2.590 1894.093,5.100 C1900.150,7.599 1905.870,9.959 1913.284,9.959 C1916.521,9.959 1919.736,9.495 1923.114,8.542 L1924.000,11.456 C1920.331,12.493 1916.826,12.997 1913.284,12.997 Z"/>
</svg>