<svg 
 xmlns="http://www.w3.org/2000/svg"
 xmlns:xlink="http://www.w3.org/1999/xlink"
 width="1924px" height="13px">
<path fill-rule="evenodd"  fill="rgb(225, 225, 225)"
 d="M1913.284,12.997 C1905.224,12.997 1898.934,10.402 1892.852,7.892 C1886.795,5.393 1881.074,3.032 1873.660,3.032 C1866.247,3.032 1860.526,5.392 1854.469,7.892 C1848.387,10.402 1842.098,12.997 1834.037,12.997 C1825.977,12.997 1819.688,10.402 1813.605,7.892 C1807.548,5.392 1801.827,3.032 1794.414,3.032 C1787.000,3.032 1781.279,5.393 1775.222,7.892 C1769.140,10.402 1762.850,12.997 1754.790,12.997 C1746.730,12.997 1740.440,10.402 1734.358,7.892 C1728.301,5.392 1722.580,3.032 1715.167,3.032 C1707.753,3.032 1702.032,5.393 1695.975,7.892 C1692.863,9.176 1689.697,10.482 1686.266,11.452 L1686.268,11.456 C1683.492,12.240 1680.811,12.719 1678.136,12.906 C1678.124,12.907 1678.111,12.908 1678.099,12.909 C1677.994,12.916 1677.889,12.923 1677.785,12.929 C1677.765,12.930 1677.746,12.931 1677.727,12.932 C1677.628,12.938 1677.529,12.944 1677.431,12.949 C1677.408,12.950 1677.384,12.951 1677.361,12.952 C1677.265,12.957 1677.170,12.961 1677.074,12.965 C1677.049,12.966 1677.024,12.967 1676.999,12.968 C1676.903,12.972 1676.808,12.975 1676.713,12.978 C1676.687,12.979 1676.662,12.980 1676.637,12.980 C1676.540,12.983 1676.443,12.986 1676.345,12.988 C1676.322,12.988 1676.298,12.989 1676.274,12.989 C1676.170,12.991 1676.067,12.993 1675.963,12.994 C1675.946,12.994 1675.928,12.995 1675.911,12.995 C1675.791,12.996 1675.672,12.997 1675.552,12.997 C1675.550,12.997 1675.549,12.996 1675.548,12.996 C1675.546,12.996 1675.545,12.997 1675.543,12.997 C1675.424,12.997 1675.304,12.996 1675.184,12.995 C1675.167,12.995 1675.150,12.994 1675.133,12.994 C1675.029,12.993 1674.925,12.991 1674.821,12.989 C1674.797,12.989 1674.774,12.988 1674.750,12.988 C1674.653,12.986 1674.555,12.983 1674.458,12.980 C1674.433,12.980 1674.408,12.979 1674.383,12.978 C1674.287,12.975 1674.192,12.972 1674.096,12.968 C1674.071,12.967 1674.047,12.966 1674.022,12.965 C1673.926,12.961 1673.829,12.957 1673.733,12.952 C1673.710,12.951 1673.688,12.950 1673.665,12.949 C1673.566,12.944 1673.466,12.938 1673.367,12.932 C1673.348,12.931 1673.330,12.930 1673.311,12.929 C1673.205,12.923 1673.099,12.916 1672.994,12.909 C1672.982,12.908 1672.971,12.907 1672.960,12.906 C1670.285,12.719 1667.603,12.240 1664.827,11.456 L1664.828,11.452 C1661.398,10.482 1658.232,9.176 1655.120,7.892 C1649.063,5.393 1643.342,3.032 1635.928,3.032 C1628.514,3.032 1622.794,5.392 1616.737,7.892 C1610.655,10.402 1604.365,12.997 1596.305,12.997 C1588.244,12.997 1581.955,10.402 1575.873,7.892 C1569.816,5.392 1564.095,3.032 1556.682,3.032 C1549.268,3.032 1543.547,5.393 1537.490,7.892 C1531.408,10.402 1525.118,12.997 1517.058,12.997 C1508.998,12.997 1502.708,10.402 1496.626,7.892 C1490.569,5.392 1484.848,3.032 1477.435,3.032 C1470.021,3.032 1464.300,5.393 1458.243,7.892 C1452.161,10.402 1445.871,12.997 1437.811,12.997 C1437.707,12.997 1437.604,12.996 1437.500,12.995 C1437.396,12.996 1437.293,12.997 1437.189,12.997 C1429.129,12.997 1422.839,10.402 1416.757,7.892 C1410.700,5.393 1404.979,3.032 1397.565,3.032 C1390.151,3.032 1384.431,5.392 1378.374,7.892 C1372.292,10.402 1366.002,12.997 1357.942,12.997 C1349.882,12.997 1343.592,10.402 1337.510,7.892 C1331.453,5.392 1325.732,3.032 1318.319,3.032 C1310.905,3.032 1305.184,5.393 1299.127,7.892 C1293.045,10.402 1286.755,12.997 1278.695,12.997 C1270.635,12.997 1264.345,10.402 1258.263,7.892 C1252.206,5.392 1246.485,3.032 1239.072,3.032 C1231.658,3.032 1225.937,5.393 1219.880,7.892 C1216.768,9.176 1213.601,10.482 1210.171,11.452 L1210.172,11.456 C1207.397,12.240 1204.716,12.719 1202.041,12.906 C1202.028,12.907 1202.016,12.908 1202.003,12.909 C1201.899,12.916 1201.794,12.923 1201.690,12.929 C1201.670,12.930 1201.651,12.931 1201.631,12.932 C1201.533,12.938 1201.434,12.944 1201.335,12.949 C1201.312,12.950 1201.289,12.951 1201.266,12.952 C1201.170,12.957 1201.074,12.961 1200.978,12.965 C1200.953,12.966 1200.928,12.967 1200.903,12.968 C1200.808,12.972 1200.713,12.975 1200.617,12.978 C1200.592,12.979 1200.567,12.980 1200.541,12.980 C1200.444,12.983 1200.347,12.986 1200.250,12.988 C1200.226,12.988 1200.203,12.989 1200.179,12.989 C1200.075,12.991 1199.971,12.993 1199.867,12.994 C1199.850,12.994 1199.833,12.995 1199.816,12.995 C1199.696,12.996 1199.576,12.997 1199.456,12.997 C1199.455,12.997 1199.454,12.996 1199.452,12.996 C1199.451,12.996 1199.450,12.997 1199.448,12.997 C1199.328,12.997 1199.208,12.996 1199.089,12.995 C1199.071,12.995 1199.054,12.994 1199.037,12.994 C1198.933,12.993 1198.829,12.991 1198.725,12.989 C1198.702,12.989 1198.678,12.988 1198.655,12.988 C1198.557,12.986 1198.460,12.983 1198.363,12.980 C1198.338,12.980 1198.313,12.979 1198.288,12.978 C1198.192,12.975 1198.096,12.972 1198.001,12.968 C1197.976,12.967 1197.951,12.966 1197.927,12.965 C1197.830,12.961 1197.734,12.957 1197.638,12.952 C1197.615,12.951 1197.592,12.950 1197.570,12.949 C1197.470,12.944 1197.371,12.938 1197.272,12.932 C1197.253,12.931 1197.234,12.930 1197.216,12.929 C1197.110,12.923 1197.004,12.916 1196.898,12.909 C1196.887,12.908 1196.876,12.907 1196.864,12.906 C1194.189,12.719 1191.508,12.240 1188.732,11.456 L1188.733,11.452 C1185.303,10.482 1182.137,9.176 1179.024,7.892 C1172.968,5.393 1167.247,3.032 1159.833,3.032 C1152.419,3.032 1146.698,5.392 1140.642,7.892 C1134.559,10.402 1128.270,12.997 1120.210,12.997 C1112.149,12.997 1105.860,10.402 1099.777,7.892 C1093.721,5.392 1088.000,3.032 1080.586,3.032 C1073.172,3.032 1067.452,5.393 1061.395,7.892 C1055.312,10.402 1049.023,12.997 1040.963,12.997 C1032.903,12.997 1026.613,10.402 1020.531,7.892 C1014.474,5.392 1008.753,3.032 1001.339,3.032 C993.926,3.032 988.205,5.393 982.148,7.892 C979.192,9.112 976.187,10.351 972.954,11.304 L973.000,11.456 C969.331,12.493 965.826,12.997 962.284,12.997 C962.189,12.997 962.094,12.996 962.000,12.995 C961.905,12.996 961.811,12.997 961.716,12.997 C958.174,12.997 954.669,12.493 951.000,11.456 L951.046,11.304 C947.813,10.351 944.808,9.112 941.852,7.892 C935.795,5.393 930.074,3.032 922.661,3.032 C915.247,3.032 909.526,5.392 903.469,7.892 C897.387,10.402 891.098,12.997 883.037,12.997 C874.977,12.997 868.687,10.402 862.605,7.892 C856.548,5.392 850.827,3.032 843.414,3.032 C836.000,3.032 830.279,5.393 824.222,7.892 C818.140,10.402 811.850,12.997 803.790,12.997 C795.730,12.997 789.440,10.402 783.358,7.892 C777.301,5.392 771.580,3.032 764.167,3.032 C756.753,3.032 751.032,5.393 744.975,7.892 C741.863,9.176 738.697,10.482 735.266,11.452 L735.268,11.456 C732.492,12.240 729.810,12.719 727.136,12.906 C727.124,12.907 727.112,12.908 727.100,12.909 C726.995,12.916 726.890,12.923 726.784,12.929 C726.765,12.930 726.746,12.931 726.727,12.932 C726.628,12.938 726.529,12.944 726.430,12.949 C726.407,12.950 726.385,12.951 726.362,12.952 C726.266,12.957 726.169,12.961 726.073,12.965 C726.049,12.966 726.024,12.967 725.999,12.968 C725.903,12.972 725.808,12.975 725.712,12.978 C725.687,12.979 725.662,12.980 725.637,12.980 C725.540,12.983 725.442,12.986 725.345,12.988 C725.322,12.988 725.298,12.989 725.274,12.989 C725.170,12.991 725.067,12.993 724.963,12.994 C724.945,12.994 724.928,12.995 724.911,12.995 C724.791,12.996 724.672,12.997 724.552,12.997 C724.550,12.997 724.549,12.996 724.548,12.996 C724.546,12.996 724.545,12.997 724.543,12.997 C724.423,12.997 724.304,12.996 724.184,12.995 C724.167,12.995 724.150,12.994 724.133,12.994 C724.029,12.993 723.925,12.991 723.821,12.989 C723.797,12.989 723.774,12.988 723.750,12.988 C723.653,12.986 723.555,12.983 723.458,12.980 C723.433,12.980 723.408,12.979 723.383,12.978 C723.287,12.975 723.192,12.972 723.096,12.968 C723.071,12.967 723.047,12.966 723.022,12.965 C722.926,12.961 722.829,12.957 722.733,12.952 C722.710,12.951 722.688,12.950 722.665,12.949 C722.566,12.944 722.466,12.938 722.367,12.932 C722.348,12.931 722.330,12.930 722.311,12.929 C722.205,12.923 722.099,12.916 721.994,12.909 C721.982,12.908 721.971,12.907 721.960,12.906 C719.285,12.719 716.603,12.240 713.827,11.456 L713.828,11.452 C710.398,10.482 707.232,9.176 704.120,7.892 C698.063,5.393 692.342,3.032 684.928,3.032 C677.514,3.032 671.793,5.392 665.737,7.892 C659.655,10.402 653.365,12.997 645.305,12.997 C637.244,12.997 630.955,10.402 624.873,7.892 C618.816,5.392 613.095,3.032 605.682,3.032 C598.268,3.032 592.547,5.393 586.490,7.892 C580.408,10.402 574.118,12.997 566.058,12.997 C557.998,12.997 551.708,10.402 545.626,7.892 C539.569,5.392 533.848,3.032 526.435,3.032 C519.021,3.032 513.300,5.393 507.243,7.892 C501.161,10.402 494.871,12.997 486.811,12.997 C486.707,12.997 486.604,12.996 486.500,12.995 C486.396,12.996 486.292,12.997 486.189,12.997 C478.129,12.997 471.839,10.402 465.757,7.892 C459.700,5.393 453.979,3.032 446.565,3.032 C439.151,3.032 433.431,5.392 427.374,7.892 C421.292,10.402 415.002,12.997 406.942,12.997 C398.882,12.997 392.592,10.402 386.510,7.892 C380.453,5.392 374.732,3.032 367.319,3.032 C359.905,3.032 354.184,5.393 348.127,7.892 C342.045,10.402 335.755,12.997 327.695,12.997 C319.635,12.997 313.345,10.402 307.263,7.892 C301.206,5.392 295.485,3.032 288.072,3.032 C280.658,3.032 274.937,5.393 268.880,7.892 C265.768,9.176 262.601,10.482 259.171,11.452 L259.172,11.456 C256.397,12.240 253.715,12.719 251.041,12.906 C251.029,12.907 251.017,12.908 251.005,12.909 C250.899,12.916 250.794,12.923 250.689,12.929 C250.670,12.930 250.651,12.931 250.632,12.932 C250.533,12.938 250.434,12.944 250.335,12.949 C250.312,12.950 250.289,12.951 250.266,12.952 C250.170,12.957 250.074,12.961 249.978,12.965 C249.953,12.966 249.928,12.967 249.904,12.968 C249.808,12.972 249.713,12.975 249.617,12.978 C249.592,12.979 249.567,12.980 249.541,12.980 C249.444,12.983 249.347,12.986 249.250,12.988 C249.226,12.988 249.203,12.989 249.179,12.989 C249.075,12.991 248.971,12.993 248.867,12.994 C248.850,12.994 248.833,12.995 248.816,12.995 C248.696,12.996 248.576,12.997 248.456,12.997 C248.455,12.997 248.454,12.996 248.452,12.996 C248.451,12.996 248.450,12.997 248.448,12.997 C248.328,12.997 248.208,12.996 248.088,12.995 C248.071,12.995 248.054,12.994 248.037,12.994 C247.933,12.993 247.829,12.991 247.725,12.989 C247.702,12.989 247.678,12.988 247.655,12.988 C247.557,12.986 247.460,12.983 247.363,12.980 C247.338,12.980 247.313,12.979 247.288,12.978 C247.192,12.975 247.096,12.972 247.001,12.968 C246.976,12.967 246.951,12.966 246.927,12.965 C246.830,12.961 246.734,12.957 246.638,12.952 C246.615,12.951 246.592,12.950 246.570,12.949 C246.470,12.944 246.371,12.938 246.272,12.932 C246.253,12.931 246.234,12.930 246.216,12.929 C246.110,12.923 246.004,12.916 245.898,12.909 C245.887,12.908 245.876,12.907 245.864,12.906 C243.189,12.719 240.507,12.240 237.732,11.456 L237.733,11.452 C234.303,10.482 231.137,9.176 228.024,7.892 C221.968,5.393 216.247,3.032 208.833,3.032 C201.419,3.032 195.698,5.392 189.642,7.892 C183.559,10.402 177.270,12.997 169.209,12.997 C161.149,12.997 154.860,10.402 148.777,7.892 C142.721,5.392 137.000,3.032 129.586,3.032 C122.172,3.032 116.452,5.393 110.395,7.892 C104.312,10.402 98.023,12.997 89.963,12.997 C81.903,12.997 75.613,10.402 69.531,7.892 C63.474,5.392 57.753,3.032 50.339,3.032 C42.926,3.032 37.205,5.393 31.148,7.892 C25.065,10.402 18.776,12.997 10.716,12.997 C7.174,12.997 3.669,12.493 -0.000,11.456 L0.887,8.541 C4.263,9.495 7.478,9.959 10.716,9.959 C18.130,9.959 23.851,7.598 29.907,5.100 C35.990,2.590 42.279,-0.005 50.339,-0.005 C58.399,-0.005 64.689,2.590 70.771,5.100 C76.828,7.598 82.549,9.959 89.963,9.959 C97.376,9.959 103.097,7.599 109.154,5.100 C115.236,2.590 121.526,-0.005 129.586,-0.005 C137.646,-0.005 143.936,2.590 150.018,5.100 C156.075,7.598 161.796,9.959 169.209,9.959 C176.624,9.959 182.344,7.598 188.401,5.100 C194.483,2.590 200.773,-0.005 208.833,-0.005 C216.893,-0.005 223.182,2.590 229.265,5.100 C232.380,6.385 235.406,7.633 238.619,8.543 L238.619,8.541 C241.564,9.373 244.387,9.832 247.208,9.936 C247.232,9.937 247.256,9.938 247.281,9.939 C247.353,9.941 247.425,9.943 247.497,9.945 C247.548,9.947 247.600,9.948 247.651,9.949 C247.702,9.950 247.752,9.952 247.803,9.953 C247.881,9.954 247.960,9.955 248.039,9.956 C248.067,9.956 248.095,9.957 248.122,9.957 C248.232,9.958 248.342,9.959 248.452,9.959 C248.563,9.959 248.673,9.958 248.782,9.957 C248.810,9.957 248.838,9.956 248.866,9.956 C248.945,9.955 249.023,9.954 249.101,9.953 C249.152,9.952 249.203,9.950 249.255,9.949 C249.305,9.948 249.356,9.947 249.407,9.945 C249.480,9.943 249.552,9.941 249.625,9.938 C249.649,9.938 249.672,9.937 249.695,9.936 C252.517,9.832 255.340,9.373 258.286,8.541 L258.286,8.542 C261.499,7.633 264.525,6.385 267.640,5.100 C273.722,2.590 280.012,-0.005 288.072,-0.005 C296.131,-0.005 302.421,2.590 308.503,5.100 C314.560,7.598 320.281,9.959 327.695,9.959 C335.109,9.959 340.829,7.599 346.886,5.100 C352.969,2.590 359.258,-0.005 367.319,-0.005 C375.379,-0.005 381.668,2.590 387.750,5.100 C393.807,7.598 399.528,9.959 406.942,9.959 C414.356,9.959 420.077,7.598 426.133,5.100 C432.216,2.590 438.505,-0.005 446.565,-0.005 C454.625,-0.005 460.915,2.590 466.997,5.100 C470.299,6.462 473.502,7.783 476.933,8.703 L476.982,8.541 C480.250,9.465 483.367,9.929 486.500,9.957 C489.632,9.929 492.749,9.465 496.018,8.541 L496.067,8.703 C499.498,7.783 502.701,6.462 506.002,5.100 C512.085,2.590 518.375,-0.005 526.435,-0.005 C534.494,-0.005 540.784,2.590 546.866,5.100 C552.923,7.598 558.644,9.959 566.058,9.959 C573.472,9.959 579.192,7.599 585.249,5.100 C591.332,2.590 597.621,-0.005 605.682,-0.005 C613.741,-0.005 620.031,2.590 626.113,5.100 C632.170,7.598 637.891,9.959 645.305,9.959 C652.719,9.959 658.440,7.598 664.496,5.100 C670.579,2.590 676.868,-0.005 684.928,-0.005 C692.988,-0.005 699.278,2.590 705.360,5.100 C708.475,6.385 711.501,7.633 714.714,8.543 L714.714,8.541 C717.660,9.373 720.482,9.832 723.304,9.936 C723.328,9.937 723.352,9.938 723.376,9.939 C723.448,9.941 723.520,9.943 723.592,9.945 C723.643,9.947 723.695,9.948 723.746,9.949 C723.797,9.950 723.848,9.952 723.898,9.953 C723.977,9.954 724.055,9.955 724.134,9.956 C724.162,9.956 724.190,9.957 724.218,9.957 C724.327,9.958 724.437,9.959 724.548,9.959 C724.658,9.959 724.768,9.958 724.877,9.957 C724.905,9.957 724.933,9.956 724.961,9.956 C725.040,9.955 725.118,9.954 725.197,9.953 C725.248,9.952 725.299,9.950 725.350,9.949 C725.401,9.948 725.452,9.947 725.502,9.945 C725.575,9.943 725.648,9.941 725.720,9.938 C725.744,9.938 725.767,9.937 725.791,9.936 C728.612,9.832 731.435,9.373 734.381,8.541 L734.382,8.542 C737.594,7.633 740.620,6.385 743.735,5.100 C749.817,2.590 756.107,-0.005 764.167,-0.005 C772.227,-0.005 778.517,2.590 784.599,5.100 C790.656,7.598 796.377,9.959 803.790,9.959 C811.204,9.959 816.925,7.599 822.982,5.100 C829.064,2.590 835.354,-0.005 843.414,-0.005 C851.474,-0.005 857.763,2.590 863.846,5.100 C869.902,7.598 875.623,9.959 883.037,9.959 C890.451,9.959 896.172,7.598 902.229,5.100 C908.311,2.590 914.600,-0.005 922.661,-0.005 C930.721,-0.005 937.010,2.590 943.093,5.100 C949.072,7.566 954.724,9.898 962.000,9.957 C969.276,9.898 974.928,7.566 980.907,5.100 C986.990,2.590 993.279,-0.005 1001.339,-0.005 C1009.399,-0.005 1015.689,2.590 1021.771,5.100 C1027.828,7.598 1033.549,9.959 1040.963,9.959 C1048.376,9.959 1054.097,7.599 1060.154,5.100 C1066.236,2.590 1072.526,-0.005 1080.586,-0.005 C1088.646,-0.005 1094.936,2.590 1101.018,5.100 C1107.075,7.598 1112.796,9.959 1120.210,9.959 C1127.624,9.959 1133.344,7.598 1139.401,5.100 C1145.483,2.590 1151.773,-0.005 1159.833,-0.005 C1167.893,-0.005 1174.182,2.590 1180.265,5.100 C1183.380,6.385 1186.406,7.633 1189.619,8.543 L1189.619,8.541 C1192.564,9.373 1195.387,9.832 1198.208,9.936 C1198.232,9.937 1198.256,9.938 1198.281,9.939 C1198.353,9.941 1198.425,9.943 1198.497,9.945 C1198.548,9.947 1198.600,9.948 1198.651,9.949 C1198.702,9.950 1198.752,9.952 1198.803,9.953 C1198.881,9.954 1198.960,9.955 1199.039,9.956 C1199.067,9.956 1199.095,9.957 1199.122,9.957 C1199.232,9.958 1199.342,9.959 1199.452,9.959 C1199.563,9.959 1199.673,9.958 1199.782,9.957 C1199.810,9.957 1199.838,9.956 1199.866,9.956 C1199.945,9.955 1200.023,9.954 1200.101,9.953 C1200.152,9.952 1200.203,9.950 1200.255,9.949 C1200.305,9.948 1200.356,9.947 1200.407,9.945 C1200.480,9.943 1200.552,9.941 1200.625,9.938 C1200.649,9.938 1200.672,9.937 1200.695,9.936 C1203.517,9.832 1206.340,9.373 1209.286,8.541 L1209.286,8.542 C1212.499,7.633 1215.525,6.385 1218.640,5.100 C1224.722,2.590 1231.012,-0.005 1239.072,-0.005 C1247.131,-0.005 1253.421,2.590 1259.503,5.100 C1265.560,7.598 1271.281,9.959 1278.695,9.959 C1286.109,9.959 1291.829,7.599 1297.886,5.100 C1303.969,2.590 1310.258,-0.005 1318.319,-0.005 C1326.378,-0.005 1332.668,2.590 1338.750,5.100 C1344.807,7.598 1350.528,9.959 1357.942,9.959 C1365.356,9.959 1371.077,7.598 1377.133,5.100 C1383.216,2.590 1389.505,-0.005 1397.565,-0.005 C1405.625,-0.005 1411.915,2.590 1417.997,5.100 C1421.299,6.462 1424.502,7.783 1427.933,8.703 L1427.982,8.541 C1431.250,9.465 1434.367,9.929 1437.500,9.957 C1440.632,9.929 1443.749,9.465 1447.018,8.541 L1447.067,8.703 C1450.498,7.783 1453.701,6.462 1457.002,5.100 C1463.085,2.590 1469.375,-0.005 1477.435,-0.005 C1485.494,-0.005 1491.784,2.590 1497.866,5.100 C1503.923,7.598 1509.644,9.959 1517.058,9.959 C1524.472,9.959 1530.192,7.599 1536.249,5.100 C1542.332,2.590 1548.621,-0.005 1556.682,-0.005 C1564.741,-0.005 1571.031,2.590 1577.113,5.100 C1583.170,7.598 1588.891,9.959 1596.305,9.959 C1603.719,9.959 1609.440,7.598 1615.496,5.100 C1621.579,2.590 1627.868,-0.005 1635.928,-0.005 C1643.988,-0.005 1650.278,2.590 1656.360,5.100 C1659.475,6.385 1662.501,7.633 1665.714,8.543 L1665.714,8.541 C1668.660,9.373 1671.482,9.832 1674.304,9.936 C1674.328,9.937 1674.352,9.938 1674.376,9.939 C1674.448,9.941 1674.520,9.943 1674.592,9.945 C1674.644,9.947 1674.695,9.948 1674.746,9.949 C1674.797,9.950 1674.848,9.952 1674.898,9.953 C1674.977,9.954 1675.055,9.955 1675.134,9.956 C1675.162,9.956 1675.190,9.957 1675.218,9.957 C1675.327,9.958 1675.437,9.959 1675.548,9.959 C1675.658,9.959 1675.768,9.958 1675.877,9.957 C1675.905,9.957 1675.933,9.956 1675.961,9.956 C1676.040,9.955 1676.118,9.954 1676.197,9.953 C1676.248,9.952 1676.299,9.950 1676.350,9.949 C1676.401,9.948 1676.452,9.947 1676.502,9.945 C1676.575,9.943 1676.648,9.941 1676.720,9.938 C1676.744,9.938 1676.767,9.937 1676.791,9.936 C1679.612,9.832 1682.435,9.373 1685.381,8.541 L1685.382,8.542 C1688.594,7.633 1691.620,6.385 1694.735,5.100 C1700.817,2.590 1707.107,-0.005 1715.167,-0.005 C1723.227,-0.005 1729.517,2.590 1735.599,5.100 C1741.656,7.598 1747.377,9.959 1754.790,9.959 C1762.204,9.959 1767.925,7.599 1773.982,5.100 C1780.064,2.590 1786.354,-0.005 1794.414,-0.005 C1802.474,-0.005 1808.763,2.590 1814.846,5.100 C1820.902,7.598 1826.623,9.959 1834.037,9.959 C1841.451,9.959 1847.172,7.598 1853.229,5.100 C1859.311,2.590 1865.600,-0.005 1873.660,-0.005 C1881.721,-0.005 1888.010,2.590 1894.093,5.100 C1900.149,7.598 1905.870,9.959 1913.284,9.959 C1916.521,9.959 1919.736,9.495 1923.113,8.541 L1924.000,11.456 C1920.331,12.493 1916.826,12.997 1913.284,12.997 Z"/>
</svg>