<svg 
 xmlns="http://www.w3.org/2000/svg"
 xmlns:xlink="http://www.w3.org/1999/xlink"
 width="1924px" height="13px">
<path fill-rule="evenodd"  fill="rgb(199, 199, 199)"
 d="M1913.284,12.997 C1905.224,12.997 1898.934,10.402 1892.852,7.892 C1886.795,5.393 1881.074,3.033 1873.661,3.033 C1866.247,3.033 1860.526,5.393 1854.469,7.892 C1848.387,10.402 1842.098,12.997 1834.037,12.997 C1825.977,12.997 1819.688,10.402 1813.605,7.892 C1807.548,5.393 1801.827,3.033 1794.414,3.033 C1787.000,3.033 1781.279,5.393 1775.222,7.892 C1769.140,10.402 1762.850,12.997 1754.790,12.997 C1746.730,12.997 1740.441,10.402 1734.358,7.892 C1728.301,5.393 1722.580,3.033 1715.167,3.033 C1707.753,3.033 1702.032,5.393 1695.976,7.892 C1692.863,9.176 1689.697,10.483 1686.267,11.453 L1686.268,11.456 C1684.463,11.966 1682.697,12.347 1680.947,12.603 C1680.944,12.603 1680.940,12.604 1680.936,12.604 C1680.833,12.619 1680.730,12.634 1680.628,12.648 C1680.613,12.650 1680.599,12.652 1680.585,12.654 C1680.489,12.667 1680.393,12.680 1680.297,12.692 C1680.277,12.695 1680.258,12.697 1680.238,12.700 C1680.142,12.712 1680.046,12.724 1679.951,12.735 C1679.931,12.737 1679.912,12.740 1679.893,12.742 C1679.784,12.755 1679.674,12.767 1679.565,12.779 C1679.560,12.780 1679.554,12.780 1679.549,12.781 C1679.314,12.806 1679.080,12.829 1678.845,12.850 C1678.838,12.851 1678.831,12.852 1678.824,12.852 C1678.715,12.862 1678.606,12.871 1678.497,12.880 C1678.477,12.881 1678.456,12.883 1678.435,12.884 C1678.339,12.892 1678.243,12.899 1678.147,12.906 C1678.121,12.908 1678.095,12.909 1678.070,12.911 C1677.978,12.917 1677.886,12.923 1677.794,12.929 C1677.766,12.931 1677.738,12.932 1677.710,12.934 C1677.620,12.939 1677.529,12.944 1677.438,12.949 C1677.410,12.950 1677.381,12.952 1677.352,12.953 C1677.261,12.957 1677.171,12.962 1677.080,12.965 C1677.051,12.966 1677.022,12.968 1676.993,12.969 C1676.901,12.972 1676.809,12.976 1676.717,12.978 C1676.690,12.979 1676.662,12.980 1676.634,12.981 C1676.539,12.984 1676.444,12.986 1676.349,12.988 C1676.324,12.989 1676.298,12.989 1676.273,12.990 C1676.170,12.992 1676.067,12.993 1675.964,12.995 C1675.946,12.995 1675.929,12.995 1675.911,12.995 C1675.791,12.996 1675.672,12.997 1675.552,12.997 C1675.550,12.997 1675.549,12.997 1675.548,12.997 C1675.546,12.997 1675.545,12.997 1675.543,12.997 C1675.424,12.997 1675.304,12.996 1675.184,12.995 C1675.166,12.995 1675.149,12.995 1675.131,12.995 C1675.028,12.993 1674.925,12.992 1674.822,12.990 C1674.797,12.989 1674.772,12.989 1674.747,12.988 C1674.651,12.986 1674.556,12.984 1674.461,12.981 C1674.433,12.980 1674.406,12.979 1674.378,12.978 C1674.286,12.976 1674.193,12.972 1674.101,12.969 C1674.073,12.968 1674.044,12.966 1674.016,12.965 C1673.925,12.962 1673.833,12.957 1673.742,12.953 C1673.714,12.952 1673.686,12.950 1673.657,12.949 C1673.566,12.944 1673.475,12.939 1673.384,12.934 C1673.356,12.932 1673.329,12.931 1673.302,12.929 C1673.209,12.923 1673.116,12.917 1673.023,12.911 C1672.998,12.909 1672.974,12.908 1672.949,12.906 C1672.851,12.899 1672.753,12.892 1672.655,12.884 C1672.636,12.883 1672.617,12.881 1672.599,12.880 C1672.486,12.871 1672.374,12.861 1672.261,12.851 C1672.258,12.851 1672.254,12.851 1672.251,12.851 C1671.901,12.819 1671.551,12.783 1671.200,12.742 C1671.186,12.740 1671.171,12.738 1671.157,12.736 C1671.056,12.725 1670.955,12.712 1670.855,12.699 C1670.839,12.697 1670.824,12.695 1670.808,12.693 C1670.708,12.680 1670.607,12.667 1670.507,12.654 C1670.497,12.652 1670.487,12.651 1670.477,12.649 C1668.619,12.394 1666.746,11.998 1664.827,11.456 L1664.828,11.453 C1661.398,10.483 1658.232,9.176 1655.120,7.892 C1649.063,5.393 1643.342,3.033 1635.928,3.033 C1628.514,3.033 1622.794,5.393 1616.737,7.892 C1610.655,10.402 1604.365,12.997 1596.305,12.997 C1588.245,12.997 1581.955,10.402 1575.873,7.892 C1569.816,5.393 1564.095,3.033 1556.682,3.033 C1549.268,3.033 1543.547,5.393 1537.490,7.892 C1531.408,10.402 1525.118,12.997 1517.058,12.997 C1508.998,12.997 1502.708,10.402 1496.626,7.892 C1490.569,5.393 1484.848,3.033 1477.435,3.033 C1470.021,3.033 1464.300,5.393 1458.243,7.892 C1452.161,10.402 1445.871,12.997 1437.811,12.997 C1437.707,12.997 1437.604,12.997 1437.500,12.996 C1437.396,12.997 1437.293,12.997 1437.189,12.997 C1429.129,12.997 1422.839,10.402 1416.757,7.892 C1410.700,5.393 1404.979,3.033 1397.565,3.033 C1390.152,3.033 1384.431,5.393 1378.374,7.892 C1372.292,10.402 1366.002,12.997 1357.942,12.997 C1349.882,12.997 1343.592,10.402 1337.510,7.892 C1331.453,5.393 1325.732,3.033 1318.319,3.033 C1310.905,3.033 1305.184,5.393 1299.127,7.892 C1293.045,10.402 1286.755,12.997 1278.695,12.997 C1270.635,12.997 1264.345,10.402 1258.263,7.892 C1252.206,5.393 1246.485,3.033 1239.072,3.033 C1231.658,3.033 1225.937,5.393 1219.880,7.892 C1216.768,9.176 1213.601,10.483 1210.171,11.453 L1210.172,11.456 C1208.367,11.966 1206.602,12.347 1204.852,12.603 C1204.848,12.603 1204.844,12.604 1204.841,12.604 C1204.738,12.619 1204.635,12.634 1204.532,12.648 C1204.518,12.650 1204.504,12.652 1204.490,12.654 C1204.394,12.667 1204.298,12.680 1204.202,12.692 C1204.182,12.695 1204.162,12.697 1204.143,12.700 C1204.047,12.712 1203.951,12.724 1203.855,12.735 C1203.836,12.737 1203.817,12.740 1203.797,12.742 C1203.688,12.755 1203.579,12.767 1203.470,12.779 C1203.464,12.780 1203.459,12.780 1203.454,12.781 C1203.219,12.806 1202.985,12.829 1202.750,12.850 C1202.743,12.851 1202.736,12.852 1202.729,12.852 C1202.620,12.862 1202.511,12.871 1202.402,12.880 C1202.381,12.881 1202.361,12.883 1202.340,12.884 C1202.244,12.892 1202.148,12.899 1202.052,12.906 C1202.026,12.908 1202.000,12.909 1201.974,12.911 C1201.882,12.917 1201.791,12.923 1201.699,12.929 C1201.671,12.931 1201.643,12.932 1201.615,12.934 C1201.524,12.939 1201.434,12.944 1201.343,12.949 C1201.314,12.950 1201.285,12.952 1201.257,12.953 C1201.166,12.957 1201.075,12.962 1200.985,12.965 C1200.956,12.966 1200.927,12.968 1200.898,12.969 C1200.806,12.972 1200.714,12.976 1200.622,12.978 C1200.594,12.979 1200.567,12.980 1200.539,12.981 C1200.444,12.984 1200.349,12.986 1200.253,12.988 C1200.228,12.989 1200.203,12.989 1200.178,12.990 C1200.075,12.992 1199.972,12.993 1199.869,12.995 C1199.851,12.995 1199.834,12.995 1199.816,12.995 C1199.696,12.996 1199.576,12.997 1199.456,12.997 C1199.455,12.997 1199.454,12.997 1199.452,12.997 C1199.451,12.997 1199.450,12.997 1199.448,12.997 C1199.328,12.997 1199.209,12.996 1199.089,12.995 C1199.071,12.995 1199.054,12.995 1199.036,12.995 C1198.933,12.993 1198.830,12.992 1198.726,12.990 C1198.701,12.989 1198.677,12.989 1198.652,12.988 C1198.556,12.986 1198.461,12.984 1198.365,12.981 C1198.338,12.980 1198.310,12.979 1198.283,12.978 C1198.191,12.976 1198.098,12.972 1198.006,12.969 C1197.977,12.968 1197.949,12.966 1197.921,12.965 C1197.829,12.962 1197.738,12.957 1197.647,12.953 C1197.619,12.952 1197.590,12.950 1197.562,12.949 C1197.471,12.944 1197.380,12.939 1197.288,12.934 C1197.261,12.932 1197.234,12.931 1197.207,12.929 C1197.114,12.923 1197.021,12.917 1196.928,12.911 C1196.903,12.909 1196.878,12.908 1196.854,12.906 C1196.756,12.899 1196.658,12.892 1196.560,12.884 C1196.541,12.883 1196.522,12.881 1196.503,12.880 C1196.391,12.871 1196.279,12.861 1196.166,12.851 C1196.163,12.851 1196.159,12.851 1196.156,12.851 C1195.806,12.819 1195.456,12.783 1195.105,12.742 C1195.091,12.740 1195.076,12.738 1195.062,12.736 C1194.961,12.725 1194.860,12.712 1194.760,12.699 C1194.744,12.697 1194.728,12.695 1194.713,12.693 C1194.612,12.680 1194.512,12.667 1194.412,12.654 C1194.402,12.652 1194.392,12.651 1194.381,12.649 C1192.524,12.394 1190.650,11.998 1188.732,11.456 L1188.733,11.453 C1185.303,10.483 1182.137,9.176 1179.024,7.892 C1172.968,5.393 1167.247,3.033 1159.833,3.033 C1152.419,3.033 1146.698,5.393 1140.642,7.892 C1134.559,10.402 1128.270,12.997 1120.210,12.997 C1112.149,12.997 1105.860,10.402 1099.777,7.892 C1093.721,5.393 1088.000,3.033 1080.586,3.033 C1073.172,3.033 1067.452,5.393 1061.395,7.892 C1055.312,10.402 1049.023,12.997 1040.963,12.997 C1032.903,12.997 1026.613,10.402 1020.531,7.892 C1014.474,5.393 1008.753,3.033 1001.339,3.033 C993.926,3.033 988.205,5.393 982.148,7.892 C979.192,9.112 976.187,10.352 972.954,11.304 L973.000,11.456 C969.331,12.493 965.826,12.997 962.284,12.997 C962.189,12.997 962.094,12.996 962.000,12.996 C961.905,12.996 961.811,12.997 961.716,12.997 C958.174,12.997 954.669,12.493 951.000,11.456 L951.046,11.304 C947.813,10.352 944.808,9.112 941.852,7.892 C935.795,5.393 930.074,3.033 922.661,3.033 C915.247,3.033 909.526,5.393 903.469,7.892 C897.387,10.402 891.098,12.997 883.037,12.997 C874.977,12.997 868.688,10.402 862.605,7.892 C856.548,5.393 850.827,3.033 843.414,3.033 C836.000,3.033 830.279,5.393 824.222,7.892 C818.140,10.402 811.850,12.997 803.790,12.997 C795.730,12.997 789.440,10.402 783.358,7.892 C777.301,5.393 771.580,3.033 764.167,3.033 C756.753,3.033 751.032,5.393 744.976,7.892 C741.863,9.176 738.697,10.483 735.267,11.453 L735.268,11.456 C733.462,11.966 731.695,12.347 729.945,12.603 C729.942,12.603 729.939,12.604 729.937,12.604 C729.833,12.619 729.729,12.634 729.625,12.648 C729.612,12.650 729.599,12.652 729.586,12.654 C729.489,12.667 729.391,12.680 729.294,12.692 C729.275,12.695 729.257,12.697 729.239,12.700 C729.141,12.712 729.044,12.724 728.946,12.736 C728.929,12.738 728.911,12.740 728.893,12.742 C728.782,12.755 728.670,12.768 728.558,12.780 C728.555,12.780 728.552,12.781 728.550,12.781 C728.315,12.806 728.080,12.829 727.845,12.850 C727.839,12.851 727.834,12.851 727.828,12.852 C727.718,12.862 727.607,12.871 727.497,12.880 C727.477,12.881 727.457,12.883 727.438,12.884 C727.341,12.892 727.243,12.899 727.146,12.906 C727.121,12.908 727.096,12.909 727.071,12.911 C726.978,12.917 726.886,12.923 726.794,12.929 C726.766,12.931 726.738,12.932 726.711,12.934 C726.620,12.939 726.529,12.944 726.438,12.949 C726.410,12.950 726.381,12.952 726.352,12.953 C726.261,12.957 726.170,12.962 726.080,12.965 C726.051,12.966 726.022,12.968 725.994,12.969 C725.902,12.972 725.809,12.976 725.717,12.978 C725.690,12.979 725.662,12.980 725.634,12.981 C725.539,12.984 725.444,12.986 725.348,12.988 C725.323,12.989 725.298,12.989 725.273,12.990 C725.170,12.992 725.067,12.993 724.964,12.995 C724.946,12.995 724.929,12.995 724.911,12.995 C724.791,12.996 724.672,12.997 724.552,12.997 C724.550,12.997 724.549,12.997 724.548,12.997 C724.546,12.997 724.545,12.997 724.543,12.997 C724.424,12.997 724.304,12.996 724.184,12.995 C724.166,12.995 724.149,12.995 724.131,12.995 C724.028,12.993 723.925,12.992 723.822,12.990 C723.797,12.989 723.772,12.989 723.747,12.988 C723.651,12.986 723.556,12.984 723.461,12.981 C723.433,12.980 723.406,12.979 723.378,12.978 C723.286,12.976 723.193,12.972 723.101,12.969 C723.073,12.968 723.044,12.966 723.016,12.965 C722.925,12.962 722.833,12.957 722.742,12.953 C722.714,12.952 722.686,12.950 722.657,12.949 C722.566,12.944 722.475,12.939 722.383,12.934 C722.356,12.932 722.329,12.931 722.302,12.929 C722.209,12.923 722.116,12.917 722.023,12.911 C721.998,12.909 721.974,12.908 721.949,12.906 C721.851,12.899 721.753,12.892 721.655,12.884 C721.636,12.883 721.617,12.881 721.599,12.880 C721.486,12.871 721.374,12.861 721.261,12.851 C721.258,12.851 721.254,12.851 721.251,12.851 C720.901,12.819 720.551,12.783 720.200,12.742 C720.186,12.740 720.172,12.738 720.158,12.737 C720.057,12.725 719.956,12.712 719.855,12.699 C719.839,12.697 719.824,12.695 719.809,12.693 C719.708,12.681 719.608,12.667 719.507,12.654 C719.497,12.652 719.487,12.651 719.478,12.649 C717.620,12.395 715.746,11.998 713.827,11.456 L713.828,11.453 C710.398,10.483 707.232,9.176 704.120,7.892 C698.063,5.393 692.342,3.033 684.928,3.033 C677.514,3.033 671.794,5.393 665.737,7.892 C659.655,10.402 653.365,12.997 645.305,12.997 C637.244,12.997 630.955,10.402 624.873,7.892 C618.816,5.393 613.095,3.033 605.682,3.033 C598.268,3.033 592.547,5.393 586.490,7.892 C580.408,10.402 574.118,12.997 566.058,12.997 C557.998,12.997 551.708,10.402 545.626,7.892 C539.569,5.393 533.848,3.033 526.435,3.033 C519.021,3.033 513.300,5.393 507.243,7.892 C501.161,10.402 494.871,12.997 486.811,12.997 C486.707,12.997 486.604,12.997 486.500,12.996 C486.396,12.997 486.293,12.997 486.189,12.997 C478.129,12.997 471.839,10.402 465.757,7.892 C459.700,5.393 453.979,3.033 446.565,3.033 C439.151,3.033 433.431,5.393 427.374,7.892 C421.292,10.402 415.002,12.997 406.942,12.997 C398.882,12.997 392.592,10.402 386.510,7.892 C380.453,5.393 374.732,3.033 367.319,3.033 C359.905,3.033 354.184,5.393 348.127,7.892 C342.045,10.402 335.755,12.997 327.695,12.997 C319.635,12.997 313.345,10.402 307.263,7.892 C301.206,5.393 295.485,3.033 288.072,3.033 C280.658,3.033 274.937,5.393 268.880,7.892 C265.768,9.176 262.601,10.483 259.171,11.453 L259.172,11.456 C257.366,11.966 255.600,12.347 253.849,12.603 C253.847,12.603 253.844,12.604 253.842,12.604 C253.737,12.619 253.633,12.634 253.529,12.648 C253.516,12.650 253.504,12.652 253.491,12.654 C253.393,12.667 253.296,12.680 253.198,12.692 C253.180,12.695 253.162,12.697 253.143,12.700 C253.046,12.712 252.948,12.724 252.851,12.736 C252.833,12.738 252.816,12.740 252.798,12.742 C252.686,12.755 252.574,12.768 252.462,12.780 C252.460,12.780 252.457,12.781 252.454,12.781 C252.219,12.806 251.984,12.829 251.750,12.850 C251.744,12.851 251.739,12.851 251.733,12.852 C251.623,12.862 251.512,12.871 251.402,12.880 C251.382,12.881 251.362,12.883 251.342,12.884 C251.245,12.892 251.148,12.899 251.051,12.906 C251.026,12.908 251.001,12.909 250.976,12.911 C250.883,12.917 250.791,12.923 250.698,12.929 C250.671,12.931 250.643,12.932 250.616,12.934 C250.525,12.939 250.434,12.944 250.343,12.949 C250.314,12.950 250.286,12.952 250.257,12.953 C250.166,12.957 250.075,12.962 249.984,12.965 C249.956,12.966 249.927,12.968 249.898,12.969 C249.806,12.972 249.714,12.976 249.622,12.978 C249.594,12.979 249.567,12.980 249.539,12.981 C249.444,12.984 249.348,12.986 249.253,12.988 C249.228,12.989 249.203,12.989 249.178,12.990 C249.075,12.992 248.972,12.993 248.869,12.995 C248.851,12.995 248.834,12.995 248.816,12.995 C248.696,12.996 248.576,12.997 248.456,12.997 C248.455,12.997 248.454,12.997 248.452,12.997 C248.451,12.997 248.450,12.997 248.448,12.997 C248.328,12.997 248.209,12.996 248.089,12.995 C248.071,12.995 248.053,12.995 248.036,12.995 C247.933,12.993 247.830,12.992 247.726,12.990 C247.701,12.989 247.676,12.989 247.652,12.988 C247.556,12.986 247.461,12.984 247.365,12.981 C247.338,12.980 247.310,12.979 247.283,12.978 C247.191,12.976 247.098,12.972 247.006,12.969 C246.977,12.968 246.949,12.966 246.921,12.965 C246.829,12.962 246.738,12.957 246.647,12.953 C246.619,12.952 246.590,12.950 246.562,12.949 C246.471,12.944 246.379,12.939 246.288,12.934 C246.261,12.932 246.234,12.931 246.207,12.929 C246.114,12.923 246.021,12.917 245.927,12.911 C245.903,12.909 245.878,12.908 245.854,12.906 C245.756,12.899 245.658,12.892 245.559,12.884 C245.541,12.883 245.522,12.881 245.504,12.880 C245.391,12.871 245.278,12.861 245.166,12.851 C245.162,12.851 245.159,12.851 245.156,12.851 C244.806,12.819 244.456,12.783 244.105,12.742 C244.091,12.740 244.077,12.738 244.062,12.737 C243.961,12.725 243.860,12.712 243.759,12.699 C243.744,12.697 243.729,12.695 243.714,12.693 C243.613,12.681 243.512,12.667 243.411,12.654 C243.402,12.652 243.392,12.651 243.382,12.649 C241.525,12.395 239.651,11.998 237.732,11.456 L237.733,11.453 C234.303,10.483 231.137,9.176 228.024,7.892 C221.968,5.393 216.247,3.033 208.833,3.033 C201.419,3.033 195.698,5.393 189.642,7.892 C183.559,10.402 177.270,12.997 169.210,12.997 C161.149,12.997 154.860,10.402 148.777,7.892 C142.721,5.393 137.000,3.033 129.586,3.033 C122.172,3.033 116.452,5.393 110.395,7.892 C104.312,10.402 98.023,12.997 89.963,12.997 C81.903,12.997 75.613,10.402 69.531,7.892 C63.474,5.393 57.753,3.033 50.339,3.033 C42.926,3.033 37.205,5.393 31.148,7.892 C25.065,10.402 18.776,12.997 10.716,12.997 C7.174,12.997 3.669,12.493 -0.000,11.456 L0.887,8.542 C4.263,9.495 7.478,9.959 10.716,9.959 C18.130,9.959 23.851,7.599 29.907,5.100 C35.990,2.590 42.279,-0.005 50.339,-0.005 C58.399,-0.005 64.689,2.590 70.771,5.100 C76.828,7.599 82.549,9.959 89.963,9.959 C97.376,9.959 103.097,7.599 109.154,5.100 C115.236,2.590 121.526,-0.005 129.586,-0.005 C137.646,-0.005 143.936,2.590 150.018,5.100 C156.075,7.599 161.796,9.959 169.210,9.959 C176.624,9.959 182.344,7.599 188.401,5.100 C194.483,2.590 200.773,-0.005 208.833,-0.005 C216.893,-0.005 223.182,2.590 229.265,5.100 C232.380,6.385 235.406,7.633 238.619,8.543 L238.619,8.542 C241.565,9.374 244.389,9.833 247.211,9.937 C247.233,9.937 247.254,9.938 247.276,9.939 C247.350,9.941 247.424,9.944 247.499,9.946 C247.548,9.947 247.598,9.948 247.647,9.949 C247.700,9.951 247.752,9.952 247.804,9.953 C247.881,9.954 247.959,9.956 248.037,9.956 C248.066,9.957 248.094,9.957 248.123,9.958 C248.232,9.959 248.342,9.959 248.452,9.959 C248.563,9.959 248.672,9.959 248.782,9.958 C248.811,9.957 248.839,9.957 248.868,9.956 C248.946,9.956 249.023,9.954 249.101,9.953 C249.153,9.952 249.206,9.951 249.258,9.949 C249.307,9.948 249.356,9.947 249.405,9.946 C249.480,9.944 249.555,9.941 249.630,9.939 C249.651,9.938 249.672,9.937 249.692,9.937 C252.515,9.833 255.339,9.374 258.286,8.542 L258.286,8.543 C261.499,7.633 264.525,6.385 267.640,5.100 C273.722,2.590 280.012,-0.005 288.072,-0.005 C296.131,-0.005 302.421,2.590 308.503,5.100 C314.560,7.599 320.281,9.959 327.695,9.959 C335.109,9.959 340.829,7.599 346.886,5.100 C352.969,2.590 359.258,-0.005 367.319,-0.005 C375.379,-0.005 381.668,2.590 387.750,5.100 C393.807,7.599 399.528,9.959 406.942,9.959 C414.356,9.959 420.077,7.599 426.133,5.100 C432.216,2.590 438.505,-0.005 446.565,-0.005 C454.626,-0.005 460.915,2.590 466.997,5.100 C470.299,6.462 473.502,7.783 476.933,8.703 L476.982,8.542 C480.250,9.465 483.367,9.929 486.500,9.958 C489.632,9.929 492.749,9.465 496.018,8.542 L496.067,8.703 C499.498,7.783 502.701,6.462 506.002,5.100 C512.085,2.590 518.375,-0.005 526.435,-0.005 C534.495,-0.005 540.784,2.590 546.866,5.100 C552.923,7.599 558.644,9.959 566.058,9.959 C573.472,9.959 579.192,7.599 585.249,5.100 C591.332,2.590 597.621,-0.005 605.682,-0.005 C613.742,-0.005 620.031,2.590 626.113,5.100 C632.170,7.599 637.891,9.959 645.305,9.959 C652.719,9.959 658.440,7.599 664.496,5.100 C670.579,2.590 676.868,-0.005 684.928,-0.005 C692.988,-0.005 699.278,2.590 705.360,5.100 C708.475,6.385 711.501,7.633 714.714,8.543 L714.714,8.542 C717.661,9.374 720.484,9.833 723.307,9.937 C723.328,9.937 723.349,9.938 723.371,9.939 C723.445,9.941 723.520,9.944 723.594,9.946 C723.644,9.947 723.693,9.948 723.743,9.949 C723.795,9.951 723.847,9.952 723.899,9.953 C723.977,9.954 724.055,9.956 724.133,9.956 C724.161,9.957 724.189,9.957 724.218,9.958 C724.327,9.959 724.437,9.959 724.548,9.959 C724.658,9.959 724.768,9.959 724.877,9.958 C724.906,9.957 724.934,9.957 724.963,9.956 C725.041,9.956 725.118,9.954 725.196,9.953 C725.248,9.952 725.301,9.951 725.353,9.949 C725.402,9.948 725.452,9.947 725.501,9.946 C725.576,9.944 725.651,9.941 725.726,9.939 C725.746,9.938 725.767,9.937 725.787,9.937 C728.610,9.833 731.434,9.374 734.381,8.542 L734.382,8.543 C737.594,7.633 740.620,6.385 743.735,5.100 C749.817,2.590 756.107,-0.005 764.167,-0.005 C772.227,-0.005 778.517,2.590 784.599,5.100 C790.656,7.599 796.377,9.959 803.790,9.959 C811.204,9.959 816.925,7.599 822.982,5.100 C829.064,2.590 835.354,-0.005 843.414,-0.005 C851.474,-0.005 857.763,2.590 863.846,5.100 C869.902,7.599 875.623,9.959 883.037,9.959 C890.451,9.959 896.172,7.599 902.229,5.100 C908.311,2.590 914.600,-0.005 922.661,-0.005 C930.721,-0.005 937.010,2.590 943.093,5.100 C949.072,7.567 954.724,9.898 962.000,9.958 C969.276,9.898 974.928,7.567 980.907,5.100 C986.990,2.590 993.279,-0.005 1001.339,-0.005 C1009.399,-0.005 1015.689,2.590 1021.771,5.100 C1027.828,7.599 1033.549,9.959 1040.963,9.959 C1048.376,9.959 1054.097,7.599 1060.154,5.100 C1066.236,2.590 1072.526,-0.005 1080.586,-0.005 C1088.646,-0.005 1094.936,2.590 1101.018,5.100 C1107.075,7.599 1112.796,9.959 1120.210,9.959 C1127.624,9.959 1133.344,7.599 1139.401,5.100 C1145.483,2.590 1151.773,-0.005 1159.833,-0.005 C1167.893,-0.005 1174.183,2.590 1180.265,5.100 C1183.380,6.385 1186.406,7.633 1189.619,8.543 L1189.619,8.542 C1192.565,9.374 1195.389,9.833 1198.212,9.937 C1198.233,9.937 1198.254,9.938 1198.276,9.939 C1198.350,9.941 1198.424,9.944 1198.499,9.946 C1198.548,9.947 1198.598,9.948 1198.647,9.949 C1198.700,9.951 1198.752,9.952 1198.804,9.953 C1198.881,9.954 1198.959,9.956 1199.037,9.956 C1199.066,9.957 1199.094,9.957 1199.123,9.958 C1199.232,9.959 1199.342,9.959 1199.452,9.959 C1199.563,9.959 1199.672,9.959 1199.782,9.958 C1199.811,9.957 1199.839,9.957 1199.868,9.956 C1199.946,9.956 1200.023,9.954 1200.101,9.953 C1200.153,9.952 1200.206,9.951 1200.258,9.949 C1200.307,9.948 1200.356,9.947 1200.405,9.946 C1200.480,9.944 1200.555,9.941 1200.630,9.939 C1200.651,9.938 1200.672,9.937 1200.692,9.937 C1203.515,9.833 1206.339,9.374 1209.286,8.542 L1209.286,8.543 C1212.499,7.633 1215.525,6.385 1218.640,5.100 C1224.722,2.590 1231.012,-0.005 1239.072,-0.005 C1247.131,-0.005 1253.421,2.590 1259.503,5.100 C1265.560,7.599 1271.281,9.959 1278.695,9.959 C1286.109,9.959 1291.829,7.599 1297.886,5.100 C1303.969,2.590 1310.258,-0.005 1318.319,-0.005 C1326.379,-0.005 1332.668,2.590 1338.750,5.100 C1344.807,7.599 1350.528,9.959 1357.942,9.959 C1365.356,9.959 1371.077,7.599 1377.134,5.100 C1383.216,2.590 1389.505,-0.005 1397.565,-0.005 C1405.626,-0.005 1411.915,2.590 1417.997,5.100 C1421.299,6.462 1424.502,7.783 1427.933,8.703 L1427.982,8.542 C1431.250,9.465 1434.367,9.929 1437.500,9.958 C1440.632,9.929 1443.749,9.465 1447.018,8.542 L1447.067,8.703 C1450.498,7.783 1453.701,6.462 1457.003,5.100 C1463.085,2.590 1469.375,-0.005 1477.435,-0.005 C1485.494,-0.005 1491.784,2.590 1497.866,5.100 C1503.923,7.599 1509.644,9.959 1517.058,9.959 C1524.472,9.959 1530.192,7.599 1536.249,5.100 C1542.332,2.590 1548.621,-0.005 1556.682,-0.005 C1564.741,-0.005 1571.031,2.590 1577.113,5.100 C1583.170,7.599 1588.891,9.959 1596.305,9.959 C1603.719,9.959 1609.440,7.599 1615.496,5.100 C1621.579,2.590 1627.868,-0.005 1635.928,-0.005 C1643.988,-0.005 1650.278,2.590 1656.360,5.100 C1659.475,6.385 1662.501,7.633 1665.714,8.543 L1665.714,8.542 C1668.661,9.374 1671.484,9.833 1674.307,9.937 C1674.328,9.937 1674.349,9.938 1674.371,9.939 C1674.445,9.941 1674.520,9.944 1674.594,9.946 C1674.644,9.947 1674.693,9.948 1674.743,9.949 C1674.795,9.951 1674.847,9.952 1674.899,9.953 C1674.977,9.954 1675.055,9.956 1675.133,9.956 C1675.161,9.957 1675.189,9.957 1675.218,9.958 C1675.327,9.959 1675.437,9.959 1675.548,9.959 C1675.658,9.959 1675.768,9.959 1675.877,9.958 C1675.906,9.957 1675.934,9.957 1675.963,9.956 C1676.041,9.956 1676.119,9.954 1676.196,9.953 C1676.248,9.952 1676.301,9.951 1676.353,9.949 C1676.402,9.948 1676.452,9.947 1676.501,9.946 C1676.576,9.944 1676.651,9.941 1676.726,9.939 C1676.746,9.938 1676.767,9.937 1676.787,9.937 C1679.610,9.833 1682.434,9.374 1685.381,8.542 L1685.382,8.543 C1688.594,7.633 1691.620,6.385 1694.735,5.100 C1700.817,2.590 1707.107,-0.005 1715.167,-0.005 C1723.227,-0.005 1729.517,2.590 1735.599,5.100 C1741.656,7.599 1747.377,9.959 1754.790,9.959 C1762.204,9.959 1767.925,7.599 1773.982,5.100 C1780.064,2.590 1786.354,-0.005 1794.414,-0.005 C1802.474,-0.005 1808.763,2.590 1814.846,5.100 C1820.902,7.599 1826.623,9.959 1834.037,9.959 C1841.451,9.959 1847.172,7.599 1853.229,5.100 C1859.311,2.590 1865.600,-0.005 1873.661,-0.005 C1881.721,-0.005 1888.010,2.590 1894.093,5.100 C1900.149,7.599 1905.870,9.959 1913.284,9.959 C1916.521,9.959 1919.736,9.495 1923.114,8.542 L1924.000,11.456 C1920.331,12.493 1916.826,12.997 1913.284,12.997 Z"/>
</svg>