<svg 
 xmlns="http://www.w3.org/2000/svg"
 xmlns:xlink="http://www.w3.org/1999/xlink"
 width="36px" height="36px">
<path fill-rule="evenodd"  fill="rgb(255, 255, 255)"
 d="M34.270,10.345 C30.043,1.348 19.342,-2.513 10.345,1.714 C1.348,5.942 -2.513,16.644 1.715,25.642 C5.929,34.614 16.615,38.514 25.640,34.274 C34.637,30.046 38.497,19.344 34.270,10.345 ZM32.662,11.920 C29.960,23.733 14.935,30.833 4.080,25.469 C4.040,25.450 3.999,25.434 3.958,25.419 C2.970,23.547 2.366,21.525 2.174,19.448 C12.849,23.455 25.522,17.459 29.204,6.739 C30.677,8.209 31.849,9.961 32.662,11.920 ZM27.467,5.243 C24.481,15.614 12.062,21.494 2.130,17.157 C2.238,15.157 2.729,13.166 3.602,11.284 C10.939,12.491 18.271,9.034 22.016,2.632 C23.930,3.137 25.793,4.003 27.467,5.243 ZM19.798,2.213 C16.562,7.191 10.705,10.008 4.694,9.310 C7.954,4.296 13.850,1.521 19.798,2.213 ZM24.744,32.366 C18.097,35.489 10.552,33.576 6.091,28.514 C16.784,31.722 29.356,25.775 33.688,15.557 C34.733,22.227 31.382,29.247 24.744,32.366 Z"/>
</svg>