<svg 
 xmlns="http://www.w3.org/2000/svg"
 xmlns:xlink="http://www.w3.org/1999/xlink"
 width="33px" height="36px">
<path fill-rule="evenodd"  fill="rgb(255, 255, 255)"
 d="M32.400,7.797 L30.000,7.797 C29.669,7.797 29.400,8.066 29.400,8.397 L29.400,8.997 C29.400,8.666 29.131,8.397 28.800,8.397 L27.000,8.397 C26.683,8.397 26.421,8.642 26.400,8.958 L26.358,9.597 L25.200,9.597 L25.200,8.397 C25.200,8.066 24.931,7.797 24.600,7.797 L22.200,7.797 C21.868,7.797 21.600,8.066 21.600,8.397 L21.600,11.998 C21.600,12.329 21.868,12.598 22.200,12.598 L24.600,12.598 C24.931,12.598 25.200,12.329 25.200,11.998 L25.200,10.798 L26.280,10.798 L25.952,15.707 C25.898,16.327 25.378,16.801 24.756,16.798 L21.000,16.798 L21.000,16.541 C20.999,16.310 20.865,16.100 20.657,16.001 C19.844,15.621 18.983,15.357 18.097,15.215 C18.001,15.201 17.903,15.211 17.811,15.243 C17.481,15.143 17.143,15.071 16.800,15.030 L16.800,13.393 C16.978,13.302 17.150,13.200 17.316,13.089 C19.332,11.678 21.000,10.261 21.000,7.212 L21.000,6.597 C20.997,4.773 20.242,3.030 18.912,1.780 C16.574,-0.394 13.020,-0.602 10.443,1.284 C7.837,0.815 5.344,2.548 4.876,5.154 C4.826,5.433 4.800,5.715 4.800,5.997 L4.800,14.998 C4.800,15.329 5.069,15.598 5.400,15.598 C7.694,15.602 9.901,14.719 11.559,13.134 C11.702,13.227 11.849,13.314 12.000,13.393 L12.000,15.030 C11.657,15.070 11.318,15.141 10.988,15.241 C10.896,15.208 10.799,15.198 10.703,15.212 C9.817,15.354 8.956,15.619 8.143,15.998 C7.934,16.097 7.801,16.307 7.800,16.538 L7.800,16.558 C5.531,19.107 4.253,22.387 4.200,25.799 C4.200,27.445 4.278,29.339 4.766,30.599 L3.600,30.599 L3.600,29.399 C3.600,29.068 3.331,28.799 3.000,28.799 L0.600,28.799 C0.269,28.799 -0.000,29.068 -0.000,29.399 L-0.000,33.000 C-0.000,33.331 0.269,33.600 0.600,33.600 L3.000,33.600 C3.331,33.600 3.600,33.331 3.600,33.000 L3.600,31.800 L7.030,31.800 C6.357,33.098 6.004,34.538 6.000,36.000 L7.200,36.000 C7.203,34.968 7.407,33.946 7.800,32.991 L7.800,33.000 C7.800,33.331 8.068,33.600 8.400,33.600 L10.800,33.600 C11.131,33.600 11.400,33.331 11.400,33.000 L11.400,30.599 L18.912,30.599 L19.257,31.031 C20.383,32.443 20.998,34.194 21.000,36.000 L22.200,36.000 C22.197,33.922 21.490,31.906 20.194,30.282 L19.735,29.708 L19.505,29.017 C18.946,27.339 19.000,25.518 19.655,23.875 L19.689,23.791 C20.433,23.558 20.956,22.888 21.000,22.109 L21.000,22.084 L27.503,20.691 C28.607,20.449 29.395,19.473 29.400,18.343 L29.400,11.998 C29.400,12.329 29.669,12.598 30.000,12.598 L32.400,12.598 C32.731,12.598 33.000,12.329 33.000,11.998 L33.000,8.397 C33.000,8.066 32.731,7.797 32.400,7.797 ZM24.000,11.398 L22.800,11.398 L22.800,8.997 L24.000,8.997 L24.000,11.398 ZM2.400,32.400 L1.200,32.400 L1.200,29.999 L2.400,29.999 L2.400,32.400 ZM7.049,30.346 L7.091,30.601 L6.095,30.601 C5.753,30.124 5.400,28.884 5.400,25.799 C5.450,23.156 6.285,20.588 7.800,18.421 L7.800,22.065 C7.008,23.858 6.746,28.523 7.049,30.346 ZM14.040,1.208 C16.885,1.016 19.388,3.073 19.752,5.902 L16.468,4.260 C16.353,4.202 16.222,4.183 16.095,4.206 L9.125,5.436 C9.618,3.077 11.634,1.343 14.040,1.208 ZM6.000,14.375 L6.000,5.997 C6.002,4.139 7.417,2.587 9.267,2.414 C8.311,3.597 7.792,5.075 7.800,6.597 L7.800,7.212 C7.800,9.786 8.991,11.196 10.574,12.423 C9.308,13.562 7.699,14.249 6.000,14.375 ZM9.000,7.212 L9.000,6.677 L16.109,5.422 L19.797,7.266 C19.779,9.501 18.759,10.613 16.628,12.106 C15.289,13.038 13.511,13.038 12.171,12.106 C10.023,10.601 9.000,9.485 9.000,7.212 ZM11.400,16.361 C11.791,16.254 12.194,16.199 12.600,16.198 C12.931,16.198 13.200,15.929 13.200,15.598 L13.200,13.848 C13.986,14.057 14.814,14.057 15.600,13.848 L15.600,15.598 C15.600,15.929 15.869,16.198 16.200,16.198 C16.605,16.199 17.009,16.254 17.400,16.361 L17.400,17.321 L14.400,17.966 L11.400,17.321 L11.400,16.361 ZM8.135,28.867 C8.098,27.073 8.254,25.280 8.598,23.519 C8.754,23.627 8.922,23.717 9.099,23.786 C9.704,25.398 9.730,27.170 9.173,28.799 L8.400,28.799 C8.308,28.801 8.217,28.824 8.135,28.867 ZM10.200,32.400 L9.000,32.400 L9.000,29.999 L10.200,29.999 L10.200,32.400 ZM11.400,29.399 C11.400,29.068 11.131,28.799 10.800,28.799 L10.440,28.799 C10.894,27.231 10.894,25.567 10.440,23.999 L18.336,23.999 C17.772,25.757 17.783,27.648 18.366,29.399 L11.400,29.399 ZM19.800,22.109 C19.800,22.434 19.287,22.799 18.600,22.799 L10.200,22.799 C9.513,22.799 9.000,22.434 9.000,22.109 L9.000,16.931 C9.389,16.771 9.790,16.640 10.200,16.540 L10.200,17.807 C10.200,18.090 10.397,18.335 10.674,18.394 L14.274,19.169 C14.357,19.187 14.443,19.187 14.526,19.169 L18.126,18.394 C18.402,18.335 18.600,18.090 18.600,17.807 L18.600,16.539 C19.009,16.639 19.410,16.770 19.800,16.931 L19.800,22.109 L19.800,22.109 ZM27.251,19.517 L21.000,20.856 L21.000,17.998 L24.756,17.998 C26.004,18.002 27.046,17.045 27.147,15.801 L27.561,9.597 L28.200,9.597 L28.200,18.343 L28.200,18.343 C28.198,18.908 27.803,19.396 27.251,19.517 ZM31.800,11.398 L30.600,11.398 L30.600,8.997 L31.800,8.997 L31.800,11.398 Z"/>
</svg>