<svg 
 xmlns="http://www.w3.org/2000/svg"
 xmlns:xlink="http://www.w3.org/1999/xlink"
 width="486px" height="290px">
<path fill-rule="evenodd"  fill="rgb(83, 147, 221)"
 d="M478.905,200.638 C466.915,200.638 461.305,205.823 454.202,212.388 C446.337,219.658 437.423,227.897 419.919,227.897 C402.419,227.897 393.505,219.658 385.640,212.388 C378.539,205.823 372.929,200.638 360.942,200.638 C348.955,200.638 343.345,205.823 336.243,212.387 C328.379,219.658 319.465,227.897 301.964,227.897 C284.463,227.897 275.550,219.658 267.685,212.387 C260.584,205.823 254.975,200.638 242.988,200.638 C231.002,200.638 225.393,205.823 218.292,212.387 C210.429,219.658 201.515,227.897 184.013,227.897 C166.514,227.897 157.603,219.658 149.739,212.387 C142.639,205.823 137.031,200.638 125.046,200.638 C113.060,200.638 107.451,205.823 100.350,212.387 C92.486,219.658 83.572,227.897 66.072,227.897 C48.571,227.897 39.657,219.658 31.792,212.387 C24.691,205.823 19.081,200.638 7.095,200.638 C3.177,200.638 -0.000,197.429 -0.000,193.472 C-0.000,189.514 3.177,186.307 7.095,186.307 C24.595,186.307 33.509,194.546 41.374,201.815 C48.475,208.381 54.085,213.566 66.072,213.566 C78.058,213.566 83.667,208.380 90.768,201.815 C98.632,194.546 107.546,186.307 125.046,186.307 C142.545,186.307 151.457,194.546 159.321,201.817 C166.421,208.380 172.028,213.566 184.013,213.566 C196.001,213.566 201.609,208.380 208.710,201.815 C216.574,194.546 225.488,186.307 242.988,186.307 C260.489,186.307 269.402,194.546 277.267,201.815 C284.368,208.380 289.978,213.566 301.964,213.566 C313.952,213.566 319.561,208.380 326.662,201.815 C334.527,194.546 343.441,186.307 360.942,186.307 C378.444,186.307 387.357,194.546 395.222,201.815 C402.324,208.380 407.932,213.566 419.919,213.566 C431.909,213.566 437.519,208.380 444.622,201.815 C452.487,194.546 461.402,186.307 478.905,186.307 C482.823,186.307 486.000,189.514 486.000,193.472 C486.000,197.429 482.823,200.638 478.905,200.638 ZM478.905,138.536 C466.915,138.536 461.305,143.722 454.202,150.287 C446.337,157.556 437.423,165.795 419.919,165.795 C402.419,165.795 393.505,157.556 385.640,150.287 C378.539,143.722 372.929,138.536 360.942,138.536 C348.955,138.536 343.345,143.722 336.243,150.285 C328.379,157.556 319.465,165.795 301.964,165.795 C284.463,165.795 275.550,157.556 267.685,150.285 C260.584,143.722 254.975,138.536 242.988,138.536 C231.002,138.536 225.393,143.722 218.292,150.285 C210.429,157.556 201.515,165.795 184.013,165.795 C166.514,165.795 157.603,157.556 149.739,150.285 C142.639,143.722 137.031,138.536 125.046,138.536 C113.060,138.536 107.451,143.722 100.350,150.285 C92.486,157.556 83.572,165.795 66.072,165.795 C48.571,165.795 39.657,157.556 31.792,150.285 C24.691,143.722 19.081,138.536 7.095,138.536 C3.177,138.536 -0.000,135.327 -0.000,131.371 C-0.000,127.413 3.177,124.205 7.095,124.205 C24.595,124.205 33.509,132.444 41.374,139.714 C48.475,146.279 54.085,151.464 66.072,151.464 C78.058,151.464 83.667,146.279 90.768,139.714 C98.632,132.444 107.546,124.205 125.046,124.205 C142.545,124.205 151.457,132.444 159.321,139.715 C166.421,146.279 172.028,151.464 184.013,151.464 C196.001,151.464 201.609,146.279 208.710,139.714 C216.574,132.444 225.488,124.205 242.988,124.205 C260.489,124.205 269.402,132.444 277.267,139.714 C284.368,146.279 289.978,151.464 301.964,151.464 C313.952,151.464 319.561,146.279 326.662,139.714 C334.527,132.444 343.441,124.205 360.942,124.205 C378.444,124.205 387.357,132.444 395.222,139.714 C402.324,146.279 407.932,151.464 419.919,151.464 C431.909,151.464 437.519,146.279 444.622,139.714 C452.487,132.444 461.402,124.205 478.905,124.205 C482.823,124.205 486.000,127.413 486.000,131.371 C486.000,135.327 482.823,138.536 478.905,138.536 ZM478.905,76.433 C466.915,76.433 461.305,81.619 454.202,88.184 C446.337,95.453 437.423,103.693 419.919,103.693 C402.419,103.693 393.505,95.453 385.640,88.184 C378.539,81.619 372.929,76.433 360.942,76.433 C348.955,76.433 343.345,81.619 336.243,88.184 C328.379,95.453 319.465,103.693 301.964,103.693 C284.463,103.693 275.550,95.453 267.685,88.184 C260.584,81.619 254.975,76.433 242.988,76.433 C231.002,76.433 225.393,81.619 218.292,88.184 C210.429,95.453 201.515,103.693 184.013,103.693 C166.514,103.693 157.603,95.453 149.739,88.184 C142.639,81.619 137.031,76.433 125.046,76.433 C113.060,76.433 107.451,81.619 100.350,88.184 C92.486,95.453 83.572,103.693 66.072,103.693 C48.571,103.693 39.657,95.453 31.792,88.184 C24.691,81.619 19.082,76.433 7.095,76.433 C3.177,76.433 -0.000,73.226 -0.000,69.268 C-0.000,65.311 3.177,62.102 7.095,62.102 C24.595,62.102 33.509,70.341 41.374,77.611 C48.475,84.176 54.085,89.361 66.072,89.361 C78.058,89.361 83.667,84.176 90.768,77.612 C98.632,70.341 107.546,62.102 125.046,62.102 C142.545,62.102 151.457,70.343 159.321,77.612 C166.421,84.177 172.028,89.361 184.013,89.361 C196.001,89.361 201.609,84.176 208.710,77.612 C216.574,70.341 225.488,62.102 242.988,62.102 C260.489,62.102 269.402,70.341 277.267,77.612 C284.368,84.176 289.978,89.361 301.964,89.361 C313.952,89.361 319.561,84.176 326.662,77.612 C334.527,70.341 343.441,62.102 360.942,62.102 C378.444,62.102 387.357,70.341 395.222,77.612 C402.324,84.176 407.932,89.361 419.919,89.361 C431.909,89.361 437.519,84.176 444.622,77.611 C452.487,70.341 461.402,62.102 478.905,62.102 C482.823,62.102 486.000,65.311 486.000,69.268 C486.000,73.226 482.823,76.433 478.905,76.433 ZM478.905,14.332 C466.915,14.332 461.305,19.517 454.202,26.082 C446.337,33.351 437.423,41.591 419.919,41.591 C402.419,41.591 393.505,33.351 385.640,26.082 C378.539,19.517 372.929,14.332 360.942,14.332 C348.955,14.332 343.345,19.517 336.243,26.082 C328.379,33.351 319.465,41.591 301.964,41.591 C284.463,41.591 275.550,33.351 267.685,26.082 C260.584,19.517 254.975,14.332 242.988,14.332 C231.002,14.332 225.393,19.517 218.292,26.082 C210.429,33.351 201.515,41.591 184.013,41.591 C166.514,41.591 157.603,33.351 149.739,26.082 C142.639,19.517 137.031,14.332 125.046,14.332 C113.060,14.332 107.451,19.517 100.350,26.082 C92.486,33.351 83.572,41.591 66.072,41.591 C48.571,41.591 39.657,33.351 31.792,26.082 C24.691,19.517 19.082,14.332 7.095,14.332 C3.177,14.332 -0.000,11.124 -0.000,7.166 C-0.000,3.209 3.177,0.001 7.095,0.001 C24.595,0.001 33.509,8.240 41.374,15.509 C48.475,22.074 54.085,27.260 66.072,27.260 C78.058,27.260 83.667,22.074 90.768,15.511 C98.632,8.240 107.546,0.001 125.046,0.001 C142.545,0.001 151.457,8.241 159.321,15.511 C166.421,22.075 172.028,27.260 184.013,27.260 C196.001,27.260 201.609,22.074 208.710,15.511 C216.574,8.240 225.488,0.001 242.988,0.001 C260.489,0.001 269.402,8.240 277.267,15.511 C284.368,22.074 289.978,27.260 301.964,27.260 C313.952,27.260 319.561,22.074 326.662,15.511 C334.527,8.240 343.441,0.001 360.942,0.001 C378.444,0.001 387.357,8.240 395.222,15.511 C402.324,22.074 407.932,27.260 419.919,27.260 C431.909,27.260 437.519,22.074 444.622,15.509 C452.487,8.240 461.402,0.001 478.905,0.001 C482.823,0.001 486.000,3.209 486.000,7.166 C486.000,11.124 482.823,14.332 478.905,14.332 ZM7.095,248.408 C24.595,248.408 33.509,256.648 41.374,263.917 C48.475,270.482 54.085,275.668 66.072,275.668 C78.058,275.668 83.667,270.482 90.768,263.917 C98.632,256.648 107.546,248.408 125.046,248.408 C142.545,248.408 151.457,256.648 159.321,263.918 C166.421,270.482 172.028,275.668 184.013,275.668 C196.001,275.668 201.609,270.482 208.710,263.917 C216.574,256.648 225.488,248.408 242.988,248.408 C260.489,248.408 269.402,256.648 277.267,263.917 C284.368,270.482 289.978,275.668 301.964,275.668 C313.952,275.668 319.561,270.482 326.662,263.917 C334.527,256.648 343.441,248.408 360.942,248.408 C378.444,248.408 387.357,256.648 395.222,263.917 C402.324,270.482 407.932,275.668 419.919,275.668 C431.909,275.668 437.519,270.482 444.622,263.917 C452.487,256.648 461.402,248.408 478.905,248.408 C482.823,248.408 486.000,251.615 486.000,255.574 C486.000,259.530 482.823,262.740 478.905,262.740 C466.915,262.740 461.305,267.925 454.202,274.490 C446.337,281.760 437.423,289.999 419.919,289.999 C402.419,289.999 393.505,281.760 385.640,274.490 C378.539,267.925 372.929,262.740 360.942,262.740 C348.955,262.740 343.345,267.925 336.243,274.489 C328.379,281.760 319.465,289.999 301.964,289.999 C284.463,289.999 275.550,281.760 267.685,274.489 C260.584,267.925 254.975,262.740 242.988,262.740 C231.002,262.740 225.393,267.925 218.292,274.489 C210.429,281.760 201.515,289.999 184.013,289.999 C166.514,289.999 157.603,281.760 149.739,274.489 C142.639,267.925 137.031,262.740 125.046,262.740 C113.060,262.740 107.451,267.925 100.350,274.489 C92.486,281.760 83.572,289.999 66.072,289.999 C48.571,289.999 39.657,281.760 31.792,274.489 C24.691,267.925 19.081,262.740 7.095,262.740 C3.177,262.740 -0.000,259.530 -0.000,255.574 C-0.000,251.615 3.177,248.408 7.095,248.408 Z"/>
</svg>