<svg 
 xmlns="http://www.w3.org/2000/svg"
 xmlns:xlink="http://www.w3.org/1999/xlink"
 width="324px" height="96px">
<path fill-rule="evenodd"  fill="rgb(255, 255, 255)"
 d="M262.701,49.261 L278.773,9.401 L302.853,9.401 L323.983,61.809 C305.893,56.764 287.976,51.640 262.701,49.261 ZM292.582,34.258 C291.821,31.787 291.151,29.016 290.813,26.397 C290.474,29.016 289.804,31.787 289.044,34.258 L286.433,42.343 L295.105,42.343 L292.582,34.258 ZM277.107,94.556 L269.402,94.556 L265.773,82.788 L261.825,94.556 L259.787,94.556 L256.158,88.414 L261.825,75.278 L269.530,75.278 L277.107,94.556 ZM273.286,75.278 L280.354,75.278 L283.152,82.758 L284.875,75.278 L291.497,75.278 L291.497,80.952 L284.811,94.556 L277.107,94.556 L279.845,89.053 L273.286,75.278 ZM258.798,94.556 L250.452,94.556 L246.677,88.082 L245.878,88.082 L245.878,94.556 L238.272,94.556 L238.272,75.278 L245.878,75.278 L245.878,81.748 L246.905,81.748 L250.452,75.278 L258.798,75.278 L252.881,84.945 L258.798,94.556 ZM234.585,44.214 L222.797,44.214 L222.797,47.991 C215.629,48.143 207.967,48.480 199.741,49.028 L199.741,9.401 L222.797,9.401 L222.797,26.995 L234.585,26.995 L234.585,9.401 L257.641,9.401 L257.641,48.829 C250.575,48.289 242.934,47.963 234.585,47.902 L234.585,44.214 ZM167.853,26.621 L160.319,52.815 C153.280,53.670 145.945,54.635 138.216,55.748 L156.396,9.401 L179.043,9.401 L195.929,49.301 C189.599,49.762 182.981,50.333 175.964,51.051 L167.853,26.621 ZM63.447,60.461 C56.612,54.093 53.157,45.380 53.157,35.604 C53.157,15.626 67.489,0.013 95.927,0.013 C124.366,0.013 138.811,15.626 138.811,35.604 C138.811,43.527 136.502,50.739 131.988,56.587 C104.503,60.229 81.857,61.135 63.447,60.461 ZM118.096,35.495 C117.830,32.294 117.430,28.057 109.903,23.224 C102.376,18.391 100.178,16.471 100.911,14.551 C101.644,12.631 104.441,9.747 105.773,9.401 C107.106,9.056 106.639,7.665 104.708,7.798 C102.776,7.931 96.049,6.739 90.187,15.280 C90.187,15.280 67.007,13.691 73.535,31.368 C73.535,31.368 74.068,31.897 73.135,32.426 C72.203,32.956 69.405,35.737 70.204,36.929 C71.004,38.120 73.535,39.643 77.198,36.266 C77.198,36.266 78.064,36.200 77.731,36.796 C77.398,37.392 75.933,38.650 76.466,39.312 C76.998,39.974 77.465,39.974 78.797,39.312 C80.129,38.650 87.323,32.691 90.187,33.486 C93.051,34.280 96.914,38.319 97.580,39.312 C98.247,40.305 101.044,41.696 100.977,40.703 C100.911,39.709 96.848,33.221 99.712,32.625 C102.576,32.029 112.168,33.552 112.434,39.378 C112.701,45.204 104.175,42.158 104.175,42.158 C104.175,42.158 98.113,40.703 98.979,45.932 C98.979,45.932 99.379,44.145 101.510,45.469 C103.642,46.792 107.239,48.580 110.103,46.462 C110.103,46.462 107.705,48.117 108.704,49.839 C109.703,51.559 111.635,52.685 110.902,55.664 C110.902,55.664 112.900,56.459 114.033,53.148 C115.165,49.839 114.033,46.594 113.100,45.072 C113.100,45.072 112.900,44.476 113.633,43.813 C114.366,43.151 118.362,38.696 118.096,35.495 ZM43.500,59.003 C21.152,56.469 7.358,51.592 -0.001,48.170 L-0.001,9.401 L29.137,9.401 C41.579,9.401 48.458,13.443 48.458,22.652 C48.458,27.743 46.835,31.562 40.961,33.883 C47.762,35.905 50.621,40.396 50.621,46.610 C50.621,52.869 47.870,56.732 43.500,59.003 ZM24.616,21.999 L19.982,21.999 L19.982,28.357 L24.616,28.357 C26.863,28.357 27.704,26.692 27.704,25.177 C27.704,23.665 26.863,21.999 24.616,21.999 ZM26.673,40.371 L19.982,40.371 L19.982,48.415 L26.673,48.415 C29.629,48.415 30.672,46.449 30.672,44.393 C30.672,42.339 29.629,40.371 26.673,40.371 ZM29.416,75.278 L33.836,87.155 L33.836,94.556 L28.900,94.556 L28.243,92.352 L22.411,92.352 L21.753,94.556 L14.063,94.556 L21.240,75.278 L29.416,75.278 ZM26.785,87.393 L25.928,84.420 C25.670,83.511 25.442,82.493 25.327,81.528 C25.213,82.493 24.984,83.511 24.728,84.420 L23.841,87.393 L26.785,87.393 ZM42.122,81.748 L43.152,81.748 L46.696,75.278 L55.045,75.278 L49.127,84.945 L55.045,94.556 L46.696,94.556 L42.923,88.082 L42.122,88.082 L42.122,94.556 L34.518,94.556 L34.518,75.278 L42.122,75.278 L42.122,81.748 ZM65.823,75.278 C70.425,75.278 72.970,76.764 72.970,80.150 C72.970,82.024 72.370,83.427 70.197,84.283 C72.712,85.025 73.771,86.679 73.771,88.963 C73.771,93.345 70.112,94.556 65.594,94.556 L55.045,94.556 L55.045,75.278 L65.823,75.278 ZM62.649,89.323 L64.851,89.323 C65.823,89.323 66.167,88.715 66.167,88.082 C66.167,87.449 65.823,86.844 64.851,86.844 L62.649,86.844 L62.649,89.323 ZM62.649,82.769 L64.537,82.769 C65.452,82.769 65.795,82.161 65.795,81.612 C65.795,81.059 65.452,80.454 64.537,80.454 L62.649,80.454 L62.649,82.769 ZM74.735,89.065 C74.735,87.846 74.634,86.882 74.001,86.046 L78.010,75.278 L86.185,75.278 L93.360,94.556 L85.670,94.556 L85.013,92.352 L79.180,92.352 L78.523,94.556 L70.833,94.556 L70.886,94.413 C73.486,93.694 74.735,92.037 74.735,89.065 ZM83.555,87.393 L82.698,84.420 C82.440,83.511 82.212,82.493 82.097,81.528 C81.983,82.493 81.753,83.511 81.497,84.420 L80.611,87.393 L83.555,87.393 ZM117.612,76.376 L117.612,73.844 L124.359,73.844 L124.359,76.376 C128.096,76.688 130.869,78.025 132.417,80.204 L132.417,89.627 C130.869,91.805 128.096,93.142 124.359,93.454 L124.359,95.989 L117.612,95.989 L117.612,93.454 C111.666,92.957 108.150,89.873 108.150,84.917 C108.150,79.958 111.666,76.873 117.612,76.376 ZM124.216,87.753 C125.903,87.477 126.389,86.211 126.389,84.917 C126.389,83.623 125.903,82.353 124.216,82.080 L124.216,87.753 ZM117.756,87.753 L117.756,82.080 C116.068,82.353 115.583,83.623 115.583,84.917 C115.583,86.211 116.068,87.477 117.756,87.753 ZM141.016,79.408 C141.016,80.426 141.016,81.419 140.817,82.769 L146.763,75.278 L152.795,75.278 L152.795,94.556 L145.191,94.556 L145.191,90.425 C145.191,89.404 145.191,88.414 145.391,87.064 L139.444,94.556 L133.412,94.556 L133.412,75.278 L141.016,75.278 L141.016,79.408 ZM169.851,81.612 L165.546,81.612 L165.546,94.556 L157.942,94.556 L157.942,81.612 L153.998,81.612 L153.998,75.278 L169.851,75.278 L169.851,81.612 ZM179.168,81.748 L183.057,81.748 L183.057,75.278 L190.661,75.278 L190.661,94.556 L183.057,94.556 L183.057,88.082 L179.168,88.082 L179.168,94.556 L171.564,94.556 L171.564,75.278 L179.168,75.278 L179.168,81.748 ZM207.669,80.935 L199.398,80.783 L199.398,82.437 L207.689,82.437 L207.689,87.340 L199.398,87.340 L199.398,88.991 L207.689,88.991 L207.689,94.556 L191.793,94.556 L191.793,75.278 L207.669,75.429 L207.669,80.935 ZM219.341,74.456 C224.586,74.456 228.900,78.282 229.698,83.272 L221.919,83.272 C221.364,82.416 220.442,81.816 219.341,81.816 C217.618,81.816 216.221,83.204 216.221,84.917 C216.221,86.630 217.618,88.018 219.341,88.018 C220.848,88.018 222.046,86.935 222.338,85.523 L229.804,85.523 C229.482,91.012 224.945,95.377 219.341,95.377 C213.529,95.377 208.817,90.693 208.817,84.917 C208.817,79.140 213.529,74.456 219.341,74.456 ZM309.637,80.783 L300.945,80.783 L300.945,82.273 L303.574,82.273 C307.349,82.273 311.323,83.290 311.323,88.414 C311.323,93.538 307.349,94.556 303.574,94.556 L293.342,94.556 L293.342,75.278 L309.637,75.278 L309.637,80.783 ZM300.945,89.764 L302.147,89.764 C303.202,89.764 303.889,89.460 303.889,88.414 C303.889,87.368 303.202,87.064 302.147,87.064 L300.945,87.064 L300.945,89.764 Z"/>
</svg>